<?xml version="1.0" standalone="no"?>
<!DOCTYPE svg PUBLIC "-//W3C//DTD SVG 20010904//EN"
 "http://www.w3.org/TR/2001/REC-SVG-20010904/DTD/svg10.dtd">
<svg version="1.0" xmlns="http://www.w3.org/2000/svg"
 width="700.000000pt" height="700.000000pt" viewBox="0 0 700.000000 700.000000"
 preserveAspectRatio="xMidYMid meet">
<metadata>
Created by potrace 1.11, written by Peter Selinger 2001-2013
</metadata>
<g transform="translate(0.000000,700.000000) scale(0.100000,-0.100000)"
fill="#000000" stroke="none">
<path d="M6677 6604 c-2 -2 -54 -6 -117 -9 -63 -3 -153 -7 -200 -10 -47 -3
-139 -7 -205 -10 -66 -3 -154 -8 -195 -10 -112 -7 -242 -14 -365 -21 -218 -11
-255 -19 -375 -80 -116 -59 -204 -161 -236 -273 -9 -31 -31 -87 -49 -126 -44
-92 -79 -187 -95 -255 -11 -48 -46 -125 -70 -155 -24 -31 -55 -154 -65 -265
-12 -131 -16 -160 -30 -212 -25 -96 -66 -169 -130 -234 -50 -51 -87 -75 -230
-147 -237 -121 -309 -186 -416 -377 -69 -123 -127 -199 -194 -254 -117 -95
-88 -84 -1255 -466 -305 -100 -627 -206 -715 -235 -413 -136 -503 -164 -539
-168 -48 -6 -57 -15 -63 -63 -7 -53 -16 -66 -55 -86 -77 -40 -711 -293 -795
-318 -92 -27 -186 -76 -225 -117 -15 -16 -21 -37 -22 -80 -3 -99 -13 -95 202
-89 174 5 220 8 297 21 17 2 48 7 70 10 22 3 99 17 170 32 72 14 139 27 150
29 20 3 231 51 270 60 11 3 31 7 45 10 13 3 63 14 110 25 47 11 94 22 105 25
11 2 70 15 130 30 61 14 117 27 125 29 8 2 33 8 55 13 70 19 90 20 120 7 l30
-12 -25 -11 c-122 -51 -274 -104 -635 -221 -280 -91 -440 -149 -690 -249 -187
-74 -249 -101 -416 -181 -36 -17 -75 -31 -87 -31 -22 0 -30 -20 -24 -57 4 -19
8 -20 35 -12 18 5 53 9 79 9 38 0 54 -6 80 -29 38 -32 80 -55 123 -65 33 -8
156 -9 195 -1 13 2 42 7 64 11 22 3 63 14 90 25 74 28 101 25 142 -15 30 -30
39 -33 67 -26 41 10 94 28 134 46 17 8 35 14 40 14 5 0 43 20 86 44 73 42 166
80 174 72 2 -2 5 -41 6 -87 l2 -84 29 3 c16 2 76 26 135 54 97 46 282 127 339
149 20 8 18 3 -15 -38 -21 -26 -43 -54 -50 -63 -323 -410 -428 -533 -521 -610
-37 -30 -132 -156 -132 -174 0 -4 -25 -57 -55 -118 -37 -74 -52 -115 -45 -122
6 -6 15 -5 27 6 21 17 190 157 213 175 45 37 261 200 300 228 312 218 495 332
965 595 22 12 132 74 245 138 113 63 218 122 235 130 22 12 71 16 200 18 l170
2 27 -57 c30 -64 49 -76 123 -80 27 -1 51 -3 52 -5 2 -2 -12 -36 -31 -77 -54
-115 -66 -168 -62 -272 2 -51 6 -101 9 -113 48 -193 129 -329 270 -457 193
-173 308 -302 429 -484 57 -85 85 -140 75 -149 -8 -9 -194 -8 -257 1 -30 4
-84 18 -119 31 -90 34 -123 32 -165 -11 -20 -19 -41 -45 -47 -57 l-12 -21 35
20 c50 29 101 24 168 -18 60 -37 49 -36 310 -30 118 3 177 -2 268 -25 64 -16
179 -59 197 -74 17 -14 167 -71 173 -66 2 3 -1 18 -7 34 -14 34 -70 67 -173
103 -38 13 -68 27 -68 31 0 10 265 7 330 -4 95 -16 212 -12 272 11 24 9 20 10
-92 26 -143 20 -364 56 -368 59 -2 3 20 17 50 32 29 16 62 33 73 39 11 6 20
17 20 25 0 17 -54 22 -95 9 -14 -5 -38 -10 -55 -12 -16 -3 -75 -12 -131 -22
-122 -22 -162 -16 -203 28 -16 18 -118 151 -225 297 -108 146 -204 276 -213
289 -46 61 -48 117 -8 281 10 41 20 123 30 235 3 39 8 88 11 110 15 140 57
200 161 231 24 7 66 29 91 47 102 74 143 83 234 49 31 -11 84 -22 119 -23 35
-1 79 -6 97 -11 37 -10 80 -49 87 -81 19 -81 33 -199 34 -301 3 -172 24 -253
91 -351 17 -24 105 -117 196 -207 189 -185 247 -254 363 -423 l82 -120 -28
-11 c-15 -7 -37 -10 -47 -8 -11 2 -38 6 -61 9 -22 4 -89 17 -149 31 -161 36
-221 30 -273 -27 l-22 -24 72 -1 c57 0 84 -6 129 -27 56 -27 61 -27 235 -25
241 2 304 -10 483 -92 120 -55 150 -65 150 -51 0 24 -60 76 -120 105 -36 18
-77 40 -90 49 -24 18 -23 18 65 12 101 -6 177 -14 248 -25 61 -9 158 -2 173
13 4 4 17 7 28 8 29 1 -20 15 -81 24 -26 3 -49 8 -52 10 -4 2 -60 13 -126 25
-66 12 -127 24 -135 25 -8 2 -17 4 -20 4 -3 1 22 17 55 37 33 20 62 38 65 41
11 11 -180 -7 -255 -25 -86 -20 -122 -16 -157 15 -36 32 -401 525 -428 577
-47 90 -61 168 -48 255 5 31 11 115 13 186 5 191 45 308 203 595 199 361 403
667 731 1095 153 200 163 216 217 345 31 74 72 158 91 187 31 47 34 59 35 125
1 91 -14 152 -57 244 -53 113 -116 404 -130 599 -10 133 -45 220 -130 325
-160 199 -169 306 -36 470 82 102 121 129 376 260 464 238 503 263 492 319
-15 75 -119 136 -246 145 -17 1 -33 1 -34 0z"/>
</g>
</svg>
