<?xml version="1.0" encoding="utf-8"?>
<!-- Generator: Adobe Illustrator 16.0.4, SVG Export Plug-In . SVG Version: 6.00 Build 0)  -->
<!DOCTYPE svg PUBLIC "-//W3C//DTD SVG 1.1//EN" "http://www.w3.org/Graphics/SVG/1.1/DTD/svg11.dtd">
<svg version="1.1" id="Layer_1" xmlns="http://www.w3.org/2000/svg" xmlns:xlink="http://www.w3.org/1999/xlink" x="0px" y="0px"
	 width="100px" height="100px" viewBox="0 0 100 100" enable-background="new 0 0 100 100" xml:space="preserve">
<g>
	<path d="M88.491,46.437L53.562,11.51c-2.012-2.012-5.273-2.012-7.287,0l-7.252,7.254l9.2,9.2c2.138-0.722,4.591-0.237,6.294,1.467
		c1.715,1.715,2.194,4.188,1.454,6.333l8.868,8.867c2.146-0.74,4.62-0.262,6.334,1.455c2.395,2.394,2.395,6.273,0,8.669
		c-2.396,2.396-6.276,2.396-8.672,0c-1.801-1.802-2.247-4.448-1.334-6.667l-8.271-8.27V61.58c0.583,0.289,1.134,0.674,1.62,1.159
		c2.395,2.394,2.395,6.273,0,8.671c-2.394,2.394-6.276,2.394-8.669,0c-2.394-2.397-2.394-6.277,0-8.671
		c0.592-0.592,1.277-1.038,2.008-1.338V39.438c-0.731-0.299-1.415-0.743-2.008-1.338c-1.813-1.813-2.25-4.475-1.319-6.702
		l-9.07-9.071L11.508,46.275c-2.011,2.014-2.011,5.275,0,7.288L46.439,88.49c2.011,2.012,5.272,2.012,7.287,0l34.766-34.766
		C90.503,51.712,90.503,48.449,88.491,46.437z"/>
</g>
</svg>
