<?xml version="1.0" encoding="utf-8"?>
<!-- Generator: Adobe Illustrator 16.0.4, SVG Export Plug-In . SVG Version: 6.00 Build 0)  -->
<!DOCTYPE svg PUBLIC "-//W3C//DTD SVG 1.1//EN" "http://www.w3.org/Graphics/SVG/1.1/DTD/svg11.dtd">
<svg version="1.1" id="Layer_1" xmlns="http://www.w3.org/2000/svg" xmlns:xlink="http://www.w3.org/1999/xlink" x="0px" y="0px"
	 width="45px" height="100px" viewBox="0 0 45 100" enable-background="new 0 0 45 100" xml:space="preserve">
<g>
	<path id="cup-end" d="M22.279,76.02c-5.272,0-9.347-0.792-11.307-1.265c-1.34-0.322-2.416-0.657-3.232-0.999l2.613,4.466
		l1.023,13.949c0,1.562,4.967,2.83,11.095,2.83s11.098-1.268,11.098-2.83l0.809-14.103l2.473-4.324
		c-0.82,0.347-1.907,0.685-3.264,1.011C31.626,75.228,27.552,76.02,22.279,76.02z"/>
	<path id="cup-main" d="M36.934,30.627c-3.87,0.542-9.006,0.838-14.463,0.838c-5.456,0-10.592-0.298-14.463-0.838
		c-1.917-0.268-3.434-0.583-4.508-0.938c-0.256-0.084-0.69-0.229-1.108-0.459l2.398,22.067c0.112-0.379,0.235-0.76,0.374-1.137
		c0.282-0.775,0.607-1.533,0.978-2.272c0.37-0.74,0.772-1.44,1.207-2.099c0.435-0.659,0.897-1.265,1.389-1.82
		c0.491-0.554,0.995-1.031,1.511-1.43c0.517-0.399,1.039-0.711,1.565-0.936c0.527-0.225,1.049-0.337,1.565-0.337
		c0.595,0,1.172,0.162,1.728,0.489c0.556,0.326,1.076,0.853,1.561,1.581c0.111,0.164,0.181,0.328,0.211,0.495
		c0.029,0.167,0.043,0.324,0.043,0.47c0,0.348-0.083,0.625-0.25,0.826c-0.167,0.202-0.365,0.303-0.594,0.303
		c-0.21,0-0.405-0.111-0.583-0.333c-0.18-0.221-0.381-0.537-0.604-0.947c-0.209-0.372-0.44-0.641-0.692-0.809
		c-0.252-0.167-0.525-0.25-0.82-0.25c-0.458,0-0.947,0.189-1.467,0.569c-0.521,0.38-1.036,0.882-1.547,1.505
		c-0.511,0.625-1,1.337-1.467,2.139c-0.467,0.802-0.883,1.624-1.242,2.465c-0.36,0.84-0.646,1.67-0.859,2.489
		c-0.212,0.817-0.319,1.552-0.319,2.202c0,0.217,0.015,0.439,0.044,0.668c0.03,0.229,0.084,0.436,0.167,0.622
		c0.082,0.186,0.193,0.339,0.334,0.459c0.141,0.121,0.319,0.181,0.535,0.181c0.243,0,0.517-0.082,0.826-0.245
		c0.308-0.163,0.626-0.375,0.957-0.64c0.331-0.264,0.663-0.562,0.997-0.895c0.334-0.333,0.644-0.67,0.932-1.012
		s0.543-0.668,0.765-0.981c0.223-0.314,0.39-0.588,0.501-0.82l0.913-2.732c0.111-0.295,0.256-0.504,0.437-0.628
		c0.179-0.125,0.363-0.187,0.554-0.187c0.091,0,0.184,0.016,0.275,0.046c0.092,0.031,0.173,0.079,0.245,0.146
		c0.072,0.066,0.13,0.151,0.172,0.255c0.042,0.105,0.063,0.227,0.063,0.366c0,0.372-0.032,0.72-0.098,1.047
		c-0.065,0.325-0.149,0.643-0.25,0.954c-0.102,0.311-0.215,0.62-0.338,0.935c-0.124,0.313-0.246,0.643-0.363,0.984
		c-0.026,0.037-0.074,0.158-0.143,0.365c-0.069,0.206-0.151,0.463-0.25,0.771c-0.098,0.312-0.205,0.658-0.32,1.04
		c-0.115,0.384-0.233,0.775-0.354,1.175c-0.121,0.399-0.237,0.791-0.349,1.176c-0.111,0.384-0.211,0.731-0.299,1.039
		c-0.089,0.311-0.162,0.569-0.221,0.779c-0.059,0.208-0.094,0.334-0.108,0.373c-0.034,0.122-0.086,0.262-0.157,0.412
		c-0.072,0.15-0.157,0.294-0.255,0.431c-0.098,0.135-0.207,0.248-0.324,0.337c-0.119,0.089-0.239,0.133-0.363,0.133
		c-0.209,0-0.362-0.069-0.457-0.209c-0.095-0.139-0.143-0.395-0.143-0.767c0-0.057,0-0.109,0-0.164s0.004-0.112,0.01-0.173
		c0.006-0.126,0.056-0.357,0.148-0.697c0.092-0.34,0.201-0.728,0.328-1.157c0.128-0.431,0.265-0.876,0.412-1.337
		c0.147-0.461,0.28-0.874,0.397-1.238c-0.347,0.388-0.723,0.772-1.128,1.157c-0.406,0.383-0.821,0.73-1.247,1.033
		c-0.425,0.307-0.854,0.557-1.285,0.751c-0.433,0.193-0.847,0.29-1.248,0.29c-0.457,0-0.853-0.102-1.183-0.303
		c-0.061-0.036-0.116-0.077-0.172-0.118l1.334,13.99c0.348,0.87,6.886,3.009,15.508,3.009c8.627,0,15.168-2.141,15.51-3.011
		l1.915-16.633c-0.158,0.146-0.313,0.289-0.46,0.425c-0.551,0.513-1.069,0.953-1.558,1.321c-0.487,0.367-0.962,0.653-1.428,0.854
		c-0.465,0.203-0.962,0.303-1.493,0.303c-0.497,0-0.881-0.108-1.151-0.326c-0.271-0.215-0.407-0.513-0.407-0.896
		c0-0.03,0-0.058,0-0.086s0.003-0.061,0.01-0.099c0.025-0.233,0.128-0.501,0.304-0.803c0.178-0.303,0.39-0.616,0.639-0.942
		c0.246-0.326,0.514-0.655,0.794-0.988c0.283-0.332,0.543-0.648,0.782-0.948c0.238-0.298,0.436-0.571,0.593-0.818
		c0.157-0.248,0.235-0.45,0.235-0.605c0-0.094-0.032-0.167-0.097-0.221c-0.066-0.053-0.174-0.08-0.323-0.08
		c-0.263,0-0.533,0.066-0.81,0.203c-0.278,0.137-0.553,0.318-0.826,0.547c-0.271,0.228-0.536,0.49-0.795,0.782
		c-0.257,0.297-0.5,0.604-0.726,0.92c-0.227,0.319-0.432,0.639-0.619,0.959c-0.187,0.32-0.345,0.618-0.476,0.889
		c-0.039,0.086-0.095,0.207-0.167,0.36c-0.072,0.155-0.152,0.33-0.236,0.523c-0.085,0.194-0.175,0.395-0.271,0.598
		c-0.095,0.207-0.182,0.4-0.259,0.583c-0.08,0.182-0.149,0.344-0.211,0.487c-0.063,0.144-0.107,0.244-0.133,0.298
		c-0.033,0.068-0.088,0.2-0.161,0.395c-0.076,0.195-0.163,0.421-0.261,0.682c-0.098,0.259-0.201,0.532-0.311,0.818
		c-0.105,0.286-0.208,0.558-0.303,0.814c-0.096,0.254-0.179,0.479-0.251,0.674c-0.071,0.192-0.118,0.326-0.138,0.395
		c-0.065,0.203-0.142,0.393-0.229,0.571c-0.089,0.178-0.191,0.335-0.305,0.471c-0.115,0.135-0.245,0.243-0.393,0.324
		c-0.147,0.082-0.313,0.123-0.496,0.123c-0.235,0-0.433-0.057-0.584-0.169c-0.154-0.113-0.23-0.328-0.23-0.646
		c0-0.154,0.019-0.313,0.058-0.477s0.089-0.323,0.148-0.481c0.059-0.16,0.12-0.313,0.181-0.465s0.12-0.298,0.172-0.436
		c0.353-0.775,0.714-1.552,1.079-2.332c0.366-0.778,0.718-1.55,1.055-2.314c0.07-0.157,0.134-0.314,0.204-0.473
		c-0.021,0.021-0.042,0.043-0.062,0.061c-0.425,0.411-0.848,0.773-1.271,1.087c-0.422,0.315-0.842,0.565-1.256,0.751
		c-0.416,0.185-0.819,0.278-1.213,0.278c-0.269,0-0.493-0.042-0.673-0.128c-0.179-0.085-0.322-0.201-0.432-0.348
		c-0.107-0.148-0.185-0.322-0.23-0.524c-0.017-0.068-0.024-0.141-0.035-0.211c-0.114,0.09-0.229,0.175-0.348,0.258
		c-0.405,0.286-0.806,0.518-1.197,0.692c-0.393,0.174-0.747,0.261-1.061,0.261c-0.314,0-0.569-0.104-0.766-0.314
		c-0.197-0.207-0.295-0.564-0.295-1.07c0-0.357,0.053-0.771,0.157-1.242c-0.17,0.301-0.382,0.608-0.638,0.918
		c-0.255,0.31-0.547,0.594-0.874,0.849c-0.328,0.254-0.694,0.464-1.1,0.622c-0.406,0.159-0.847,0.238-1.324,0.238
		c-0.217,0-0.424-0.026-0.624-0.081c-0.2-0.056-0.375-0.148-0.525-0.28c-0.151-0.132-0.272-0.309-0.364-0.529
		c-0.091-0.22-0.137-0.498-0.137-0.831c0-0.009,0.014-0.125,0.04-0.355c0.026-0.229,0.109-0.589,0.25-1.081
		c0.141-0.491,0.358-1.129,0.653-1.911c0.294-0.784,0.71-1.732,1.247-2.849c0.137-0.295,0.295-0.506,0.475-0.634
		c0.18-0.128,0.375-0.192,0.584-0.192c0.092,0,0.188,0.014,0.285,0.041c0.098,0.027,0.189,0.069,0.274,0.128
		c0.085,0.058,0.154,0.132,0.207,0.221c0.052,0.089,0.079,0.191,0.079,0.309c0,0.077-0.01,0.151-0.03,0.22
		c-0.033,0.133-0.103,0.306-0.211,0.517c-0.108,0.215-0.233,0.458-0.378,0.733c-0.145,0.274-0.297,0.57-0.457,0.889
		c-0.161,0.318-0.31,0.647-0.447,0.987c-0.137,0.343-0.255,0.69-0.354,1.041c-0.098,0.354-0.154,0.695-0.167,1.03
		c0,0.139,0.033,0.266,0.097,0.384c0.065,0.116,0.174,0.173,0.324,0.173c0.425,0,0.831-0.14,1.217-0.418
		c0.387-0.28,0.743-0.625,1.07-1.041c0.328-0.414,0.623-0.859,0.889-1.337c0.266-0.475,0.486-0.912,0.663-1.308
		c0.124-0.262,0.234-0.547,0.329-0.849c0.095-0.303,0.198-0.58,0.31-0.836s0.238-0.469,0.382-0.64
		c0.145-0.17,0.325-0.256,0.54-0.256c0.236,0,0.421,0.089,0.561,0.268c0.137,0.179,0.206,0.392,0.206,0.64
		c0,0.138-0.044,0.329-0.132,0.574c-0.089,0.245-0.2,0.524-0.335,0.837c-0.133,0.315-0.279,0.65-0.436,1.007
		c-0.157,0.355-0.302,0.719-0.437,1.087c-0.134,0.367-0.245,0.729-0.334,1.081s-0.132,0.681-0.132,0.982
		c0,0.278,0.144,0.419,0.432,0.419c0.203,0,0.457-0.071,0.756-0.209c0.301-0.14,0.617-0.337,0.947-0.587
		c0.083-0.063,0.166-0.129,0.248-0.197c0.093-0.381,0.2-0.732,0.327-1.052c0.228-0.606,0.46-1.206,0.695-1.803
		c0.234-0.598,0.451-1.145,0.648-1.641l2.978-7.493c0.118-0.302,0.276-0.515,0.475-0.64c0.201-0.124,0.401-0.186,0.604-0.186
		c0.204,0,0.387,0.065,0.554,0.197s0.251,0.345,0.251,0.64c0,0.139-0.028,0.287-0.085,0.441c-0.054,0.155-0.124,0.321-0.21,0.5
		c-0.164,0.365-0.357,0.811-0.583,1.337s-0.468,1.101-0.727,1.721c-0.259,0.621-0.523,1.265-0.795,1.936
		c-0.271,0.67-0.538,1.323-0.796,1.959c-0.259,0.635-0.501,1.238-0.727,1.808s-0.421,1.065-0.584,1.483
		c-0.071,0.178-0.142,0.387-0.211,0.622c-0.066,0.235-0.102,0.447-0.102,0.633c0,0.116,0.02,0.209,0.058,0.279
		c0.039,0.069,0.115,0.104,0.226,0.104c0.138,0,0.311-0.048,0.515-0.145c0.206-0.097,0.431-0.226,0.669-0.385
		c0.239-0.158,0.485-0.341,0.744-0.546c0.26-0.206,0.517-0.419,0.771-0.64c0.257-0.221,0.5-0.441,0.731-0.662
		c0.234-0.22,0.44-0.425,0.624-0.61c0.043-0.044,0.093-0.075,0.15-0.101c0.111-0.327,0.211-0.651,0.301-0.968
		c0.053-0.141,0.125-0.338,0.216-0.593c0.092-0.256,0.197-0.508,0.315-0.758c0.117-0.247,0.249-0.462,0.396-0.645
		c0.146-0.181,0.307-0.273,0.477-0.273c0.263,0,0.451,0.06,0.569,0.18c0.116,0.12,0.175,0.296,0.175,0.529
		c0,0.046-0.007,0.12-0.019,0.22c-0.014,0.101-0.03,0.207-0.049,0.319c-0.02,0.112-0.041,0.22-0.062,0.32
		c-0.024,0.099-0.045,0.173-0.064,0.221c0.241-0.265,0.504-0.525,0.785-0.786c0.28-0.258,0.572-0.493,0.873-0.702
		c0.301-0.208,0.607-0.38,0.921-0.512c0.315-0.131,0.63-0.198,0.944-0.198c0.216,0,0.431,0.031,0.643,0.094
		c0.211,0.062,0.403,0.153,0.568,0.273c0.17,0.121,0.305,0.272,0.408,0.454c0.104,0.181,0.158,0.394,0.158,0.632
		c0,0.318-0.081,0.657-0.242,1.019c-0.16,0.359-0.361,0.722-0.603,1.085c-0.243,0.366-0.505,0.721-0.786,1.065
		c-0.281,0.346-0.545,0.658-0.791,0.941c-0.244,0.284-0.451,0.523-0.619,0.721c-0.165,0.199-0.253,0.333-0.258,0.402
		c0,0.093,0.027,0.167,0.088,0.228c0.058,0.058,0.156,0.085,0.294,0.085c0.111,0,0.275-0.061,0.492-0.186
		c0.215-0.124,0.518-0.339,0.907-0.645c0.39-0.307,0.884-0.718,1.481-1.232c0.412-0.354,0.892-0.773,1.435-1.254l2.596-24.042
		c-0.418,0.23-0.853,0.375-1.109,0.46C40.368,30.043,38.852,30.359,36.934,30.627z"/>
	<path id="cup-top" d="M22.47,24.868c-11.194,0-20.271,1.268-20.271,2.833c0,1.563,9.077,2.831,20.271,2.831
		c11.197,0,20.272-1.268,20.272-2.831C42.742,26.136,33.667,24.868,22.47,24.868z M28.155,29.203c-1.334,0-2.415-0.295-2.415-0.658
		c0-0.364,1.081-0.658,2.415-0.658s2.415,0.294,2.415,0.658C30.569,28.909,29.488,29.203,28.155,29.203z"/>
	<g id="straw">
		<g id="straw-join">
			<ellipse cx="28.155" cy="28.312" rx="1.944" ry="0.426"/>
		</g>
		<path id="straw-end" d="M42.746,7.344c-0.216,0.246-0.979-0.078-1.697-0.719c-0.721-0.642-1.212-1.293-0.979-1.526
			c0.24-0.245,1.019-0.027,1.737,0.615C42.525,6.354,42.96,7.104,42.746,7.344z"/>
		<polygon id="_x0A_straw" points="42.746,7.344 40.069,5.098 29.288,16.441 26.214,28.312 30.1,28.312 32.638,18.017 		"/>
	</g>
</g>
</svg>
