<?xml version="1.0" encoding="utf-8"?>
<!-- Generator: Adobe Illustrator 16.0.4, SVG Export Plug-In . SVG Version: 6.00 Build 0)  -->
<!DOCTYPE svg PUBLIC "-//W3C//DTD SVG 1.1//EN" "http://www.w3.org/Graphics/SVG/1.1/DTD/svg11.dtd">
<svg version="1.1" id="Layer_1" xmlns="http://www.w3.org/2000/svg" xmlns:xlink="http://www.w3.org/1999/xlink" x="0px" y="0px"
	 width="275px" height="70px" viewBox="0 0 275 70" enable-background="new 0 0 275 70" xml:space="preserve">
<g>
	<path fill="#010101" d="M102.086,32.703C101.41,31.94,92.049,20.225,90.4,18.236c-1.651-1.988-2.454-1.629-3.467-1.481
		c-1.017,0.148-12.861,2.137-14.236,2.37c-1.375,0.231-2.24,0.782-1.395,1.967c0.753,1.053,8.539,12.092,10.253,14.521
		l-30.956,7.416L25.983,1.872c-0.98-1.454-1.183-1.961-3.413-1.86C20.338,0.113,3.257,1.534,2.043,1.633
		C0.824,1.737-0.51,2.277,0.707,5.149c1.216,2.874,20.615,44.678,21.157,45.894c0.54,1.217,1.945,3.188,5.237,2.399
		c3.372-0.81,15.066-3.864,21.456-5.538c3.377,6.113,10.264,18.518,11.534,20.297c1.701,2.372,2.871,1.978,5.484,1.189
		c2.035-0.619,31.886-11.355,33.231-11.908c1.345-0.553,2.175-0.95,1.265-2.292c-0.668-0.989-8.543-11.538-12.668-17.058
		c2.827-0.752,12.871-3.426,13.942-3.718C102.595,34.078,102.762,33.464,102.086,32.703z M45.812,44.207
		c-0.367,0.087-17.706,4.229-18.632,4.441c-0.926,0.212-0.926,0.104-1.03-0.213C26.044,48.118,5.536,5.833,5.251,5.304
		c-0.285-0.528-0.269-0.947,0-0.947c0.271,0,16.375-1.439,16.944-1.469c0.57-0.03,0.51,0.09,0.721,0.45
		c0,0,22.713,39.207,23.108,39.893C46.42,43.915,46.609,44.02,45.812,44.207z M94.695,53.371c0.277,0.434,0.553,0.712-0.318,1.027
		c-0.868,0.314-29.341,9.925-29.895,10.162c-0.553,0.238-0.989,0.315-1.698-0.709c-0.715-1.03-9.976-17.062-9.976-17.062
		l30.18-7.854c0.888-0.28,1.093-0.177,1.465,0.356C84.96,40.022,94.419,52.934,94.695,53.371z M96.629,31.94
		c-0.677,0.149-11.756,2.898-11.756,2.898l-9.066-12.436c-0.252-0.359-0.466-0.719,0.169-0.804c0.636-0.083,10.935-1.946,11.4-2.052
		s0.866-0.233,1.438,0.55c0.57,0.783,8.406,10.702,8.703,11.083C97.815,31.559,97.306,31.793,96.629,31.94z"/>
	<text transform="matrix(1 0 0 1 120.9893 52.9932)" fill="#010101" font-family="'SourceSansPro-Regular'" font-size="50.4883">Laravel</text>
</g>
</svg>
