<?xml version="1.0" encoding="utf-8"?>
<!-- Generator: Adobe Illustrator 16.0.4, SVG Export Plug-In . SVG Version: 6.00 Build 0)  -->
<!DOCTYPE svg PUBLIC "-//W3C//DTD SVG 1.1//EN" "http://www.w3.org/Graphics/SVG/1.1/DTD/svg11.dtd">
<svg version="1.1" id="Layer_1" xmlns="http://www.w3.org/2000/svg" xmlns:xlink="http://www.w3.org/1999/xlink" x="0px" y="0px"
	 width="115px" height="100px" viewBox="0 0 115 100" enable-background="new 0 0 115 100" xml:space="preserve">
<path d="M56.84,85.216c-0.38,0-0.757-0.1-1.089-0.291l-3.468-2.052c-0.517-0.29-0.264-0.393-0.094-0.452
	c0.691-0.24,0.831-0.295,1.568-0.713c0.077-0.044,0.179-0.027,0.258,0.02l2.664,1.582c0.096,0.053,0.233,0.053,0.321,0l10.386-5.995
	c0.097-0.055,0.159-0.166,0.159-0.28V65.049c0-0.118-0.062-0.227-0.162-0.286l-10.381-5.989c-0.096-0.057-0.223-0.057-0.32,0
	l-10.378,5.991c-0.101,0.058-0.165,0.17-0.165,0.284v11.985c0,0.114,0.064,0.224,0.164,0.277l2.845,1.644
	c1.543,0.771,2.489-0.137,2.489-1.051V66.072c0-0.169,0.134-0.3,0.301-0.3h1.317c0.165,0,0.301,0.131,0.301,0.3v11.832
	c0,2.061-1.122,3.242-3.075,3.242c-0.6,0-1.073,0-2.393-0.65l-2.723-1.567c-0.673-0.389-1.089-1.116-1.089-1.895V65.049
	c0-0.778,0.417-1.506,1.089-1.894l10.385-6c0.657-0.372,1.531-0.372,2.183,0l10.385,6c0.673,0.39,1.091,1.115,1.091,1.894v11.985
	c0,0.778-0.418,1.502-1.091,1.895l-10.385,5.996C57.601,85.116,57.225,85.216,56.84,85.216"/>
<path d="M60.048,76.959c-4.544,0-5.497-2.086-5.497-3.836c0-0.167,0.134-0.3,0.3-0.3h1.343c0.15,0,0.275,0.108,0.299,0.255
	c0.203,1.367,0.807,2.057,3.555,2.057c2.188,0,3.119-0.495,3.119-1.655c0-0.669-0.264-1.167-3.665-1.499
	c-2.841-0.281-4.598-0.909-4.598-3.182c0-2.096,1.766-3.346,4.728-3.346c3.326,0,4.973,1.154,5.182,3.632
	c0.008,0.085-0.022,0.167-0.08,0.231c-0.056,0.06-0.136,0.096-0.219,0.096h-1.348c-0.141,0-0.264-0.099-0.292-0.233
	c-0.323-1.439-1.11-1.898-3.243-1.898c-2.39,0-2.667,0.831-2.667,1.455c0,0.755,0.327,0.976,3.553,1.402
	c3.191,0.422,4.708,1.02,4.708,3.262C65.226,75.663,63.339,76.959,60.048,76.959"/>
<path d="M75.022,64.39c0,1.101-0.9,2.001-2.001,2.001c-1.09,0-2.001-0.89-2.001-2.001c0-1.133,0.932-2.003,2.001-2.003
	C74.102,62.387,75.022,63.257,75.022,64.39 M71.344,64.384c0,0.933,0.751,1.685,1.672,1.685c0.933,0,1.685-0.768,1.685-1.685
	c0-0.932-0.762-1.673-1.685-1.673C72.105,62.711,71.344,63.441,71.344,64.384 M72.27,63.267h0.773c0.265,0,0.784,0,0.784,0.593
	c0,0.413-0.266,0.498-0.425,0.552c0.308,0.02,0.329,0.222,0.371,0.508c0.021,0.18,0.054,0.487,0.116,0.593h-0.476
	c-0.012-0.105-0.086-0.678-0.086-0.709c-0.03-0.128-0.074-0.19-0.232-0.19h-0.392v0.899H72.27V63.267z M72.693,64.251h0.35
	c0.285,0,0.339-0.2,0.339-0.317c0-0.307-0.212-0.307-0.329-0.307h-0.359V64.251z"/>
<path fill-rule="evenodd" clip-rule="evenodd" d="M24.68,38.324c0-0.479-0.252-0.918-0.665-1.156l-11.01-6.336
	c-0.187-0.11-0.396-0.167-0.606-0.175h-0.114c-0.21,0.008-0.418,0.065-0.607,0.175L0.666,37.168C0.255,37.406,0,37.845,0,38.324
	l0.023,17.063c0,0.236,0.124,0.458,0.333,0.573c0.205,0.124,0.457,0.124,0.661,0l6.544-3.746c0.414-0.246,0.665-0.68,0.665-1.154
	v-7.972c0-0.475,0.252-0.916,0.665-1.151l2.786-1.605c0.208-0.12,0.435-0.178,0.667-0.178c0.227,0,0.459,0.059,0.662,0.178
	l2.785,1.605c0.413,0.236,0.665,0.676,0.665,1.151v7.972c0,0.475,0.256,0.911,0.667,1.154l6.542,3.746
	c0.206,0.124,0.462,0.124,0.666,0c0.203-0.115,0.33-0.337,0.33-0.573L24.68,38.324z"/>
<path fill-rule="evenodd" clip-rule="evenodd" d="M77.66,14.868c-0.207-0.114-0.459-0.111-0.662,0.007
	c-0.203,0.12-0.328,0.338-0.328,0.574v16.897c0,0.167-0.088,0.32-0.232,0.403c-0.144,0.083-0.32,0.083-0.466,0l-2.757-1.588
	c-0.412-0.238-0.918-0.237-1.328,0L60.87,37.519c-0.411,0.237-0.665,0.677-0.665,1.152v12.716c0,0.476,0.254,0.914,0.665,1.152
	l11.015,6.362c0.411,0.237,0.919,0.237,1.33,0l11.017-6.362c0.411-0.238,0.665-0.677,0.665-1.152V19.688
	c0-0.482-0.261-0.927-0.683-1.162L77.66,14.868z M76.638,47.208c0,0.119-0.063,0.229-0.166,0.288l-3.782,2.18
	c-0.103,0.059-0.229,0.059-0.333,0l-3.781-2.18c-0.103-0.059-0.166-0.169-0.166-0.288v-4.367c0-0.119,0.063-0.229,0.166-0.288
	l3.781-2.185c0.104-0.06,0.23-0.06,0.333,0l3.782,2.185c0.103,0.06,0.166,0.169,0.166,0.288V47.208z"/>
<path fill-rule="evenodd" clip-rule="evenodd" d="M114.338,42.727c0.409-0.238,0.662-0.676,0.662-1.15v-3.082
	c0-0.474-0.253-0.912-0.662-1.15l-10.944-6.355c-0.412-0.239-0.921-0.24-1.333-0.001l-11.012,6.357
	c-0.411,0.237-0.665,0.677-0.665,1.152v12.713c0,0.479,0.257,0.92,0.673,1.156l10.941,6.235c0.403,0.23,0.898,0.232,1.306,0.007
	l6.618-3.68c0.21-0.115,0.34-0.337,0.341-0.575c0.003-0.241-0.124-0.463-0.333-0.582l-11.081-6.36
	c-0.207-0.119-0.334-0.339-0.334-0.577v-3.985c0-0.237,0.127-0.457,0.333-0.575l3.448-1.989c0.206-0.118,0.46-0.118,0.664,0
	l3.451,1.989c0.205,0.118,0.332,0.338,0.332,0.575v3.135c0,0.238,0.127,0.458,0.334,0.577c0.205,0.119,0.46,0.118,0.666-0.002
	L114.338,42.727z"/>
<path fill-rule="evenodd" clip-rule="evenodd" d="M102.564,42.132c0.079-0.046,0.177-0.046,0.255,0l2.113,1.219
	c0.079,0.046,0.128,0.13,0.128,0.221v2.441c0,0.091-0.049,0.175-0.128,0.221l-2.113,1.219c-0.078,0.045-0.176,0.045-0.255,0
	l-2.112-1.219c-0.079-0.046-0.127-0.13-0.127-0.221v-2.441c0-0.091,0.048-0.175,0.127-0.221L102.564,42.132z"/>
<g>
	<defs>
		<path id="SVGID_1_" d="M41.782,31.055l-10.923,6.304c-0.409,0.236-0.66,0.672-0.66,1.143v12.62c0,0.472,0.251,0.907,0.659,1.144
			l10.923,6.309c0.408,0.236,0.912,0.236,1.32,0l10.925-6.309c0.408-0.236,0.66-0.672,0.66-1.144V38.503
			c0-0.472-0.251-0.908-0.66-1.144l-10.925-6.304c-0.204-0.118-0.432-0.177-0.66-0.177C42.214,30.878,41.986,30.938,41.782,31.055"
			/>
	</defs>
	<use xlink:href="#SVGID_1_"  overflow="visible" fill="#3D3D3D"/>
	<clipPath id="SVGID_2_">
		<use xlink:href="#SVGID_1_"  overflow="visible"/>
	</clipPath>
</g>
<g>
	<defs>
		<path id="SVGID_3_" d="M41.784,31.055l-10.925,6.304c-0.409,0.236-0.66,0.672-0.66,1.144v12.619c0,0.472,0.251,0.907,0.659,1.144
			l10.926,6.309c0.408,0.236,0.911,0.236,1.319,0l10.923-6.309c0.408-0.236,0.66-0.672,0.66-1.144v-12.62
			c0-0.471-0.251-0.907-0.66-1.143l-10.923-6.304c-0.204-0.118-0.432-0.177-0.66-0.177S41.988,30.938,41.784,31.055"/>
	</defs>
	<use xlink:href="#SVGID_3_"  overflow="visible"/>
	<clipPath id="SVGID_4_">
		<use xlink:href="#SVGID_3_"  overflow="visible"/>
	</clipPath>
	<g opacity="0.66" clip-path="url(#SVGID_4_)">
		<g>
			<defs>
				<rect id="SVGID_5_" x="30.456" y="30.918" width="23.85" height="27.832"/>
			</defs>
			<use xlink:href="#SVGID_5_"  overflow="visible"/>
			<clipPath id="SVGID_6_">
				<use xlink:href="#SVGID_5_"  overflow="visible"/>
			</clipPath>
			<path clip-path="url(#SVGID_6_)" d="M53.971,37.359l-10.876-6.305c-0.109-0.063-0.225-0.107-0.345-0.137L30.456,51.949
				c0.103,0.125,0.228,0.232,0.371,0.316l10.941,6.309c0.327,0.188,0.705,0.224,1.051,0.111l11.486-21.033
				C54.215,37.538,54.105,37.437,53.971,37.359"/>
		</g>
	</g>
</g>
<g>
	<defs>
		<path id="SVGID_7_" d="M42.362,30.881c-0.2,0.012-0.398,0.071-0.578,0.174l-10.821,6.244l11.755,21.416
			c0.123-0.029,0.243-0.074,0.357-0.141l10.899-6.309c0.408-0.236,0.608-0.672,0.608-1.144v-0.049L42.792,30.929
			c-0.119-0.033-0.24-0.05-0.362-0.05C42.407,30.879,42.385,30.879,42.362,30.881"/>
	</defs>
	<use xlink:href="#SVGID_7_"  overflow="visible" fill="#515251"/>
	<clipPath id="SVGID_8_">
		<use xlink:href="#SVGID_7_"  overflow="visible"/>
	</clipPath>
</g>
</svg>
