<?xml version="1.0" encoding="utf-8"?>
<!-- Generator: Adobe Illustrator 16.0.4, SVG Export Plug-In . SVG Version: 6.00 Build 0)  -->
<!DOCTYPE svg PUBLIC "-//W3C//DTD SVG 1.1//EN" "http://www.w3.org/Graphics/SVG/1.1/DTD/svg11.dtd">
<svg version="1.1" id="Layer_1" xmlns="http://www.w3.org/2000/svg" xmlns:xlink="http://www.w3.org/1999/xlink" x="0px" y="0px"
	 width="112px" height="100px" viewBox="0 0 112 100" enable-background="new 0 0 112 100" xml:space="preserve">
<g id="Layer_1_1_">
	<g>
		<path d="M63.025,49.934c0,3.881-3.146,7.025-7.025,7.025c-3.881,0-7.026-3.145-7.026-7.025c0-3.88,3.146-7.026,7.026-7.026
			C59.88,42.908,63.025,46.054,63.025,49.934z"/>
	</g>
	<g>
		<g opacity="0">
			<path d="M56,35.648c9.433,0,18.196,1.354,24.805,3.628c7.962,2.741,12.856,6.896,12.856,10.657
				c0,3.921-5.188,8.334-13.738,11.167C73.46,63.241,64.954,64.359,56,64.359c-9.182,0-17.875-1.049-24.41-3.282
				c-8.27-2.827-13.251-7.299-13.251-11.144c0-3.731,4.674-7.854,12.524-10.59C37.494,37.031,46.474,35.648,56,35.648z"/>
		</g>
		<g>
			<path d="M56,66.04c-9.869,0-18.497-1.166-24.954-3.373c-4.192-1.433-7.745-3.336-10.277-5.503
				c-2.689-2.304-4.111-4.804-4.111-7.23c0-4.645,5.103-9.197,13.65-12.177c7.008-2.443,16.133-3.789,25.692-3.789
				c9.381,0,18.383,1.321,25.352,3.72c4.074,1.402,7.512,3.216,9.942,5.245c2.648,2.208,4.048,4.63,4.048,7.001
				c0,4.829-5.705,9.719-14.89,12.762C73.942,64.853,65.259,66.04,56,66.04z M56,37.329c-9.06,0-18.02,1.313-24.584,3.602
				c-5.673,1.978-11.396,5.528-11.396,9.003c0,1.395,1.042,3.055,2.937,4.678c2.209,1.893,5.383,3.578,9.176,4.874
				c6.11,2.089,14.363,3.192,23.867,3.192c8.908,0,17.217-1.127,23.395-3.173c8.646-2.865,12.586-6.97,12.586-9.571
				c0-1.323-1.009-2.894-2.839-4.421c-2.121-1.77-5.192-3.376-8.884-4.647C73.633,38.585,65.018,37.329,56,37.329z"/>
		</g>
	</g>
	<g>
		<g opacity="0">
			<path d="M43.563,42.832C48.276,34.66,53.827,27.745,59.1,23.157c6.351-5.527,12.395-7.692,15.653-5.812
				c3.396,1.958,4.628,8.657,2.812,17.478c-1.375,6.669-4.655,14.596-9.128,22.353c-4.587,7.954-9.84,14.962-15.04,19.507
				c-6.579,5.752-12.94,7.833-16.272,5.912c-3.231-1.865-4.468-7.973-2.917-16.14C35.517,59.554,38.805,51.084,43.563,42.832z"/>
		</g>
		<g>
			<path d="M40.042,84.97c-1.433,0-2.697-0.309-3.756-0.921c-4.024-2.32-5.418-9.016-3.73-17.908
				c1.385-7.291,4.777-15.868,9.552-24.148c4.687-8.125,10.329-15.265,15.888-20.104C63.101,17.447,68.073,15,71.999,15
				c1.362,0,2.571,0.299,3.595,0.888c4.183,2.412,5.568,9.798,3.616,19.273c-1.384,6.716-4.693,14.833-9.318,22.854
				c-4.931,8.549-10.251,15.441-15.389,19.932C49.396,82.41,44.126,84.97,40.042,84.97z M71.999,18.361
				c-3.023,0-7.434,2.267-11.797,6.063C54.917,29.025,49.524,35.86,45.02,43.672c-4.525,7.848-7.865,16.266-9.162,23.096
				c-1.12,5.902-0.904,12.634,2.106,14.37c0.542,0.312,1.242,0.471,2.077,0.471c3.234,0,7.813-2.314,12.249-6.192
				c4.862-4.249,9.941-10.849,14.689-19.08c4.451-7.718,7.625-15.478,8.938-21.853c0.841-4.078,1.026-7.777,0.539-10.696
				c-0.42-2.513-1.323-4.284-2.542-4.987C73.408,18.509,72.765,18.361,71.999,18.361z"/>
		</g>
	</g>
	<g>
		<g opacity="0">
			<path d="M43.576,57.195c-4.727-8.164-7.946-16.426-9.288-23.284c-1.617-8.263-0.474-14.581,2.782-16.465
				c3.393-1.964,9.812,0.314,16.546,6.294c5.092,4.521,10.321,11.322,14.807,19.072c4.6,7.946,8.047,15.996,9.388,22.771
				c1.697,8.573,0.324,15.123-3.004,17.049c-3.229,1.87-9.138-0.108-15.44-5.53C54.044,72.52,48.349,65.44,43.576,57.195z"/>
		</g>
		<g>
			<path d="M71.972,85c-3.869,0-8.734-2.354-13.699-6.626c-5.626-4.841-11.362-12.062-16.152-20.336
				c-4.699-8.118-8.066-16.571-9.481-23.804c-0.827-4.229-0.981-8.113-0.444-11.233c0.586-3.397,1.98-5.822,4.033-7.01
				c1.049-0.607,2.293-0.915,3.701-0.915c4.106,0,9.503,2.699,14.803,7.407c5.128,4.553,10.506,11.473,15.147,19.486
				c4.943,8.541,8.258,16.593,9.582,23.286c0.859,4.346,0.994,8.374,0.387,11.65c-0.646,3.481-2.098,5.965-4.197,7.181
				C74.604,84.692,73.366,85,71.972,85z M39.929,18.438c-0.808,0-1.485,0.156-2.017,0.463c-1.145,0.663-2,2.322-2.404,4.671
				c-0.469,2.722-0.32,6.185,0.429,10.017c1.346,6.876,4.575,14.961,9.093,22.765c4.539,7.841,10.164,14.938,15.435,19.473
				c6.096,5.246,10.077,5.813,11.507,5.813c0.795,0,1.465-0.157,1.993-0.462c2.257-1.307,3.906-6.642,2.199-15.271
				c-1.255-6.334-4.434-14.03-9.195-22.253c-4.463-7.71-9.602-14.336-14.468-18.657C47.875,20.89,43.176,18.438,39.929,18.438z"/>
		</g>
	</g>
</g>
</svg>
