<?xml version="1.0" encoding="utf-8"?>
<!-- Generator: Adobe Illustrator 16.0.4, SVG Export Plug-In . SVG Version: 6.00 Build 0)  -->
<!DOCTYPE svg PUBLIC "-//W3C//DTD SVG 1.1//EN" "http://www.w3.org/Graphics/SVG/1.1/DTD/svg11.dtd">
<svg version="1.1" id="Layer_1" xmlns="http://www.w3.org/2000/svg" xmlns:xlink="http://www.w3.org/1999/xlink" x="0px" y="0px"
	 width="100px" height="100px" viewBox="0 0 100 100" enable-background="new 0 0 100 100" xml:space="preserve">
<path d="M86.053,55.604c-3.486,0.019-6.517,0.858-9.054,2.099c-0.931-1.844-1.862-3.486-2.026-4.691
	c-0.183-1.405-0.402-2.264-0.183-3.943s1.205-4.071,1.187-4.253c-0.018-0.182-0.219-1.041-2.227-1.059s-3.742,0.383-3.943,0.913
	c-0.201,0.53-0.584,1.734-0.84,2.976c-0.347,1.826-4.016,8.343-6.115,11.756c-0.676-1.333-1.26-2.501-1.388-3.433
	c-0.183-1.405-0.401-2.264-0.183-3.942c0.219-1.68,1.205-4.071,1.188-4.253c-0.02-0.183-0.22-1.041-2.229-1.059
	c-2.008-0.019-3.742,0.383-3.942,0.913s-0.42,1.771-0.84,2.976c-0.42,1.204-5.294,12.085-6.572,14.896
	c-0.657,1.442-1.223,2.592-1.625,3.377l0,0c0,0-0.018,0.055-0.073,0.146c-0.347,0.676-0.548,1.041-0.548,1.041s0,0,0,0.018
	c-0.274,0.493-0.566,0.949-0.712,0.949c-0.109,0-0.311-1.314,0.037-3.104c0.73-3.778,2.464-9.656,2.446-9.857
	c0-0.109,0.329-1.131-1.132-1.661c-1.424-0.529-1.935,0.347-2.062,0.347s-0.219,0.311-0.219,0.311s1.588-6.608-3.03-6.608
	c-2.884,0-6.864,3.158-8.835,6.006c-1.241,0.675-3.888,2.117-6.718,3.668c-1.077,0.604-2.19,1.205-3.231,1.771
	c-0.073-0.073-0.146-0.164-0.219-0.237c-5.586-5.97-15.918-10.187-15.48-18.2c0.165-2.921,1.168-10.588,19.843-19.898
	c15.371-7.576,27.601-5.477,29.719-0.821c3.029,6.645-6.554,18.985-22.436,20.774c-6.061,0.675-9.237-1.661-10.041-2.538
	c-0.839-0.913-0.967-0.967-1.278-0.785c-0.511,0.274-0.182,1.095,0,1.57c0.475,1.241,2.428,3.432,5.732,4.509
	c2.92,0.949,10.021,1.479,18.62-1.844c9.621-3.724,17.142-14.074,14.933-22.746c-2.209-8.799-16.813-11.701-30.632-6.791
	c-8.214,2.921-17.123,7.521-23.53,13.508c-7.612,7.12-8.817,13.308-8.324,15.9c1.771,9.2,14.458,15.188,19.533,19.624
	c-0.256,0.146-0.493,0.273-0.694,0.384c-2.537,1.259-12.212,6.315-14.622,11.664C1.57,82.037,4.746,86.382,6.846,86.966
	c6.517,1.808,13.216-1.442,16.812-6.809c3.596-5.367,3.158-12.341,1.497-15.535c-0.019-0.036-0.037-0.073-0.073-0.109
	c0.657-0.384,1.333-0.785,1.99-1.169c1.296-0.766,2.574-1.479,3.669-2.062c-0.621,1.697-1.077,3.725-1.296,6.645
	c-0.273,3.433,1.132,7.887,2.976,9.639c0.822,0.768,1.789,0.785,2.41,0.785c2.154,0,3.122-1.789,4.199-3.906
	c1.314-2.592,2.501-5.604,2.501-5.604s-1.479,8.142,2.538,8.142c1.46,0,2.939-1.898,3.596-2.865c0,0.018,0,0.018,0,0.018
	s0.036-0.055,0.109-0.183c0.146-0.237,0.237-0.384,0.237-0.384s0-0.018,0-0.036c0.584-1.022,1.898-3.341,3.851-7.192
	c2.52-4.965,4.947-11.172,4.947-11.172s0.22,1.516,0.968,4.034c0.438,1.479,1.351,3.104,2.081,4.673
	c-0.584,0.822-0.949,1.278-0.949,1.278s0,0,0.019,0.019c-0.475,0.621-0.985,1.296-1.552,1.953c-1.99,2.373-4.363,5.094-4.691,5.878
	c-0.383,0.931-0.292,1.606,0.438,2.154c0.529,0.401,1.479,0.456,2.447,0.401c1.788-0.127,3.048-0.566,3.668-0.84
	c0.969-0.347,2.1-0.876,3.158-1.661c1.953-1.442,3.141-3.505,3.031-6.225c-0.055-1.497-0.548-2.993-1.15-4.399
	c0.183-0.256,0.347-0.512,0.529-0.767c3.085-4.509,5.477-9.456,5.477-9.456s0.219,1.516,0.967,4.034
	c0.365,1.278,1.114,2.665,1.771,4.017c-2.902,2.354-4.691,5.093-5.33,6.881c-1.15,3.323-0.256,4.82,1.441,5.167
	c0.768,0.164,1.862-0.201,2.666-0.548c1.021-0.328,2.227-0.895,3.377-1.734c1.953-1.441,3.833-3.45,3.724-6.17
	c-0.055-1.241-0.384-2.465-0.84-3.65c2.464-1.023,5.641-1.589,9.693-1.114c8.689,1.022,10.405,6.444,10.077,8.726
	c-0.329,2.282-2.154,3.523-2.757,3.906c-0.603,0.384-0.804,0.512-0.749,0.785c0.074,0.402,0.365,0.384,0.877,0.311
	c0.712-0.127,4.563-1.844,4.728-6.042C100.201,61.409,95.09,55.549,86.053,55.604z M19.021,78.203
	c-2.884,3.141-6.9,4.327-8.634,3.323c-1.862-1.077-1.132-5.714,2.41-9.036c2.154-2.026,4.929-3.906,6.772-5.057
	c0.42-0.256,1.041-0.621,1.789-1.077c0.127-0.073,0.201-0.109,0.201-0.109l0,0c0.146-0.091,0.292-0.183,0.438-0.274
	C23.293,70.719,22.052,74.899,19.021,78.203z M40.015,63.929c-1.004,2.446-3.104,8.708-4.381,8.36
	c-1.095-0.292-1.771-5.038-0.219-9.729c0.785-2.354,2.446-5.167,3.414-6.262c1.57-1.753,3.304-2.337,3.724-1.624
	C43.082,55.604,40.635,62.395,40.015,63.929z M57.338,72.217c-0.42,0.219-0.82,0.364-1.004,0.255
	c-0.127-0.073,0.184-0.365,0.184-0.365s2.172-2.337,3.029-3.396c0.493-0.621,1.078-1.351,1.698-2.172c0,0.072,0,0.164,0,0.237
	C61.245,69.569,58.543,71.449,57.338,72.217z M70.701,69.168c-0.311-0.219-0.256-0.949,0.785-3.231
	c0.401-0.895,1.351-2.392,2.975-3.833c0.184,0.584,0.311,1.149,0.293,1.679C74.735,67.306,72.217,68.62,70.701,69.168z"/>
</svg>
