<?xml version="1.0" encoding="utf-8"?>
<!-- Generator: Adobe Illustrator 16.0.4, SVG Export Plug-In . SVG Version: 6.00 Build 0)  -->
<!DOCTYPE svg PUBLIC "-//W3C//DTD SVG 1.1//EN" "http://www.w3.org/Graphics/SVG/1.1/DTD/svg11.dtd">
<svg version="1.1" id="Layer_1" xmlns="http://www.w3.org/2000/svg" xmlns:xlink="http://www.w3.org/1999/xlink" x="0px" y="0px"
	 width="310px" height="70px" viewBox="0 0 310 70" enable-background="new 0 0 310 70" xml:space="preserve">
<g>
	<path d="M179.412,27.632h-12.013v1.275c3.757,0,4.358,0.806,4.358,5.571v8.593c0,4.765-0.602,5.638-4.358,5.638
		c-2.888-0.402-4.835-1.945-7.521-4.901l-3.085-3.356c4.161-0.738,6.376-3.355,6.376-6.309c0-3.69-3.156-6.51-9.062-6.51h-11.814
		v1.275c3.759,0,4.364,0.806,4.364,5.571v8.593c0,4.765-0.605,5.638-4.364,5.638v1.275h13.357v-1.275
		c-3.758,0-4.362-0.873-4.362-5.638v-2.417h1.142l7.449,9.33h19.533c9.598,0,13.76-5.102,13.76-11.21
		C193.172,32.667,189.01,27.632,179.412,27.632z M151.288,38.572v-8.925h2.752c3.021,0,4.363,2.08,4.363,4.495
		c0,2.349-1.343,4.43-4.363,4.43H151.288z M179.612,47.904h-0.468c-2.42,0-2.752-0.605-2.752-3.692V29.647c0,0,2.951,0,3.22,0
		c6.981,0,8.258,5.101,8.258,9.06C187.87,42.802,186.594,47.904,179.612,47.904z"/>
	<path d="M104.907,41.058l4.632-13.694c1.344-3.96,0.739-5.102-3.557-5.102V20.92h12.619v1.342c-4.229,0-5.235,1.007-6.914,5.908
		l-7.653,22.954h-0.871l-6.848-21.009l-6.979,21.009h-0.874L81.013,28.17c-1.612-4.901-2.686-5.908-6.578-5.908V20.92h14.901v1.342
		c-3.961,0-5.034,0.939-3.625,5.102l4.496,13.694l6.781-20.138h1.275L104.907,41.058z"/>
	<path d="M127.729,50.856c-7.383,0-13.425-5.438-13.425-12.082c0-6.578,6.042-12.015,13.425-12.015
		c7.384,0,13.424,5.437,13.424,12.015C141.152,45.419,135.112,50.856,127.729,50.856z M127.729,28.841
		c-6.175,0-8.323,5.571-8.323,9.934c0,4.431,2.148,9.935,8.323,9.935c6.243,0,8.391-5.504,8.391-9.935
		C136.119,34.412,133.972,28.841,127.729,28.841z"/>
	<path d="M209.752,48.641v1.344h-15.37v-1.344c4.495,0,5.301-1.139,5.301-7.853V30.049c0-6.714-0.806-7.787-5.301-7.787V20.92
		h13.893c6.912,0,10.739,3.558,10.739,8.323c0,4.632-3.827,8.257-10.739,8.257h-3.827v3.288
		C204.447,47.502,205.253,48.641,209.752,48.641z M208.274,23.335h-3.827v11.681h3.827c3.759,0,5.502-2.62,5.502-5.773
		C213.776,26.021,212.033,23.335,208.274,23.335z"/>
	<path d="M265.127,43.673l-0.338,1.21c-0.602,2.215-1.34,3.021-6.108,3.021h-0.938c-3.489,0-4.096-0.807-4.096-5.573v-3.087
		c5.237,0,5.641,0.469,5.641,3.961h1.274V33.204h-1.274c0,3.491-0.403,3.959-5.641,3.959v-7.516h3.693
		c4.765,0,5.501,0.805,6.108,3.02l0.334,1.275h1.073l-0.472-6.31h-19.729v1.275c3.755,0,4.359,0.806,4.359,5.571v8.593
		c0,4.359-0.513,5.457-3.476,5.613c-2.817-0.431-4.752-1.966-7.396-4.877l-3.088-3.356c4.161-0.738,6.377-3.355,6.377-6.309
		c0-3.69-3.155-6.51-9.062-6.51h-11.817v1.275c3.763,0,4.365,0.806,4.365,5.571v8.593c0,4.765-0.603,5.638-4.365,5.638v1.275h13.36
		v-1.275c-3.757,0-4.364-0.873-4.364-5.638v-2.417h1.142l7.452,9.33h27.584l0.402-6.312H265.127z M229.551,38.572v-8.925h2.751
		c3.023,0,4.364,2.08,4.364,4.495c0,2.349-1.341,4.43-4.364,4.43H229.551z"/>
	<path d="M278.753,50.856c-2.689,0-5.036-1.41-6.042-2.283c-0.334,0.336-0.941,1.344-1.074,2.283h-1.277v-9.263h1.344
		c0.538,4.43,3.623,7.047,7.584,7.047c2.147,0,3.896-1.208,3.896-3.222c0-1.746-1.545-3.088-4.299-4.361l-3.824-1.813
		c-2.684-1.274-4.701-3.491-4.701-6.443c0-3.222,3.021-5.974,7.184-5.974c2.216,0,4.096,0.805,5.239,1.745
		c0.334-0.27,0.67-1.008,0.869-1.812h1.276v7.92h-1.412c-0.468-3.154-2.213-5.773-5.771-5.773c-1.879,0-3.625,1.075-3.625,2.753
		c0,1.746,1.412,2.685,4.633,4.162l3.689,1.812c3.225,1.545,4.498,4.027,4.498,6.04C286.94,47.904,283.248,50.856,278.753,50.856z"
		/>
	<path d="M299.424,50.856c-2.684,0-5.031-1.41-6.043-2.283c-0.336,0.336-0.938,1.344-1.069,2.283h-1.277v-9.263h1.341
		c0.538,4.43,3.627,7.047,7.586,7.047c2.149,0,3.894-1.208,3.894-3.222c0-1.746-1.546-3.088-4.297-4.361l-3.825-1.813
		c-2.688-1.274-4.698-3.491-4.698-6.443c0-3.222,3.022-5.974,7.182-5.974c2.216,0,4.093,0.805,5.234,1.745
		c0.336-0.27,0.672-1.008,0.874-1.812h1.275v7.92h-1.411c-0.468-3.154-2.216-5.773-5.769-5.773c-1.882,0-3.629,1.075-3.629,2.753
		c0,1.746,1.411,2.685,4.633,4.162l3.692,1.812c3.222,1.545,4.497,4.027,4.497,6.04C307.613,47.904,303.922,50.856,299.424,50.856z"
		/>
	<g>
		<path d="M7.309,35c0,11.759,6.833,21.918,16.74,26.733L9.88,22.911C8.231,26.605,7.309,30.692,7.309,35z"/>
		<path d="M57.067,33.5c0-3.669-1.319-6.213-2.45-8.191c-1.505-2.447-2.917-4.52-2.917-6.966c0-2.73,2.07-5.272,4.988-5.272
			c0.132,0,0.257,0.017,0.385,0.023C51.788,8.25,44.747,5.294,37.015,5.294c-10.379,0-19.509,5.324-24.82,13.389
			c0.697,0.022,1.354,0.037,1.912,0.037c3.106,0,7.916-0.378,7.916-0.378c1.601-0.094,1.79,2.257,0.19,2.446
			c0,0-1.609,0.19-3.4,0.284L29.63,53.249l6.501-19.497l-4.628-12.68c-1.599-0.093-3.114-0.284-3.114-0.284
			c-1.601-0.093-1.413-2.54,0.188-2.446c0,0,4.906,0.378,7.824,0.378c3.106,0,7.916-0.378,7.916-0.378
			c1.604-0.094,1.791,2.257,0.191,2.446c0,0-1.612,0.19-3.4,0.284l10.735,31.931l2.963-9.899
			C56.089,38.994,57.067,36.043,57.067,33.5z"/>
		<path d="M37.534,37.597l-8.911,25.9c2.659,0.781,5.474,1.209,8.392,1.209c3.459,0,6.776-0.598,9.863-1.684
			c-0.08-0.126-0.152-0.262-0.211-0.41L37.534,37.597z"/>
		<path d="M63.079,20.748c0.129,0.945,0.201,1.961,0.201,3.055c0,3.013-0.564,6.402-2.261,10.639l-9.072,26.233
			C60.778,55.526,66.718,45.958,66.718,35C66.718,29.834,65.399,24.979,63.079,20.748z"/>
		<path d="M37.015,0.373C17.921,0.373,2.387,15.907,2.387,35c0,19.096,15.534,34.627,34.628,34.627
			c19.091,0,34.629-15.531,34.629-34.627C71.644,15.907,56.105,0.373,37.015,0.373z M37.015,68.038
			C18.796,68.038,3.974,53.218,3.974,35c0-18.218,14.822-33.039,33.041-33.039C55.23,1.961,70.052,16.782,70.052,35
			C70.052,53.218,55.23,68.038,37.015,68.038z"/>
	</g>
</g>
</svg>
