<svg xmlns="http://www.w3.org/2000/svg" width="68" height="100" viewBox="0 0 68 100"><path fill="#FDD752" d="M68 100l-33.854-5.125L0 100V0h68z"/><path fill="#3F3F3F" d="M53.018 33.07c-.304-.18-.697-.314-1.045-.298-2.789.123-5.576.286-8.363.439a1.699 1.699 0 0 0-.361.058c-1.363.36-2.368 1.086-2.686 2.56-.057.27-.258.504-.369.765-.142.334-.268.677-.381 1.021-.104.311-.109.681-.293.933-.506.707-.642 1.488-.681 2.326-.073 1.578-.603 2.889-2.219 3.507-.229.088-.429.249-.652.344-1.114.474-1.891 1.299-2.416 2.363-.66 1.34-1.703 2.187-3.15 2.543-.159.04-.304.14-.463.169l-13.727 4.505c-.281.024-.654-.039-.637.377.024.578-.4.647-.77.801-1.252.515-2.504 1.021-3.758 1.528-.303.123-.604.289-.921.337-.681.104-1.204.459-1.698.892v.989c2.834.213 5.534-.555 8.257-1.145 1.121-.243 2.231-.54 3.35-.796.189-.042.396-.004.639.149-.897.32-1.783.688-2.694.967-3.142.964-6.238 2.041-9.19 3.5-.103.052-.241.031-.361.043v.496c.195-.049.388-.119.586-.137.178-.018.44-.039.531.062.795.886 1.82.614 2.756.491.549-.07 1.062-.695 1.539.117.031.056.245.037.355-.002.457-.16.915-.324 1.356-.521.33-.146.617-.411.957-.518.163-.054.328-.1.492-.146v1.152c.121-.015.258.011.36-.043a46.747 46.747 0 0 1 3.09-1.377c-.848 1.066-1.671 2.112-2.509 3.146-.415.513-.809 1.078-1.334 1.448-.97.685-1.132 1.818-1.721 2.713-.009.015.085.095.141.152.472-.395.938-.795 1.417-1.18 2.313-1.863 4.791-3.478 7.395-4.898 1.357-.741 2.69-1.529 4.047-2.271.201-.107.475-.105.716-.111.562-.021 1.124-.006 1.734-.006.106.223.181.598.407.771.2.151.574.079.953.11-.533.881-.84 1.771-.652 2.812.271 1.503 1.004 2.663 2.207 3.58.449.343.844.771 1.209 1.204.477.562.907 1.172 1.336 1.771.15.211.232.471.396.812-.943.019-1.736.103-2.533-.25-.719-.316-.947-.188-1.449.559.746-.36.738-.353 1.604.175.184.107.46.146.678.109 1.499-.229 2.93-.093 4.276.666.293.165.633.25.988.391-.037-.521-.408-.625-.734-.764-.352-.146-.705-.268-1.062-.396.771-.063 1.518-.086 2.229.03.68.107 1.332.171 2.021-.112l-3.275-.488c.379-.202.725-.387 1.064-.563-.025-.077-.057-.153-.082-.23-.668.122-1.335.245-2.003.37-.454.082-.882.141-1.216-.322-.917-1.268-1.862-2.514-2.789-3.771-.225-.31-.277-.606-.173-1.025.208-.828.331-1.689.38-2.545.055-.959.123-1.834 1.312-2.031.106-.021.215-.122.309-.201.465-.396 1.019-.691 1.572-.363.547.321 1.157-.021 1.649.303.16.104.33.295.356.471.106.641.256 1.298.211 1.938-.072 1.104.236 2.025 1.005 2.807a77.845 77.845 0 0 0 1.59 1.555c.868.82 1.501 1.812 2.165 2.837-.207.062-.329.146-.436.132-.642-.109-1.285-.217-1.91-.386-.572-.151-1.024-.084-1.442.462.719-.123.719-.109 1.576.271.174.078.396.103.586.084 1.391-.127 2.743-.104 3.987.652.222.133.488.187.867.321-.277-.771-.984-.696-1.58-1.194.791.062 1.396.053 1.978.17.573.113 1.114.094 1.688-.146-.966-.187-1.933-.368-2.877-.551l.879-.511c-.644-.028-1.269.012-1.832.21-.549.188-.86.006-1.153-.396-.614-.822-1.203-1.671-1.849-2.474-.744-.931-1.312-1.884-.924-3.136.032-.11.016-.248.004-.366-.104-1.148.229-2.199.736-3.202.369-.73.771-1.452 1.188-2.161a53.824 53.824 0 0 1 2.875-4.369l1.904-2.507c.795-.816.818-2.027 1.543-2.874.092-.106.065-.316.084-.479.071-.725-.173-1.345-.51-1.99-.27-.521-.617-2.725-.617-2.725-.045-.253-.082-.373-.08-.492.012-1.027-.269-1.936-1.006-2.688-.199-.202-.344-.463-.48-.713-.354-.634-.303-1.211.113-1.842a4.236 4.236 0 0 1 1.711-1.523c1.213-.605 2.42-1.22 3.607-1.866.271-.145.624-.416.646-.655.029-.223-.291-.56-.544-.71z"/></svg>