<svg xmlns="http://www.w3.org/2000/svg" width="300" height="300" viewBox="0 0 300 300"><path d="M140.709 85.976l1.369 1.369v17.746c0 6.74-1.369 10.392-4.107 10.953h-2.738l-50.553-2.738v1.369l-4.107 75.091c38.265 5.688 57.397 10.707 57.397 15.061l-2.738 8.215-66.929-10.953-4.107-2.738c5.477-38.055 8.215-63.541 8.215-76.46v-1.369l1.369-1.369-1.369-1.369v-1.369l1.369-1.369-1.369-6.845c0-14.568 2.264-21.854 6.793-21.854l61.505-1.371z"/><path d="M116.992 141.952h.843c6.248 0 9.373.843 9.373 2.528v4.265c0 8.988-.562 14.973-1.685 17.957l.843.843v.843c-.421 7.969-1.282 11.953-2.581 11.953h-8.531l-1.685-1.686v-3.422l.843-31.596 2.58-1.685zm8.531-19.642l.843.843v.842l-1.685 12.796-4.266-.842-4.265.842-1.738-1.685c0-7.969 1.702-11.953 5.108-11.953l6.003-.843zM178.845 137.055c3.44 4.143 5.23 8.075 5.371 11.795-15.06 1.896-22.591 3.686-22.591 5.371l1.106 11.849 23.644-3.265 3.212 7.53-2.158 5.371-5.371-1.054c-6.145 0-13.657 1.072-22.538 3.213-3.581-.912-5.371-1.983-5.371-3.213l2.105-2.158c-2.141-6.881-3.211-13.323-3.211-19.326v-3.265l-3.213-4.266c.737-1.754 10.408-4.615 29.015-8.582zM236.011 130.946c1.825 0 3.493 4.16 5.003 12.48l8.32 16.693-.843.842 1.686 4.16c-2.844 3.336-11.743 7.514-26.698 12.533-7.794-21.836-11.69-34.07-11.69-36.703h.843l23.379-10.005zm-15.06 16.64l5.002 17.535 10.058-3.316-5.845-17.536-9.215 3.317z"/><path fill="#016D4E" d="M203.758 67.97c.203-1.609-.904-3.308-2.462-3.772l-14.591-4.35c-1.555-.464-3.707.152-4.781 1.368 0 0-2.811 3.18-8.677 4.233-5.864 1.054-9.604-.95-9.604-.95-1.431-.767-3.663-.595-4.959.381l-12.166 9.156c-1.298.976-1.745 2.951-.997 4.391l3.223 6.194c.749 1.441 2.432 1.831 3.737.869l4.125-3.038c1.307-.962 2.544-.433 2.748 1.179l3.251 25.53a2.782 2.782 0 0 0 3.275 2.406l30.507-5.479a2.782 2.782 0 0 0 2.234-3.396l-5.814-24.973c-.369-1.581.606-2.508 2.166-2.061l4.718 1.354c1.561.448 3.002-.504 3.203-2.115l.864-6.927z"/><path fill="#EE2C71" d="M60.561 179.185L49.883 94.153l4.789 85.752.01-.002c.005.104.01.208.02.314.229 2.521 1.74 4.446 3.376 4.297 1.635-.146 2.775-2.312 2.546-4.834a6.623 6.623 0 0 0-.063-.495zm-2.771 2.173c-.462.043-.889-.502-.952-1.213-.003-.028-.004-.059-.006-.089h-.003s-.467-10.618-.124-10.648c.328-.03 1.662 9.558 1.784 10.433.008.052.015.101.021.153.064.711-.259 1.322-.72 1.364z"/><path fill="#DC1D42" d="M37.468 190.721l20.728 2.768-17.038 12.126-2.767 20.725-12.124-17.036-20.728-2.768 17.036-12.125 2.77-20.726z"/><path fill="#FFC552" d="M109.891 40.457l14.553-17.096 1.035 22.426 17.098 14.555-22.431 1.034-14.556 17.097-1.032-22.432-17.098-14.55z"/><path fill="#DC1D42" d="M279.139 219.52l-.703 1.341c-.349-.848-.706-1.7-1.054-2.558a165.297 165.297 0 0 1-2.056 3.673c.35.895.701 1.776 1.052 2.65-.235.422-.474.84-.706 1.252-.35-.887-.705-1.78-1.057-2.682a168.962 168.962 0 0 1-2.063 3.414c.35.93.703 1.855 1.059 2.772-.24.388-.473.773-.711 1.155-.352-.927-.706-1.862-1.06-2.801a115.657 115.657 0 0 1-2.071 3.152c.356.973.71 1.938 1.063 2.895-.238.357-.475.717-.713 1.066-.354-.967-.706-1.938-1.06-2.918-.69.998-1.383 1.967-2.076 2.905.354 1.01.711 2.012 1.061 3.005-.238.335-.475.664-.713.985-.355-1.002-.707-2.016-1.062-3.033-.691.919-1.388 1.804-2.08 2.663.354 1.044.709 2.084 1.062 3.118-.234.303-.473.605-.715.902-.354-1.042-.707-2.092-1.064-3.147a82.894 82.894 0 0 1-2.084 2.427c.355 1.084.711 2.162 1.064 3.23-.24.276-.477.551-.717.821-.352-1.082-.713-2.166-1.065-3.255a69.369 69.369 0 0 1-2.094 2.199l1.071 3.333c-.24.253-.479.499-.717.747-.355-1.118-.714-2.232-1.069-3.361a68.39 68.39 0 0 1-2.098 1.98c.358 1.15.716 2.296 1.073 3.435-.244.228-.48.45-.725.67-.354-1.15-.711-2.3-1.07-3.46a64.785 64.785 0 0 1-2.098 1.769 999.85 999.85 0 0 0 1.076 3.529c-.242.205-.484.403-.725.6a632.82 632.82 0 0 1-1.072-3.562 56.508 56.508 0 0 1-2.107 1.562c.359 1.217.715 2.427 1.076 3.632-.242.174-.482.352-.725.523-.359-1.21-.715-2.43-1.074-3.652a53.73 53.73 0 0 1-2.108 1.364c.359 1.244.719 2.483 1.078 3.72-.24.155-.484.307-.729.46-.359-1.244-.715-2.493-1.072-3.747-.703.414-1.407.806-2.114 1.173.357 1.276.721 2.546 1.074 3.81-.24.134-.48.265-.723.392-.357-1.271-.719-2.546-1.08-3.828-.702.352-1.409.681-2.116.987.361 1.303.719 2.601 1.08 3.893-.24.113-.486.225-.727.334-.361-1.303-.723-2.605-1.082-3.917-.703.294-1.411.563-2.116.813.359 1.33.717 2.655 1.078 3.974-.246.093-.486.184-.73.269-.359-1.327-.723-2.659-1.078-3.996-.709.238-1.42.452-2.128.643.363 1.358.723 2.709 1.086 4.058-.244.069-.486.144-.73.212-.361-1.353-.721-2.713-1.083-4.074-.706.182-1.421.342-2.13.482.365 1.381.721 2.756 1.084 4.129-.244.055-.486.107-.727.157-.361-1.377-.725-2.76-1.086-4.148-.711.129-1.424.238-2.134.329.361 1.403.723 2.803 1.086 4.197-.242.038-.486.075-.731.107l-1.084-4.22c-.713.08-1.425.143-2.138.182.361 1.429.727 2.849 1.088 4.268l-.732.059c-.364-1.427-.726-2.856-1.089-4.286-.71.03-1.427.043-2.14.042.365 1.446.729 2.89 1.09 4.329-.244.004-.486.008-.734.01-.364-1.445-.728-2.896-1.089-4.349a66.908 66.908 0 0 1-2.138-.089c.361 1.464.725 2.928 1.088 4.39-.244-.013-.486-.024-.734-.04-.362-1.464-.728-2.932-1.091-4.408a45.882 45.882 0 0 1-2.144-.214c.363 1.484.73 2.972 1.094 4.448a30.335 30.335 0 0 1-.739-.081c-.361-1.482-.725-2.97-1.092-4.462a46.69 46.69 0 0 1-2.143-.335c.365 1.506.726 3.008 1.093 4.504a54.008 54.008 0 0 1-.737-.119l-1.097-4.517a70.322 70.322 0 0 1-2.144-.444c.363 1.522.727 3.041 1.094 4.554a65.275 65.275 0 0 1-.742-.156c-.361-1.521-.728-3.04-1.091-4.568a62.062 62.062 0 0 1-2.15-.546c.365 1.535.728 3.069 1.095 4.602-.25-.062-.493-.129-.739-.195-.365-1.534-.732-3.071-1.096-4.613-.717-.2-1.436-.414-2.152-.639.367 1.551.732 3.098 1.096 4.646l-.738-.228c-.366-1.549-.731-3.1-1.097-4.656a74.803 74.803 0 0 1-2.154-.73c.365 1.566.732 3.127 1.095 4.686a296.25 296.25 0 0 0-.737-.254c-.367-1.564-.731-3.128-1.099-4.696-.717-.261-1.438-.531-2.154-.81.367 1.575.731 3.151 1.097 4.723l-.739-.285c-.365-1.574-.732-3.149-1.097-4.73a103.36 103.36 0 0 1-2.16-.886c.366 1.587.733 3.174 1.097 4.757l-.737-.308-1.101-4.767c-.718-.309-1.438-.622-2.158-.949l1.101 4.789c-.248-.112-.498-.222-.743-.333l-1.098-4.793a161.22 161.22 0 0 1-2.161-1.012c.366 1.609.733 3.211 1.099 4.815l-.743-.352c-.363-1.606-.73-3.21-1.1-4.817-.717-.347-1.438-.704-2.157-1.06.364 1.611.731 3.223 1.099 4.833a73.328 73.328 0 0 1-.743-.367l-1.102-4.84c-.718-.361-1.442-.732-2.161-1.106.366 1.62.731 3.237 1.101 4.854-.248-.125-.495-.253-.743-.38-.367-1.619-.736-3.24-1.101-4.861-.721-.374-1.441-.758-2.162-1.14.367 1.622.731 3.249 1.099 4.872l-.743-.396-1.099-4.874c-.721-.39-1.441-.779-2.164-1.175.369 1.629.733 3.259 1.099 4.888a65.084 65.084 0 0 0-.743-.407c-.365-1.626-.731-3.257-1.101-4.887-.719-.396-1.441-.793-2.162-1.193l1.099 4.891-.743-.408c-.366-1.633-.731-3.261-1.099-4.894-.721-.4-1.443-.808-2.166-1.21.369 1.632.734 3.265 1.102 4.898-.248-.14-.496-.274-.744-.412-.366-1.637-.733-3.272-1.103-4.904-.721-.403-1.439-.81-2.163-1.217.37 1.635.733 3.272 1.101 4.906-.246-.142-.494-.279-.743-.422-.367-1.632-.732-3.266-1.1-4.9-.723-.408-1.442-.812-2.165-1.216l1.099 4.898c-.246-.138-.494-.274-.741-.414l-1.102-4.904c-.721-.403-1.442-.806-2.163-1.207.366 1.631.733 3.265 1.101 4.897-.25-.139-.496-.276-.743-.417-.369-1.632-.734-3.262-1.102-4.895-.72-.401-1.442-.798-2.165-1.193.367 1.627.733 3.257 1.099 4.888l-.739-.407c-.369-1.628-.736-3.261-1.103-4.887-.721-.394-1.441-.789-2.162-1.175.367 1.626.731 3.251 1.101 4.878-.25-.135-.499-.263-.745-.397-.365-1.627-.735-3.255-1.101-4.878-.721-.386-1.441-.768-2.162-1.146.367 1.621.732 3.244 1.099 4.869a58.038 58.038 0 0 0-.743-.392c-.365-1.619-.731-3.242-1.099-4.863-.721-.374-1.441-.743-2.16-1.106.365 1.615.73 3.232 1.097 4.85-.247-.127-.495-.253-.743-.378l-1.099-4.844c-.721-.361-1.441-.717-2.164-1.065l1.102 4.829-.74-.363c-.367-1.609-.733-3.217-1.101-4.821-.721-.344-1.44-.681-2.16-1.014.365 1.601.732 3.2 1.1 4.804l-.742-.344c-.368-1.601-.734-3.196-1.1-4.797a135.29 135.29 0 0 0-2.159-.953c.365 1.593.732 3.184 1.099 4.777l-.739-.327-1.103-4.766c-.718-.305-1.437-.602-2.156-.888.366 1.58.733 3.161 1.098 4.744a38.277 38.277 0 0 0-.74-.301c-.366-1.581-.731-3.157-1.098-4.734a109.87 109.87 0 0 0-2.157-.815c.367 1.566.732 3.138 1.099 4.708l-.739-.274-1.097-4.698a83.002 83.002 0 0 0-2.155-.733c.365 1.553.731 3.111 1.096 4.672a29.194 29.194 0 0 0-.74-.248c-.364-1.557-.729-3.111-1.096-4.662a70.341 70.341 0 0 0-2.153-.646l1.097 4.629-.738-.218c-.365-1.542-.733-3.081-1.097-4.621a98.173 98.173 0 0 0-2.149-.548l1.095 4.584-.739-.182c-.364-1.529-.73-3.049-1.095-4.571a71.322 71.322 0 0 0-2.148-.45l1.095 4.538a24.72 24.72 0 0 0-.738-.149c-.364-1.512-.73-3.016-1.095-4.524a71.671 71.671 0 0 0-2.143-.337c.364 1.492.727 2.986 1.09 4.484-.246-.038-.49-.075-.735-.109l-1.092-4.47a52.154 52.154 0 0 0-2.146-.219c.365 1.471.729 2.948 1.094 4.429a46.905 46.905 0 0 0-.736-.071c-.363-1.476-.729-2.947-1.092-4.415a45.034 45.034 0 0 0-2.14-.094c.363 1.454.727 2.91 1.089 4.369-.246-.01-.489-.021-.732-.025l-1.091-4.355c-.713-.004-1.428.01-2.14.038.364 1.432.728 2.867 1.091 4.307a30.05 30.05 0 0 0-.735.021c-.362-1.438-.726-2.867-1.088-4.293-.712.043-1.422.1-2.134.178.364 1.409.723 2.823 1.086 4.24-.244.022-.488.043-.733.068-.362-1.413-.723-2.818-1.086-4.224-.71.091-1.421.194-2.131.321l1.086 4.171c-.244.039-.488.079-.733.121-.361-1.391-.724-2.773-1.084-4.156-.71.141-1.419.3-2.127.478.361 1.363.722 2.729 1.081 4.101-.243.057-.487.113-.729.172-.361-1.364-.724-2.726-1.084-4.084-.709.195-1.417.407-2.124.64.36 1.337.722 2.678 1.083 4.024-.243.074-.486.149-.73.229-.36-1.34-.722-2.675-1.082-4.004-.707.245-1.416.514-2.121.806.36 1.311.721 2.625 1.082 3.945-.245.093-.487.187-.729.283-.361-1.307-.721-2.619-1.079-3.921-.707.305-1.413.63-2.118.98.36 1.282.719 2.57 1.079 3.865-.244.112-.484.229-.727.345a1445.88 1445.88 0 0 0-1.079-3.84 47.1 47.1 0 0 0-2.113 1.163c.359 1.256.719 2.514 1.077 3.777l-.726.408c-.36-1.256-.719-2.504-1.079-3.748-.701.427-1.403.875-2.104 1.354.358 1.225.715 2.455 1.073 3.687-.241.157-.481.314-.724.477-.358-1.226-.716-2.451-1.075-3.665a55.92 55.92 0 0 0-2.104 1.555c.356 1.193.715 2.393 1.073 3.598-.24.178-.481.359-.723.544a1855.49 1855.49 0 0 0-1.073-3.57 63.664 63.664 0 0 0-2.099 1.757 824.82 824.82 0 0 1 1.068 3.501c-.24.202-.478.406-.719.615-.357-1.164-.714-2.323-1.071-3.473a70.225 70.225 0 0 0-2.095 1.973c.354 1.127.712 2.26 1.068 3.396l-.719.688-1.07-3.372a77.708 77.708 0 0 0-2.089 2.193c.355 1.094.71 2.19 1.065 3.297-.241.252-.477.507-.717.763-.356-1.094-.711-2.185-1.066-3.269a89.554 89.554 0 0 0-2.087 2.419c.355 1.058.711 2.12 1.064 3.191-.238.277-.477.558-.715.843-.355-1.059-.711-2.112-1.065-3.16-.693.856-1.388 1.74-2.078 2.653a684.47 684.47 0 0 1 1.058 3.081c-.237.307-.476.613-.713.925-.354-1.022-.708-2.04-1.062-3.049-.69.935-1.383 1.897-2.073 2.895.353.981.705 1.971 1.059 2.966-.236.33-.475.667-.712 1.008-.354-.983-.705-1.964-1.061-2.936a136.514 136.514 0 0 0-2.069 3.146c.351.941.705 1.895 1.056 2.851-.235.36-.473.726-.709 1.095-.353-.947-.705-1.888-1.058-2.82a157.396 157.396 0 0 0-2.063 3.402c.352.902.702 1.814 1.054 2.729-.237.392-.472.785-.709 1.183-.351-.906-.701-1.805-1.053-2.695a172.864 172.864 0 0 0-2.06 3.665c.35.861.7 1.729 1.053 2.604-.236.42-.472.848-.708 1.277-.35-.868-.7-1.726-1.052-2.574a200.309 200.309 0 0 0-2.052 3.934c.351.823.698 1.649 1.049 2.481-.236.454-.47.908-.705 1.366-.35-.821-.698-1.639-1.048-2.444l-.182.365c.698 1.609 1.396 3.25 2.099 4.92 69.562-133.457 146.758 85.728 216.18-54.247a456.07 456.07 0 0 1-2.094-4.918c-.312.596-.622 1.184-.933 1.765.341.845.689 1.686 1.039 2.523z"/><path fill="#016D4E" d="M62.206 56.217c-8.88 0-16.078 7.2-16.078 16.08s7.198 16.079 16.078 16.079c8.882 0 16.079-7.199 16.079-16.079s-7.197-16.08-16.079-16.08zm-4.599 23.259a2.58 2.58 0 1 1 0-5.16 2.58 2.58 0 0 1 0 5.16zm0-9.199a2.579 2.579 0 1 1 2.58-2.581 2.579 2.579 0 0 1-2.58 2.581zm9.199 9.199a2.58 2.58 0 1 1 0-5.161 2.58 2.58 0 0 1 0 5.161zm0-9.199a2.58 2.58 0 1 1 0-5.16 2.58 2.58 0 1 1 0 5.16z"/><path fill="#EE2C71" d="M160.786 262.513c-9.976 0-18.062 8.089-18.062 18.064s8.087 18.062 18.062 18.062c9.979 0 18.063-8.087 18.063-18.062s-8.083-18.064-18.063-18.064zm-5.167 26.129a2.899 2.899 0 1 1 0-5.798 2.9 2.9 0 0 1 0 5.798zm0-10.334a2.896 2.896 0 0 1-2.896-2.897 2.895 2.895 0 0 1 2.896-2.897 2.896 2.896 0 1 1 0 5.794zm10.337 10.334a2.901 2.901 0 0 1-2.903-2.897 2.9 2.9 0 1 1 2.903 2.897zm0-10.334a2.9 2.9 0 0 1-2.903-2.897 2.899 2.899 0 0 1 2.903-2.897c1.6 0 2.897 1.295 2.897 2.897a2.896 2.896 0 0 1-2.897 2.897zM238.315 105.438l-11.425-23.13c1.193-1.994 1.537-3.927.779-5.465-1.822-3.687-9.273-3.724-16.645-.081-7.373 3.642-11.871 9.582-10.053 13.269.76 1.539 2.506 2.439 4.813 2.703l2.401 4.859c-.771 1.695-1.626 5.047.61 9.364 1.73 3.339-.405 6.259-1.408 7.359-2.121 2.336-5.213 3.497-7.191 2.703a.481.481 0 1 0-.358.893c1.449.581 3.309.347 5.091-.533a10.813 10.813 0 0 0 3.173-2.416c2.363-2.602 2.942-5.761 1.55-8.449-1.756-3.39-1.445-6.101-.893-7.758l8.451 17.106c-1.192 1.996-1.538 3.929-.777 5.466 1.818 3.686 9.274 3.722 16.647.081 7.369-3.643 11.872-9.583 10.048-13.267-.758-1.539-2.501-2.44-4.813-2.704z"/><path fill="#F99E26" d="M227.068 187.133c-6.994-.771-13.289 4.267-14.061 11.26-.772 6.994 4.269 13.288 11.262 14.062 6.994.771 13.287-4.271 14.061-11.264.772-6.99-4.268-13.287-11.262-14.058zm1.953 5.332a.78.78 0 0 1 1.547.171l-1.03 9.326a.778.778 0 0 1-1.548-.17l1.031-9.327zm-6.571-.725a.778.778 0 1 1 1.546.17l-1.031 9.328a.777.777 0 0 1-1.547-.171l1.032-9.327zm10.765 14.577a11.573 11.573 0 0 1-8.542 2.474 11.583 11.583 0 0 1-7.794-4.28.776.776 0 1 1 1.212-.972 10.01 10.01 0 0 0 6.753 3.714c2.673.297 5.3-.469 7.401-2.15a.775.775 0 0 1 1.091.121.775.775 0 0 1-.121 1.093z"/><path fill="#F99E26" d="M219.324 186.546l-.526-.871a.44.44 0 0 0-.605-.151s2.015-5.652-4.429-6.365c-6.443-.709-10.958 4.725-7.599 18.01 3.357 13.285 2.042 15.746 2.042 15.746s1.796-.907.648-15.904 5.562-10.838 6.445-9.737a.442.442 0 0 0-.149.607l.528.872a.44.44 0 0 0 .604.149l2.893-1.75a.441.441 0 0 0 .148-.606zM241.791 182.257c-6.441-.712-5.711 5.244-5.711 5.244a.438.438 0 0 0-.624.014l-.704.735a.439.439 0 0 0 .012.623l2.442 2.339a.437.437 0 0 0 .621-.013l.706-.735a.442.442 0 0 0-.013-.625c1.102-.881 8.559-3.476 4.164 10.91-4.396 14.384-2.841 15.662-2.841 15.662s-.747-2.689 5.434-14.921c6.179-12.229 2.958-18.52-3.486-19.233z"/><path fill="#EE2C71" d="M245.015 66.149l-7.6-11.826-.468 14.05a.313.313 0 0 0-.002.155c.155.562 2.105.515 4.356-.105 2.253-.621 3.949-1.58 3.794-2.142a.314.314 0 0 0-.08-.132z"/><g fill="#EE2C71"><path d="M241.542 69.293c-.685.188-1.341.322-1.93.405l16.287 59.05 3.52-.97-16.275-59.018c-.483.193-1.024.373-1.602.533zM255.532 128.639l-16.235-58.877.155-.042c-1.086.134-1.909.075-2.18-.187l-.045.012 15.787 57.257 2.518 1.837zM245.376 67.298l-.048.014c-.098.375-.818.868-1.88 1.323l16.285 59.057.062-.017 1.322-3.108.049-.012-15.79-57.257z"/></g><path fill="#EE2C71" d="M272.19 154.769a5.63 5.63 0 1 0 5.628-5.633 5.63 5.63 0 0 0-5.628 5.633zM279.111 143.707c.746-4.471 1.348-8.128 1.336-8.128-.011 0-.563-1.213-1.227-2.696h-1.493a2.695 2.695 0 0 0-2.694 2.696v.315c.085.322.731 4.041 1.438 8.264.705 4.222 1.893 4.019 2.64-.451zM282.465 144.646c2.091-4.021 3.792-7.312 3.781-7.315-.01-.003-.159-1.329-.332-2.947l-1.417-.459a2.698 2.698 0 0 0-3.4 1.73l-.095.302c-.019.333-.553 4.068-1.186 8.302-.633 4.233.558 4.408 2.649.387zM285.365 146.577c3.231-3.178 5.868-5.783 5.859-5.79-.01-.006.258-1.313.593-2.904l-1.207-.877a2.699 2.699 0 0 0-3.768.598l-.186.257c-.12.31-1.781 3.697-3.692 7.528-1.911 3.832-.831 4.366 2.401 1.188zM287.525 149.31c4.057-2.024 7.369-3.687 7.362-3.695s.65-1.169 1.461-2.58l-.876-1.205a2.699 2.699 0 0 0-3.768-.598l-.257.188c-.208.259-2.835 2.968-5.837 6.021-3.002 3.051-2.14 3.892 1.915 1.869zM288.738 152.576c4.48-.672 8.146-1.23 8.143-1.24-.004-.011.981-.912 2.188-2.003l-.463-1.416a2.697 2.697 0 0 0-3.397-1.732l-.301.099c-.28.181-3.616 1.946-7.413 3.921-3.798 1.976-3.238 3.042 1.243 2.371z"/><path fill="#EE2C71" d="M288.881 156.057c4.47.746 8.128 1.348 8.128 1.336 0-.011 1.214-.563 2.697-1.229v-1.488a2.698 2.698 0 0 0-2.697-2.697h-.315c-.321.087-4.04.734-8.264 1.439-4.223.705-4.02 1.893.451 2.639zM287.939 159.411c4.022 2.092 7.314 3.794 7.318 3.782.003-.011 1.328-.161 2.944-.335l.462-1.417a2.698 2.698 0 0 0-1.732-3.396l-.301-.101c-.333-.016-4.07-.548-8.305-1.183-4.232-.633-4.407.558-.386 2.65zM286.009 162.312c3.178 3.232 5.784 5.87 5.79 5.86.007-.009 1.313.257 2.904.591l.876-1.204a2.694 2.694 0 0 0-.596-3.766l-.258-.188c-.31-.12-3.698-1.782-7.529-3.694s-4.365-.832-1.187 2.401zM283.277 164.473c2.024 4.056 3.688 7.367 3.695 7.361.009-.007 1.169.649 2.578 1.459l1.205-.874a2.696 2.696 0 0 0 .598-3.768l-.186-.257c-.259-.208-2.969-2.835-6.021-5.836-3.051-3.001-3.893-2.14-1.869 1.915zM280.011 165.686c.672 4.481 1.229 8.146 1.239 8.143.011-.003.91.98 2.001 2.187l1.418-.461a2.7 2.7 0 0 0 1.731-3.401l-.097-.299c-.181-.278-1.946-3.614-3.922-7.412s-3.042-3.24-2.37 1.243zM276.529 165.826c-.746 4.47-1.348 8.127-1.336 8.127.011 0 .563 1.217 1.228 2.703h1.49a2.7 2.7 0 0 0 2.697-2.703v-.315c-.087-.32-.735-4.038-1.44-8.261-.704-4.222-1.892-4.02-2.639.449zM273.175 164.887c-2.092 4.021-3.794 7.314-3.783 7.318.011.003.161 1.328.334 2.943l1.417.462a2.7 2.7 0 0 0 3.4-1.732l.097-.301c.017-.332.55-4.068 1.185-8.303.633-4.234-.558-4.409-2.65-.387zM270.275 162.955c-3.232 3.179-5.868 5.785-5.859 5.792.01.007-.258 1.313-.594 2.902l1.207.876a2.699 2.699 0 0 0 3.768-.598l.186-.254c.12-.31 1.781-3.698 3.693-7.53 1.911-3.831.831-4.366-2.401-1.188zM268.113 160.224c-4.056 2.024-7.369 3.688-7.363 3.696.007.01-.649 1.169-1.457 2.577l.873 1.207a2.696 2.696 0 0 0 3.77.596l.256-.188c.209-.257 2.836-2.965 5.838-6.019 3-3.052 2.138-3.894-1.917-1.869zM266.902 156.957c-4.482.671-8.147 1.229-8.143 1.24.004.011-.98.912-2.188 2.002l.46 1.416a2.699 2.699 0 0 0 3.4 1.732l.301-.098c.278-.181 3.614-1.945 7.413-3.921s3.241-3.042-1.243-2.371zM266.76 153.477c-4.471-.747-8.129-1.348-8.129-1.336v.018a2.697 2.697 0 1 0 0 5.396h.315c.323-.087 4.042-.734 8.265-1.439s4.019-1.893-.451-2.639zM267.699 150.121c-4.021-2.091-7.314-3.793-7.317-3.783s-1.328.161-2.944.334l-.46 1.418a2.699 2.699 0 0 0 1.732 3.4l.299.096c.333.016 4.07.548 8.304 1.183 4.234.634 4.409-.557.386-2.648zM269.63 147.222c-3.179-3.231-5.784-5.868-5.79-5.859-.007.009-1.313-.258-2.905-.593l-.872 1.206a2.696 2.696 0 0 0 .596 3.77l.253.185c.312.119 3.701 1.78 7.532 3.691 3.83 1.91 4.365.831 1.186-2.4zM272.362 145.061c-2.024-4.056-3.688-7.369-3.696-7.362-.01.006-1.17-.651-2.579-1.46l-1.205.877a2.695 2.695 0 0 0-.596 3.768l.186.254c.259.209 2.969 2.837 6.021 5.839 3.052 3.001 3.894 2.14 1.869-1.916zM275.629 143.85c-.671-4.482-1.229-8.147-1.239-8.144s-.911-.98-2.003-2.187l-1.417.462a2.692 2.692 0 0 0-1.73 3.397l.097.302c.181.279 1.946 3.615 3.922 7.413s3.042 3.24 2.37-1.243z"/><text transform="rotate(-31.717 223.42 -313.582)" fill="#EE2C71" font-family="'BorisBlackBloxx'" font-size="68.789">?</text><path fill="#F99E26" d="M174.359 199.077a.928.928 0 0 0-.367-1.249l-1.745-.953a.923.923 0 0 0-1.247.367l-13.875 25.436a.922.922 0 0 0 .368 1.246l1.744.952a.924.924 0 0 0 1.246-.367l13.876-25.432zM180.128 200.77c-2.3-1.04-4.189-1.884-4.191-1.876-.004.008-.004.008-.002.006 0-.006-.162-.101-.365-.21-.204-.112-1.357 1.613-2.566 3.832l-10.357 18.981c-1.21 2.219-2.033 4.121-1.829 4.231.203.113 2.1 1.325 4.222 2.697l41.541 26.899c2.12 1.375 4.979.762 6.354-1.354l3.992-6.168c1.37-2.12.759-4.979-1.359-6.352l-29.585-19.155c-2.121-1.372-1.972-1.645.331-.605l32.123 14.503c2.3 1.036 5.037.006 6.071-2.294l3.024-6.695a4.61 4.61 0 0 0-2.294-6.079l-45.11-20.361z"/><ellipse transform="scale(-1) rotate(69.06 337.064 -92.267)" fill="#DC1D42" cx="63.492" cy="231.931" rx="2.153" ry="1.946"/><ellipse transform="rotate(69.04 72.41 228.523)" fill="#DC1D42" cx="72.405" cy="228.523" rx="2.154" ry="1.946"/><ellipse transform="rotate(69.047 66.055 225.304)" fill="#DC1D42" cx="66.062" cy="225.296" rx="2.154" ry="1.946"/><ellipse transform="rotate(69.04 62.299 215.446)" fill="#DC1D42" cx="62.294" cy="215.446" rx="2.154" ry="1.946"/><ellipse transform="rotate(69.089 74.965 221.897)" fill="#DC1D42" cx="74.961" cy="221.891" rx="2.155" ry="1.948"/><path fill="#DC1D42" d="M62.999 209.366c.015.047.028.095.047.14.424 1.108 1.584 1.698 2.586 1.314 1.003-.382 1.474-1.596 1.05-2.704a1.291 1.291 0 0 1-.03-.068 2.436 2.436 0 0 0-.563.136l-3.09 1.182z"/><ellipse transform="rotate(69.066 68.635 218.676)" fill="#DC1D42" cx="68.638" cy="218.673" rx="2.154" ry="1.946"/><path fill="#DC1D42" d="M69.375 212.738c.425 1.108 1.585 1.698 2.588 1.314a1.76 1.76 0 0 0 .552-.339l-2.331-3.566c-.834.473-1.196 1.574-.809 2.591zM60.161 236.538a1.727 1.727 0 0 0-.44.249l.106.7c.223 1.441 1.415 2.233 2.654 1.759l.386-.147a2.305 2.305 0 0 0-.118-1.242c-.425-1.111-1.585-1.703-2.588-1.319zM60.494 224.095c1.002-.383 1.473-1.597 1.048-2.707-.424-1.108-1.585-1.7-2.588-1.316-1.002.384-1.472 1.599-1.048 2.709.425 1.107 1.585 1.698 2.588 1.314zM56.304 214.335c.14-.018.28-.052.416-.103 1.003-.384 1.473-1.598 1.05-2.706a7.29 7.29 0 0 0-.038-.086c-.888.58-1.47 1.745-1.428 2.895zM58.98 228.006a2.309 2.309 0 0 0-.762-1.02l.483 3.155c.44-.558.571-1.373.279-2.135z"/><path fill="#DC1D42" d="M58.173 211.369c.519 1.357-.057 2.841-1.281 3.31-.178.066-.358.11-.54.127l1.011 6.59c.152-.799.662-1.481 1.422-1.771 1.224-.469 2.643.253 3.162 1.607.519 1.356-.056 2.839-1.281 3.309-1.128.433-2.417-.146-3.02-1.298l.482 3.153a2.784 2.784 0 0 1 1.257 1.456c.408 1.064.137 2.207-.593 2.877l.849 5.534c.11-.066.226-.125.35-.174 1.225-.468 2.644.255 3.162 1.607.155.408.212.824.182 1.226l4.955-1.897a2.84 2.84 0 0 1-.681-1.032c-.519-1.354.056-2.839 1.281-3.308 1.224-.47 2.644.253 3.163 1.609.155.406.21.822.182 1.22l4.954-1.894a2.843 2.843 0 0 1-.68-1.032c-.52-1.354.056-2.839 1.281-3.309 1.225-.469 2.643.254 3.162 1.608.156.408.211.824.182 1.222l.471-.18c1.237-.473 1.597-1.859.798-3.083l-.744-1.141c-1.062.091-2.138-.598-2.575-1.74a2.752 2.752 0 0 1 .049-2.126l-6.356-9.726a2.196 2.196 0 0 1-.641.386c-1.226.468-2.645-.253-3.164-1.609-.469-1.226-.04-2.556.951-3.146l-.132-.2c-.593-.908-1.664-1.478-2.684-1.519.476 1.337-.098 2.78-1.303 3.241-1.226.47-2.644-.253-3.163-1.607-.018-.047-.03-.093-.046-.14l-4.411 1.688c-.024.008-.046.02-.069.03.019.045.041.088.058.132zm6.261 23.023c-1.226.467-2.645-.254-3.163-1.608-.519-1.355.056-2.841 1.281-3.31s2.644.253 3.162 1.609c.519 1.355-.055 2.841-1.28 3.309zm9.586-14.958c1.226-.471 2.646.25 3.163 1.606.52 1.355-.056 2.841-1.28 3.31-1.226.467-2.645-.253-3.161-1.607-.52-1.359.052-2.844 1.278-3.309zm-6.324-3.219c1.225-.469 2.643.253 3.162 1.609.519 1.354-.056 2.839-1.281 3.307-1.226.469-2.644-.252-3.162-1.608-.519-1.356.057-2.839 1.281-3.308zm3.769 9.848c1.225-.468 2.644.253 3.163 1.607.519 1.358-.057 2.839-1.282 3.309-1.226.469-2.644-.25-3.162-1.606-.519-1.357.055-2.841 1.281-3.31zm-10.111-13.075c1.225-.47 2.643.253 3.161 1.609.52 1.354-.055 2.839-1.28 3.308-1.225.47-2.644-.253-3.163-1.607-.519-1.358.056-2.841 1.282-3.31zm3.767 9.849c1.226-.468 2.644.253 3.163 1.607.519 1.358-.056 2.841-1.282 3.31-1.225.47-2.644-.251-3.161-1.609-.521-1.355.055-2.839 1.28-3.308z"/><path fill="#DC1D42" d="M81.354 227.241l-1.917-2.935c-.149.463-.145.996.05 1.507.325.848 1.081 1.393 1.867 1.428zM77.961 229.727c-1.002.385-1.473 1.599-1.048 2.709.158.418.423.76.743 1.006l3.012-1.151c.073-.397.04-.829-.12-1.247-.425-1.109-1.585-1.699-2.587-1.317zM69.061 233.132c-1.002.384-1.473 1.6-1.048 2.71.159.416.423.759.743 1.004l3.011-1.151c.073-.396.04-.828-.118-1.246-.425-1.109-1.587-1.702-2.588-1.317z"/><circle fill="#DC1D42" cx="265.203" cy="109.999" r="3.885"/><circle fill="#016D4E" cx="114.186" cy="246.933" r="3.273"/><circle fill="#016D4E" cx="252.308" cy="231.864" r="3.273"/><circle fill="#016D4E" cx="239.613" cy="275.079" r="3.273"/><circle fill="#016D4E" cx="159.21" cy="194.002" r="3.273"/><circle fill="#EE2C71" cx="124.38" cy="279.525" r="2.279"/><circle fill="#EE2C71" cx="127.811" cy="258.566" r="2.28"/><circle fill="#EE2C71" cx="188.742" cy="268.782" r="2.28"/><circle fill="#EE2C71" cx="210.628" cy="275.081" r="2.28"/><path fill="#016D4E" d="M125.53 291.807a7.996 7.996 0 0 0 7.996 7.997 7.996 7.996 0 1 0 0-15.992 7.996 7.996 0 0 0-7.996 7.995z"/><circle fill="#EE2C71" cx="13.213" cy="165.142" r="4.091"/><circle fill="#EE2C71" cx="99.464" cy="179.094" r="4.091"/><circle fill="#EE2C71" cx="7.125" cy="147.877" r="3.71"/><path fill="#DC1D42" d="M106.764 283.808a3.712 3.712 0 1 0 7.422 0 3.71 3.71 0 0 0-7.422 0zM129.691 275.077a3.71 3.71 0 1 0 7.421.005 3.71 3.71 0 0 0-7.421-.005zM188.741 280.829a3.71 3.71 0 1 0 0 0zM203.207 287.519a3.71 3.71 0 1 0 0 0z"/><circle fill="#DC1D42" cx="15.728" cy="139.337" r="2.098"/><circle fill="#DC1D42" cx="257.557" cy="78.471" r="1.976"/><circle fill="#EE2C71" cx="96.823" cy="260.248" r="2.607"/><circle fill="#EE2C71" cx="262.839" cy="216.092" r="2.607"/><circle fill="#EE2C71" cx="114.186" cy="260.25" r="1.686"/><circle fill="#EE2C71" cx="88.04" cy="282.516" r="1.687"/><circle fill="#EE2C71" cx="88.04" cy="270.466" r="1.163"/><circle fill="#EE2C71" cx="122.101" cy="269.303" r="1.163"/><circle fill="#016D4E" cx="7.124" cy="109.344" r="1.163"/><path fill="#016D4E" d="M92.572 281.128a1.164 1.164 0 1 0 2.329-.003 1.164 1.164 0 0 0-2.329.003zM17.305 155.433a1.164 1.164 0 1 0 2.327-.001 1.164 1.164 0 0 0-2.327.001z"/><circle fill="#016D4E" cx="1.458" cy="139.991" r="1.164"/><circle fill="#EE2C71" cx="135.087" cy="250.665" r="1.686"/><circle fill="#EE2C71" cx="13.214" cy="120.624" r="1.686"/><circle fill="#EE2C71" cx="106.764" cy="268.782" r="1.686"/><circle fill="#EE2C71" cx="271.095" cy="80.446" r="3.274"/><circle fill="#EE2C71" cx="263.916" cy="94.615" r="2.28"/><path fill="#016D4E" d="M283.307 122.578a3.71 3.71 0 1 1-7.42.006 3.71 3.71 0 0 1 7.42-.006z"/><circle fill="#EE2C71" cx="273.128" cy="65.636" r="2.608"/><circle fill="#016D4E" cx="283.967" cy="90.651" r="1.687"/><circle fill="#EE2C71" cx="182.287" cy="125.853" r="3.274"/><circle fill="#016D4E" cx="192.226" cy="133.229" r="1.687"/><circle fill="#016D4E" cx="255.581" cy="65.637" r="1.685"/><circle fill="#EE2C71" cx="281.117" cy="109.997" r="1.163"/><path fill="#EE2C71" d="M278.036 98.365c0 .646-.521 1.163-1.163 1.163a1.161 1.161 0 1 1 0-2.324c.642 0 1.163.52 1.163 1.161z"/><circle fill="#EE2C71" cx="292.084" cy="113.869" r="1.686"/><path fill="#016D4E" d="M100.532 136.046a3.71 3.71 0 1 1-7.42 0 3.71 3.71 0 1 1 7.42 0z"/><circle fill="#EE2C71" cx="106.761" cy="124.646" r="1.163"/><circle fill="#EE2C71" cx="110.872" cy="132.341" r="1.687"/><circle fill="#016D4E" cx="109.238" cy="12.677" r="3.274"/><path fill="#016D4E" d="M67.615 33.605a3.71 3.71 0 1 1-7.421.005 3.71 3.71 0 0 1 7.421-.005z"/><circle fill="#EE2C71" cx="80.416" cy="25.024" r="2.608"/><circle fill="#EE2C71" cx="82.102" cy="14.363" r="1.686"/><circle fill="#EE2C71" cx="96.43" cy="20.139" r="1.163"/><path fill="#EE2C71" d="M101.689 25.025a1.163 1.163 0 1 1-2.326-.002 1.163 1.163 0 0 1 2.326.002z"/><circle fill="#EE2C71" cx="90.505" cy="26.189" r="1.686"/><path fill="#EE2C71" d="M81.204 33.61a1.686 1.686 0 1 1-1.684-1.688c.931 0 1.684.756 1.684 1.688z"/><circle fill="#EE2C71" cx="40.944" cy="236.601" r="1.163"/><circle fill="#EE2C71" cx="45.041" cy="241.487" r="1.163"/><circle fill="#EE2C71" cx="37.627" cy="241.487" r="1.686"/><path fill="#DC1D42" d="M156.584 14.898a3.71 3.71 0 1 0 7.42.006 3.71 3.71 0 0 0-7.42-.006z"/><circle fill="#EE2C71" cx="153.576" cy="2.804" r="2.608"/><circle fill="#EE2C71" cx="147.652" cy="7.331" r="1.163"/><path fill="#EE2C71" d="M142.393 12.217a1.164 1.164 0 1 0 2.328-.002 1.164 1.164 0 0 0-2.328.002z"/><circle fill="#EE2C71" cx="150.969" cy="12.217" r="1.687"/><circle fill="#016D4E" cx="159.21" cy="42.318" r="2.607"/><circle fill="#016D4E" cx="138.162" cy="29.899" r="2.607"/><circle fill="#EE2C71" cx="141.807" cy="48.529" r="1.687"/><circle fill="#EE2C71" cx="153.285" cy="46.842" r="1.163"/><circle fill="#EE2C71" cx="149.189" cy="51.729" r="1.164"/><circle fill="#EE2C71" cx="156.603" cy="51.729" r="1.686"/><path fill="#EE2C71" d="M112.549 214.406a1.164 1.164 0 1 1-2.328-.002 1.164 1.164 0 0 1 2.328.002z"/><circle fill="#EE2C71" cx="103.972" cy="214.406" r="1.686"/><circle fill="#EE2C71" cx="7.125" cy="131.622" r="3.146"/><path fill="#EE2C71" d="M190.182 187.053a3.71 3.71 0 1 0 7.421 0 3.71 3.71 0 0 0-7.421 0z"/><circle fill="#DC1D42" cx="206.206" cy="159.701" r="2.099"/><path fill="#016D4E" d="M190.771 160.355a1.164 1.164 0 1 0 2.325 0 1.164 1.164 0 0 0-2.325 0z"/><circle fill="#EE2C71" cx="156.603" cy="127.691" r="3.146"/><circle fill="#EE2C71" cx="92.516" cy="210.455" r="1.686"/><path fill="#EE2C71" d="M50.737 252.842a3.146 3.146 0 1 0 6.292 0 3.146 3.146 0 0 0-6.292 0z"/><circle fill="#016D4E" cx="222.302" cy="23.43" r="1.685"/><path fill="#EE2C71" d="M39.863 62.036a1.164 1.164 0 1 1-2.023-1.15 1.161 1.161 0 0 1 1.584-.433c.558.316.756 1.025.439 1.583zM240.042 244.235a1.163 1.163 0 1 1-2.023-1.15 1.163 1.163 0 0 1 2.023 1.15z"/><circle fill="#DC1D42" cx="33.554" cy="64.073" r="1.686"/><path fill="#DC1D42" d="M223.212 28.761a1.687 1.687 0 0 1-3.351.378 1.685 1.685 0 1 1 3.351-.378z"/><circle fill="#EE2C71" cx="226.807" cy="27.619" r="1.162"/><circle fill="#016D4E" cx="26.199" cy="90.492" r="3.273"/><circle fill="#EE2C71" cx="35.348" cy="114.947" r="2.28"/><circle fill="#EE2C71" cx="40.944" cy="161.054" r="2.28"/><circle fill="#EE2C71" cx="27.363" cy="99.934" r="1.163"/><circle fill="#EE2C71" cx="240.195" cy="231.864" r="1.163"/><circle fill="#EE2C71" cx="37.627" cy="87.835" r="1.686"/><path fill="#FFC552" d="M39.837 100.325a3.147 3.147 0 0 0 3.144 3.146 3.147 3.147 0 0 0 0-6.292 3.146 3.146 0 0 0-3.144 3.146zM32.095 136.599a3.147 3.147 0 0 0 3.144 3.146 3.147 3.147 0 0 0 0-6.292 3.145 3.145 0 0 0-3.144 3.146zM222.499 283.812a3.147 3.147 0 0 0 3.144 3.146 3.147 3.147 0 0 0 0-6.292 3.145 3.145 0 0 0-3.144 3.146zM70.271 51.729a3.147 3.147 0 0 0 3.144 3.146 3.147 3.147 0 0 0 0-6.292 3.146 3.146 0 0 0-3.144 3.146z"/><path fill="#016D4E" d="M217.364 47.047a3.275 3.275 0 0 0 3.27 3.274 3.275 3.275 0 1 0 0-6.547 3.273 3.273 0 0 0-3.27 3.273z"/><circle fill="#EE2C71" cx="284.207" cy="201.082" r="2.28"/><circle fill="#EE2C71" cx="261.154" cy="195.689" r="1.685"/><circle fill="#EE2C71" cx="272.258" cy="197.753" r="1.163"/><circle fill="#EE2C71" cx="245.856" cy="35.474" r="1.164"/><circle fill="#EE2C71" cx="232.065" cy="44.39" r="1.686"/><path fill="#DC1D42" d="M240.161 44.391a3.148 3.148 0 0 0 3.144 3.146 3.15 3.15 0 0 0 3.149-3.146 3.148 3.148 0 0 0-6.293 0z"/></svg>