<svg xmlns="http://www.w3.org/2000/svg" viewBox="0 0 22.017 22.017" width="512" height="512"><path d="M11.189.034L11.009 0l-.18.033a10.15 10.15 0 0 0-.82 19.779v1.205a1 1 0 1 0 2 0v-1.205a10.147 10.147 0 0 0-.82-19.778zm.82 17.683v-11.7a1 1 0 1 0-2 0v11.7a8.139 8.139 0 0 1-5.49-7.483l3.137 3.137a.498.498 0 0 0 .707 0 .5.5 0 0 0 0-.707L4.594 8.895a8.137 8.137 0 0 1 .876-2.709l2.184 2.185a.505.505 0 0 0 .709 0 .5.5 0 0 0 0-.707L6.01 5.311a8.132 8.132 0 0 1 4.999-3.275 8.14 8.14 0 0 1 4.999 3.275l-2.353 2.353a.5.5 0 0 0 .708.707l2.184-2.185c.444.832.744 1.745.877 2.709l-3.769 3.769a.5.5 0 0 0 .708.707l3.137-3.137a8.143 8.143 0 0 1-5.491 7.483z" fill="#FFF"/></svg>