<svg xmlns="http://www.w3.org/2000/svg" width="400" height="400" viewBox="0 0 400 400"><g fill="#3F3F3F"><path d="M52.885 321.355c3.164 5.313 7.72 5.818 11.01 5.818h4.556v14.048h-5.695c-6.833 0-13.034-.507-19.108-10.377l-10.125-16.452h-.886c-10.251 0-13.036 1.015-18.351 3.799v23.03H1V275.67h42.267c12.023 0 20.628 8.352 20.628 19.741 0 9.998-5.567 16.198-15.061 19.106l4.051 6.838zm-9.618-19.996c3.924 0 7.34-2.149 7.34-6.325 0-5.822-5.062-6.329-9.618-6.329H14.287v16.452c5.064-2.785 11.516-3.798 18.351-3.798h10.629zM109.449 274.152h14.047l35.434 67.069h-14.301l-5.188-9.871h-7.845c-16.2 0-33.031 6.329-35.182 9.113l-.379.758H82.367l31.384-58.845-4.302-8.224zm23.79 45.305l-12.781-24.298-15.565 29.992c4.176-2.15 13.035-5.694 26.576-5.694h1.77zM208.154 341.224h-16.833l-28.474-65.552h14.678l22.146 52.264 22.652-52.264h14.809l-28.978 65.552zM270.285 328.062h41.13v13.159h-54.037V275.67h51.634v13.033h-38.727v15.943c5.695-3.289 12.908-3.797 20.502-3.797h9.615v13.035h-9.615c-12.023 0-14.807.762-20.502 3.796v10.382zM345.454 275.672l39.606 45.56v-45.56h13.035v65.552H385.06l-36.444-42.646v42.646h-13.034v-55.809l-6.454-9.743h16.326z"/></g><path fill="#3F3F3F" d="M319.132 2.849c-1.874-1.116-4.312-1.937-6.458-1.842-17.213.763-34.417 1.769-51.625 2.713a11.42 11.42 0 0 0-2.255.36c-8.417 2.222-14.62 6.706-16.549 15.801-.353 1.661-1.599 3.112-2.278 4.724a87.604 87.604 0 0 0-2.359 6.303c-.646 1.915-.688 4.207-1.801 5.757-3.127 4.363-3.961 9.183-4.203 14.359-.457 9.741-3.723 17.831-13.69 21.649-1.409.538-2.64 1.531-4.031 2.122-6.877 2.924-11.661 8.017-14.906 14.584-4.086 8.271-10.513 13.498-19.455 15.698-.978.242-1.873.861-2.854 1.044l-84.732 27.805c-1.735.155-4.041-.241-3.932 2.332.148 3.565-2.471 3.995-4.756 4.931a6397.617 6397.617 0 0 1-23.199 9.443c-1.873.757-3.729 1.78-5.685 2.072-4.201.624-7.428 2.841-10.482 5.509v6.106c17.496 1.312 34.163-3.421 50.969-7.063 6.921-1.5 13.773-3.323 20.676-4.903 1.167-.265 2.446-.038 3.946.922-5.539 2.002-11.006 4.241-16.631 5.965-19.395 5.948-38.507 12.6-56.734 21.603-.632.312-1.48.187-2.227.266v3.052c1.205-.289 2.396-.728 3.615-.826 1.102-.089 2.72-.244 3.279.379 4.91 5.468 11.238 3.801 17.014 3.043 3.387-.446 6.557-4.303 9.5.728.19.325 1.514.223 2.193-.016 2.82-.993 5.646-2.003 8.373-3.225 2.039-.916 3.809-2.547 5.905-3.192 1.007-.31 2.022-.596 3.036-.888v7.131c.747-.08 1.595.046 2.227-.266 6.261-3.092 12.631-5.89 19.076-8.496-5.233 6.598-10.313 13.046-15.491 19.398-2.564 3.146-4.995 6.658-8.234 8.941-5.99 4.221-6.988 11.253-10.622 16.751-.054.081.526.586.871.96 2.912-2.429 5.792-4.899 8.746-7.278 14.277-11.501 29.574-21.456 45.647-30.253 8.378-4.586 16.606-9.448 24.983-14.032 1.237-.681 2.931-.671 4.422-.713 3.466-.096 6.938-.029 10.702-.029.662 1.365 1.111 3.69 2.516 4.77 1.231.942 3.537.481 5.88.686-3.289 5.434-5.188 10.929-4.024 17.383 1.673 9.273 6.196 16.431 13.616 22.091 2.772 2.114 5.214 4.752 7.467 7.437 2.938 3.496 5.604 7.229 8.247 10.959.924 1.301 1.438 2.895 2.445 4.982-5.826.109-10.724.628-15.637-1.54-4.439-1.957-5.84-1.142-8.95 3.445 4.605-2.25 4.557-2.169 9.901 1.056 1.137.686 2.842.907 4.188.699 9.254-1.42 18.084-.571 26.396 4.105 1.814 1.021 3.906 1.547 6.13 2.397-.26-3.207-2.54-3.858-4.562-4.695-2.146-.889-4.352-1.639-6.529-2.446 4.768-.405 9.34-.521 13.775.196 4.166.675 8.207 1.05 12.466-.698l-20.235-3.035c2.342-1.24 4.467-2.368 6.589-3.496-.165-.479-.335-.954-.503-1.432-4.121.762-8.238 1.526-12.363 2.283-2.81.518-5.441.867-7.509-1.986-5.657-7.816-11.491-15.508-17.213-23.281-1.39-1.893-1.717-3.756-1.07-6.338 1.279-5.116 2.045-10.436 2.35-15.708.339-5.909.756-11.312 8.098-12.551.688-.116 1.326-.749 1.904-1.238 2.871-2.436 6.277-4.286 9.706-2.259 3.382 2 7.146-.113 10.213 1.876.979.634 2.036 1.813 2.214 2.885.666 3.953 1.561 8.007 1.294 11.952-.461 6.832 1.464 12.518 6.188 17.313a401.897 401.897 0 0 0 9.813 9.599c5.354 5.065 9.271 11.158 13.369 17.508-1.278.408-2.035.923-2.679.809-3.953-.693-7.936-1.332-11.801-2.377-3.535-.956-6.326-.52-8.9 2.854 4.413-.756 4.415-.692 9.723 1.686 1.073.48 2.432.618 3.62.51 8.563-.771 16.937-.641 24.626 4.033 1.354.823 3.016 1.145 5.365 1.998-1.732-4.77-6.104-4.311-9.762-7.389 4.882.383 8.613.332 12.188 1.051 3.542.713 6.89.583 10.404-.881l-17.771-3.396c1.907-1.104 3.668-2.119 5.432-3.14-3.994-.125-7.835.104-11.323 1.332-3.387 1.192-5.315.03-7.136-2.425-3.784-5.102-7.428-10.312-11.396-15.27-4.584-5.723-8.094-11.607-5.701-19.342.213-.697.1-1.523.028-2.278-.653-7.091 1.431-13.578 4.554-19.767 2.282-4.528 4.766-8.961 7.322-13.338 5.436-9.288 11.398-18.222 17.749-26.969l11.765-15.476c4.898-5.05 5.058-12.518 9.522-17.742.562-.654.413-1.95.517-2.956.451-4.475-1.061-8.304-3.137-12.29-1.673-3.214-3.83-16.815-3.83-16.815-.264-1.565-.498-2.302-.49-3.035.078-6.34-1.646-11.952-6.203-16.59-1.223-1.244-2.108-2.857-2.971-4.404-2.179-3.912-1.859-7.473.707-11.372 2.752-4.178 6.153-7.206 10.562-9.403 7.481-3.733 14.934-7.533 22.282-11.514 1.66-.898 3.849-2.569 3.979-4.047.131-1.398-1.849-3.477-3.406-4.405z"/><g fill="#3F3F3F"><path d="M71.318 372.248l-7.826 25.235h-4.713l-5.165-16.507c-.082-.23-.164-.484-.244-.766a13.607 13.607 0 0 1-.226-.887 14.48 14.48 0 0 1-.469 1.653l-5.218 16.507h-4.73l-7.809-25.235H39.3c.452 0 .833.104 1.139.312.307.208.507.486.6.834l3.913 14.229c.093.394.188.819.287 1.277.099.458.195.94.287 1.45.104-.521.214-1.009.331-1.461.115-.45.243-.875.382-1.269l4.557-14.229c.092-.288.292-.553.6-.791.307-.235.681-.354 1.121-.354h1.531c.452 0 .82.105 1.104.321.284.215.495.488.635.824l4.539 14.229c.139.37.266.771.382 1.208.116.435.226.896.331 1.382.092-.486.182-.947.269-1.382.087-.437.177-.838.271-1.208l3.913-14.229c.081-.302.278-.565.591-.8.313-.229.69-.348 1.131-.348h4.104v.005zM93.318 376.335v6.486h8.417v3.947h-8.417v6.628h10.818v4.087h-16.07v-25.235h16.07v4.087H93.318zM130.9 372.248c1.693 0 3.139.159 4.339.479 1.2.318 2.18.771 2.938 1.356.759.586 1.313 1.296 1.662 2.131.348.834.521 1.771.521 2.8 0 .58-.085 1.138-.252 1.669a5.01 5.01 0 0 1-.782 1.505c-.354.472-.81.896-1.366 1.278-.557.382-1.218.707-1.983.976 1.716.404 2.985 1.065 3.809 1.981.823.915 1.235 2.104 1.235 3.564a7.195 7.195 0 0 1-.618 2.975 6.715 6.715 0 0 1-1.8 2.382c-.789.673-1.759 1.198-2.913 1.574-1.154.377-2.479.565-3.974.565h-9.773v-25.235h8.957zm-3.739 3.966v6.817h3.426a9.2 9.2 0 0 0 1.949-.186c.567-.121 1.043-.313 1.426-.582a2.6 2.6 0 0 0 .877-1.053c.203-.435.305-.959.305-1.573 0-.626-.084-1.157-.252-1.6a2.365 2.365 0 0 0-.774-1.062c-.348-.267-.789-.46-1.321-.583-.534-.119-1.166-.182-1.896-.182h-3.74v.004zm4.47 17.269c.834 0 1.521-.104 2.061-.307.54-.202.971-.473 1.296-.809.324-.336.55-.722.678-1.157.127-.435.191-.884.191-1.348 0-.512-.075-.967-.226-1.373a2.455 2.455 0 0 0-.731-1.035c-.336-.283-.774-.501-1.313-.652-.538-.148-1.202-.226-1.991-.226h-4.436v6.904l4.471.003zM181.562 384.857c0 1.843-.31 3.539-.93 5.087-.621 1.547-1.496 2.878-2.626 3.989-1.131 1.113-2.49 1.982-4.079 2.608-1.588.626-3.351.939-5.287.939h-9.705v-25.235h9.705c1.936 0 3.698.312 5.287.938 1.589.627 2.948 1.498 4.079 2.617 1.13 1.119 2.005 2.449 2.626 3.991.62 1.547.93 3.233.93 5.066zm-5.356 0c0-1.322-.175-2.512-.522-3.565-.347-1.054-.846-1.947-1.496-2.679a6.537 6.537 0 0 0-2.374-1.688c-.934-.394-1.992-.592-3.174-.592h-4.452v17.062h4.452c1.182 0 2.24-.192 3.174-.584a6.35 6.35 0 0 0 2.374-1.688c.649-.736 1.148-1.631 1.496-2.688.347-1.05.522-2.245.522-3.578zM204.57 376.335v6.486h8.418v3.947h-8.418v6.628h10.816v4.087h-16.07v-25.235h16.07v4.087H204.57zM246.865 377.082c-.161.268-.327.462-.494.584-.17.121-.387.182-.653.182-.254 0-.53-.089-.825-.269a20.063 20.063 0 0 0-1.033-.583 10.37 10.37 0 0 0-1.356-.583c-.511-.18-1.106-.271-1.791-.271-1.206 0-2.108.271-2.714.812-.604.539-.904 1.242-.904 2.112 0 .557.165 1.017.496 1.383.331.364.766.682 1.307.945a11.6 11.6 0 0 0 1.834.715c.686.21 1.385.438 2.104.688.718.249 1.42.541 2.104.877a7.463 7.463 0 0 1 1.834 1.271 5.84 5.84 0 0 1 1.307 1.868c.328.736.492 1.633.492 2.688 0 1.148-.197 2.225-.6 3.227a7.603 7.603 0 0 1-1.729 2.626c-.754.748-1.686 1.339-2.792 1.768-1.107.429-2.364.644-3.765.644-.803 0-1.601-.082-2.394-.244a13.513 13.513 0 0 1-2.296-.679c-.737-.289-1.432-.637-2.079-1.043s-1.217-.855-1.705-1.354l1.531-2.472c.128-.185.295-.339.505-.46.209-.123.429-.184.661-.184.312 0 .646.116.989.349.35.231.748.487 1.199.767.453.276.979.532 1.573.766.599.232 1.313.348 2.147.348 1.218 0 2.16-.276 2.828-.835.666-.556.998-1.386.998-2.485 0-.639-.164-1.153-.496-1.547-.328-.396-.762-.727-1.293-.992a10.387 10.387 0 0 0-1.826-.688 46.816 46.816 0 0 1-2.105-.635 17.339 17.339 0 0 1-2.104-.835 6.438 6.438 0 0 1-1.826-1.287c-.534-.533-.965-1.194-1.297-1.981-.328-.787-.493-1.77-.493-2.938 0-.939.185-1.849.555-2.73a6.988 6.988 0 0 1 1.636-2.348c.719-.684 1.604-1.233 2.653-1.652 1.05-.416 2.251-.626 3.608-.626 1.519 0 2.923.234 4.218.704 1.292.472 2.385 1.122 3.276 1.956l-1.285 2.441zM271.525 397.483h-5.252v-25.235h5.252v25.235zM303.007 384.631h8.659v10.418a13.515 13.515 0 0 1-4.113 2.062c-1.455.435-2.994.65-4.617.65-2.074 0-3.953-.32-5.634-.966-1.682-.644-3.12-1.539-4.313-2.687a11.934 11.934 0 0 1-2.764-4.087c-.649-1.577-.975-3.3-.975-5.165 0-1.893.311-3.623.93-5.2.62-1.577 1.504-2.936 2.651-4.07 1.149-1.136 2.536-2.021 4.165-2.66 1.629-.638 3.453-.957 5.47-.957 1.043 0 2.021.085 2.923.252.903.169 1.739.4 2.504.695.769.297 1.469.647 2.104 1.053.637.406 1.217.854 1.739 1.339l-1.514 2.331c-.232.37-.533.599-.904.681-.371.08-.777-.014-1.217-.278a17.837 17.837 0 0 0-1.229-.688 9.118 9.118 0 0 0-2.757-.878 12.392 12.392 0 0 0-1.845-.122c-1.17 0-2.23.203-3.183.608-.95.406-1.76.98-2.426 1.722-.668.742-1.181 1.638-1.539 2.681-.36 1.044-.54 2.209-.54 3.496 0 1.391.197 2.635.593 3.729.394 1.097.948 2.021 1.669 2.774a7.148 7.148 0 0 0 2.582 1.722c1.004.394 2.119.592 3.35.592.834 0 1.578-.085 2.233-.252a11.105 11.105 0 0 0 1.921-.688v-4.243h-2.853c-.335 0-.599-.091-.79-.271a.902.902 0 0 1-.286-.687v-2.904l.006-.002zM351.458 372.248v25.235h-2.696c-.404 0-.748-.067-1.023-.2-.278-.133-.555-.362-.818-.688l-12.572-16.001c.034.406.062.808.076 1.2.02.396.027.76.027 1.096v14.594h-4.609v-25.235h2.747c.222 0 .408.009.565.026.156.017.3.058.428.119.125.064.249.147.364.255.114.104.241.241.383.417l12.659 16.068a27.91 27.91 0 0 1-.104-1.276 22.194 22.194 0 0 1-.034-1.176v-14.436l4.607.002z"/></g></svg>