<svg xmlns="http://www.w3.org/2000/svg" width="200" height="50" viewBox="0 0 200 50"><g fill="#FFF"><path d="M73.266 24.346c.809 1.357 1.973 1.484 2.812 1.484h1.164v3.59h-1.455c-1.745 0-3.329-.129-4.88-2.65l-2.585-4.203h-.227c-2.619 0-3.329.259-4.688.97v5.883h-3.394V12.676H70.81c3.071 0 5.269 2.134 5.269 5.042 0 2.554-1.421 4.138-3.847 4.881l1.034 1.747zm-2.456-5.108c1.002 0 1.875-.549 1.875-1.616 0-1.487-1.292-1.616-2.457-1.616h-6.821v4.202c1.294-.711 2.942-.97 4.688-.97h2.715zM87.715 12.289h3.587l9.052 17.131h-3.653l-1.326-2.521h-2.003c-4.139 0-8.438 1.617-8.988 2.328l-.096.193h-3.491l8.017-15.031-1.099-2.1zm6.076 11.572l-3.264-6.207-3.976 7.663c1.066-.55 3.33-1.456 6.789-1.456h.451zM112.927 29.42h-4.3l-7.271-16.744h3.748l5.656 13.352 5.787-13.352h3.781l-7.401 16.744zM128.797 26.061h10.506v3.359H125.5V12.676h13.189v3.33h-9.894v4.072c1.455-.841 3.297-.971 5.237-.971h2.455v3.33h-2.455c-3.071 0-3.782.195-5.237.97l.002 2.654zM147.997 12.676l10.116 11.638V12.676h3.33V29.42h-3.33l-9.309-10.893V29.42h-3.33V15.165l-1.647-2.489h4.17z"/></g><path fill="#FFF" d="M46.983 4.62c-.299-.178-.688-.309-1.031-.294-2.745.122-5.49.282-8.235.433a1.69 1.69 0 0 0-.36.058c-1.342.354-2.332 1.07-2.64 2.52-.056.266-.255.497-.363.754-.139.33-.263.667-.376 1.005-.103.306-.11.671-.288.919-.499.696-.632 1.464-.67 2.29-.072 1.555-.594 2.845-2.184 3.455-.225.085-.42.244-.643.337-1.097.467-1.86 1.279-2.378 2.327-.651 1.319-1.677 2.153-3.104 2.504-.156.039-.299.137-.456.167l-13.519 4.434c-.276.025-.645-.037-.627.373.024.568-.395.637-.759.787a1100.52 1100.52 0 0 1-3.701 1.506c-.299.119-.595.283-.908.33-.67.102-1.185.453-1.672.882v.973c2.792.209 5.45-.546 8.132-1.128 1.104-.238 2.197-.529 3.298-.779.187-.043.391-.008.63.146-.884.319-1.756.676-2.653.952-3.095.949-6.143 2.01-9.051 3.445-.101.051-.236.029-.355.043v.487c.192-.048.382-.116.577-.133.175-.015.434-.038.523.062.784.871 1.792.605 2.714.484.54-.07 1.046-.686 1.516.116.03.053.242.034.35-.002.45-.16.9-.32 1.336-.515.325-.146.607-.406.942-.51.16-.051.323-.096.484-.143v1.138c.119-.013.254.008.355-.043a45.768 45.768 0 0 1 3.043-1.354c-.834 1.054-1.646 2.082-2.471 3.096-.409.502-.797 1.062-1.314 1.426-.956.674-1.115 1.794-1.694 2.672-.009.016.084.094.139.153.464-.388.924-.781 1.396-1.161 2.278-1.835 4.718-3.423 7.282-4.825 1.337-.731 2.65-1.507 3.986-2.237.197-.107.468-.107.706-.115.553-.016 1.107-.006 1.708-.006.105.22.177.591.402.762.196.15.563.078.938.111-.525.865-.828 1.742-.642 2.772.267 1.478.989 2.621 2.172 3.522.443.338.832.759 1.192 1.188a26.7 26.7 0 0 1 1.315 1.749c.146.206.229.461.391.794-.93.018-1.711.1-2.495-.246-.708-.312-.932-.183-1.429.551.735-.359.728-.348 1.58.168.182.109.454.145.667.11 1.477-.228 2.886-.091 4.212.656.289.162.623.245.978.382-.042-.512-.405-.617-.728-.749-.343-.142-.694-.263-1.042-.39.761-.066 1.49-.084 2.198.031.665.106 1.309.166 1.989-.111l-3.229-.484c.374-.197.712-.378 1.051-.559l-.08-.229-1.972.364c-.449.082-.869.138-1.199-.317-.902-1.246-1.833-2.473-2.746-3.715-.222-.301-.274-.598-.171-1.009.204-.816.327-1.664.375-2.506.054-.942.121-1.805 1.292-2.003.11-.019.211-.119.304-.198.458-.389 1.002-.684 1.548-.359.54.318 1.14-.018 1.63.299.156.103.325.289.353.463.106.63.249 1.275.206 1.904-.073 1.092.234 1.998.987 2.764.513.52 1.036 1.027 1.565 1.531.855.808 1.479 1.78 2.133 2.793-.204.064-.325.146-.428.129-.63-.111-1.266-.213-1.882-.379-.564-.152-1.009-.082-1.42.455.704-.121.705-.111 1.551.268.171.076.388.1.578.082 1.366-.124 2.702-.104 3.929.644.216.132.481.183.855.318-.276-.761-.974-.688-1.557-1.179.778.062 1.374.054 1.943.168.566.115 1.1.093 1.66-.142l-2.835-.541.867-.503c-.638-.018-1.251.02-1.807.213-.541.192-.849.008-1.138-.387-.604-.812-1.186-1.645-1.818-2.436-.731-.914-1.291-1.854-.91-3.086.035-.109.017-.242.005-.362-.104-1.132.229-2.165.727-3.153.364-.723.76-1.431 1.168-2.128a51.857 51.857 0 0 1 2.832-4.302l1.876-2.47c.781-.806.807-1.997 1.519-2.831.091-.104.066-.312.083-.471.072-.714-.169-1.325-.5-1.961-.267-.513-.611-2.682-.611-2.682-.042-.25-.08-.368-.078-.485.012-1.011-.263-1.906-.99-2.646-.195-.198-.337-.456-.474-.702-.348-.625-.297-1.193.112-1.815a4.181 4.181 0 0 1 1.686-1.5 118.157 118.157 0 0 0 3.555-1.837c.264-.143.613-.409.634-.645.021-.223-.294-.554-.542-.702z"/><g fill="#FFF"><path d="M69.975 35.346l-1.999 6.443h-1.205l-1.318-4.214c-.02-.06-.042-.125-.062-.195a4.187 4.187 0 0 1-.058-.228 4.745 4.745 0 0 1-.057.228c-.021.07-.042.136-.062.195l-1.333 4.214h-1.208l-1.994-6.443h1.119c.116 0 .212.025.291.078.079.055.13.125.153.215l1 3.635a10.209 10.209 0 0 1 .146.695c.026-.133.056-.258.085-.371.029-.115.062-.225.098-.326l1.164-3.633a.414.414 0 0 1 .153-.203.455.455 0 0 1 .287-.092h.391a.45.45 0 0 1 .281.082.52.52 0 0 1 .163.213l1.16 3.633c.035.096.067.196.097.309.029.111.058.23.084.354l.069-.354c.021-.111.044-.213.068-.309l1-3.633a.375.375 0 0 1 .15-.205.463.463 0 0 1 .289-.09h1.049l-.001.002zM75.594 36.389v1.657h2.15v1.009h-2.15v1.692h2.764v1.042h-4.104v-6.443h4.104v1.043h-2.764zM85.194 35.346c.433 0 .802.039 1.108.121.307.08.557.197.751.346.193.15.335.334.424.547.089.211.134.451.134.714 0 .147-.021.291-.064.427a1.226 1.226 0 0 1-.2.384c-.09.122-.207.229-.348.328a2.185 2.185 0 0 1-.508.249c.438.104.762.271.973.506.211.232.315.538.315.909 0 .272-.053.526-.157.76-.105.234-.257.438-.459.61s-.451.305-.745.398a3.185 3.185 0 0 1-1.014.146h-2.498v-6.442h2.288v-.003zm-.955 1.011v1.74h.874c.188 0 .353-.017.498-.046a.967.967 0 0 0 .364-.149.651.651 0 0 0 .225-.269c.052-.112.078-.245.078-.403s-.021-.295-.064-.406a.608.608 0 0 0-.197-.272.93.93 0 0 0-.338-.149 2.423 2.423 0 0 0-.484-.045h-.956v-.001zm1.141 4.413c.213 0 .388-.026.527-.078a.884.884 0 0 0 .33-.207.712.712 0 0 0 .174-.295c.032-.111.049-.227.049-.346 0-.13-.02-.246-.059-.351a.61.61 0 0 0-.186-.263.826.826 0 0 0-.335-.168 1.889 1.889 0 0 0-.508-.058h-1.134v1.763h1.142v.003zM98.134 38.564c0 .472-.079.904-.237 1.301a2.973 2.973 0 0 1-.67 1.019 3.054 3.054 0 0 1-1.042.666 3.638 3.638 0 0 1-1.351.239h-2.479v-6.445h2.479c.494 0 .943.08 1.351.239.405.161.753.383 1.042.669.288.287.512.625.67 1.021.158.394.237.825.237 1.291zm-1.368 0c0-.336-.045-.643-.134-.91a1.925 1.925 0 0 0-.381-.684 1.686 1.686 0 0 0-.606-.433 2.064 2.064 0 0 0-.811-.151h-1.138v4.359h1.138c.301 0 .572-.049.811-.148.237-.1.44-.244.606-.434.165-.188.293-.416.381-.686.089-.265.134-.57.134-.913zM104.012 36.389v1.657h2.149v1.009h-2.149v1.692h2.764v1.042h-4.105v-6.443h4.105v1.043h-2.764zM114.814 36.58a.508.508 0 0 1-.127.148.293.293 0 0 1-.166.047.41.41 0 0 1-.211-.069 4.434 4.434 0 0 0-.265-.147 2.29 2.29 0 0 0-.347-.148 1.354 1.354 0 0 0-.458-.069c-.308 0-.537.069-.692.207a.687.687 0 0 0-.23.538c0 .145.041.262.127.354.084.095.195.175.334.244.138.066.293.127.468.183.176.052.354.11.538.175.183.062.363.139.537.225.174.084.328.192.469.324.137.131.25.289.334.479.083.188.126.416.126.687 0 .292-.051.568-.153.824-.102.256-.25.479-.44.67-.193.19-.433.342-.714.451-.282.11-.604.164-.963.164-.203 0-.408-.021-.61-.062a3.537 3.537 0 0 1-.587-.172 3.09 3.09 0 0 1-.53-.266 2.427 2.427 0 0 1-.437-.347l.392-.633a.398.398 0 0 1 .13-.117.33.33 0 0 1 .169-.047c.079 0 .164.029.253.088.09.061.189.125.307.196s.248.136.4.197c.153.059.336.088.549.088.312 0 .553-.069.724-.214.17-.143.255-.354.255-.635a.587.587 0 0 0-.128-.396.951.951 0 0 0-.33-.253 2.714 2.714 0 0 0-.466-.176 12.79 12.79 0 0 1-.538-.162 4.448 4.448 0 0 1-.537-.214 1.658 1.658 0 0 1-.468-.329 1.602 1.602 0 0 1-.33-.505 1.96 1.96 0 0 1-.125-.75 1.788 1.788 0 0 1 .559-1.299 2.12 2.12 0 0 1 .678-.422c.27-.105.575-.16.922-.16.389 0 .746.061 1.078.182.33.119.607.286.838.498l-.335.623zM121.113 41.789h-1.342v-6.443h1.342v6.443zM129.154 38.508h2.212v2.661c-.329.24-.679.415-1.05.526a4.194 4.194 0 0 1-1.182.166c-.527 0-1.01-.082-1.438-.245a3.295 3.295 0 0 1-1.102-.687 3.063 3.063 0 0 1-.707-1.046 3.434 3.434 0 0 1-.248-1.319c0-.482.078-.924.236-1.328.158-.401.385-.748.678-1.038a3.082 3.082 0 0 1 1.063-.681 3.831 3.831 0 0 1 1.397-.244c.266 0 .517.021.746.064.23.042.444.102.639.178.197.075.377.166.539.27s.311.219.442.342l-.386.598a.379.379 0 0 1-.23.172c-.096.021-.199-.004-.312-.071a5.648 5.648 0 0 0-.312-.177 2.201 2.201 0 0 0-.326-.133 1.95 1.95 0 0 0-.379-.09 3.084 3.084 0 0 0-.471-.033c-.298 0-.568.053-.812.156a1.74 1.74 0 0 0-.619.44c-.17.188-.301.415-.395.684a2.732 2.732 0 0 0-.137.894c0 .354.05.675.15.953a1.835 1.835 0 0 0 1.086 1.147c.256.103.541.149.855.149.213 0 .402-.021.569-.062a2.82 2.82 0 0 0 .491-.176v-1.084h-.729a.278.278 0 0 1-.2-.068.223.223 0 0 1-.074-.176v-.742h.006zM141.529 35.346v6.443h-.688a.592.592 0 0 1-.262-.051.605.605 0 0 1-.209-.174l-3.211-4.088c.008.104.016.207.019.308.006.099.008.192.008.28v3.725h-1.178v-6.443h.702c.058 0 .104.002.146.008a.35.35 0 0 1 .107.027.602.602 0 0 1 .094.064c.028.027.062.063.098.107l3.234 4.104a5.233 5.233 0 0 1-.035-.628V35.34l1.175.006z"/></g></svg>