<svg xmlns="http://www.w3.org/2000/svg" width="200" height="190" viewBox="0 0 200 190"><g fill="#202123"><path d="M20.921 62.273c-.079-.508-.079-1.17 0-1.99.078-.819.136-1.425.175-1.814 1.405 0 2.75.009 4.038.029 1.288.02 2.517.049 3.687.088a15.064 15.064 0 0 1-2.429-1.902 23.054 23.054 0 0 1-2.195-2.399 28.121 28.121 0 0 1-1.785-2.517c-.526-.838-.907-1.589-1.141-2.253-.43-1.521-.732-3.403-.907-5.647-.176-2.243-.234-4.73-.176-7.462.059-2.73.272-5.589.644-8.573a81.354 81.354 0 0 1 1.639-8.983 68.9 68.9 0 0 1 2.692-8.69c1.072-2.79 2.37-5.355 3.892-7.696a27.105 27.105 0 0 1 3.921-.322c1.405-.019 2.819.03 4.243.146 1.424.117 2.799.303 4.126.556 1.326.254 2.497.537 3.512.848a29.106 29.106 0 0 0-2.429 2.488 67.948 67.948 0 0 0-2.194 2.662 32.34 32.34 0 0 1 4.886-.175c.878.04 1.736.117 2.575.234.839.117 1.61.254 2.312.41.429 1.404.809 3.18 1.141 5.326.331 2.146.565 4.516.702 7.11.136 2.595.176 5.306.117 8.134a83.738 83.738 0 0 1-.585 8.339 67.258 67.258 0 0 1-1.404 7.813c-.605 2.478-1.375 4.652-2.312 6.525-1.17 1.912-2.683 3.316-4.535 4.213a28.208 28.208 0 0 1-5.706 2.049c2.887.117 5.335.234 7.345.351 2.009.117 3.794.244 5.355.38 1.56.137 2.994.283 4.301.439 1.307.156 2.682.312 4.125.468-.702 1.171-1.609 2.448-2.721 3.833a68.522 68.522 0 0 1-3.19 3.716c-4.644-1.834-9.549-3.287-14.718-4.36-5.171-1.072-10.837-1.53-17.001-1.374zm14.397-5.735c1.17 0 2.185-.536 3.043-1.609.858-1.072 1.58-2.517 2.165-4.331.585-1.814 1.034-3.911 1.346-6.292.312-2.379.517-4.876.615-7.491.097-2.613.097-5.276 0-7.988a115.374 115.374 0 0 0-.527-7.725 88.864 88.864 0 0 0-.936-6.701c-.372-2.028-.79-3.687-1.259-4.975a51.373 51.373 0 0 0-5.53 9.656c-1.502 3.434-2.654 6.868-3.453 10.3-.8 3.434-1.297 6.741-1.493 9.92-.195 3.18-.087 6.019.322 8.515.41 2.497 1.092 4.526 2.048 6.086s2.175 2.44 3.659 2.635z"/><path d="M75.23 57.533c-.585 0-1.288-.136-2.107-.41a14.462 14.462 0 0 1-2.399-1.053 11.685 11.685 0 0 1-2.019-1.375c-.566-.488-.888-.966-.966-1.434-.04-.272-.05-.721-.029-1.346.02-.624.038-1.259.059-1.902.019-.644.048-1.238.088-1.785.038-.546.078-.917.117-1.112-.39 1.17-.819 2.37-1.287 3.599a25.851 25.851 0 0 1-1.551 3.366c-.566 1.015-1.181 1.843-1.844 2.487-.664.644-1.382.966-2.156.966-.464 0-1.026-.126-1.685-.381a17.679 17.679 0 0 1-1.974-.907 10.862 10.862 0 0 1-1.713-1.111c-.483-.39-.783-.741-.9-1.053a47.033 47.033 0 0 1-.001-4.682c.079-1.717.205-3.453.378-5.209.175-1.755.377-3.491.61-5.208.232-1.716.465-3.296.697-4.74.232-1.443.445-2.682.639-3.716.193-1.033.348-1.765.464-2.195.465-.272 1.045-.487 1.742-.644a19.378 19.378 0 0 1 2.149-.351 21.022 21.022 0 0 1 2.217-.117c.741 0 1.384.02 1.931.059a178.282 178.282 0 0 0-1.317 6.818c-.41 2.361-.771 4.604-1.083 6.73a141.437 141.437 0 0 0-.731 5.706c-.176 1.678-.264 2.946-.264 3.804 0 1.404.156 2.146.468 2.224.312.079.692-.322 1.141-1.2.448-.878.965-2.155 1.551-3.833a84.007 84.007 0 0 0 1.727-5.647 99.882 99.882 0 0 0 1.551-6.672c.468-2.36.858-4.671 1.17-6.935a10.163 10.163 0 0 1 2.019-.673c.761-.176 1.522-.292 2.283-.351s1.511-.078 2.253-.059c.741.02 1.385.049 1.931.088a141.215 141.215 0 0 0-.995 5.121c-.312 1.776-.605 3.511-.878 5.208s-.507 3.316-.702 4.857a140.067 140.067 0 0 0-.469 4.126c-.195 1.444-.283 2.683-.263 3.716.02 1.035.146 1.736.38 2.107.234.372.585.38 1.053.029.469-.351 1.054-1.17 1.756-2.458.272-.507.634-1.259 1.083-2.253.448-.995.926-2.097 1.434-3.306a248.597 248.597 0 0 0 1.58-3.863 138.418 138.418 0 0 0 2.78-7.578c.371-1.112.653-2.038.849-2.78l1.756.468a215.83 215.83 0 0 1-1.375 4.506 185.055 185.055 0 0 1-4.126 11.646 62.568 62.568 0 0 1-2.37 5.355c-.8 1.58-1.6 2.867-2.399 3.862-.8.993-1.551 1.491-2.253 1.491z"/><path d="M114.967 31.49c-.273.819-.664 2.04-1.171 3.658a123.948 123.948 0 0 1-1.814 5.325 231.253 231.253 0 0 1-2.253 5.94 65.633 65.633 0 0 1-2.457 5.53c-.84 1.659-1.648 3.014-2.43 4.067-.78 1.054-1.502 1.58-2.165 1.58-.624 0-1.404-.126-2.341-.38a15.742 15.742 0 0 1-2.691-.995c-.859-.409-1.591-.877-2.195-1.404-.605-.526-.907-1.043-.907-1.551-.04-.429-.04-.956 0-1.58a45.6 45.6 0 0 1 .176-2.048 48.853 48.853 0 0 1-1.141 2.78c-.41.917-.83 1.747-1.258 2.487-.43.742-.869 1.356-1.317 1.843-.449.488-.888.771-1.317.849-.39.078-.966.039-1.727-.117-.76-.156-1.55-.39-2.37-.703-.819-.312-1.571-.682-2.253-1.111s-1.141-.878-1.375-1.346c-.272-.546-.429-1.463-.468-2.75-.039-1.288.01-2.76.146-4.419.137-1.658.332-3.403.585-5.237.254-1.833.537-3.589.849-5.268.312-1.677.635-3.169.966-4.477.331-1.307.652-2.253.965-2.838.155-.312.536-.615 1.141-.907.604-.293 1.317-.537 2.136-.732a15.38 15.38 0 0 1 2.575-.38 11.188 11.188 0 0 1 2.458.087c.468.079 1.033.352 1.697.819.663.469 1.346 1.21 2.048 2.224.078-.468.166-.907.263-1.317.097-.41.185-.692.263-.848.352-.195.868-.36 1.551-.498a30.151 30.151 0 0 1 2.223-.351c.8-.097 1.6-.146 2.4-.146.799 0 1.472.059 2.02.176-.352 1.677-.713 3.55-1.084 5.618a312.631 312.631 0 0 0-1.053 6.233 290.824 290.824 0 0 0-.878 5.881 117.334 117.334 0 0 0-.556 4.565c-.117 1.015-.117 1.737 0 2.166.117.429.282.673.497.731.215.059.448 0 .702-.175.253-.176.478-.38.673-.615.469-.585.995-1.443 1.58-2.575a77.043 77.043 0 0 0 1.814-3.775 160.2 160.2 0 0 0 1.873-4.331 235.86 235.86 0 0 0 1.727-4.272 138.14 138.14 0 0 0 1.346-3.57c.37-1.033.633-1.804.79-2.311l1.757.468zm-18.786 4.623a7.281 7.281 0 0 0-.205-2.165 6.847 6.847 0 0 0-.731-1.844c-.312-.526-.644-.926-.995-1.2-.351-.273-.644-.352-.877-.234-.39.195-.8.917-1.229 2.165-.43 1.249-.839 2.741-1.229 4.477a80.487 80.487 0 0 0-1.024 5.472 59.1 59.1 0 0 0-.585 5.209c-.098 1.561-.079 2.799.059 3.716.136.917.439 1.239.907.965.272-.155.673-.682 1.199-1.58.527-.897 1.083-2.077 1.668-3.541.585-1.463 1.15-3.169 1.697-5.12.545-1.95.993-4.057 1.345-6.32z"/><path d="M129.918 34.768a282.008 282.008 0 0 1-1.843 5.15 217.059 217.059 0 0 1-2.311 5.998 87.82 87.82 0 0 1-2.518 5.706c-.839 1.717-1.658 3.131-2.458 4.243-.799 1.112-1.531 1.668-2.195 1.668-.312 0-.877-.097-1.696-.292a18.214 18.214 0 0 1-2.604-.849 12.052 12.052 0 0 1-2.487-1.346c-.74-.526-1.171-1.121-1.287-1.785-.078-1.248-.088-2.818-.03-4.711.06-1.892.187-3.95.381-6.174.196-2.224.42-4.555.673-6.993.254-2.438.537-4.867.85-7.286.312-2.418.614-4.75.907-6.994.292-2.243.574-4.272.848-6.086.273-1.814.507-3.355.702-4.624.195-1.268.332-2.136.41-2.604.39-.234 1.004-.458 1.843-.672.84-.214 1.735-.4 2.692-.556a29.34 29.34 0 0 1 2.751-.322c.878-.058 1.531-.068 1.961-.029l-1.581 8.603a846.525 846.525 0 0 0-1.932 10.944c-.663 3.902-1.286 7.91-1.872 12.026s-1.015 8.047-1.287 11.792c-.117 1.249-.098 2.087.059 2.516.155.43.38.605.673.527.293-.078.604-.322.936-.732.333-.41.634-.828.908-1.258a104.512 104.512 0 0 0 4.945-9.481 95.147 95.147 0 0 0 3.95-10.124l1.755.526c-.235.624-.615 1.697-1.143 3.219z"/><path d="M145.457 31.432a322.88 322.88 0 0 0-1.229 3.95 355.664 355.664 0 0 1-1.697 5.384 144.422 144.422 0 0 1-2.048 5.882 63.336 63.336 0 0 1-2.283 5.413c-.78 1.62-1.561 2.936-2.341 3.95-.78 1.015-1.521 1.522-2.224 1.522-.43 0-1.082-.126-1.961-.381a18.049 18.049 0 0 1-2.633-.995 13.49 13.49 0 0 1-2.341-1.375c-.683-.506-1.044-1.014-1.082-1.521-.118-2.106-.088-4.467.087-7.082.176-2.613.409-5.129.702-7.549.293-2.418.596-4.573.907-6.467.312-1.892.565-3.189.761-3.891.507-.234 1.121-.419 1.844-.556a38.084 38.084 0 0 1 2.253-.352 18.727 18.727 0 0 1 2.312-.146c.76 0 1.434.02 2.019.059a235.665 235.665 0 0 0-1.024 5.179 195.957 195.957 0 0 0-.907 5.238 244.21 244.21 0 0 0-.731 4.887c-.215 1.542-.4 2.897-.556 4.067-.312 2.419-.38 4.077-.205 4.974.175.898.487 1.278.936 1.142s.986-.683 1.61-1.639c.623-.956 1.247-2.116 1.873-3.482a64.33 64.33 0 0 0 1.901-4.535 422.352 422.352 0 0 0 1.844-4.945c.585-1.6 1.092-3.052 1.521-4.36.429-1.307.741-2.253.936-2.839l1.756.468zm-15.567-7.55a23.608 23.608 0 0 1-.059-2.956 50.76 50.76 0 0 1 .234-3.395c.116-1.15.243-2.262.38-3.336.137-1.073.302-1.979.498-2.721.351-.195.897-.371 1.638-.527a21.116 21.116 0 0 1 2.371-.352 27.139 27.139 0 0 1 2.516-.117c.84 0 1.551.039 2.137.117-.43.976-.849 2.078-1.259 3.307a164.613 164.613 0 0 0-2.165 7.023c-.293 1.034-.497 1.843-.614 2.429l-5.677.528z"/><path d="M161.374 34.768a268.978 268.978 0 0 1-2.049 5.15 189.895 189.895 0 0 1-2.574 5.998 93.095 93.095 0 0 1-2.78 5.706c-.917 1.717-1.805 3.131-2.662 4.243-.859 1.112-1.62 1.668-2.283 1.668-.312 0-.877-.097-1.696-.292a18.214 18.214 0 0 1-2.604-.849 12.052 12.052 0 0 1-2.487-1.346c-.741-.526-1.171-1.121-1.287-1.785-.078-1.092-.088-2.448-.03-4.067.059-1.619.156-3.375.293-5.268.138-1.892.312-3.9.526-6.027.215-2.126.439-4.263.673-6.409-1.091-.039-1.91-.136-2.457-.292a6.583 6.583 0 0 1-.059-1.493c.039-.448.116-1.043.234-1.785l2.691.059c.312-2.379.615-4.691.907-6.935.293-2.243.575-4.271.849-6.086.272-1.814.507-3.345.702-4.594.195-1.248.331-2.107.41-2.575.389-.234.975-.458 1.755-.672.781-.214 1.61-.4 2.487-.556a24.72 24.72 0 0 1 2.546-.322c.819-.058 1.442-.068 1.873-.029a96.625 96.625 0 0 0-1.054 4.858 211.562 211.562 0 0 0-.907 5.121 225.743 225.743 0 0 0-.848 5.589 321.93 321.93 0 0 0-.82 6.32h2.868l-.234 3.102c-.43.079-.897.137-1.404.175-.508.04-1.073.079-1.697.117l-1.404 11.471a27.936 27.936 0 0 0-.234 2.019 57.683 57.683 0 0 0-.176 2.751c-.039.957-.029 1.854.029 2.692.059.84.205 1.463.439 1.873.233.41.574.508 1.023.293.448-.214 1.062-.926 1.844-2.136a84.187 84.187 0 0 0 5.092-9.334 89.13 89.13 0 0 0 3.979-10.095l1.756.526c-.235.621-.645 1.694-1.23 3.216z"/><path d="M158.214 68.827a29.527 29.527 0 0 0 2.984-2.663c.937-.957 1.834-2.136 2.691-3.541s1.648-3.141 2.371-5.209c.721-2.067 1.394-4.662 2.019-7.783-.547 1.561-1.073 2.849-1.58 3.863-.507 1.015-.977 1.824-1.404 2.429-.43.605-.801 1.024-1.112 1.258-.312.234-.566.352-.761.352-.43 0-1.044-.097-1.844-.292-.8-.195-1.6-.448-2.399-.761a13.537 13.537 0 0 1-2.194-1.083c-.663-.41-1.092-.849-1.287-1.316-.118-.546-.137-1.502-.059-2.868.078-1.365.225-2.935.438-4.711.215-1.775.459-3.638.732-5.589.272-1.951.555-3.794.848-5.53.293-1.735.576-3.249.849-4.536.273-1.288.487-2.145.644-2.575a10.743 10.743 0 0 1 2.195-.703c.76-.155 1.492-.263 2.194-.322s1.346-.078 1.931-.059c.586.02 1.073.069 1.464.146a575.057 575.057 0 0 0-1.376 6.847 290.369 290.369 0 0 0-1.199 6.525 192.408 192.408 0 0 0-.878 5.56c-.234 1.659-.351 2.976-.351 3.95-.04 1.483.087 2.312.38 2.487.293.175.692-.126 1.2-.907.507-.78 1.082-1.97 1.726-3.57.645-1.6 1.268-3.462 1.873-5.589a97.335 97.335 0 0 0 1.668-6.876 79.468 79.468 0 0 0 1.171-7.491 9.096 9.096 0 0 1 1.873-.673 13.182 13.182 0 0 1 2.164-.351 28.009 28.009 0 0 1 2.225-.088c.74 0 1.424.04 2.048.117-.468 2.224-1.073 5.316-1.814 9.276-.741 3.96-1.678 9.159-2.809 15.596-.585 3.395-1.239 6.242-1.96 8.544-.723 2.301-1.445 4.232-2.166 5.793-.723 1.56-1.434 2.789-2.137 3.687-.701.897-1.346 1.639-1.931 2.224-.351.156-.888.176-1.609.059a12.494 12.494 0 0 1-2.341-.644 13.247 13.247 0 0 1-2.458-1.229 8.43 8.43 0 0 1-2.019-1.754zM70.255 110.67a112.964 112.964 0 0 1 .467-6.409c.117-1.149.234-2.282.352-3.394.117-1.112.234-2.136.351-3.073.234-1.677.341-2.935.321-3.774-.02-.839-.107-1.405-.263-1.697-.156-.292-.322-.38-.497-.263s-.322.254-.439.409c-.43.625-.869 1.474-1.316 2.546a67.529 67.529 0 0 0-1.375 3.599c-.469 1.327-.907 2.722-1.317 4.185s-.781 2.888-1.112 4.272a96.927 96.927 0 0 0-.848 3.862c-.234 1.19-.371 2.176-.41 2.955-.43.196-.957.361-1.58.498a29.84 29.84 0 0 1-1.902.352c-.644.098-1.249.156-1.814.175-.565.021-1.024.029-1.375.029-.117-2.107-.136-4.448-.058-7.022.079-2.575.225-5.188.438-7.843.215-2.652.488-5.227.819-7.725.331-2.497.692-4.72 1.083-6.671a12.036 12.036 0 0 1 1.99-.585 21.674 21.674 0 0 1 2.312-.351c.799-.078 1.58-.117 2.341-.117s1.453.02 2.078.059a92.268 92.268 0 0 0-.585 2.692c-.156.781-.312 1.571-.468 2.37-.156.8-.313 1.668-.468 2.604-.157.936-.332 2.068-.526 3.395.936-3.043 1.892-5.443 2.867-7.199.975-1.756 1.911-2.926 2.809-3.511.585-.273 1.365-.341 2.341-.206.975.138 1.94.38 2.897.732.955.351 1.775.761 2.458 1.229.683.469 1.024.898 1.024 1.288.039.468-.02 1.366-.175 2.692a187.614 187.614 0 0 1-.585 4.448c-.234 1.638-.468 3.297-.702 4.974-.234 1.678-.41 3.102-.527 4.272-.43 3.316-.391 5.18.117 5.589.506.41 1.404-.634 2.692-3.131.312-.624.692-1.443 1.141-2.458a78.109 78.109 0 0 0 1.375-3.335c.468-1.21.946-2.448 1.434-3.717a86.168 86.168 0 0 0 1.316-3.658c.39-1.17.74-2.224 1.054-3.16.312-.937.526-1.658.644-2.166l1.931.526c-.351 1.17-.8 2.625-1.346 4.36a220.539 220.539 0 0 1-1.814 5.501 175.93 175.93 0 0 1-2.107 5.794 62.24 62.24 0 0 1-2.253 5.208c-.761 1.542-1.521 2.79-2.283 3.746-.761.956-1.473 1.414-2.136 1.375-.702 0-1.532-.166-2.487-.497a21.45 21.45 0 0 1-2.75-1.171c-.878-.448-1.62-.916-2.224-1.405-.608-.485-.91-.885-.91-1.198z"/><path d="M103.202 110.612c-.272.702-.789 1.366-1.55 1.989a12.278 12.278 0 0 1-2.488 1.58c-.898.43-1.785.761-2.663.994-.878.235-1.551.352-2.019.352a11.884 11.884 0 0 1-4.185-.878 11.057 11.057 0 0 1-3.541-2.282c-1.014-.975-1.823-2.145-2.429-3.512-.604-1.364-.868-2.905-.79-4.622a51.484 51.484 0 0 1 1.083-5.736 95.185 95.185 0 0 1 1.522-5.53c.527-1.697 1.043-3.16 1.551-4.39.506-1.229.897-2.019 1.17-2.37 1.131-.468 2.262-.711 3.394-.731 1.131-.019 2.126.05 2.985.205.585-.312 1.365-.469 2.341-.469.975 0 1.94.088 2.897.264.955.176 1.805.4 2.546.673.741.274 1.15.527 1.229.761.117.196.235.781.352 1.756a97.7 97.7 0 0 1 .321 3.131c.098 1.111.177 2.146.234 3.101.059.957.067 1.513.03 1.668 1.716-.858 3.344-2.048 4.886-3.57 1.541-1.521 2.722-3.179 3.541-4.974l1.58 1.463c-.352.937-.957 1.912-1.814 2.926a29.711 29.711 0 0 1-2.779 2.867 28.637 28.637 0 0 1-2.985 2.37c-.994.684-1.824 1.142-2.487 1.375-.156 2.381-.38 4.527-.673 6.438-.293 1.913-.712 3.629-1.259 5.151zm-5.676-10.592c-1.25-.312-2.253-.946-3.015-1.902-.76-.956-1.258-2.116-1.492-3.482a147.666 147.666 0 0 0-1.405 4.74 46.048 46.048 0 0 0-1.083 4.799c-.254 1.521-.342 2.868-.263 4.039.078 1.17.448 1.989 1.112 2.457.351.196.78.273 1.287.235.507-.039 1.014-.215 1.522-.527.506-.312.975-.78 1.404-1.404.429-.624.761-1.405.995-2.341.195-.858.38-1.844.556-2.956.177-1.113.304-2.332.382-3.658zm-2.399-7.667c0 .43.048.878.146 1.346.097.469.243.937.439 1.405.195.468.458.897.79 1.287a3.23 3.23 0 0 0 1.141.878c0-.702-.029-1.512-.088-2.429a70.388 70.388 0 0 0-.205-2.546c-.196-1.208-.41-2.038-.644-2.487-.234-.448-.469-.624-.703-.527-.234.098-.439.43-.614.995-.175.566-.262 1.258-.262 2.078z"/><path d="M109.289 85.798l2.692-.234c.312-2.419.624-4.75.937-6.993l.849-6.116c.253-1.833.486-3.384.701-4.653.215-1.268.361-2.136.439-2.604.39-.234.975-.458 1.756-.673.78-.214 1.609-.4 2.487-.556a24.701 24.701 0 0 1 2.545-.322c.819-.058 1.443-.068 1.874-.029a97.463 97.463 0 0 0-1.055 4.857 211.671 211.671 0 0 0-.906 5.121 224.406 224.406 0 0 0-.849 5.618c-.273 1.97-.546 4.087-.819 6.35.663.04 1.229.068 1.698.088.467.02.819.068 1.053.146a6.77 6.77 0 0 1 .06 1.493c-.04.449-.119 1.044-.236 1.785h-3.042a341.255 341.255 0 0 0-1.084 8.164c-.331 2.75-.594 5.706-.789 8.866-.117 2.224-.117 4.282 0 6.175s.448 3.423.994 4.594c-.624.077-1.355.059-2.194-.06a17.457 17.457 0 0 1-2.546-.555 21.344 21.344 0 0 1-2.486-.907c-.8-.352-1.453-.703-1.961-1.054-.155-.507-.205-1.501-.146-2.984s.186-3.336.381-5.561c.195-2.224.468-4.759.819-7.607.352-2.848.741-5.911 1.171-9.188l-2.576-.059.233-3.102zM6.7 177.092c-.079-.507-.079-1.17 0-1.989.078-.819.136-1.425.176-1.814 1.404 0 2.75.01 4.038.029 1.288.019 2.517.049 3.687.088a15.015 15.015 0 0 1-2.428-1.902 22.844 22.844 0 0 1-2.195-2.399 28.254 28.254 0 0 1-1.785-2.516c-.526-.839-.907-1.589-1.141-2.253-.43-1.522-.731-3.404-.907-5.647-.175-2.243-.234-4.73-.175-7.463.058-2.729.272-5.588.644-8.573a81.147 81.147 0 0 1 1.639-8.982 69.13 69.13 0 0 1 2.692-8.691c1.073-2.789 2.37-5.354 3.892-7.696a27.11 27.11 0 0 1 3.921-.321c1.404-.019 2.818.03 4.243.146 1.424.117 2.799.303 4.126.557 1.326.254 2.496.536 3.511.848a29.23 29.23 0 0 0-2.428 2.487 69.659 69.659 0 0 0-2.195 2.662 33.583 33.583 0 0 1 2.282-.175 29.754 29.754 0 0 1 2.604 0c.878.04 1.736.117 2.575.234.838.117 1.61.255 2.312.41.429 1.403.81 3.18 1.142 5.324.331 2.146.565 4.518.702 7.111.137 2.596.176 5.307.117 8.134a83.48 83.48 0 0 1-.585 8.34 66.914 66.914 0 0 1-1.405 7.812c-.605 2.479-1.375 4.653-2.312 6.525-1.17 1.913-2.683 3.316-4.536 4.214s-3.755 1.58-5.706 2.049c2.887.117 5.335.234 7.345.351 2.009.117 3.794.243 5.354.381 1.56.136 2.994.282 4.302.438 1.307.155 2.682.312 4.125.468-.702 1.171-1.609 2.448-2.721 3.834a69.342 69.342 0 0 1-3.19 3.717c-4.643-1.835-9.549-3.288-14.718-4.36-5.171-1.075-10.838-1.534-17.002-1.378zm14.397-5.736c1.17 0 2.185-.535 3.043-1.608.858-1.073 1.58-2.517 2.166-4.331.585-1.814 1.033-3.911 1.346-6.291a81.01 81.01 0 0 0 .614-7.49 109.69 109.69 0 0 0 0-7.989 114.713 114.713 0 0 0-.527-7.725 88.864 88.864 0 0 0-.936-6.701c-.372-2.028-.79-3.688-1.258-4.975a51.354 51.354 0 0 0-5.531 9.657c-1.502 3.433-2.653 6.866-3.452 10.3-.801 3.433-1.298 6.739-1.493 9.919-.195 3.181-.088 6.019.322 8.515.41 2.497 1.092 4.526 2.048 6.087.956 1.56 2.175 2.439 3.658 2.632z"/><path d="M61.009 172.352c-.585 0-1.288-.136-2.107-.409a14.187 14.187 0 0 1-2.399-1.054 11.685 11.685 0 0 1-2.019-1.375c-.566-.487-.888-.966-.966-1.434-.04-.272-.049-.722-.029-1.346.02-.625.038-1.259.059-1.903.02-.643.048-1.237.088-1.784.038-.546.078-.917.117-1.111a91.45 91.45 0 0 1-1.287 3.599 25.63 25.63 0 0 1-1.551 3.364c-.566 1.016-1.181 1.844-1.844 2.488-.664.644-1.382.965-2.156.965-.464 0-1.026-.126-1.684-.38a17.596 17.596 0 0 1-1.974-.907 10.781 10.781 0 0 1-1.712-1.112c-.483-.39-.783-.74-.9-1.054a47.031 47.031 0 0 1-.001-4.682c.079-1.716.205-3.452.378-5.208.174-1.756.377-3.491.61-5.209.232-1.716.464-3.296.696-4.74.233-1.442.445-2.682.639-3.716.194-1.033.349-1.766.465-2.194.464-.272 1.045-.488 1.742-.645a19.694 19.694 0 0 1 2.149-.351 21.036 21.036 0 0 1 2.217-.117c.741 0 1.384.021 1.932.059a177.04 177.04 0 0 0-1.317 6.817c-.41 2.361-.771 4.604-1.083 6.73a139.655 139.655 0 0 0-.731 5.706c-.175 1.678-.264 2.946-.264 3.805 0 1.403.156 2.146.469 2.223.312.079.692-.321 1.141-1.199.448-.877.966-2.154 1.551-3.833a84.007 84.007 0 0 0 1.727-5.647 99.882 99.882 0 0 0 1.551-6.672c.468-2.359.858-4.672 1.17-6.935a10.163 10.163 0 0 1 2.019-.673 15.39 15.39 0 0 1 2.282-.352c.761-.058 1.512-.078 2.253-.058.741.02 1.385.049 1.932.087-.352 1.64-.683 3.346-.995 5.121a367.111 367.111 0 0 0-.878 5.208 146.188 146.188 0 0 0-1.17 8.983c-.195 1.444-.284 2.683-.263 3.716.019 1.034.146 1.736.38 2.107s.585.38 1.053.029c.468-.352 1.054-1.171 1.756-2.458.272-.507.634-1.259 1.083-2.253.448-.995.926-2.097 1.434-3.307a269.709 269.709 0 0 0 1.58-3.862 135.43 135.43 0 0 0 1.521-3.979c.468-1.288.887-2.488 1.258-3.6a46.13 46.13 0 0 0 .848-2.779l1.756.468c-.351 1.21-.81 2.712-1.375 4.506a178.91 178.91 0 0 1-1.901 5.677 188.42 188.42 0 0 1-2.224 5.97c-.781 1.989-1.571 3.774-2.371 5.354s-1.6 2.867-2.399 3.863c-.803.995-1.554 1.493-2.256 1.493z"/><path d="M100.745 146.31c-.273.819-.664 2.039-1.17 3.657a123.017 123.017 0 0 1-1.814 5.325 237.44 237.44 0 0 1-2.253 5.94 65.625 65.625 0 0 1-2.458 5.53c-.839 1.659-1.648 3.014-2.429 4.067-.781 1.054-1.502 1.58-2.166 1.58-.624 0-1.404-.125-2.341-.38a15.838 15.838 0 0 1-2.692-.995c-.859-.41-1.59-.878-2.195-1.404-.605-.527-.907-1.044-.907-1.551-.04-.429-.04-.956 0-1.58.038-.624.097-1.307.175-2.049a48.424 48.424 0 0 1-1.141 2.78c-.41.916-.83 1.746-1.258 2.486-.43.742-.869 1.356-1.317 1.844-.449.488-.888.771-1.317.849-.39.078-.965.039-1.727-.116-.76-.155-1.55-.391-2.37-.703a12.701 12.701 0 0 1-2.253-1.112c-.682-.428-1.141-.877-1.375-1.345-.272-.547-.429-1.464-.468-2.751-.039-1.287.01-2.76.146-4.419.138-1.657.332-3.403.585-5.238.254-1.833.537-3.588.849-5.267.313-1.677.635-3.169.966-4.477.331-1.307.652-2.253.966-2.838.155-.312.536-.614 1.141-.907.604-.293 1.317-.536 2.136-.732a15.695 15.695 0 0 1 2.575-.38 11.128 11.128 0 0 1 2.458.088c.468.078 1.033.352 1.697.819.663.468 1.346 1.209 2.049 2.224.078-.468.165-.906.263-1.316.097-.409.185-.692.263-.849.351-.195.868-.36 1.551-.498a30.182 30.182 0 0 1 2.224-.351c.799-.098 1.6-.146 2.4-.146.799 0 1.472.059 2.019.176-.352 1.678-.712 3.55-1.083 5.618a313.758 313.758 0 0 0-1.053 6.232 290.874 290.874 0 0 0-.878 5.882 115.615 115.615 0 0 0-.556 4.564c-.117 1.015-.117 1.736 0 2.166.117.429.282.673.497.73.214.059.448 0 .703-.175a3.45 3.45 0 0 0 .673-.614c.468-.586.995-1.443 1.58-2.575a78.919 78.919 0 0 0 1.814-3.775 160.106 160.106 0 0 0 1.873-4.33c.623-1.501 1.2-2.926 1.727-4.272a138.14 138.14 0 0 0 1.346-3.57c.37-1.032.633-1.804.79-2.311l1.755.469zm-18.786 4.623a7.281 7.281 0 0 0-.205-2.165c-.176-.703-.419-1.317-.732-1.844s-.644-.926-.995-1.199-.644-.352-.877-.234c-.391.195-.8.917-1.229 2.165-.43 1.249-.84 2.741-1.229 4.477a81.022 81.022 0 0 0-1.024 5.473 59.122 59.122 0 0 0-.585 5.208c-.097 1.561-.079 2.801.059 3.717.136.917.439 1.238.907.966.272-.155.673-.683 1.2-1.58.527-.897 1.083-2.078 1.668-3.541s1.15-3.17 1.697-5.121.994-4.06 1.345-6.322z"/><path d="M108.587 168.08c.039-.896.097-1.902.176-3.015.077-1.111.176-2.242.292-3.395.118-1.149.234-2.281.352-3.394.118-1.112.234-2.136.352-3.072.234-1.677.341-2.936.321-3.774s-.108-1.405-.264-1.698c-.156-.293-.321-.38-.496-.263a1.724 1.724 0 0 0-.439.409c-.43.625-.869 1.474-1.317 2.546a67.784 67.784 0 0 0-1.375 3.6 65.874 65.874 0 0 0-1.316 4.185c-.41 1.462-.781 2.887-1.112 4.272a98.805 98.805 0 0 0-.849 3.861c-.234 1.191-.37 2.176-.409 2.955-.431.196-.957.361-1.581.498-.625.138-1.258.254-1.902.352-.644.098-1.249.156-1.814.175-.565.021-1.024.029-1.375.029-.117-2.106-.136-4.447-.058-7.022a157.807 157.807 0 0 1 1.258-15.567c.331-2.496.692-4.721 1.083-6.672.585-.234 1.248-.43 1.99-.586a21.931 21.931 0 0 1 2.312-.351c.8-.078 1.58-.117 2.341-.117s1.452.021 2.078.059a92.579 92.579 0 0 0-.586 2.692c-.156.78-.312 1.57-.468 2.37a95.96 95.96 0 0 0-.469 2.604c-.156.936-.332 2.067-.526 3.394.937-3.043 1.893-5.442 2.868-7.198.975-1.755 1.91-2.926 2.809-3.512.585-.271 1.365-.34 2.341-.204.975.137 1.94.381 2.897.731.954.351 1.774.762 2.457 1.229.682.468 1.024.897 1.024 1.287.039.468-.02 1.366-.175 2.692-.157 1.326-.352 2.809-.586 4.447s-.468 3.298-.702 4.975c-.234 1.678-.41 3.102-.526 4.271-.43 3.317-.392 5.18.116 5.589.507.41 1.405-.633 2.693-3.13a74.596 74.596 0 0 0 2.515-5.794c.47-1.21.946-2.448 1.435-3.717a84.802 84.802 0 0 0 1.316-3.658l1.055-3.16c.311-.936.526-1.657.644-2.164l1.931.526c-.352 1.17-.799 2.624-1.346 4.36a233.623 233.623 0 0 1-1.814 5.501c-.665 1.932-1.365 3.861-2.107 5.793s-1.492 3.668-2.252 5.209c-.762 1.542-1.521 2.789-2.283 3.745-.761.957-1.474 1.414-2.137 1.375-.701 0-1.531-.165-2.486-.497a21.37 21.37 0 0 1-2.75-1.171c-.879-.448-1.62-.916-2.225-1.404-.609-.484-.911-.883-.911-1.196z"/><path d="M143.992 149.586a269.785 269.785 0 0 1-2.048 5.15 193.31 193.31 0 0 1-2.574 5.999 93.967 93.967 0 0 1-2.78 5.706c-.917 1.718-1.805 3.13-2.663 4.242s-1.619 1.668-2.282 1.668c-.312 0-.878-.097-1.697-.293a18.078 18.078 0 0 1-2.604-.848 12.003 12.003 0 0 1-2.487-1.347c-.741-.526-1.171-1.121-1.288-1.784-.078-1.092-.088-2.448-.029-4.068a148.2 148.2 0 0 1 .293-5.267c.138-1.892.312-3.901.526-6.027.215-2.126.439-4.263.673-6.408-1.092-.039-1.911-.137-2.458-.293a6.692 6.692 0 0 1-.059-1.492c.04-.448.117-1.043.235-1.785l2.69.059c.313-2.38.616-4.69.907-6.935.293-2.243.576-4.272.85-6.086a638.314 638.314 0 0 1 1.112-7.17c.389-.234.974-.458 1.755-.673.78-.214 1.609-.399 2.487-.556a24.446 24.446 0 0 1 2.546-.322c.819-.059 1.442-.067 1.873-.029a96.827 96.827 0 0 0-1.054 4.857 212.432 212.432 0 0 0-.907 5.121 232.608 232.608 0 0 0-.849 5.588 332.33 332.33 0 0 0-.819 6.321h2.868l-.234 3.102c-.43.079-.897.138-1.404.176-.508.039-1.073.078-1.698.117l-1.403 11.47c-.079.469-.157 1.142-.235 2.02s-.136 1.795-.175 2.751-.029 1.854.029 2.691c.058.84.204 1.463.438 1.873.233.409.575.507 1.024.293.448-.214 1.062-.927 1.844-2.137a84.18 84.18 0 0 0 5.091-9.334 88.682 88.682 0 0 0 3.979-10.095l1.757.526a437.92 437.92 0 0 1-1.23 3.219z"/><path d="M159.677 146.251c-.312.976-.723 2.293-1.229 3.95a368.088 368.088 0 0 1-1.698 5.384 141.439 141.439 0 0 1-2.048 5.882 63.637 63.637 0 0 1-2.283 5.414c-.78 1.618-1.56 2.936-2.341 3.949-.78 1.016-1.521 1.521-2.223 1.521-.431 0-1.083-.126-1.961-.38a17.963 17.963 0 0 1-2.633-.995 13.338 13.338 0 0 1-2.342-1.375c-.683-.507-1.044-1.015-1.082-1.521-.118-2.107-.088-4.467.087-7.082.176-2.612.41-5.129.702-7.549.293-2.418.596-4.574.908-6.467.312-1.892.564-3.189.761-3.892.506-.234 1.121-.419 1.843-.556s1.473-.254 2.253-.352a18.74 18.74 0 0 1 2.312-.146c.76 0 1.434.021 2.019.059a240.575 240.575 0 0 0-1.024 5.18 199.993 199.993 0 0 0-.907 5.237 244.21 244.21 0 0 0-.731 4.887c-.214 1.542-.4 2.896-.556 4.067-.312 2.42-.38 4.077-.205 4.975.176.898.488 1.278.937 1.141.448-.136.985-.682 1.609-1.639.623-.956 1.248-2.115 1.873-3.481a64.368 64.368 0 0 0 1.901-4.536 415.735 415.735 0 0 0 1.844-4.944c.586-1.6 1.092-3.053 1.521-4.36.429-1.307.741-2.253.937-2.838l1.756.467zm-15.568-7.549c-.078-.858-.098-1.844-.059-2.956s.118-2.243.234-3.395c.117-1.149.243-2.262.38-3.335.137-1.074.302-1.98.498-2.723.351-.194.897-.37 1.639-.526.741-.155 1.53-.272 2.37-.351.838-.078 1.678-.117 2.517-.117s1.55.039 2.136.117c-.43.976-.849 2.077-1.259 3.307a163.27 163.27 0 0 0-2.164 7.022c-.293 1.034-.498 1.844-.615 2.429l-5.677.528z"/><path d="M175.595 149.586a269.785 269.785 0 0 1-2.048 5.15 193.416 193.416 0 0 1-2.575 5.999 92.8 92.8 0 0 1-2.78 5.706c-.917 1.718-1.805 3.13-2.662 4.242-.859 1.112-1.62 1.668-2.283 1.668-.312 0-.877-.097-1.696-.293a18.078 18.078 0 0 1-2.604-.848 12.055 12.055 0 0 1-2.487-1.347c-.741-.526-1.17-1.121-1.287-1.784-.078-1.092-.088-2.448-.029-4.068.058-1.617.156-3.373.293-5.267.137-1.892.312-3.901.526-6.027s.438-4.263.672-6.408c-1.091-.039-1.91-.137-2.457-.293a6.633 6.633 0 0 1-.059-1.492c.04-.448.117-1.043.234-1.785l2.691.059c.312-2.38.615-4.69.907-6.935.293-2.243.576-4.272.849-6.086a691.999 691.999 0 0 1 1.112-7.17c.389-.234.975-.458 1.755-.673.781-.214 1.61-.399 2.488-.556a24.428 24.428 0 0 1 2.545-.322c.819-.059 1.443-.067 1.873-.029-.391 1.601-.741 3.219-1.054 4.857s-.614 3.346-.907 5.121a232.745 232.745 0 0 0-.848 5.588c-.274 1.952-.547 4.06-.82 6.321h2.868l-.234 3.102c-.43.079-.897.138-1.404.176-.507.039-1.073.078-1.697.117l-1.404 11.47c-.079.469-.156 1.142-.234 2.02s-.137 1.795-.175 2.751c-.04.956-.03 1.854.028 2.691.059.84.205 1.463.439 1.873.233.409.575.507 1.024.293.448-.214 1.062-.927 1.843-2.137a84.023 84.023 0 0 0 5.092-9.334 88.868 88.868 0 0 0 3.979-10.095l1.756.526c-.235.625-.644 1.697-1.23 3.219z"/><path d="M172.435 183.647a29.657 29.657 0 0 0 2.985-2.664c.936-.955 1.833-2.136 2.69-3.54.858-1.405 1.648-3.142 2.371-5.208.721-2.068 1.394-4.662 2.02-7.784-.548 1.562-1.074 2.849-1.58 3.863-.508 1.015-.977 1.824-1.405 2.428-.43.605-.801 1.025-1.112 1.259-.312.234-.565.351-.761.351-.43 0-1.044-.097-1.843-.293a18.334 18.334 0 0 1-2.399-.761c-.8-.312-1.531-.673-2.195-1.082-.662-.409-1.092-.849-1.287-1.317-.117-.545-.137-1.501-.058-2.867.078-1.365.225-2.936.438-4.71.215-1.775.459-3.639.732-5.59.273-1.95.555-3.794.848-5.53s.576-3.248.85-4.536c.272-1.287.486-2.145.643-2.574a10.699 10.699 0 0 1 2.195-.702 18.743 18.743 0 0 1 2.195-.322 16.67 16.67 0 0 1 1.93-.058 9.16 9.16 0 0 1 1.464.146 579.338 579.338 0 0 0-1.375 6.848 285.777 285.777 0 0 0-1.199 6.524 189.248 189.248 0 0 0-.879 5.56c-.233 1.659-.351 2.976-.351 3.95-.039 1.484.087 2.312.38 2.487.293.176.692-.126 1.2-.907.507-.779 1.083-1.969 1.726-3.569.645-1.6 1.268-3.463 1.873-5.589a96.786 96.786 0 0 0 1.668-6.876 79.417 79.417 0 0 0 1.171-7.491 9.118 9.118 0 0 1 1.873-.673 13.178 13.178 0 0 1 2.165-.352 28.465 28.465 0 0 1 2.224-.088c.74 0 1.424.04 2.049.117-.469 2.224-1.074 5.316-1.815 9.275-.74 3.961-1.678 9.159-2.809 15.597-.585 3.395-1.238 6.242-1.96 8.544-.723 2.302-1.444 4.233-2.166 5.795-.723 1.559-1.434 2.788-2.136 3.687-.702.897-1.346 1.638-1.932 2.224-.351.155-.888.176-1.608.059-.723-.118-1.503-.332-2.342-.645s-1.659-.722-2.457-1.229a8.418 8.418 0 0 1-2.021-1.757z"/></g></svg>