<svg xmlns="http://www.w3.org/2000/svg" width="500" height="300" viewBox="0 0 500 300"><path fill="#EAEAEA" d="M3 25h347v248H3z"/><path fill="#666766" d="M347 28v242H7V28h340m4-4H2v250H351V24z"/><path fill="none" d="M17.547 39.748h257.951v220.607H17.547z"/><text transform="translate(17.547 44.96)"><tspan x="0" y="0" font-family="'Avenir-Black'" font-size="6.894">.menu-icon-wrapper {</tspan><tspan x="0" y="8.273" font-family="'Avenir-Black'" font-size="6.894" letter-spacing="39"> </tspan><tspan x="41.364" y="8.273" font-family="'Avenir-Black'" font-size="6.894">position: relative;</tspan><tspan x="0" y="16.545" font-family="'Avenir-Black'" font-size="6.894" letter-spacing="39"> </tspan><tspan x="41.364" y="16.545" font-family="'Avenir-Black'" font-size="6.894">display: inline-block;</tspan><tspan x="0" y="24.818" font-family="'Avenir-Black'" font-size="6.894"> width: 34px;</tspan><tspan x="0" y="33.091" font-family="'Avenir-Black'" font-size="6.894"> height: 34px;</tspan><tspan x="0" y="41.364" font-family="'Avenir-Black'" font-size="6.894" letter-spacing="39"> </tspan><tspan x="41.364" y="41.364" font-family="'Avenir-Black'" font-size="6.894">margin: 2em;</tspan><tspan x="0" y="49.637" font-family="'Avenir-Black'" font-size="6.894" letter-spacing="39"> </tspan><tspan x="41.364" y="49.637" font-family="'Avenir-Black'" font-size="6.894">pointer-events: none;</tspan><tspan x="0" y="57.91" font-family="'Avenir-Black'" font-size="6.894" letter-spacing="39"> </tspan><tspan x="41.364" y="57.91" font-family="'Avenir-Black'" font-size="6.894">transition: 0.1s;</tspan><tspan x="0" y="66.182" font-family="'Avenir-Black'" font-size="6.894">}</tspan><tspan x="0" y="82.728" font-family="'Avenir-Black'" font-size="6.894">.menu-icon-wrapper.scaled {</tspan><tspan x="0" y="91.001" font-family="'Avenir-Black'" font-size="6.894" letter-spacing="39"> </tspan><tspan x="41.364" y="91.001" font-family="'Avenir-Black'" font-size="6.894">-webkit-transform: scale(0.5);</tspan><tspan x="0" y="99.273" font-family="'Avenir-Black'" font-size="6.894" letter-spacing="39"> </tspan><tspan x="41.364" y="99.273" font-family="'Avenir-Black'" font-size="6.894">-ms-transform: scale(0.5);</tspan><tspan x="0" y="107.546" font-family="'Avenir-Black'" font-size="6.894" letter-spacing="39"> </tspan><tspan x="41.364" y="107.546" font-family="'Avenir-Black'" font-size="6.894">transform: scale(0.5);</tspan><tspan x="0" y="115.819" font-family="'Avenir-Black'" font-size="6.894">}</tspan><tspan x="0" y="132.365" font-family="'Avenir-Black'" font-size="6.894">.menu-icon-wrapper svg {</tspan><tspan x="0" y="140.637" font-family="'Avenir-Black'" font-size="6.894" letter-spacing="39"> </tspan><tspan x="41.364" y="140.637" font-family="'Avenir-Black'" font-size="6.894">position: absolute;</tspan><tspan x="0" y="148.911" font-family="'Avenir-Black'" font-size="6.894" letter-spacing="39"> </tspan><tspan x="41.364" y="148.911" font-family="'Avenir-Black'" font-size="6.894">top: -33px;</tspan><tspan x="0" y="157.183" font-family="'Avenir-Black'" font-size="6.894" letter-spacing="39"> </tspan><tspan x="41.364" y="157.183" font-family="'Avenir-Black'" font-size="6.894">left: -33px;</tspan><tspan x="0" y="165.457" font-family="'Avenir-Black'" font-size="6.894" letter-spacing="39"> </tspan><tspan x="41.364" y="165.457" font-family="'Avenir-Black'" font-size="6.894">-webkit-transform: scale(0.1);</tspan><tspan x="0" y="173.729" font-family="'Avenir-Black'" font-size="6.894" letter-spacing="39"> </tspan><tspan x="41.364" y="173.729" font-family="'Avenir-Black'" font-size="6.894">-ms-transform: scale(0.1);</tspan><tspan x="0" y="182.001" font-family="'Avenir-Black'" font-size="6.894" letter-spacing="39"> </tspan><tspan x="41.364" y="182.001" font-family="'Avenir-Black'" font-size="6.894">transform: scale(0.1);</tspan><tspan x="0" y="190.275" font-family="'Avenir-Black'" font-size="6.894" letter-spacing="39"> </tspan><tspan x="41.364" y="190.275" font-family="'Avenir-Black'" font-size="6.894">-webkit-transform-origin: 0 0;</tspan><tspan x="0" y="198.547" font-family="'Avenir-Black'" font-size="6.894" letter-spacing="39"> </tspan><tspan x="41.364" y="198.547" font-family="'Avenir-Black'" font-size="6.894">-ms-transform-origin: 0 0;</tspan><tspan x="0" y="206.82" font-family="'Avenir-Black'" font-size="6.894" letter-spacing="39"> </tspan><tspan x="41.364" y="206.82" font-family="'Avenir-Black'" font-size="6.894">transform-origin: 0 0;</tspan><tspan x="0" y="215.093" font-family="'Avenir-Black'" font-size="6.894">}</tspan></text><path fill="#EAEAEA" d="M100 8h396v284H100z"/><path fill="#666766" d="M494 12v277H103V12h391m4-5H99V293h399V7z"/><path fill="#FFF" d="M100 8h396v36H100z"/><path fill="#666766" d="M494 12v30H103V12h391m4-5H99v38h399V7z"/><circle fill="#666766" cx="117.443" cy="25.433" r="5.861"/><circle fill="#666766" cx="134.912" cy="25.433" r="5.86"/><circle fill="#666766" cx="152.382" cy="25.433" r="5.86"/><path fill="none" stroke="#8DC63F" stroke-width="5" stroke-miterlimit="10" d="M131.806 261.552l67.791-55.152 112.601-12.639 72.388-74.685 85.026-44.811"/><path fill="#8DC63F" d="M131.807 272.285c-5.919 0-10.734-4.814-10.734-10.732s4.815-10.733 10.734-10.733c5.917 0 10.731 4.815 10.731 10.733s-4.813 10.732-10.731 10.732z"/><path fill="#EAEAEA" d="M131.807 252.819a8.732 8.732 0 0 1 8.731 8.733 8.73 8.73 0 0 1-8.731 8.732 8.732 8.732 0 0 1-8.734-8.732 8.734 8.734 0 0 1 8.734-8.733m0-4c-7.022 0-12.734 5.712-12.734 12.733 0 7.021 5.712 12.732 12.734 12.732 7.02 0 12.731-5.712 12.731-12.732.001-7.021-5.711-12.733-12.731-12.733z"/><g><path fill="#8DC63F" d="M199.598 217.133c-5.919 0-10.734-4.814-10.734-10.731 0-5.92 4.815-10.735 10.734-10.735 5.917 0 10.732 4.815 10.732 10.735 0 5.916-4.815 10.731-10.732 10.731z"/><path fill="#EAEAEA" d="M199.598 197.666c4.823 0 8.732 3.911 8.732 8.735s-3.909 8.731-8.732 8.731-8.734-3.907-8.734-8.731 3.911-8.735 8.734-8.735m0-4c-7.022 0-12.734 5.713-12.734 12.735 0 7.021 5.712 12.731 12.734 12.731 7.021 0 12.732-5.711 12.732-12.731 0-7.022-5.712-12.735-12.732-12.735z"/></g><g><path fill="#8DC63F" d="M312.2 204.494c-5.919 0-10.734-4.814-10.734-10.731 0-5.92 4.815-10.735 10.734-10.735 5.917 0 10.731 4.815 10.731 10.735.001 5.917-4.814 10.731-10.731 10.731z"/><path fill="#EAEAEA" d="M312.2 185.027c4.822 0 8.731 3.911 8.731 8.735s-3.909 8.731-8.731 8.731c-4.823 0-8.734-3.907-8.734-8.731s3.911-8.735 8.734-8.735m0-4c-7.021 0-12.734 5.713-12.734 12.735 0 7.021 5.713 12.731 12.734 12.731s12.731-5.711 12.731-12.731c.001-7.022-5.71-12.735-12.731-12.735z"/></g><g><path fill="#8DC63F" d="M384.587 129.809c-5.919 0-10.734-4.814-10.734-10.731 0-5.919 4.815-10.734 10.734-10.734 5.918 0 10.732 4.815 10.732 10.734 0 5.917-4.814 10.731-10.732 10.731z"/><path fill="#EAEAEA" d="M384.587 110.343a8.734 8.734 0 0 1 8.732 8.734 8.73 8.73 0 0 1-8.732 8.731 8.732 8.732 0 0 1-8.734-8.731 8.734 8.734 0 0 1 8.734-8.734m0-4c-7.021 0-12.734 5.712-12.734 12.734 0 7.02 5.713 12.731 12.734 12.731s12.732-5.711 12.732-12.731c0-7.022-5.712-12.734-12.732-12.734z"/></g><g><path fill="#8DC63F" d="M469.613 84.998c-5.919 0-10.734-4.814-10.734-10.732 0-5.918 4.815-10.734 10.734-10.734 5.917 0 10.731 4.815 10.731 10.734.001 5.918-4.814 10.732-10.731 10.732z"/><path fill="#EAEAEA" d="M469.613 65.532a8.732 8.732 0 0 1 8.731 8.734 8.73 8.73 0 0 1-8.731 8.732 8.731 8.731 0 0 1-8.734-8.732 8.734 8.734 0 0 1 8.734-8.734m0-4c-7.021 0-12.734 5.712-12.734 12.734 0 7.021 5.713 12.732 12.734 12.732s12.731-5.712 12.731-12.732c.001-7.022-5.71-12.734-12.731-12.734z"/></g></svg>