<svg xmlns="http://www.w3.org/2000/svg" width="100" height="100" viewBox="0 0 100 100"><path d="M88.491 46.437L53.562 11.51a5.153 5.153 0 0 0-7.287 0l-7.252 7.254 9.2 9.2a6.117 6.117 0 0 1 7.748 7.8l8.868 8.867a6.117 6.117 0 0 1 6.334 1.455 6.128 6.128 0 0 1 0 8.669 6.13 6.13 0 0 1-10.006-6.667l-8.271-8.27V61.58a6.13 6.13 0 0 1 1.62 9.83 6.13 6.13 0 0 1-8.669 0 6.132 6.132 0 0 1 2.008-10.009V39.438a6.129 6.129 0 0 1-3.327-8.04l-9.07-9.071-23.95 23.948a5.156 5.156 0 0 0 0 7.288L46.439 88.49a5.153 5.153 0 0 0 7.287 0l34.766-34.766a5.154 5.154 0 0 0-.001-7.287z"/></svg>