<svg xmlns="http://www.w3.org/2000/svg" width="45" height="100" viewBox="0 0 45 100"><path d="M22.279 76.02c-5.272 0-9.347-.792-11.307-1.265-1.34-.322-2.416-.657-3.232-.999l2.613 4.466 1.023 13.949c0 1.562 4.967 2.83 11.095 2.83s11.098-1.268 11.098-2.83l.809-14.103 2.473-4.324c-.82.347-1.907.685-3.264 1.011-1.961.473-6.035 1.265-11.308 1.265z"/><path d="M36.934 30.627c-3.87.542-9.006.838-14.463.838-5.456 0-10.592-.298-14.463-.838-1.917-.268-3.434-.583-4.508-.938a6.484 6.484 0 0 1-1.108-.459L4.79 51.297c.112-.379.235-.76.374-1.137a21.267 21.267 0 0 1 2.185-4.371c.435-.659.897-1.265 1.389-1.82.491-.554.995-1.031 1.511-1.43a7.22 7.22 0 0 1 1.565-.936 3.963 3.963 0 0 1 1.565-.337c.595 0 1.172.162 1.728.489.556.326 1.076.853 1.561 1.581.111.164.181.328.211.495.029.167.043.324.043.47 0 .348-.083.625-.25.826-.167.202-.365.303-.594.303-.21 0-.405-.111-.583-.333a6.35 6.35 0 0 1-.604-.947c-.209-.372-.44-.641-.692-.809a1.454 1.454 0 0 0-.82-.25c-.458 0-.947.189-1.467.569-.521.38-1.036.882-1.547 1.505-.511.625-1 1.337-1.467 2.139a22.299 22.299 0 0 0-1.242 2.465c-.36.84-.646 1.67-.859 2.489-.212.817-.319 1.552-.319 2.202 0 .217.015.439.044.668.03.229.084.436.167.622.082.186.193.339.334.459a.792.792 0 0 0 .535.181c.243 0 .517-.082.826-.245.308-.163.626-.375.957-.64.331-.264.663-.562.997-.895a15.804 15.804 0 0 0 1.697-1.993c.223-.314.39-.588.501-.82l.913-2.732c.111-.295.256-.504.437-.628a.954.954 0 0 1 .554-.187c.091 0 .184.016.275.046a.692.692 0 0 1 .417.401.981.981 0 0 1 .063.366c0 .372-.032.72-.098 1.047a8.456 8.456 0 0 1-.25.954c-.102.311-.215.62-.338.935a22.55 22.55 0 0 0-.363.984 2.078 2.078 0 0 0-.143.365c-.069.206-.151.463-.25.771-.098.312-.205.658-.32 1.04l-.354 1.175c-.121.399-.237.791-.349 1.176a358.047 358.047 0 0 0-.52 1.818c-.059.208-.094.334-.108.373a2.626 2.626 0 0 1-.157.412c-.072.15-.157.294-.255.431a1.605 1.605 0 0 1-.324.337.599.599 0 0 1-.363.133c-.209 0-.362-.069-.457-.209-.095-.139-.143-.395-.143-.767v-.164c0-.055.004-.112.01-.173.006-.126.056-.357.148-.697.092-.34.201-.728.328-1.157.128-.431.265-.876.412-1.337l.397-1.238c-.347.388-.723.772-1.128 1.157-.406.383-.821.73-1.247 1.033a7.355 7.355 0 0 1-1.285.751c-.433.193-.847.29-1.248.29-.457 0-.853-.102-1.183-.303-.061-.036-.116-.077-.172-.118l1.334 13.99c.348.87 6.886 3.009 15.508 3.009 8.627 0 15.168-2.141 15.51-3.011l1.915-16.633-.46.425c-.551.513-1.069.953-1.558 1.321a7.017 7.017 0 0 1-1.428.854 3.687 3.687 0 0 1-1.493.303c-.497 0-.881-.108-1.151-.326-.271-.215-.407-.513-.407-.896v-.086c0-.028.003-.061.01-.099.025-.233.128-.501.304-.803.178-.303.39-.616.639-.942.246-.326.514-.655.794-.988.283-.332.543-.648.782-.948a9.51 9.51 0 0 0 .593-.818c.157-.248.235-.45.235-.605a.27.27 0 0 0-.097-.221c-.066-.053-.174-.08-.323-.08-.263 0-.533.066-.81.203a4.127 4.127 0 0 0-.826.547c-.271.228-.536.49-.795.782-.257.297-.5.604-.726.92a12.889 12.889 0 0 0-1.095 1.848 29.55 29.55 0 0 1-.167.36c-.072.155-.152.33-.236.523-.085.194-.175.395-.271.598-.095.207-.182.4-.259.583-.08.182-.149.344-.211.487-.063.144-.107.244-.133.298-.033.068-.088.2-.161.395-.076.195-.163.421-.261.682-.098.259-.201.532-.311.818-.105.286-.208.558-.303.814-.096.254-.179.479-.251.674a7.264 7.264 0 0 0-.138.395 4.248 4.248 0 0 1-.229.571 2.402 2.402 0 0 1-.305.471 1.392 1.392 0 0 1-.393.324 1.002 1.002 0 0 1-.496.123.962.962 0 0 1-.584-.169c-.154-.113-.23-.328-.23-.646 0-.154.019-.313.058-.477s.089-.323.148-.481c.059-.16.12-.313.181-.465s.12-.298.172-.436c.353-.775.714-1.552 1.079-2.332.366-.778.718-1.55 1.055-2.314.07-.157.134-.314.204-.473-.021.021-.042.043-.062.061-.425.411-.848.773-1.271 1.087a6.706 6.706 0 0 1-1.256.751 2.972 2.972 0 0 1-1.213.278c-.269 0-.493-.042-.673-.128a1.137 1.137 0 0 1-.432-.348 1.404 1.404 0 0 1-.23-.524c-.017-.068-.024-.141-.035-.211-.114.09-.229.175-.348.258a7.091 7.091 0 0 1-1.197.692c-.393.174-.747.261-1.061.261-.314 0-.569-.104-.766-.314-.197-.207-.295-.564-.295-1.07 0-.357.053-.771.157-1.242-.17.301-.382.608-.638.918-.255.31-.547.594-.874.849a4.387 4.387 0 0 1-1.1.622 3.598 3.598 0 0 1-1.324.238c-.217 0-.424-.026-.624-.081a1.32 1.32 0 0 1-.525-.28 1.411 1.411 0 0 1-.364-.529c-.091-.22-.137-.498-.137-.831 0-.009.014-.125.04-.355.026-.229.109-.589.25-1.081.141-.491.358-1.129.653-1.911.294-.784.71-1.732 1.247-2.849.137-.295.295-.506.475-.634a.988.988 0 0 1 .869-.151.89.89 0 0 1 .274.128.694.694 0 0 1 .207.221.6.6 0 0 1 .079.309.79.79 0 0 1-.03.22 2.561 2.561 0 0 1-.211.517c-.108.215-.233.458-.378.733-.145.274-.297.57-.457.889-.161.318-.31.647-.447.987-.137.343-.255.69-.354 1.041a4.5 4.5 0 0 0-.167 1.03.79.79 0 0 0 .097.384c.065.116.174.173.324.173.425 0 .831-.14 1.217-.418.387-.28.743-.625 1.07-1.041.328-.414.623-.859.889-1.337.266-.475.486-.912.663-1.308.124-.262.234-.547.329-.849.095-.303.198-.58.31-.836s.238-.469.382-.64a.683.683 0 0 1 .54-.256c.236 0 .421.089.561.268.137.179.206.392.206.64 0 .138-.044.329-.132.574-.089.245-.2.524-.335.837-.133.315-.279.65-.436 1.007-.157.355-.302.719-.437 1.087-.134.367-.245.729-.334 1.081s-.132.681-.132.982c0 .278.144.419.432.419.203 0 .457-.071.756-.209.301-.14.617-.337.947-.587a7.37 7.37 0 0 0 .248-.197 8 8 0 0 1 .327-1.052c.228-.606.46-1.206.695-1.803.234-.598.451-1.145.648-1.641l2.978-7.493c.118-.302.276-.515.475-.64.201-.124.401-.186.604-.186.204 0 .387.065.554.197s.251.345.251.64c0 .139-.028.287-.085.441a4.844 4.844 0 0 1-.21.5c-.164.365-.357.811-.583 1.337a187.976 187.976 0 0 0-1.522 3.657c-.271.67-.538 1.323-.796 1.959a287.825 287.825 0 0 0-1.311 3.291 7.095 7.095 0 0 0-.211.622 2.388 2.388 0 0 0-.102.633c0 .116.02.209.058.279.039.069.115.104.226.104.138 0 .311-.048.515-.145.206-.097.431-.226.669-.385.239-.158.485-.341.744-.546.26-.206.517-.419.771-.64a25.51 25.51 0 0 0 1.355-1.272.483.483 0 0 1 .15-.101c.111-.327.211-.651.301-.968.053-.141.125-.338.216-.593a8.54 8.54 0 0 1 .315-.758 3.24 3.24 0 0 1 .396-.645c.146-.181.307-.273.477-.273.263 0 .451.06.569.18.116.12.175.296.175.529 0 .046-.007.12-.019.22-.014.101-.03.207-.049.319-.02.112-.041.22-.062.32a1.832 1.832 0 0 1-.064.221c.241-.265.504-.525.785-.786.28-.258.572-.493.873-.702a5.1 5.1 0 0 1 .921-.512c.315-.131.63-.198.944-.198.216 0 .431.031.643.094.211.062.403.153.568.273.17.121.305.272.408.454.104.181.158.394.158.632 0 .318-.081.657-.242 1.019-.16.359-.361.722-.603 1.085a13.39 13.39 0 0 1-.786 1.065c-.281.346-.545.658-.791.941-.244.284-.451.523-.619.721-.165.199-.253.333-.258.402 0 .093.027.167.088.228.058.058.156.085.294.085.111 0 .275-.061.492-.186.215-.124.518-.339.907-.645.39-.307.884-.718 1.481-1.232.412-.354.892-.773 1.435-1.254l2.596-24.042a6.59 6.59 0 0 1-1.109.46c-1.067.357-2.583.673-4.501.941z"/><path d="M22.47 24.868c-11.194 0-20.271 1.268-20.271 2.833 0 1.563 9.077 2.831 20.271 2.831 11.197 0 20.272-1.268 20.272-2.831 0-1.565-9.075-2.833-20.272-2.833zm5.685 4.335c-1.334 0-2.415-.295-2.415-.658 0-.364 1.081-.658 2.415-.658s2.415.294 2.415.658c-.001.364-1.082.658-2.415.658z"/><ellipse cx="28.155" cy="28.312" rx="1.944" ry=".426"/><path d="M42.746 7.344c-.216.246-.979-.078-1.697-.719-.721-.642-1.212-1.293-.979-1.526.24-.245 1.019-.027 1.737.615.718.64 1.153 1.39.939 1.63z"/><path d="M42.746 7.344l-2.677-2.246-10.781 11.343-3.074 11.871H30.1l2.538-10.295z"/></svg>