<svg xmlns="http://www.w3.org/2000/svg" width="275" height="70" viewBox="0 0 275 70"><g fill="#010101"><path d="M102.086 32.703c-.676-.763-10.037-12.478-11.686-14.467-1.651-1.988-2.454-1.629-3.467-1.481-1.017.148-12.861 2.137-14.236 2.37-1.375.231-2.24.782-1.395 1.967.753 1.053 8.539 12.092 10.253 14.521l-30.956 7.416L25.983 1.872C25.003.418 24.8-.089 22.57.012 20.338.113 3.257 1.534 2.043 1.633.824 1.737-.51 2.277.707 5.149c1.216 2.874 20.615 44.678 21.157 45.894.54 1.217 1.945 3.188 5.237 2.399 3.372-.81 15.066-3.864 21.456-5.538 3.377 6.113 10.264 18.518 11.534 20.297 1.701 2.372 2.871 1.978 5.484 1.189 2.035-.619 31.886-11.355 33.231-11.908 1.345-.553 2.175-.95 1.265-2.292-.668-.989-8.543-11.538-12.668-17.058 2.827-.752 12.871-3.426 13.942-3.718 1.25-.336 1.417-.95.741-1.711zM45.812 44.207c-.367.087-17.706 4.229-18.632 4.441-.926.212-.926.104-1.03-.213-.106-.317-20.614-42.602-20.899-43.131-.285-.528-.269-.947 0-.947.271 0 16.375-1.439 16.944-1.469.57-.03.51.09.721.45 0 0 22.713 39.207 23.108 39.893.396.684.585.789-.212.976zm48.883 9.164c.277.434.553.712-.318 1.027-.868.314-29.341 9.925-29.895 10.162-.553.238-.989.315-1.698-.709-.715-1.03-9.976-17.062-9.976-17.062l30.18-7.854c.888-.28 1.093-.177 1.465.356.507.731 9.966 13.643 10.242 14.08zm1.934-21.431c-.677.149-11.756 2.898-11.756 2.898l-9.066-12.436c-.252-.359-.466-.719.169-.804.636-.083 10.935-1.946 11.4-2.052s.866-.233 1.438.55c.57.783 8.406 10.702 8.703 11.083.298.38-.211.614-.888.761z"/><text transform="translate(120.99 52.993)" font-family="'SourceSansPro-Regular'" font-size="50.488">Laravel</text></g></svg>