<svg xmlns="http://www.w3.org/2000/svg" xmlns:xlink="http://www.w3.org/1999/xlink" width="115" height="100" viewBox="0 0 115 100"><path d="M56.84 85.216c-.38 0-.757-.1-1.089-.291l-3.468-2.052c-.517-.29-.264-.393-.094-.452.691-.24.831-.295 1.568-.713.077-.044.179-.027.258.02l2.664 1.582a.344.344 0 0 0 .321 0l10.386-5.995a.326.326 0 0 0 .159-.28V65.049a.332.332 0 0 0-.162-.286l-10.381-5.989a.32.32 0 0 0-.32 0l-10.378 5.991a.333.333 0 0 0-.165.284v11.985c0 .114.064.224.164.277l2.845 1.644c1.543.771 2.489-.137 2.489-1.051V66.072c0-.169.134-.3.301-.3h1.317a.3.3 0 0 1 .301.3v11.832c0 2.061-1.122 3.242-3.075 3.242-.6 0-1.073 0-2.393-.65l-2.723-1.567a2.193 2.193 0 0 1-1.089-1.895V65.049c0-.778.417-1.506 1.089-1.894l10.385-6a2.275 2.275 0 0 1 2.183 0l10.385 6a2.194 2.194 0 0 1 1.091 1.894v11.985c0 .778-.418 1.502-1.091 1.895l-10.385 5.996a2.189 2.189 0 0 1-1.093.291"/><path d="M60.048 76.959c-4.544 0-5.497-2.086-5.497-3.836 0-.167.134-.3.3-.3h1.343c.15 0 .275.108.299.255.203 1.367.807 2.057 3.555 2.057 2.188 0 3.119-.495 3.119-1.655 0-.669-.264-1.167-3.665-1.499-2.841-.281-4.598-.909-4.598-3.182 0-2.096 1.766-3.346 4.728-3.346 3.326 0 4.973 1.154 5.182 3.632a.3.3 0 0 1-.299.327h-1.348a.298.298 0 0 1-.292-.233c-.323-1.439-1.11-1.898-3.243-1.898-2.39 0-2.667.831-2.667 1.455 0 .755.327.976 3.553 1.402 3.191.422 4.708 1.02 4.708 3.262 0 2.263-1.887 3.559-5.178 3.559M75.022 64.39c0 1.101-.9 2.001-2.001 2.001-1.09 0-2.001-.89-2.001-2.001a2 2 0 1 1 4.002 0m-3.678-.006c0 .933.751 1.685 1.672 1.685.933 0 1.685-.768 1.685-1.685 0-.932-.762-1.673-1.685-1.673-.911 0-1.672.73-1.672 1.673m.926-1.117h.773c.265 0 .784 0 .784.593 0 .413-.266.498-.425.552.308.02.329.222.371.508.021.18.054.487.116.593h-.476c-.012-.105-.086-.678-.086-.709-.03-.128-.074-.19-.232-.19h-.392v.899h-.433v-2.246zm.423.984h.35c.285 0 .339-.2.339-.317 0-.307-.212-.307-.329-.307h-.359v.624z"/><path fill-rule="evenodd" clip-rule="evenodd" d="M24.68 38.324a1.33 1.33 0 0 0-.665-1.156l-11.01-6.336a1.29 1.29 0 0 0-.606-.175h-.114a1.3 1.3 0 0 0-.607.175L.666 37.168A1.335 1.335 0 0 0 0 38.324l.023 17.063c0 .236.124.458.333.573a.634.634 0 0 0 .661 0l6.544-3.746a1.34 1.34 0 0 0 .665-1.154v-7.972c0-.475.252-.916.665-1.151l2.786-1.605a1.324 1.324 0 0 1 1.329 0l2.785 1.605c.413.236.665.676.665 1.151v7.972c0 .475.256.911.667 1.154l6.542 3.746a.643.643 0 0 0 .666 0 .661.661 0 0 0 .33-.573l.019-17.063zM77.66 14.868a.667.667 0 0 0-.99.581v16.897a.464.464 0 0 1-.698.403l-2.757-1.588a1.327 1.327 0 0 0-1.328 0L60.87 37.519a1.33 1.33 0 0 0-.665 1.152v12.716c0 .476.254.914.665 1.152l11.015 6.362c.411.237.919.237 1.33 0l11.017-6.362c.411-.238.665-.677.665-1.152V19.688a1.33 1.33 0 0 0-.683-1.162l-6.554-3.658zm-1.022 32.34a.331.331 0 0 1-.166.288l-3.782 2.18a.335.335 0 0 1-.333 0l-3.781-2.18a.331.331 0 0 1-.166-.288v-4.367c0-.119.063-.229.166-.288l3.781-2.185a.33.33 0 0 1 .333 0l3.782 2.185c.103.06.166.169.166.288v4.367zM114.338 42.727c.409-.238.662-.676.662-1.15v-3.082c0-.474-.253-.912-.662-1.15l-10.944-6.355a1.329 1.329 0 0 0-1.333-.001l-11.012 6.357a1.33 1.33 0 0 0-.665 1.152v12.713c0 .479.257.92.673 1.156l10.941 6.235c.403.23.898.232 1.306.007l6.618-3.68a.66.66 0 0 0 .341-.575.659.659 0 0 0-.333-.582l-11.081-6.36a.665.665 0 0 1-.334-.577V42.85c0-.237.127-.457.333-.575l3.448-1.989a.667.667 0 0 1 .664 0l3.451 1.989a.664.664 0 0 1 .332.575v3.135a.665.665 0 0 0 1 .575l6.595-3.833z"/><path fill-rule="evenodd" clip-rule="evenodd" d="M102.564 42.132a.253.253 0 0 1 .255 0l2.113 1.219c.079.046.128.13.128.221v2.441a.256.256 0 0 1-.128.221l-2.113 1.219a.258.258 0 0 1-.255 0l-2.112-1.219a.255.255 0 0 1-.127-.221v-2.441c0-.091.048-.175.127-.221l2.112-1.219z"/><defs><path id="a" d="M41.782 31.055l-10.923 6.304a1.32 1.32 0 0 0-.66 1.143v12.62c0 .472.251.907.659 1.144l10.923 6.309c.408.236.912.236 1.32 0l10.925-6.309c.408-.236.66-.672.66-1.144V38.503a1.32 1.32 0 0 0-.66-1.144l-10.925-6.304a1.317 1.317 0 0 0-1.319 0"/></defs><use xlink:href="#a" overflow="visible" fill="#3D3D3D"/><defs><path id="b" d="M41.784 31.055l-10.925 6.304a1.32 1.32 0 0 0-.66 1.144v12.619c0 .472.251.907.659 1.144l10.926 6.309c.408.236.911.236 1.319 0l10.923-6.309c.408-.236.66-.672.66-1.144v-12.62a1.32 1.32 0 0 0-.66-1.143l-10.923-6.304a1.317 1.317 0 0 0-1.319 0"/></defs><use xlink:href="#b" overflow="visible"/><clipPath id="c"><use xlink:href="#b" overflow="visible"/></clipPath><g opacity=".66" clip-path="url(#c)"><defs><path id="d" d="M30.456 30.918h23.85V58.75h-23.85z"/></defs><use xlink:href="#d" overflow="visible"/><clipPath id="e"><use xlink:href="#d" overflow="visible"/></clipPath><path clip-path="url(#e)" d="M53.971 37.359l-10.876-6.305a1.329 1.329 0 0 0-.345-.137L30.456 51.949c.103.125.228.232.371.316l10.941 6.309c.327.188.705.224 1.051.111l11.486-21.033c-.09-.114-.2-.215-.334-.293"/></g><g><defs><path id="f" d="M42.362 30.881c-.2.012-.398.071-.578.174l-10.821 6.244 11.755 21.416c.123-.029.243-.074.357-.141l10.899-6.309c.408-.236.608-.672.608-1.144v-.049l-11.79-20.143a1.351 1.351 0 0 0-.362-.05c-.023 0-.045 0-.068.002"/></defs><use xlink:href="#f" overflow="visible" fill="#515251"/></g></svg>