<svg xmlns="http://www.w3.org/2000/svg" width="112" height="100" viewBox="0 0 112 100"><path d="M63.025 49.934A7.025 7.025 0 0 1 56 56.959a7.025 7.025 0 1 1 0-14.051 7.026 7.026 0 0 1 7.025 7.026z"/><path d="M56 66.04c-9.869 0-18.497-1.166-24.954-3.373-4.192-1.433-7.745-3.336-10.277-5.503-2.689-2.304-4.111-4.804-4.111-7.23 0-4.645 5.103-9.197 13.65-12.177 7.008-2.443 16.133-3.789 25.692-3.789 9.381 0 18.383 1.321 25.352 3.72 4.074 1.402 7.512 3.216 9.942 5.245 2.648 2.208 4.048 4.63 4.048 7.001 0 4.829-5.705 9.719-14.89 12.762C73.942 64.853 65.259 66.04 56 66.04zm0-28.711c-9.06 0-18.02 1.313-24.584 3.602-5.673 1.978-11.396 5.528-11.396 9.003 0 1.395 1.042 3.055 2.937 4.678 2.209 1.893 5.383 3.578 9.176 4.874 6.11 2.089 14.363 3.192 23.867 3.192 8.908 0 17.217-1.127 23.395-3.173 8.646-2.865 12.586-6.97 12.586-9.571 0-1.323-1.009-2.894-2.839-4.421-2.121-1.77-5.192-3.376-8.884-4.647-6.625-2.281-15.24-3.537-24.258-3.537z"/><path d="M40.042 84.97c-1.433 0-2.697-.309-3.756-.921-4.024-2.32-5.418-9.016-3.73-17.908 1.385-7.291 4.777-15.868 9.552-24.148 4.687-8.125 10.329-15.265 15.888-20.104C63.101 17.447 68.073 15 71.999 15c1.362 0 2.571.299 3.595.888 4.183 2.412 5.568 9.798 3.616 19.273-1.384 6.716-4.693 14.833-9.318 22.854-4.931 8.549-10.251 15.441-15.389 19.932-5.107 4.463-10.377 7.023-14.461 7.023zm31.957-66.609c-3.023 0-7.434 2.267-11.797 6.063-5.285 4.601-10.678 11.436-15.182 19.248-4.525 7.848-7.865 16.266-9.162 23.096-1.12 5.902-.904 12.634 2.106 14.37.542.312 1.242.471 2.077.471 3.234 0 7.813-2.314 12.249-6.192 4.862-4.249 9.941-10.849 14.689-19.08 4.451-7.718 7.625-15.478 8.938-21.853.841-4.078 1.026-7.777.539-10.696-.42-2.513-1.323-4.284-2.542-4.987-.506-.292-1.149-.44-1.915-.44z"/><path d="M71.972 85c-3.869 0-8.734-2.354-13.699-6.626-5.626-4.841-11.362-12.062-16.152-20.336-4.699-8.118-8.066-16.571-9.481-23.804-.827-4.229-.981-8.113-.444-11.233.586-3.397 1.98-5.822 4.033-7.01 1.049-.607 2.293-.915 3.701-.915 4.106 0 9.503 2.699 14.803 7.407 5.128 4.553 10.506 11.473 15.147 19.486 4.943 8.541 8.258 16.593 9.582 23.286.859 4.346.994 8.374.387 11.65-.646 3.481-2.098 5.965-4.197 7.181-1.048.606-2.286.914-3.68.914zM39.929 18.438c-.808 0-1.485.156-2.017.463-1.145.663-2 2.322-2.404 4.671-.469 2.722-.32 6.185.429 10.017 1.346 6.876 4.575 14.961 9.093 22.765 4.539 7.841 10.164 14.938 15.435 19.473 6.096 5.246 10.077 5.813 11.507 5.813.795 0 1.465-.157 1.993-.462 2.257-1.307 3.906-6.642 2.199-15.271-1.255-6.334-4.434-14.03-9.195-22.253-4.463-7.71-9.602-14.336-14.468-18.657-4.626-4.107-9.325-6.559-12.572-6.559z"/></svg>