<svg xmlns="http://www.w3.org/2000/svg" width="100" height="100" viewBox="0 0 100 100"><path d="M86.053 55.604c-3.486.019-6.517.858-9.054 2.099-.931-1.844-1.862-3.486-2.026-4.691-.183-1.405-.402-2.264-.183-3.943s1.205-4.071 1.187-4.253c-.018-.182-.219-1.041-2.227-1.059s-3.742.383-3.943.913c-.201.53-.584 1.734-.84 2.976-.347 1.826-4.016 8.343-6.115 11.756-.676-1.333-1.26-2.501-1.388-3.433-.183-1.405-.401-2.264-.183-3.942.219-1.68 1.205-4.071 1.188-4.253-.02-.183-.22-1.041-2.229-1.059-2.008-.019-3.742.383-3.942.913s-.42 1.771-.84 2.976c-.42 1.204-5.294 12.085-6.572 14.896a83.298 83.298 0 0 1-1.625 3.377s-.018.055-.073.146c-.347.676-.548 1.041-.548 1.041v.018c-.274.493-.566.949-.712.949-.109 0-.311-1.314.037-3.104.73-3.778 2.464-9.656 2.446-9.857 0-.109.329-1.131-1.132-1.661-1.424-.529-1.935.347-2.062.347s-.219.311-.219.311 1.588-6.608-3.03-6.608c-2.884 0-6.864 3.158-8.835 6.006-1.241.675-3.888 2.117-6.718 3.668-1.077.604-2.19 1.205-3.231 1.771-.073-.073-.146-.164-.219-.237-5.586-5.97-15.918-10.187-15.48-18.2.165-2.921 1.168-10.588 19.843-19.898 15.371-7.576 27.601-5.477 29.719-.821 3.029 6.645-6.554 18.985-22.436 20.774-6.061.675-9.237-1.661-10.041-2.538-.839-.913-.967-.967-1.278-.785-.511.274-.182 1.095 0 1.57.475 1.241 2.428 3.432 5.732 4.509 2.92.949 10.021 1.479 18.62-1.844 9.621-3.724 17.142-14.074 14.933-22.746-2.209-8.799-16.813-11.701-30.632-6.791-8.214 2.921-17.123 7.521-23.53 13.508-7.612 7.12-8.817 13.308-8.324 15.9 1.771 9.2 14.458 15.188 19.533 19.624-.256.146-.493.273-.694.384-2.537 1.259-12.212 6.315-14.622 11.664-2.738 6.06.438 10.405 2.538 10.989 6.517 1.808 13.216-1.442 16.812-6.809 3.596-5.367 3.158-12.341 1.497-15.535-.019-.036-.037-.073-.073-.109.657-.384 1.333-.785 1.99-1.169a96.503 96.503 0 0 1 3.669-2.062c-.621 1.697-1.077 3.725-1.296 6.645-.273 3.433 1.132 7.887 2.976 9.639.822.768 1.789.785 2.41.785 2.154 0 3.122-1.789 4.199-3.906 1.314-2.592 2.501-5.604 2.501-5.604s-1.479 8.142 2.538 8.142c1.46 0 2.939-1.898 3.596-2.865v.018s.036-.055.109-.183l.237-.384v-.036c.584-1.022 1.898-3.341 3.851-7.192 2.52-4.965 4.947-11.172 4.947-11.172s.22 1.516.968 4.034c.438 1.479 1.351 3.104 2.081 4.673-.584.822-.949 1.278-.949 1.278l.019.019c-.475.621-.985 1.296-1.552 1.953-1.99 2.373-4.363 5.094-4.691 5.878-.383.931-.292 1.606.438 2.154.529.401 1.479.456 2.447.401 1.788-.127 3.048-.566 3.668-.84.969-.347 2.1-.876 3.158-1.661 1.953-1.442 3.141-3.505 3.031-6.225-.055-1.497-.548-2.993-1.15-4.399.183-.256.347-.512.529-.767 3.085-4.509 5.477-9.456 5.477-9.456s.219 1.516.967 4.034c.365 1.278 1.114 2.665 1.771 4.017-2.902 2.354-4.691 5.093-5.33 6.881-1.15 3.323-.256 4.82 1.441 5.167.768.164 1.862-.201 2.666-.548a12.158 12.158 0 0 0 3.377-1.734c1.953-1.441 3.833-3.45 3.724-6.17-.055-1.241-.384-2.465-.84-3.65 2.464-1.023 5.641-1.589 9.693-1.114 8.689 1.022 10.405 6.444 10.077 8.726-.329 2.282-2.154 3.523-2.757 3.906-.603.384-.804.512-.749.785.074.402.365.384.877.311.712-.127 4.563-1.844 4.728-6.042.273-5.371-4.838-11.231-13.875-11.176zM19.021 78.203c-2.884 3.141-6.9 4.327-8.634 3.323-1.862-1.077-1.132-5.714 2.41-9.036 2.154-2.026 4.929-3.906 6.772-5.057.42-.256 1.041-.621 1.789-1.077.127-.073.201-.109.201-.109l.438-.274c1.296 4.746.055 8.926-2.976 12.23zm20.994-14.274c-1.004 2.446-3.104 8.708-4.381 8.36-1.095-.292-1.771-5.038-.219-9.729.785-2.354 2.446-5.167 3.414-6.262 1.57-1.753 3.304-2.337 3.724-1.624.529.93-1.918 7.721-2.538 9.255zm17.323 8.288c-.42.219-.82.364-1.004.255-.127-.073.184-.365.184-.365s2.172-2.337 3.029-3.396c.493-.621 1.078-1.351 1.698-2.172v.237c0 2.793-2.702 4.673-3.907 5.441zm13.363-3.049c-.311-.219-.256-.949.785-3.231.401-.895 1.351-2.392 2.975-3.833.184.584.311 1.149.293 1.679-.019 3.523-2.537 4.837-4.053 5.385z"/></svg>