<svg xmlns="http://www.w3.org/2000/svg" width="310" height="70" viewBox="0 0 310 70"><path d="M179.412 27.632h-12.013v1.275c3.757 0 4.358.806 4.358 5.571v8.593c0 4.765-.602 5.638-4.358 5.638-2.888-.402-4.835-1.945-7.521-4.901l-3.085-3.356c4.161-.738 6.376-3.355 6.376-6.309 0-3.69-3.156-6.51-9.062-6.51h-11.814v1.275c3.759 0 4.364.806 4.364 5.571v8.593c0 4.765-.605 5.638-4.364 5.638v1.275h13.357V48.71c-3.758 0-4.362-.873-4.362-5.638v-2.417h1.142l7.449 9.33h19.533c9.598 0 13.76-5.102 13.76-11.21 0-6.108-4.162-11.143-13.76-11.143zm-28.124 10.94v-8.925h2.752c3.021 0 4.363 2.08 4.363 4.495 0 2.349-1.343 4.43-4.363 4.43h-2.752zm28.324 9.332h-.468c-2.42 0-2.752-.605-2.752-3.692V29.647h3.22c6.981 0 8.258 5.101 8.258 9.06 0 4.095-1.276 9.197-8.258 9.197zM104.907 41.058l4.632-13.694c1.344-3.96.739-5.102-3.557-5.102V20.92h12.619v1.342c-4.229 0-5.235 1.007-6.914 5.908l-7.653 22.954h-.871l-6.848-21.009-6.979 21.009h-.874L81.013 28.17c-1.612-4.901-2.686-5.908-6.578-5.908V20.92h14.901v1.342c-3.961 0-5.034.939-3.625 5.102l4.496 13.694 6.781-20.138h1.275l6.644 20.138zM127.729 50.856c-7.383 0-13.425-5.438-13.425-12.082 0-6.578 6.042-12.015 13.425-12.015 7.384 0 13.424 5.437 13.424 12.015-.001 6.645-6.041 12.082-13.424 12.082zm0-22.015c-6.175 0-8.323 5.571-8.323 9.934 0 4.431 2.148 9.935 8.323 9.935 6.243 0 8.391-5.504 8.391-9.935-.001-4.363-2.148-9.934-8.391-9.934zM209.752 48.641v1.344h-15.37v-1.344c4.495 0 5.301-1.139 5.301-7.853V30.049c0-6.714-.806-7.787-5.301-7.787V20.92h13.893c6.912 0 10.739 3.558 10.739 8.323 0 4.632-3.827 8.257-10.739 8.257h-3.827v3.288c-.001 6.714.805 7.853 5.304 7.853zm-1.478-25.306h-3.827v11.681h3.827c3.759 0 5.502-2.62 5.502-5.773 0-3.222-1.743-5.908-5.502-5.908zM265.127 43.673l-.338 1.21c-.602 2.215-1.34 3.021-6.108 3.021h-.938c-3.489 0-4.096-.807-4.096-5.573v-3.087c5.237 0 5.641.469 5.641 3.961h1.274V33.204h-1.274c0 3.491-.403 3.959-5.641 3.959v-7.516h3.693c4.765 0 5.501.805 6.108 3.02l.334 1.275h1.073l-.472-6.31h-19.729v1.275c3.755 0 4.359.806 4.359 5.571v8.593c0 4.359-.513 5.457-3.476 5.613-2.817-.431-4.752-1.966-7.396-4.877l-3.088-3.356c4.161-.738 6.377-3.355 6.377-6.309 0-3.69-3.155-6.51-9.062-6.51h-11.817v1.275c3.763 0 4.365.806 4.365 5.571v8.593c0 4.765-.603 5.638-4.365 5.638v1.275h13.36v-1.275c-3.757 0-4.364-.873-4.364-5.638v-2.417h1.142l7.452 9.33h27.584l.402-6.312h-1zm-35.576-5.101v-8.925h2.751c3.023 0 4.364 2.08 4.364 4.495 0 2.349-1.341 4.43-4.364 4.43h-2.751zM278.753 50.856c-2.689 0-5.036-1.41-6.042-2.283-.334.336-.941 1.344-1.074 2.283h-1.277v-9.263h1.344c.538 4.43 3.623 7.047 7.584 7.047 2.147 0 3.896-1.208 3.896-3.222 0-1.746-1.545-3.088-4.299-4.361l-3.824-1.813c-2.684-1.274-4.701-3.491-4.701-6.443 0-3.222 3.021-5.974 7.184-5.974 2.216 0 4.096.805 5.239 1.745.334-.27.67-1.008.869-1.812h1.276v7.92h-1.412c-.468-3.154-2.213-5.773-5.771-5.773-1.879 0-3.625 1.075-3.625 2.753 0 1.746 1.412 2.685 4.633 4.162l3.689 1.812c3.225 1.545 4.498 4.027 4.498 6.04 0 4.23-3.692 7.182-8.187 7.182zM299.424 50.856c-2.684 0-5.031-1.41-6.043-2.283-.336.336-.938 1.344-1.069 2.283h-1.277v-9.263h1.341c.538 4.43 3.627 7.047 7.586 7.047 2.149 0 3.894-1.208 3.894-3.222 0-1.746-1.546-3.088-4.297-4.361l-3.825-1.813c-2.688-1.274-4.698-3.491-4.698-6.443 0-3.222 3.022-5.974 7.182-5.974 2.216 0 4.093.805 5.234 1.745.336-.27.672-1.008.874-1.812h1.275v7.92h-1.411c-.468-3.154-2.216-5.773-5.769-5.773-1.882 0-3.629 1.075-3.629 2.753 0 1.746 1.411 2.685 4.633 4.162l3.692 1.812c3.222 1.545 4.497 4.027 4.497 6.04-.001 4.23-3.692 7.182-8.19 7.182zM7.309 35c0 11.759 6.833 21.918 16.74 26.733L9.88 22.911A29.572 29.572 0 0 0 7.309 35zM57.067 33.5c0-3.669-1.319-6.213-2.45-8.191-1.505-2.447-2.917-4.52-2.917-6.966 0-2.73 2.07-5.272 4.988-5.272.132 0 .257.017.385.023a29.586 29.586 0 0 0-20.058-7.8c-10.379 0-19.509 5.324-24.82 13.389.697.022 1.354.037 1.912.037 3.106 0 7.916-.378 7.916-.378 1.601-.094 1.79 2.257.19 2.446 0 0-1.609.19-3.4.284L29.63 53.249l6.501-19.497-4.628-12.68c-1.599-.093-3.114-.284-3.114-.284-1.601-.093-1.413-2.54.188-2.446 0 0 4.906.378 7.824.378 3.106 0 7.916-.378 7.916-.378 1.604-.094 1.791 2.257.191 2.446 0 0-1.612.19-3.4.284l10.735 31.931 2.963-9.899c1.283-4.11 2.261-7.061 2.261-9.604z"/><path d="M37.534 37.597l-8.911 25.9a29.732 29.732 0 0 0 18.255-.475 2.47 2.47 0 0 1-.211-.41l-9.133-25.015zM63.079 20.748c.129.945.201 1.961.201 3.055 0 3.013-.564 6.402-2.261 10.639l-9.072 26.233C60.778 55.526 66.718 45.958 66.718 35a29.547 29.547 0 0 0-3.639-14.252z"/><path d="M37.015.373C17.921.373 2.387 15.907 2.387 35c0 19.096 15.534 34.627 34.628 34.627 19.091 0 34.629-15.531 34.629-34.627C71.644 15.907 56.105.373 37.015.373zm0 67.665C18.796 68.038 3.974 53.218 3.974 35c0-18.218 14.822-33.039 33.041-33.039C55.23 1.961 70.052 16.782 70.052 35c0 18.218-14.822 33.038-33.037 33.038z"/></svg>