<?xml version="1.0" encoding="utf-8"?>
<!-- Generator: Adobe Illustrator 16.0.4, SVG Export Plug-In . SVG Version: 6.00 Build 0)  -->
<!DOCTYPE svg PUBLIC "-//W3C//DTD SVG 1.1//EN" "http://www.w3.org/Graphics/SVG/1.1/DTD/svg11.dtd">
<svg version="1.1" id="Layer_1" xmlns="http://www.w3.org/2000/svg" xmlns:xlink="http://www.w3.org/1999/xlink" x="0px" y="0px"
	 width="68px" height="100px" viewBox="0 0 68 100" enable-background="new 0 0 68 100" xml:space="preserve">
<g>
	<polygon fill="#FDD752" points="68,100 34.146,94.875 0,100 0,0 68,0 	"/>
	<path fill="#3F3F3F" d="M53.018,33.07c-0.304-0.18-0.697-0.314-1.045-0.298c-2.789,0.123-5.576,0.286-8.363,0.439
		c-0.123,0.006-0.242,0.026-0.361,0.058c-1.363,0.36-2.368,1.086-2.686,2.56c-0.057,0.27-0.258,0.504-0.369,0.765
		c-0.142,0.334-0.268,0.677-0.381,1.021c-0.104,0.311-0.109,0.681-0.293,0.933c-0.506,0.707-0.642,1.488-0.681,2.326
		c-0.073,1.578-0.603,2.889-2.219,3.507c-0.229,0.088-0.429,0.249-0.652,0.344c-1.114,0.474-1.891,1.299-2.416,2.363
		c-0.66,1.34-1.703,2.187-3.15,2.543c-0.159,0.04-0.304,0.14-0.463,0.169l-13.727,4.505c-0.281,0.024-0.654-0.039-0.637,0.377
		c0.024,0.578-0.4,0.647-0.77,0.801c-1.252,0.515-2.504,1.021-3.758,1.528c-0.303,0.123-0.604,0.289-0.921,0.337
		c-0.681,0.104-1.204,0.459-1.698,0.892c0,0.329,0,0.659,0,0.989c2.834,0.213,5.534-0.555,8.257-1.145
		c1.121-0.243,2.231-0.54,3.35-0.796c0.189-0.042,0.396-0.004,0.639,0.149c-0.897,0.32-1.783,0.688-2.694,0.967
		c-3.142,0.964-6.238,2.041-9.19,3.5c-0.103,0.052-0.241,0.031-0.361,0.043c0,0.164,0,0.33,0,0.496
		c0.195-0.049,0.388-0.119,0.586-0.137c0.178-0.018,0.44-0.039,0.531,0.062c0.795,0.886,1.82,0.614,2.756,0.491
		c0.549-0.07,1.062-0.695,1.539,0.117c0.031,0.056,0.245,0.037,0.355-0.002c0.457-0.16,0.915-0.324,1.356-0.521
		c0.33-0.146,0.617-0.411,0.957-0.518c0.163-0.054,0.328-0.1,0.492-0.146c0,0.387,0,0.771,0,1.152
		c0.121-0.015,0.258,0.011,0.36-0.043c1.014-0.502,2.046-0.951,3.09-1.377c-0.848,1.066-1.671,2.112-2.509,3.146
		c-0.415,0.513-0.809,1.078-1.334,1.448c-0.97,0.685-1.132,1.818-1.721,2.713c-0.009,0.015,0.085,0.095,0.141,0.152
		c0.472-0.395,0.938-0.795,1.417-1.18c2.313-1.863,4.791-3.478,7.395-4.898c1.357-0.741,2.69-1.529,4.047-2.271
		c0.201-0.107,0.475-0.105,0.716-0.111c0.562-0.021,1.124-0.006,1.734-0.006c0.106,0.223,0.181,0.598,0.407,0.771
		c0.2,0.151,0.574,0.079,0.953,0.11c-0.533,0.881-0.84,1.771-0.652,2.812c0.271,1.503,1.004,2.663,2.207,3.58
		c0.449,0.343,0.844,0.771,1.209,1.204c0.477,0.562,0.907,1.172,1.336,1.771c0.15,0.211,0.232,0.471,0.396,0.812
		c-0.943,0.019-1.736,0.103-2.533-0.25c-0.719-0.316-0.947-0.188-1.449,0.559c0.746-0.36,0.738-0.353,1.604,0.175
		c0.184,0.107,0.46,0.146,0.678,0.109c1.499-0.229,2.93-0.093,4.276,0.666c0.293,0.165,0.633,0.25,0.988,0.391
		c-0.037-0.521-0.408-0.625-0.734-0.764c-0.352-0.146-0.705-0.268-1.062-0.396c0.771-0.063,1.518-0.086,2.229,0.03
		c0.68,0.107,1.332,0.171,2.021-0.112c-1.074-0.16-2.154-0.32-3.275-0.488c0.379-0.202,0.725-0.387,1.064-0.563
		c-0.025-0.077-0.057-0.153-0.082-0.23c-0.668,0.122-1.335,0.245-2.003,0.37c-0.454,0.082-0.882,0.141-1.216-0.322
		c-0.917-1.268-1.862-2.514-2.789-3.771c-0.225-0.31-0.277-0.606-0.173-1.025c0.208-0.828,0.331-1.689,0.38-2.545
		c0.055-0.959,0.123-1.834,1.312-2.031c0.106-0.021,0.215-0.122,0.309-0.201c0.465-0.396,1.019-0.691,1.572-0.363
		c0.547,0.321,1.157-0.021,1.649,0.303c0.16,0.104,0.33,0.295,0.356,0.471c0.106,0.641,0.256,1.298,0.211,1.938
		c-0.072,1.104,0.236,2.025,1.005,2.807c0.521,0.525,1.052,1.043,1.59,1.555c0.868,0.82,1.501,1.812,2.165,2.837
		c-0.207,0.062-0.329,0.146-0.436,0.132c-0.642-0.109-1.285-0.217-1.91-0.386c-0.572-0.151-1.024-0.084-1.442,0.462
		c0.719-0.123,0.719-0.109,1.576,0.271c0.174,0.078,0.396,0.103,0.586,0.084c1.391-0.127,2.743-0.104,3.987,0.652
		c0.222,0.133,0.488,0.187,0.867,0.321c-0.277-0.771-0.984-0.696-1.58-1.194c0.791,0.062,1.396,0.053,1.978,0.17
		c0.573,0.113,1.114,0.094,1.688-0.146c-0.966-0.187-1.933-0.368-2.877-0.551c0.31-0.181,0.594-0.345,0.879-0.511
		C46.958,70,46.333,70.04,45.77,70.238c-0.549,0.188-0.86,0.006-1.153-0.396c-0.614-0.822-1.203-1.671-1.849-2.474
		c-0.744-0.931-1.312-1.884-0.924-3.136c0.032-0.11,0.016-0.248,0.004-0.366c-0.104-1.148,0.229-2.199,0.736-3.202
		c0.369-0.73,0.771-1.452,1.188-2.161c0.881-1.506,1.849-2.951,2.875-4.369l1.904-2.507c0.795-0.816,0.818-2.027,1.543-2.874
		c0.092-0.106,0.065-0.316,0.084-0.479c0.071-0.725-0.173-1.345-0.51-1.99c-0.27-0.521-0.617-2.725-0.617-2.725
		c-0.045-0.253-0.082-0.373-0.08-0.492c0.012-1.027-0.269-1.936-1.006-2.688c-0.199-0.202-0.344-0.463-0.48-0.713
		c-0.354-0.634-0.303-1.211,0.113-1.842c0.444-0.677,0.996-1.168,1.711-1.523c1.213-0.605,2.42-1.22,3.607-1.866
		c0.271-0.145,0.624-0.416,0.646-0.655C53.591,33.557,53.271,33.22,53.018,33.07z"/>
</g>
</svg>
