<?xml version="1.0" encoding="utf-8"?>
<!-- Generator: Adobe Illustrator 16.0.4, SVG Export Plug-In . SVG Version: 6.00 Build 0)  -->
<!DOCTYPE svg PUBLIC "-//W3C//DTD SVG 1.1//EN" "http://www.w3.org/Graphics/SVG/1.1/DTD/svg11.dtd">
<svg version="1.1" id="Layer_1" xmlns="http://www.w3.org/2000/svg" xmlns:xlink="http://www.w3.org/1999/xlink" x="0px" y="0px"
	 width="300px" height="300px" viewBox="0 0 300 300" enable-background="new 0 0 300 300" xml:space="preserve">
<g>
	<g>
		<path d="M140.709,85.976l1.369,1.369v17.746c0,6.74-1.369,10.392-4.107,10.953h-2.738l-50.553-2.738v1.369l-4.107,75.091
			c38.265,5.688,57.397,10.707,57.397,15.061l-2.738,8.215l-66.929-10.953l-4.107-2.738c5.477-38.055,8.215-63.541,8.215-76.46
			v-1.369l1.369-1.369l-1.369-1.369v-1.369l1.369-1.369l-1.369-6.845c0-14.568,2.264-21.854,6.793-21.854L140.709,85.976z"/>
		<path d="M116.992,141.952h0.843c6.248,0,9.373,0.843,9.373,2.528v4.265c0,8.988-0.562,14.973-1.685,17.957l0.843,0.843v0.843
			c-0.421,7.969-1.282,11.953-2.581,11.953h-8.531l-1.685-1.686v-3.422l0.843-31.596L116.992,141.952z M125.523,122.31l0.843,0.843
			v0.842l-1.685,12.796l-4.266-0.842l-4.265,0.842l-1.738-1.685c0-7.969,1.702-11.953,5.108-11.953L125.523,122.31z"/>
		<path d="M178.845,137.055c3.44,4.143,5.23,8.075,5.371,11.795c-15.06,1.896-22.591,3.686-22.591,5.371l1.106,11.849l23.644-3.265
			l3.212,7.53l-2.158,5.371l-5.371-1.054c-6.145,0-13.657,1.072-22.538,3.213c-3.581-0.912-5.371-1.983-5.371-3.213l2.105-2.158
			c-2.141-6.881-3.211-13.323-3.211-19.326v-3.265l-3.213-4.266C150.567,143.883,160.238,141.022,178.845,137.055z"/>
		<path d="M236.011,130.946c1.825,0,3.493,4.16,5.003,12.48l8.32,16.693l-0.843,0.842l1.686,4.16
			c-2.844,3.336-11.743,7.514-26.698,12.533c-7.794-21.836-11.69-34.07-11.69-36.703h0.843L236.011,130.946z M220.951,147.586
			l5.002,17.535l10.058-3.316l-5.845-17.536L220.951,147.586z"/>
	</g>
	<path fill="#016D4E" d="M203.758,67.97c0.203-1.609-0.904-3.308-2.462-3.772l-14.591-4.35c-1.555-0.464-3.707,0.152-4.781,1.368
		c0,0-2.811,3.18-8.677,4.233c-5.864,1.054-9.604-0.95-9.604-0.95c-1.431-0.767-3.663-0.595-4.959,0.381l-12.166,9.156
		c-1.298,0.976-1.745,2.951-0.997,4.391l3.223,6.194c0.749,1.441,2.432,1.831,3.737,0.869l4.125-3.038
		c1.307-0.962,2.544-0.433,2.748,1.179l3.251,25.53c0.204,1.609,1.678,2.692,3.275,2.406l30.507-5.479
		c1.597-0.287,2.602-1.814,2.234-3.396l-5.814-24.973c-0.369-1.581,0.606-2.508,2.166-2.061l4.718,1.354
		c1.561,0.448,3.002-0.504,3.203-2.115L203.758,67.97z"/>
	<path fill="#EE2C71" d="M60.561,179.185L49.883,94.153l4.789,85.752l0.01-0.002c0.005,0.104,0.01,0.208,0.02,0.314
		c0.229,2.521,1.74,4.446,3.376,4.297c1.635-0.146,2.775-2.312,2.546-4.834C60.609,179.512,60.588,179.348,60.561,179.185z
		 M57.79,181.358c-0.462,0.043-0.889-0.502-0.952-1.213c-0.003-0.028-0.004-0.059-0.006-0.089h-0.003c0,0-0.467-10.618-0.124-10.648
		c0.328-0.03,1.662,9.558,1.784,10.433c0.008,0.052,0.015,0.101,0.021,0.153C58.574,180.705,58.251,181.316,57.79,181.358z"/>
	<polygon fill="#DC1D42" points="37.468,190.721 58.196,193.489 41.158,205.615 38.391,226.34 26.267,209.304 5.539,206.536 
		22.575,194.411 25.345,173.685 	"/>
	<polygon fill="#FFC552" points="109.891,40.457 124.444,23.361 125.479,45.787 142.577,60.342 120.146,61.376 105.59,78.473 
		104.558,56.041 87.46,41.491 	"/>
	<path fill="#DC1D42" d="M279.139,219.52c-0.234,0.448-0.469,0.896-0.703,1.341c-0.349-0.848-0.706-1.7-1.054-2.558
		c-0.683,1.258-1.369,2.481-2.056,3.673c0.35,0.895,0.701,1.776,1.052,2.65c-0.235,0.422-0.474,0.84-0.706,1.252
		c-0.35-0.887-0.705-1.78-1.057-2.682c-0.688,1.17-1.377,2.308-2.063,3.414c0.35,0.93,0.703,1.855,1.059,2.772
		c-0.24,0.388-0.473,0.773-0.711,1.155c-0.352-0.927-0.706-1.862-1.06-2.801c-0.687,1.082-1.377,2.134-2.071,3.152
		c0.356,0.973,0.71,1.938,1.063,2.895c-0.238,0.357-0.475,0.717-0.713,1.066c-0.354-0.967-0.706-1.938-1.06-2.918
		c-0.69,0.998-1.383,1.967-2.076,2.905c0.354,1.01,0.711,2.012,1.061,3.005c-0.238,0.335-0.475,0.664-0.713,0.985
		c-0.355-1.002-0.707-2.016-1.062-3.033c-0.691,0.919-1.388,1.804-2.08,2.663c0.354,1.044,0.709,2.084,1.062,3.118
		c-0.234,0.303-0.473,0.605-0.715,0.902c-0.354-1.042-0.707-2.092-1.064-3.147c-0.692,0.842-1.391,1.647-2.084,2.427
		c0.355,1.084,0.711,2.162,1.064,3.23c-0.24,0.276-0.477,0.551-0.717,0.821c-0.352-1.082-0.713-2.166-1.065-3.255
		c-0.695,0.762-1.394,1.496-2.094,2.199c0.359,1.116,0.716,2.23,1.071,3.333c-0.24,0.253-0.479,0.499-0.717,0.747
		c-0.355-1.118-0.714-2.232-1.069-3.361c-0.697,0.685-1.397,1.347-2.098,1.98c0.358,1.15,0.716,2.296,1.073,3.435
		c-0.244,0.228-0.48,0.45-0.725,0.67c-0.354-1.15-0.711-2.3-1.07-3.46c-0.698,0.615-1.398,1.203-2.098,1.769
		c0.357,1.181,0.717,2.357,1.076,3.529c-0.242,0.205-0.484,0.403-0.725,0.6c-0.359-1.182-0.717-2.368-1.072-3.562
		c-0.704,0.547-1.405,1.067-2.107,1.562c0.359,1.217,0.715,2.427,1.076,3.632c-0.242,0.174-0.482,0.352-0.725,0.523
		c-0.359-1.21-0.715-2.43-1.074-3.652c-0.699,0.479-1.405,0.929-2.108,1.364c0.359,1.244,0.719,2.483,1.078,3.72
		c-0.24,0.155-0.484,0.307-0.729,0.46c-0.359-1.244-0.715-2.493-1.072-3.747c-0.703,0.414-1.407,0.806-2.114,1.173
		c0.357,1.276,0.721,2.546,1.074,3.81c-0.24,0.134-0.48,0.265-0.723,0.392c-0.357-1.271-0.719-2.546-1.08-3.828
		c-0.702,0.352-1.409,0.681-2.116,0.987c0.361,1.303,0.719,2.601,1.08,3.893c-0.24,0.113-0.486,0.225-0.727,0.334
		c-0.361-1.303-0.723-2.605-1.082-3.917c-0.703,0.294-1.411,0.563-2.116,0.813c0.359,1.33,0.717,2.655,1.078,3.974
		c-0.246,0.093-0.486,0.184-0.73,0.269c-0.359-1.327-0.723-2.659-1.078-3.996c-0.709,0.238-1.42,0.452-2.128,0.643
		c0.363,1.358,0.723,2.709,1.086,4.058c-0.244,0.069-0.486,0.144-0.73,0.212c-0.361-1.353-0.721-2.713-1.083-4.074
		c-0.706,0.182-1.421,0.342-2.13,0.482c0.365,1.381,0.721,2.756,1.084,4.129c-0.244,0.055-0.486,0.107-0.727,0.157
		c-0.361-1.377-0.725-2.76-1.086-4.148c-0.711,0.129-1.424,0.238-2.134,0.329c0.361,1.403,0.723,2.803,1.086,4.197
		c-0.242,0.038-0.486,0.075-0.731,0.107c-0.361-1.403-0.721-2.809-1.084-4.22c-0.713,0.08-1.425,0.143-2.138,0.182
		c0.361,1.429,0.727,2.849,1.088,4.268c-0.246,0.019-0.49,0.039-0.732,0.059c-0.364-1.427-0.726-2.856-1.089-4.286
		c-0.71,0.03-1.427,0.043-2.14,0.042c0.365,1.446,0.729,2.89,1.09,4.329c-0.244,0.004-0.486,0.008-0.734,0.01
		c-0.364-1.445-0.728-2.896-1.089-4.349c-0.711-0.018-1.423-0.048-2.138-0.089c0.361,1.464,0.725,2.928,1.088,4.39
		c-0.244-0.013-0.486-0.024-0.734-0.04c-0.362-1.464-0.728-2.932-1.091-4.408c-0.715-0.055-1.428-0.125-2.144-0.214
		c0.363,1.484,0.73,2.972,1.094,4.448c-0.246-0.024-0.494-0.051-0.739-0.081c-0.361-1.482-0.725-2.97-1.092-4.462
		c-0.713-0.095-1.43-0.206-2.143-0.335c0.365,1.506,0.726,3.008,1.093,4.504c-0.247-0.038-0.493-0.078-0.737-0.119
		c-0.365-1.502-0.732-3.01-1.097-4.517c-0.714-0.137-1.431-0.284-2.144-0.444c0.363,1.522,0.727,3.041,1.094,4.554
		c-0.248-0.051-0.494-0.102-0.742-0.156c-0.361-1.521-0.728-3.04-1.091-4.568c-0.719-0.168-1.436-0.352-2.15-0.546
		c0.365,1.535,0.728,3.069,1.095,4.602c-0.25-0.062-0.493-0.129-0.739-0.195c-0.365-1.534-0.732-3.071-1.096-4.613
		c-0.717-0.2-1.436-0.414-2.152-0.639c0.367,1.551,0.732,3.098,1.096,4.646c-0.246-0.076-0.49-0.151-0.738-0.228
		c-0.366-1.549-0.731-3.1-1.097-4.656c-0.719-0.231-1.436-0.475-2.154-0.73c0.365,1.566,0.732,3.127,1.095,4.686
		c-0.243-0.084-0.489-0.169-0.737-0.254c-0.367-1.564-0.731-3.128-1.099-4.696c-0.717-0.261-1.438-0.531-2.154-0.81
		c0.367,1.575,0.731,3.151,1.097,4.723c-0.248-0.095-0.489-0.188-0.739-0.285c-0.365-1.574-0.732-3.149-1.097-4.73
		c-0.721-0.286-1.439-0.581-2.16-0.886c0.366,1.587,0.733,3.174,1.097,4.757c-0.246-0.102-0.49-0.204-0.737-0.308
		c-0.367-1.587-0.734-3.176-1.101-4.767c-0.718-0.309-1.438-0.622-2.158-0.949c0.368,1.598,0.733,3.19,1.101,4.789
		c-0.248-0.112-0.498-0.222-0.743-0.333c-0.365-1.597-0.732-3.192-1.098-4.793c-0.721-0.331-1.44-0.668-2.161-1.012
		c0.366,1.609,0.733,3.211,1.099,4.815c-0.246-0.117-0.496-0.234-0.743-0.352c-0.363-1.606-0.73-3.21-1.1-4.817
		c-0.717-0.347-1.438-0.704-2.157-1.06c0.364,1.611,0.731,3.223,1.099,4.833c-0.248-0.121-0.498-0.244-0.743-0.367
		c-0.367-1.613-0.734-3.223-1.102-4.84c-0.718-0.361-1.442-0.732-2.161-1.106c0.366,1.62,0.731,3.237,1.101,4.854
		c-0.248-0.125-0.495-0.253-0.743-0.38c-0.367-1.619-0.736-3.24-1.101-4.861c-0.721-0.374-1.441-0.758-2.162-1.14
		c0.367,1.622,0.731,3.249,1.099,4.872c-0.248-0.133-0.495-0.263-0.743-0.396c-0.367-1.627-0.732-3.248-1.099-4.874
		c-0.721-0.39-1.441-0.779-2.164-1.175c0.369,1.629,0.733,3.259,1.099,4.888c-0.246-0.137-0.493-0.272-0.743-0.407
		c-0.365-1.626-0.731-3.257-1.101-4.887c-0.719-0.396-1.441-0.793-2.162-1.193c0.367,1.634,0.734,3.264,1.099,4.891
		c-0.247-0.136-0.495-0.271-0.743-0.408c-0.366-1.633-0.731-3.261-1.099-4.894c-0.721-0.4-1.443-0.808-2.166-1.21
		c0.369,1.632,0.734,3.265,1.102,4.898c-0.248-0.14-0.496-0.274-0.744-0.412c-0.366-1.637-0.733-3.272-1.103-4.904
		c-0.721-0.403-1.439-0.81-2.163-1.217c0.37,1.635,0.733,3.272,1.101,4.906c-0.246-0.142-0.494-0.279-0.743-0.422
		c-0.367-1.632-0.732-3.266-1.1-4.9c-0.723-0.408-1.442-0.812-2.165-1.216c0.366,1.634,0.733,3.267,1.099,4.898
		c-0.246-0.138-0.494-0.274-0.741-0.414c-0.367-1.634-0.734-3.269-1.102-4.904c-0.721-0.403-1.442-0.806-2.163-1.207
		c0.366,1.631,0.733,3.265,1.101,4.897c-0.25-0.139-0.496-0.276-0.743-0.417c-0.369-1.632-0.734-3.262-1.102-4.895
		c-0.72-0.401-1.442-0.798-2.165-1.193c0.367,1.627,0.733,3.257,1.099,4.888c-0.248-0.137-0.493-0.271-0.739-0.407
		c-0.369-1.628-0.736-3.261-1.103-4.887c-0.721-0.394-1.441-0.789-2.162-1.175c0.367,1.626,0.731,3.251,1.101,4.878
		c-0.25-0.135-0.499-0.263-0.745-0.397c-0.365-1.627-0.735-3.255-1.101-4.878c-0.721-0.386-1.441-0.768-2.162-1.146
		c0.367,1.621,0.732,3.244,1.099,4.869c-0.247-0.133-0.493-0.262-0.743-0.392c-0.365-1.619-0.731-3.242-1.099-4.863
		c-0.721-0.374-1.441-0.743-2.16-1.106c0.365,1.615,0.73,3.232,1.097,4.85c-0.247-0.127-0.495-0.253-0.743-0.378
		c-0.366-1.615-0.733-3.232-1.099-4.844c-0.721-0.361-1.441-0.717-2.164-1.065c0.367,1.61,0.734,3.218,1.102,4.829
		c-0.248-0.121-0.494-0.242-0.74-0.363c-0.367-1.609-0.733-3.217-1.101-4.821c-0.721-0.344-1.44-0.681-2.16-1.014
		c0.365,1.601,0.732,3.2,1.1,4.804c-0.248-0.115-0.495-0.23-0.742-0.344c-0.368-1.601-0.734-3.196-1.1-4.797
		c-0.718-0.325-1.441-0.643-2.159-0.953c0.365,1.593,0.732,3.184,1.099,4.777c-0.247-0.109-0.493-0.219-0.739-0.327
		c-0.368-1.588-0.735-3.177-1.103-4.766c-0.718-0.305-1.437-0.602-2.156-0.888c0.366,1.58,0.733,3.161,1.098,4.744
		c-0.246-0.103-0.494-0.204-0.74-0.301c-0.366-1.581-0.731-3.157-1.098-4.734c-0.72-0.281-1.439-0.552-2.157-0.815
		c0.367,1.566,0.732,3.138,1.099,4.708c-0.248-0.093-0.492-0.182-0.739-0.274c-0.365-1.567-0.731-3.134-1.097-4.698
		c-0.719-0.255-1.439-0.501-2.155-0.733c0.365,1.553,0.731,3.111,1.096,4.672c-0.245-0.086-0.494-0.169-0.74-0.248
		c-0.364-1.557-0.729-3.111-1.096-4.662c-0.717-0.228-1.436-0.443-2.153-0.646c0.365,1.54,0.731,3.083,1.097,4.629
		c-0.247-0.074-0.491-0.145-0.738-0.218c-0.365-1.542-0.733-3.081-1.097-4.621c-0.717-0.19-1.435-0.376-2.149-0.548
		c0.365,1.527,0.729,3.055,1.095,4.584c-0.248-0.061-0.492-0.121-0.739-0.182c-0.364-1.529-0.73-3.049-1.095-4.571
		c-0.716-0.16-1.432-0.313-2.148-0.45c0.364,1.51,0.729,3.021,1.095,4.538c-0.246-0.054-0.493-0.103-0.738-0.149
		c-0.364-1.512-0.73-3.016-1.095-4.524c-0.713-0.123-1.429-0.236-2.143-0.337c0.364,1.492,0.727,2.986,1.09,4.484
		c-0.246-0.038-0.49-0.075-0.735-0.109c-0.364-1.494-0.728-2.982-1.092-4.47c-0.715-0.089-1.432-0.16-2.146-0.219
		c0.365,1.471,0.729,2.948,1.094,4.429c-0.245-0.026-0.492-0.049-0.736-0.071c-0.363-1.476-0.729-2.947-1.092-4.415
		c-0.714-0.049-1.426-0.079-2.14-0.094c0.363,1.454,0.727,2.91,1.089,4.369c-0.246-0.01-0.489-0.021-0.732-0.025
		c-0.364-1.456-0.729-2.908-1.091-4.355c-0.713-0.004-1.428,0.01-2.14,0.038c0.364,1.432,0.728,2.867,1.091,4.307
		c-0.244,0.004-0.491,0.011-0.735,0.021c-0.362-1.438-0.726-2.867-1.088-4.293c-0.712,0.043-1.422,0.1-2.134,0.178
		c0.364,1.409,0.723,2.823,1.086,4.24c-0.244,0.022-0.488,0.043-0.733,0.068c-0.362-1.413-0.723-2.818-1.086-4.224
		c-0.71,0.091-1.421,0.194-2.131,0.321c0.361,1.389,0.723,2.778,1.086,4.171c-0.244,0.039-0.488,0.079-0.733,0.121
		c-0.361-1.391-0.724-2.773-1.084-4.156c-0.71,0.141-1.419,0.3-2.127,0.478c0.361,1.363,0.722,2.729,1.081,4.101
		c-0.243,0.057-0.487,0.113-0.729,0.172c-0.361-1.364-0.724-2.726-1.084-4.084c-0.709,0.195-1.417,0.407-2.124,0.64
		c0.36,1.337,0.722,2.678,1.083,4.024c-0.243,0.074-0.486,0.149-0.73,0.229c-0.36-1.34-0.722-2.675-1.082-4.004
		c-0.707,0.245-1.416,0.514-2.121,0.806c0.36,1.311,0.721,2.625,1.082,3.945c-0.245,0.093-0.487,0.187-0.729,0.283
		c-0.361-1.307-0.721-2.619-1.079-3.921c-0.707,0.305-1.413,0.63-2.118,0.98c0.36,1.282,0.719,2.57,1.079,3.865
		c-0.244,0.112-0.484,0.229-0.727,0.345c-0.359-1.284-0.719-2.566-1.079-3.84c-0.703,0.363-1.41,0.753-2.113,1.163
		c0.359,1.256,0.719,2.514,1.077,3.777c-0.242,0.137-0.483,0.271-0.726,0.408c-0.36-1.256-0.719-2.504-1.079-3.748
		c-0.701,0.427-1.403,0.875-2.104,1.354c0.358,1.225,0.715,2.455,1.073,3.687c-0.241,0.157-0.481,0.314-0.724,0.477
		c-0.358-1.226-0.716-2.451-1.075-3.665c-0.701,0.493-1.404,1.012-2.104,1.555c0.356,1.193,0.715,2.393,1.073,3.598
		c-0.24,0.178-0.481,0.359-0.723,0.544c-0.358-1.195-0.716-2.387-1.073-3.57c-0.699,0.56-1.399,1.145-2.099,1.757
		c0.357,1.161,0.713,2.328,1.068,3.501c-0.24,0.202-0.478,0.406-0.719,0.615c-0.357-1.164-0.714-2.323-1.071-3.473
		c-0.698,0.631-1.397,1.288-2.095,1.973c0.354,1.127,0.712,2.26,1.068,3.396c-0.24,0.229-0.48,0.458-0.719,0.688
		c-0.357-1.127-0.714-2.251-1.07-3.372c-0.696,0.703-1.394,1.434-2.089,2.193c0.355,1.094,0.71,2.19,1.065,3.297
		c-0.241,0.252-0.477,0.507-0.717,0.763c-0.356-1.094-0.711-2.185-1.066-3.269c-0.695,0.777-1.393,1.585-2.087,2.419
		c0.355,1.058,0.711,2.12,1.064,3.191c-0.238,0.277-0.477,0.558-0.715,0.843c-0.355-1.059-0.711-2.112-1.065-3.16
		c-0.693,0.856-1.388,1.74-2.078,2.653c0.353,1.021,0.706,2.047,1.058,3.081c-0.237,0.307-0.476,0.613-0.713,0.925
		c-0.354-1.022-0.708-2.04-1.062-3.049c-0.69,0.935-1.383,1.897-2.073,2.895c0.353,0.981,0.705,1.971,1.059,2.966
		c-0.236,0.33-0.475,0.667-0.712,1.008c-0.354-0.983-0.705-1.964-1.061-2.936c-0.689,1.016-1.38,2.067-2.069,3.146
		c0.351,0.941,0.705,1.895,1.056,2.851c-0.235,0.36-0.473,0.726-0.709,1.095c-0.353-0.947-0.705-1.888-1.058-2.82
		c-0.688,1.103-1.376,2.236-2.063,3.402c0.352,0.902,0.702,1.814,1.054,2.729c-0.237,0.392-0.472,0.785-0.709,1.183
		c-0.351-0.906-0.701-1.805-1.053-2.695c-0.688,1.188-1.374,2.411-2.06,3.665c0.35,0.861,0.7,1.729,1.053,2.604
		c-0.236,0.42-0.472,0.848-0.708,1.277c-0.35-0.868-0.7-1.726-1.052-2.574c-0.685,1.278-1.369,2.589-2.052,3.934
		c0.351,0.823,0.698,1.649,1.049,2.481c-0.236,0.454-0.47,0.908-0.705,1.366c-0.35-0.821-0.698-1.639-1.048-2.444
		c-0.061,0.123-0.122,0.244-0.182,0.365c0.698,1.609,1.396,3.25,2.099,4.92c69.562-133.457,146.758,85.728,216.18-54.247
		c-0.696-1.61-1.396-3.25-2.094-4.918c-0.312,0.596-0.622,1.184-0.933,1.765C278.441,217.842,278.789,218.683,279.139,219.52z"/>
	<path fill="#016D4E" d="M62.206,56.217c-8.88,0-16.078,7.2-16.078,16.08s7.198,16.079,16.078,16.079
		c8.882,0,16.079-7.199,16.079-16.079S71.088,56.217,62.206,56.217z M57.607,79.476c-1.426,0-2.58-1.156-2.58-2.58
		c0-1.425,1.154-2.58,2.58-2.58c1.425,0,2.58,1.155,2.58,2.58C60.188,78.319,59.032,79.476,57.607,79.476z M57.607,70.277
		c-1.426,0-2.58-1.154-2.58-2.581c0-1.424,1.154-2.579,2.58-2.579c1.425,0,2.58,1.155,2.58,2.579
		C60.188,69.123,59.032,70.277,57.607,70.277z M66.806,79.476c-1.426,0-2.581-1.156-2.581-2.58c0-1.425,1.155-2.58,2.581-2.58
		s2.582,1.155,2.582,2.58C69.388,78.319,68.231,79.476,66.806,79.476z M66.806,70.277c-1.426,0-2.581-1.154-2.581-2.581
		c0-1.424,1.155-2.579,2.581-2.579s2.582,1.155,2.582,2.579C69.388,69.123,68.231,70.277,66.806,70.277z"/>
	<path fill="#EE2C71" d="M160.786,262.513c-9.976,0-18.062,8.089-18.062,18.064s8.087,18.062,18.062,18.062
		c9.979,0,18.063-8.087,18.063-18.062S170.766,262.513,160.786,262.513z M155.619,288.642c-1.599,0-2.896-1.299-2.896-2.897
		c0-1.602,1.297-2.901,2.896-2.901c1.602,0,2.899,1.3,2.899,2.901C158.519,287.343,157.221,288.642,155.619,288.642z
		 M155.619,278.308c-1.599,0-2.896-1.296-2.896-2.897c0-1.603,1.297-2.897,2.896-2.897c1.602,0,2.899,1.295,2.899,2.897
		C158.519,277.012,157.221,278.308,155.619,278.308z M165.956,288.642c-1.603,0-2.903-1.299-2.903-2.897
		c0-1.602,1.301-2.901,2.903-2.901c1.6,0,2.897,1.3,2.897,2.901C168.854,287.343,167.556,288.642,165.956,288.642z M165.956,278.308
		c-1.603,0-2.903-1.296-2.903-2.897c0-1.603,1.301-2.897,2.903-2.897c1.6,0,2.897,1.295,2.897,2.897
		C168.854,277.012,167.556,278.308,165.956,278.308z"/>
	<path fill="#EE2C71" d="M238.315,105.438l-11.425-23.13c1.193-1.994,1.537-3.927,0.779-5.465
		c-1.822-3.687-9.273-3.724-16.645-0.081c-7.373,3.642-11.871,9.582-10.053,13.269c0.76,1.539,2.506,2.439,4.813,2.703l2.401,4.859
		c-0.771,1.695-1.626,5.047,0.61,9.364c1.73,3.339-0.405,6.259-1.408,7.359c-2.121,2.336-5.213,3.497-7.191,2.703
		c-0.245-0.1-0.527,0.021-0.626,0.268c-0.1,0.245,0.021,0.525,0.268,0.625c1.449,0.581,3.309,0.347,5.091-0.533
		c1.131-0.56,2.234-1.381,3.173-2.416c2.363-2.602,2.942-5.761,1.55-8.449c-1.756-3.39-1.445-6.101-0.893-7.758l8.451,17.106
		c-1.192,1.996-1.538,3.929-0.777,5.466c1.818,3.686,9.274,3.722,16.647,0.081c7.369-3.643,11.872-9.583,10.048-13.267
		C242.37,106.603,240.627,105.702,238.315,105.438z"/>
	<path fill="#F99E26" d="M227.068,187.133c-6.994-0.771-13.289,4.267-14.061,11.26c-0.772,6.994,4.269,13.288,11.262,14.062
		c6.994,0.771,13.287-4.271,14.061-11.264C239.102,194.201,234.062,187.904,227.068,187.133z M229.021,192.465
		c0.048-0.426,0.433-0.734,0.858-0.687c0.429,0.049,0.734,0.431,0.689,0.858l-1.03,9.326c-0.049,0.43-0.434,0.736-0.86,0.688
		c-0.429-0.047-0.734-0.431-0.688-0.858L229.021,192.465z M222.45,191.74c0.047-0.428,0.431-0.734,0.858-0.688
		c0.426,0.049,0.734,0.431,0.688,0.858l-1.031,9.328c-0.048,0.428-0.432,0.734-0.858,0.687c-0.427-0.047-0.734-0.431-0.689-0.858
		L222.45,191.74z M233.215,206.317c-2.499,2.003-5.582,2.803-8.542,2.474c-2.956-0.325-5.791-1.78-7.794-4.28
		c-0.27-0.335-0.216-0.824,0.12-1.093s0.824-0.214,1.092,0.121c1.685,2.101,4.083,3.419,6.753,3.714
		c2.673,0.297,5.3-0.469,7.401-2.15c0.334-0.269,0.823-0.214,1.091,0.121C233.606,205.559,233.552,206.049,233.215,206.317z"/>
	<path fill="#F99E26" d="M219.324,186.546l-0.526-0.871c-0.127-0.21-0.398-0.276-0.605-0.151c0,0,2.015-5.652-4.429-6.365
		c-6.443-0.709-10.958,4.725-7.599,18.01c3.357,13.285,2.042,15.746,2.042,15.746s1.796-0.907,0.648-15.904
		s5.562-10.838,6.445-9.737c-0.209,0.127-0.275,0.397-0.149,0.607l0.528,0.872c0.125,0.208,0.396,0.274,0.604,0.149l2.893-1.75
		C219.385,187.024,219.45,186.754,219.324,186.546z"/>
	<path fill="#F99E26" d="M241.791,182.257c-6.441-0.712-5.711,5.244-5.711,5.244c-0.175-0.17-0.454-0.164-0.624,0.014l-0.704,0.735
		c-0.17,0.177-0.164,0.454,0.012,0.623l2.442,2.339c0.175,0.169,0.454,0.163,0.621-0.013l0.706-0.735
		c0.17-0.177,0.162-0.456-0.013-0.625c1.102-0.881,8.559-3.476,4.164,10.91c-4.396,14.384-2.841,15.662-2.841,15.662
		s-0.747-2.689,5.434-14.921C251.456,189.261,248.235,182.97,241.791,182.257z"/>
	<path fill="#EE2C71" d="M245.015,66.149l-7.6-11.826l-0.468,14.05c-0.011,0.052-0.017,0.105-0.002,0.155
		c0.155,0.562,2.105,0.515,4.356-0.105c2.253-0.621,3.949-1.58,3.794-2.142C245.082,66.231,245.052,66.189,245.015,66.149z"/>
	<g>
		<path fill="#EE2C71" d="M241.542,69.293c-0.685,0.188-1.341,0.322-1.93,0.405l16.287,59.05l3.52-0.97L243.144,68.76
			C242.661,68.953,242.12,69.133,241.542,69.293z"/>
		<path fill="#EE2C71" d="M255.532,128.639l-16.235-58.877l0.155-0.042c-1.086,0.134-1.909,0.075-2.18-0.187l-0.045,0.012
			l15.787,57.257l0,0l0,0L255.532,128.639z"/>
		<path fill="#EE2C71" d="M245.376,67.298l-0.048,0.014c-0.098,0.375-0.818,0.868-1.88,1.323l16.285,59.057l0.062-0.017l1.322-3.108
			l0,0l0.049-0.012L245.376,67.298z"/>
	</g>
	<path fill="#EE2C71" d="M272.19,154.769c0,3.105,2.519,5.627,5.628,5.627c3.111,0,5.631-2.521,5.631-5.627
		c0-3.111-2.52-5.633-5.631-5.633C274.709,149.136,272.19,151.657,272.19,154.769z"/>
	<g>
		<path fill="#EE2C71" d="M279.111,143.707c0.746-4.471,1.348-8.128,1.336-8.128c-0.011,0-0.563-1.213-1.227-2.696c0,0,0,0-1.493,0
			c-1.488,0-2.694,1.207-2.694,2.696c0,0.315,0,0.315,0,0.315c0.085,0.322,0.731,4.041,1.438,8.264
			C277.176,148.38,278.364,148.177,279.111,143.707z"/>
	</g>
	<g>
		<path fill="#EE2C71" d="M282.465,144.646c2.091-4.021,3.792-7.312,3.781-7.315c-0.01-0.003-0.159-1.329-0.332-2.947
			c0,0,0,0-1.417-0.459c-1.416-0.462-2.94,0.315-3.4,1.73c-0.095,0.302-0.095,0.302-0.095,0.302
			c-0.019,0.333-0.553,4.068-1.186,8.302C279.183,148.492,280.374,148.667,282.465,144.646z"/>
	</g>
	<g>
		<path fill="#EE2C71" d="M285.365,146.577c3.231-3.178,5.868-5.783,5.859-5.79c-0.01-0.006,0.258-1.313,0.593-2.904
			c0,0,0,0-1.207-0.877c-1.207-0.874-2.892-0.608-3.768,0.598c-0.186,0.257-0.186,0.257-0.186,0.257
			c-0.12,0.31-1.781,3.697-3.692,7.528C281.053,149.221,282.133,149.755,285.365,146.577z"/>
	</g>
	<g>
		<path fill="#EE2C71" d="M287.525,149.31c4.057-2.024,7.369-3.687,7.362-3.695s0.65-1.169,1.461-2.58c0,0,0,0-0.876-1.205
			c-0.875-1.206-2.562-1.472-3.768-0.598c-0.257,0.188-0.257,0.188-0.257,0.188c-0.208,0.259-2.835,2.968-5.837,6.021
			C282.608,150.492,283.47,151.333,287.525,149.31z"/>
	</g>
	<g>
		<path fill="#EE2C71" d="M288.738,152.576c4.48-0.672,8.146-1.23,8.143-1.24c-0.004-0.011,0.981-0.912,2.188-2.003
			c0,0,0,0-0.463-1.416c-0.46-1.415-1.98-2.192-3.397-1.732c-0.301,0.099-0.301,0.099-0.301,0.099
			c-0.28,0.181-3.616,1.946-7.413,3.921C283.697,152.181,284.257,153.247,288.738,152.576z"/>
	</g>
	<g>
		<path fill="#EE2C71" d="M288.881,156.057c4.47,0.746,8.128,1.348,8.128,1.336c0-0.011,1.214-0.563,2.697-1.229c0,0,0,0,0-1.488
			c0-1.49-1.209-2.697-2.697-2.697c-0.315,0-0.315,0-0.315,0c-0.321,0.087-4.04,0.734-8.264,1.439
			C284.207,154.123,284.41,155.311,288.881,156.057z"/>
	</g>
	<g>
		<path fill="#EE2C71" d="M287.939,159.411c4.022,2.092,7.314,3.794,7.318,3.782c0.003-0.011,1.328-0.161,2.944-0.335
			c0,0,0,0,0.462-1.417c0.459-1.415-0.318-2.936-1.732-3.396c-0.301-0.101-0.301-0.101-0.301-0.101
			c-0.333-0.016-4.07-0.548-8.305-1.183C284.093,156.128,283.918,157.319,287.939,159.411z"/>
	</g>
	<g>
		<path fill="#EE2C71" d="M286.009,162.312c3.178,3.232,5.784,5.87,5.79,5.86c0.007-0.009,1.313,0.257,2.904,0.591
			c0,0,0,0,0.876-1.204c0.876-1.207,0.609-2.893-0.596-3.766c-0.258-0.188-0.258-0.188-0.258-0.188
			c-0.31-0.12-3.698-1.782-7.529-3.694S282.831,159.079,286.009,162.312z"/>
	</g>
	<g>
		<path fill="#EE2C71" d="M283.277,164.473c2.024,4.056,3.688,7.367,3.695,7.361c0.009-0.007,1.169,0.649,2.578,1.459
			c0,0,0,0,1.205-0.874c1.207-0.875,1.474-2.561,0.598-3.768c-0.186-0.257-0.186-0.257-0.186-0.257
			c-0.259-0.208-2.969-2.835-6.021-5.836C282.095,159.557,281.253,160.418,283.277,164.473z"/>
	</g>
	<g>
		<path fill="#EE2C71" d="M280.011,165.686c0.672,4.481,1.229,8.146,1.239,8.143c0.011-0.003,0.91,0.98,2.001,2.187
			c0,0,0,0,1.418-0.461c1.417-0.46,2.19-1.982,1.731-3.401c-0.097-0.299-0.097-0.299-0.097-0.299
			c-0.181-0.278-1.946-3.614-3.922-7.412S279.339,161.203,280.011,165.686z"/>
	</g>
	<g>
		<path fill="#EE2C71" d="M276.529,165.826c-0.746,4.47-1.348,8.127-1.336,8.127c0.011,0,0.563,1.217,1.228,2.703c0,0,0,0,1.49,0
			c1.489,0,2.697-1.209,2.697-2.703c0-0.315,0-0.315,0-0.315c-0.087-0.32-0.735-4.038-1.44-8.261
			C278.464,161.155,277.276,161.357,276.529,165.826z"/>
	</g>
	<g>
		<path fill="#EE2C71" d="M273.175,164.887c-2.092,4.021-3.794,7.314-3.783,7.318c0.011,0.003,0.161,1.328,0.334,2.943
			c0,0,0,0,1.417,0.462c1.416,0.461,2.938-0.316,3.4-1.732c0.097-0.301,0.097-0.301,0.097-0.301c0.017-0.332,0.55-4.068,1.185-8.303
			C276.458,161.04,275.267,160.865,273.175,164.887z"/>
	</g>
	<g>
		<path fill="#EE2C71" d="M270.275,162.955c-3.232,3.179-5.868,5.785-5.859,5.792c0.01,0.007-0.258,1.313-0.594,2.902
			c0,0,0,0,1.207,0.876c1.205,0.874,2.892,0.608,3.768-0.598c0.186-0.254,0.186-0.254,0.186-0.254c0.12-0.31,1.781-3.698,3.693-7.53
			C274.587,160.312,273.507,159.777,270.275,162.955z"/>
	</g>
	<g>
		<path fill="#EE2C71" d="M268.113,160.224c-4.056,2.024-7.369,3.688-7.363,3.696c0.007,0.01-0.649,1.169-1.457,2.577
			c0,0,0,0,0.873,1.207c0.878,1.207,2.563,1.474,3.77,0.596c0.256-0.188,0.256-0.188,0.256-0.188
			c0.209-0.257,2.836-2.965,5.838-6.019C273.03,159.041,272.168,158.199,268.113,160.224z"/>
	</g>
	<g>
		<path fill="#EE2C71" d="M266.902,156.957c-4.482,0.671-8.147,1.229-8.143,1.24c0.004,0.011-0.98,0.912-2.188,2.002
			c0,0,0,0,0.46,1.416c0.462,1.417,1.982,2.192,3.4,1.732c0.301-0.098,0.301-0.098,0.301-0.098c0.278-0.181,3.614-1.945,7.413-3.921
			S271.386,156.286,266.902,156.957z"/>
	</g>
	<g>
		<path fill="#EE2C71" d="M266.76,153.477c-4.471-0.747-8.129-1.348-8.129-1.336s0,0.02,0,0.018l0,0
			c-1.489,0-2.697,1.211-2.697,2.699c0,1.49,1.208,2.697,2.697,2.697c0.315,0,0.315,0,0.315,0c0.323-0.087,4.042-0.734,8.265-1.439
			S271.23,154.223,266.76,153.477z"/>
	</g>
	<g>
		<path fill="#EE2C71" d="M267.699,150.121c-4.021-2.091-7.314-3.793-7.317-3.783s-1.328,0.161-2.944,0.334c0,0,0,0-0.46,1.418
			c-0.46,1.416,0.313,2.937,1.732,3.4c0.299,0.096,0.299,0.096,0.299,0.096c0.333,0.016,4.07,0.548,8.304,1.183
			C271.547,153.403,271.722,152.212,267.699,150.121z"/>
	</g>
	<g>
		<path fill="#EE2C71" d="M269.63,147.222c-3.179-3.231-5.784-5.868-5.79-5.859c-0.007,0.009-1.313-0.258-2.905-0.593
			c0,0,0,0-0.872,1.206c-0.878,1.205-0.611,2.893,0.596,3.77c0.253,0.185,0.253,0.185,0.253,0.185
			c0.312,0.119,3.701,1.78,7.532,3.691C272.274,151.532,272.809,150.453,269.63,147.222z"/>
	</g>
	<g>
		<path fill="#EE2C71" d="M272.362,145.061c-2.024-4.056-3.688-7.369-3.696-7.362c-0.01,0.006-1.17-0.651-2.579-1.46
			c0,0,0,0-1.205,0.877c-1.207,0.874-1.472,2.562-0.596,3.768c0.186,0.254,0.186,0.254,0.186,0.254
			c0.259,0.209,2.969,2.837,6.021,5.839C273.545,149.978,274.387,149.117,272.362,145.061z"/>
	</g>
	<g>
		<path fill="#EE2C71" d="M275.629,143.85c-0.671-4.482-1.229-8.147-1.239-8.144s-0.911-0.98-2.003-2.187c0,0,0,0-1.417,0.462
			c-1.418,0.459-2.191,1.98-1.73,3.397c0.097,0.302,0.097,0.302,0.097,0.302c0.181,0.279,1.946,3.615,3.922,7.413
			S276.301,148.333,275.629,143.85z"/>
	</g>
	<g>
		
			<text transform="matrix(0.8506 -0.5257 0.5257 0.8506 198.2158 70.6216)" fill="#EE2C71" font-family="'BorisBlackBloxx'" font-size="68.7889">?</text>
	</g>
	<path fill="#F99E26" d="M174.359,199.077c0.24-0.444,0.075-1.007-0.367-1.249l-1.745-0.953c-0.445-0.242-1.007-0.075-1.247,0.367
		l-13.875,25.436c-0.242,0.442-0.076,1.002,0.368,1.246l1.744,0.952c0.444,0.239,1.006,0.075,1.246-0.367L174.359,199.077z"/>
	<path fill="#F99E26" d="M180.128,200.77c-2.3-1.04-4.189-1.884-4.191-1.876c-0.004,0.008-0.004,0.008-0.002,0.006
		c0-0.006-0.162-0.101-0.365-0.21c-0.204-0.112-1.357,1.613-2.566,3.832l-10.357,18.981c-1.21,2.219-2.033,4.121-1.829,4.231
		c0.203,0.113,2.1,1.325,4.222,2.697l41.541,26.899c2.12,1.375,4.979,0.762,6.354-1.354l3.992-6.168
		c1.37-2.12,0.759-4.979-1.359-6.352l-29.585-19.155c-2.121-1.372-1.972-1.645,0.331-0.605l32.123,14.503
		c2.3,1.036,5.037,0.006,6.071-2.294l3.024-6.695c1.04-2.303,0.008-5.037-2.294-6.079L180.128,200.77z"/>
	
		<ellipse transform="matrix(-0.3574 -0.934 0.934 -0.3574 -130.4353 374.1122)" fill="#DC1D42" cx="63.492" cy="231.931" rx="2.153" ry="1.946"/>
	
		<ellipse transform="matrix(0.3577 0.9338 -0.9338 0.3577 259.9013 79.1559)" fill="#DC1D42" cx="72.405" cy="228.523" rx="2.154" ry="1.946"/>
	
		<ellipse transform="matrix(0.3576 0.9339 -0.9339 0.3576 252.8444 83.0466)" fill="#DC1D42" cx="66.062" cy="225.296" rx="2.154" ry="1.946"/>
	
		<ellipse transform="matrix(0.3577 0.9338 -0.9338 0.3577 241.1956 80.1992)" fill="#DC1D42" cx="62.294" cy="215.446" rx="2.154" ry="1.946"/>
	
		<ellipse transform="matrix(0.3569 0.9341 -0.9341 0.3569 255.4807 72.6678)" fill="#DC1D42" cx="74.961" cy="221.891" rx="2.155" ry="1.948"/>
	<path fill="#DC1D42" d="M62.999,209.366c0.015,0.047,0.028,0.095,0.047,0.14c0.424,1.108,1.584,1.698,2.586,1.314
		c1.003-0.382,1.474-1.596,1.05-2.704c-0.011-0.023-0.021-0.046-0.03-0.068c-0.193,0.024-0.384,0.068-0.563,0.136L62.999,209.366z"
		/>
	
		<ellipse transform="matrix(0.3573 0.934 -0.934 0.3573 248.3551 76.4386)" fill="#DC1D42" cx="68.638" cy="218.673" rx="2.154" ry="1.946"/>
	<path fill="#DC1D42" d="M69.375,212.738c0.425,1.108,1.585,1.698,2.588,1.314c0.209-0.079,0.392-0.196,0.552-0.339l-2.331-3.566
		C69.35,210.62,68.988,211.721,69.375,212.738z"/>
	<path fill="#DC1D42" d="M60.161,236.538c-0.162,0.062-0.308,0.147-0.44,0.249l0.106,0.7c0.223,1.441,1.415,2.233,2.654,1.759
		l0.386-0.147c0.073-0.396,0.041-0.828-0.118-1.242C62.324,236.746,61.164,236.154,60.161,236.538z"/>
	<path fill="#DC1D42" d="M60.494,224.095c1.002-0.383,1.473-1.597,1.048-2.707c-0.424-1.108-1.585-1.7-2.588-1.316
		c-1.002,0.384-1.472,1.599-1.048,2.709C58.331,223.888,59.491,224.479,60.494,224.095z"/>
	<path fill="#DC1D42" d="M56.304,214.335c0.14-0.018,0.28-0.052,0.416-0.103c1.003-0.384,1.473-1.598,1.05-2.706
		c-0.013-0.03-0.025-0.057-0.038-0.086C56.844,212.02,56.262,213.185,56.304,214.335z"/>
	<path fill="#DC1D42" d="M58.98,228.006c-0.164-0.426-0.434-0.773-0.762-1.02l0.483,3.155
		C59.141,229.583,59.272,228.768,58.98,228.006z"/>
	<path fill="#DC1D42" d="M58.173,211.369c0.519,1.357-0.057,2.841-1.281,3.31c-0.178,0.066-0.358,0.11-0.54,0.127l1.011,6.59
		c0.152-0.799,0.662-1.481,1.422-1.771c1.224-0.469,2.643,0.253,3.162,1.607c0.519,1.356-0.056,2.839-1.281,3.309
		c-1.128,0.433-2.417-0.146-3.02-1.298l0.482,3.153c0.546,0.297,1.006,0.802,1.257,1.456c0.408,1.064,0.137,2.207-0.593,2.877
		l0.849,5.534c0.11-0.066,0.226-0.125,0.35-0.174c1.225-0.468,2.644,0.255,3.162,1.607c0.155,0.408,0.212,0.824,0.182,1.226
		l4.955-1.897c-0.287-0.277-0.525-0.624-0.681-1.032c-0.519-1.354,0.056-2.839,1.281-3.308c1.224-0.47,2.644,0.253,3.163,1.609
		c0.155,0.406,0.21,0.822,0.182,1.22l4.954-1.894c-0.287-0.277-0.525-0.626-0.68-1.032c-0.52-1.354,0.056-2.839,1.281-3.309
		c1.225-0.469,2.643,0.254,3.162,1.608c0.156,0.408,0.211,0.824,0.182,1.222l0.471-0.18c1.237-0.473,1.597-1.859,0.798-3.083
		l-0.744-1.141c-1.062,0.091-2.138-0.598-2.575-1.74c-0.28-0.731-0.238-1.498,0.049-2.126l-6.356-9.726
		c-0.187,0.161-0.401,0.293-0.641,0.386c-1.226,0.468-2.645-0.253-3.164-1.609c-0.469-1.226-0.04-2.556,0.951-3.146l-0.132-0.2
		c-0.593-0.908-1.664-1.478-2.684-1.519c0.476,1.337-0.098,2.78-1.303,3.241c-1.226,0.47-2.644-0.253-3.163-1.607
		c-0.018-0.047-0.03-0.093-0.046-0.14l-4.411,1.688c-0.024,0.008-0.046,0.02-0.069,0.03
		C58.134,211.282,58.156,211.325,58.173,211.369z M64.434,234.392c-1.226,0.467-2.645-0.254-3.163-1.608
		c-0.519-1.355,0.056-2.841,1.281-3.31s2.644,0.253,3.162,1.609C66.233,232.438,65.659,233.924,64.434,234.392z M74.02,219.434
		c1.226-0.471,2.646,0.25,3.163,1.606c0.52,1.355-0.056,2.841-1.28,3.31c-1.226,0.467-2.645-0.253-3.161-1.607
		C72.222,221.384,72.794,219.899,74.02,219.434z M67.696,216.215c1.225-0.469,2.643,0.253,3.162,1.609
		c0.519,1.354-0.056,2.839-1.281,3.307c-1.226,0.469-2.644-0.252-3.162-1.608C65.896,218.167,66.472,216.684,67.696,216.215z
		 M71.465,226.063c1.225-0.468,2.644,0.253,3.163,1.607c0.519,1.358-0.057,2.839-1.282,3.309c-1.226,0.469-2.644-0.25-3.162-1.606
		C69.665,228.016,70.239,226.532,71.465,226.063z M61.354,212.988c1.225-0.47,2.643,0.253,3.161,1.609
		c0.52,1.354-0.055,2.839-1.28,3.308c-1.225,0.47-2.644-0.253-3.163-1.607C59.553,214.94,60.128,213.457,61.354,212.988z
		 M65.121,222.837c1.226-0.468,2.644,0.253,3.163,1.607c0.519,1.358-0.056,2.841-1.282,3.31c-1.225,0.47-2.644-0.251-3.161-1.609
		C63.32,224.79,63.896,223.306,65.121,222.837z"/>
	<path fill="#DC1D42" d="M81.354,227.241l-1.917-2.935c-0.149,0.463-0.145,0.996,0.05,1.507
		C79.812,226.661,80.568,227.206,81.354,227.241z"/>
	<path fill="#DC1D42" d="M77.961,229.727c-1.002,0.385-1.473,1.599-1.048,2.709c0.158,0.418,0.423,0.76,0.743,1.006l3.012-1.151
		c0.073-0.397,0.04-0.829-0.12-1.247C80.123,229.935,78.963,229.345,77.961,229.727z"/>
	<path fill="#DC1D42" d="M69.061,233.132c-1.002,0.384-1.473,1.6-1.048,2.71c0.159,0.416,0.423,0.759,0.743,1.004l3.011-1.151
		c0.073-0.396,0.04-0.828-0.118-1.246C71.224,233.34,70.062,232.747,69.061,233.132z"/>
	<circle fill="#DC1D42" cx="265.203" cy="109.999" r="3.885"/>
	<circle fill="#016D4E" cx="114.186" cy="246.933" r="3.273"/>
	<circle fill="#016D4E" cx="252.308" cy="231.864" r="3.273"/>
	<circle fill="#016D4E" cx="239.613" cy="275.079" r="3.273"/>
	<circle fill="#016D4E" cx="159.21" cy="194.002" r="3.273"/>
	<circle fill="#EE2C71" cx="124.38" cy="279.525" r="2.279"/>
	<circle fill="#EE2C71" cx="127.811" cy="258.566" r="2.28"/>
	<circle fill="#EE2C71" cx="188.742" cy="268.782" r="2.28"/>
	<circle fill="#EE2C71" cx="210.628" cy="275.081" r="2.28"/>
	<path fill="#016D4E" d="M125.53,291.807c0,4.42,3.582,7.997,7.996,7.997c4.416,0,7.998-3.577,7.998-7.997
		c0-4.417-3.582-7.995-7.998-7.995C129.112,283.812,125.53,287.39,125.53,291.807z"/>
	<circle fill="#EE2C71" cx="13.213" cy="165.142" r="4.091"/>
	<circle fill="#EE2C71" cx="99.464" cy="179.094" r="4.091"/>
	<circle fill="#EE2C71" cx="7.125" cy="147.877" r="3.71"/>
	<path fill="#DC1D42" d="M106.764,283.808c0,2.052,1.663,3.713,3.711,3.713c2.049,0,3.711-1.661,3.711-3.713
		c0-2.045-1.662-3.707-3.711-3.707C108.427,280.101,106.764,281.763,106.764,283.808z"/>
	<path fill="#DC1D42" d="M129.691,275.077c0,2.052,1.661,3.713,3.71,3.713s3.71-1.661,3.71-3.713c0-2.047-1.661-3.707-3.71-3.707
		S129.691,273.03,129.691,275.077z"/>
	<path fill="#DC1D42" d="M188.741,280.829c0,2.052,1.663,3.713,3.711,3.713c2.049,0,3.709-1.661,3.709-3.713
		c0-2.047-1.66-3.707-3.709-3.707C190.404,277.122,188.741,278.782,188.741,280.829z"/>
	<path fill="#DC1D42" d="M203.207,287.519c0,2.052,1.662,3.713,3.711,3.713c2.048,0,3.709-1.661,3.709-3.713
		c0-2.047-1.661-3.707-3.709-3.707C204.869,283.812,203.207,285.472,203.207,287.519z"/>
	<circle fill="#DC1D42" cx="15.728" cy="139.337" r="2.098"/>
	<circle fill="#DC1D42" cx="257.557" cy="78.471" r="1.976"/>
	<circle fill="#EE2C71" cx="96.823" cy="260.248" r="2.607"/>
	<circle fill="#EE2C71" cx="262.839" cy="216.092" r="2.607"/>
	<circle fill="#EE2C71" cx="114.186" cy="260.25" r="1.686"/>
	<circle fill="#EE2C71" cx="88.04" cy="282.516" r="1.687"/>
	<circle fill="#EE2C71" cx="88.04" cy="270.466" r="1.163"/>
	<circle fill="#EE2C71" cx="122.101" cy="269.303" r="1.163"/>
	<circle fill="#016D4E" cx="7.124" cy="109.344" r="1.163"/>
	<path fill="#016D4E" d="M92.572,281.128c0,0.641,0.521,1.163,1.165,1.163c0.64,0,1.162-0.522,1.162-1.163
		c0-0.646-0.522-1.164-1.162-1.164C93.094,279.964,92.572,280.482,92.572,281.128z"/>
	<path fill="#016D4E" d="M17.305,155.433c0,0.642,0.521,1.163,1.164,1.163c0.64,0,1.162-0.521,1.162-1.163
		c0-0.646-0.522-1.163-1.162-1.163C17.825,154.27,17.305,154.787,17.305,155.433z"/>
	<circle fill="#016D4E" cx="1.458" cy="139.991" r="1.164"/>
	<circle fill="#EE2C71" cx="135.087" cy="250.665" r="1.686"/>
	<circle fill="#EE2C71" cx="13.214" cy="120.624" r="1.686"/>
	<circle fill="#EE2C71" cx="106.764" cy="268.782" r="1.686"/>
	<circle fill="#EE2C71" cx="271.095" cy="80.446" r="3.274"/>
	<circle fill="#EE2C71" cx="263.916" cy="94.615" r="2.28"/>
	<path fill="#016D4E" d="M283.307,122.578c0,2.052-1.66,3.713-3.709,3.713s-3.711-1.661-3.711-3.713
		c0-2.045,1.662-3.707,3.711-3.707S283.307,120.533,283.307,122.578z"/>
	<circle fill="#EE2C71" cx="273.128" cy="65.636" r="2.608"/>
	<circle fill="#016D4E" cx="283.967" cy="90.651" r="1.687"/>
	<circle fill="#EE2C71" cx="182.287" cy="125.853" r="3.274"/>
	<circle fill="#016D4E" cx="192.226" cy="133.229" r="1.687"/>
	<circle fill="#016D4E" cx="255.581" cy="65.637" r="1.685"/>
	<circle fill="#EE2C71" cx="281.117" cy="109.997" r="1.163"/>
	<path fill="#EE2C71" d="M278.036,98.365c0,0.646-0.521,1.163-1.163,1.163s-1.163-0.518-1.163-1.163
		c0-0.642,0.521-1.161,1.163-1.161S278.036,97.724,278.036,98.365z"/>
	<circle fill="#EE2C71" cx="292.084" cy="113.869" r="1.686"/>
	<path fill="#016D4E" d="M100.532,136.046c0,2.053-1.66,3.713-3.709,3.713c-2.048,0-3.711-1.66-3.711-3.713
		c0-2.044,1.663-3.707,3.711-3.707C98.872,132.339,100.532,134.002,100.532,136.046z"/>
	<circle fill="#EE2C71" cx="106.761" cy="124.646" r="1.163"/>
	<circle fill="#EE2C71" cx="110.872" cy="132.341" r="1.687"/>
	<circle fill="#016D4E" cx="109.238" cy="12.677" r="3.274"/>
	<path fill="#016D4E" d="M67.615,33.605c0,2.052-1.661,3.713-3.71,3.713c-2.05,0-3.71-1.661-3.71-3.713
		c0-2.046,1.66-3.707,3.71-3.707C65.954,29.898,67.615,31.56,67.615,33.605z"/>
	<circle fill="#EE2C71" cx="80.416" cy="25.024" r="2.608"/>
	<circle fill="#EE2C71" cx="82.102" cy="14.363" r="1.686"/>
	<circle fill="#EE2C71" cx="96.43" cy="20.139" r="1.163"/>
	<path fill="#EE2C71" d="M101.689,25.025c0,0.642-0.521,1.162-1.165,1.162c-0.64,0-1.162-0.521-1.162-1.162
		c0-0.644,0.522-1.163,1.162-1.163C101.169,23.862,101.689,24.382,101.689,25.025z"/>
	<circle fill="#EE2C71" cx="90.505" cy="26.189" r="1.686"/>
	<path fill="#EE2C71" d="M81.204,33.61c0,0.931-0.753,1.684-1.684,1.684s-1.688-0.753-1.688-1.684c0-0.933,0.757-1.688,1.688-1.688
		S81.204,32.678,81.204,33.61z"/>
	<circle fill="#EE2C71" cx="40.944" cy="236.601" r="1.163"/>
	<circle fill="#EE2C71" cx="45.041" cy="241.487" r="1.163"/>
	<circle fill="#EE2C71" cx="37.627" cy="241.487" r="1.686"/>
	<path fill="#DC1D42" d="M156.584,14.898c0,2.052,1.66,3.713,3.711,3.713c2.048,0,3.709-1.661,3.709-3.713
		c0-2.047-1.661-3.707-3.709-3.707C158.244,11.191,156.584,12.852,156.584,14.898z"/>
	<circle fill="#EE2C71" cx="153.576" cy="2.804" r="2.608"/>
	<circle fill="#EE2C71" cx="147.652" cy="7.331" r="1.163"/>
	<path fill="#EE2C71" d="M142.393,12.217c0,0.641,0.52,1.163,1.165,1.163c0.639,0,1.161-0.522,1.161-1.163
		c0-0.644-0.522-1.164-1.161-1.164C142.912,11.053,142.393,11.573,142.393,12.217z"/>
	<circle fill="#EE2C71" cx="150.969" cy="12.217" r="1.687"/>
	<circle fill="#016D4E" cx="159.21" cy="42.318" r="2.607"/>
	<circle fill="#016D4E" cx="138.162" cy="29.899" r="2.607"/>
	<circle fill="#EE2C71" cx="141.807" cy="48.529" r="1.687"/>
	<circle fill="#EE2C71" cx="153.285" cy="46.842" r="1.163"/>
	<circle fill="#EE2C71" cx="149.189" cy="51.729" r="1.164"/>
	<circle fill="#EE2C71" cx="156.603" cy="51.729" r="1.686"/>
	<path fill="#EE2C71" d="M112.549,214.406c0,0.642-0.521,1.163-1.165,1.163c-0.639,0-1.161-0.521-1.161-1.163
		c0-0.643,0.522-1.163,1.161-1.163C112.027,213.243,112.549,213.764,112.549,214.406z"/>
	<circle fill="#EE2C71" cx="103.972" cy="214.406" r="1.686"/>
	<circle fill="#EE2C71" cx="7.125" cy="131.622" r="3.146"/>
	<path fill="#EE2C71" d="M190.182,187.053c0,2.051,1.663,3.711,3.709,3.711c2.051,0,3.711-1.66,3.711-3.711
		c0-2.048-1.66-3.709-3.711-3.709C191.845,183.344,190.182,185.005,190.182,187.053z"/>
	<circle fill="#DC1D42" cx="206.206" cy="159.701" r="2.099"/>
	<path fill="#016D4E" d="M190.771,160.355c0,0.642,0.522,1.164,1.166,1.164c0.639,0,1.161-0.522,1.161-1.164
		c0-0.645-0.522-1.163-1.161-1.163C191.293,159.192,190.771,159.711,190.771,160.355z"/>
	<circle fill="#EE2C71" cx="156.603" cy="127.691" r="3.146"/>
	<circle fill="#EE2C71" cx="92.516" cy="210.455" r="1.686"/>
	<path fill="#EE2C71" d="M50.737,252.842c0,1.736,1.408,3.146,3.143,3.146c1.739,0,3.148-1.409,3.148-3.146
		c0-1.738-1.409-3.146-3.148-3.146C52.146,249.696,50.737,251.104,50.737,252.842z"/>
	<circle fill="#016D4E" cx="222.302" cy="23.43" r="1.685"/>
	<path fill="#EE2C71" d="M39.863,62.036c-0.317,0.56-1.029,0.754-1.587,0.437c-0.557-0.315-0.755-1.027-0.436-1.587
		c0.316-0.556,1.026-0.751,1.584-0.433C39.982,60.769,40.18,61.478,39.863,62.036z"/>
	<path fill="#EE2C71" d="M240.042,244.235c-0.316,0.557-1.027,0.755-1.587,0.436c-0.556-0.315-0.753-1.027-0.435-1.585
		c0.317-0.56,1.028-0.753,1.583-0.437C240.165,242.967,240.359,243.676,240.042,244.235z"/>
	<circle fill="#DC1D42" cx="33.554" cy="64.073" r="1.686"/>
	<path fill="#DC1D42" d="M223.212,28.761c0.104,0.925-0.562,1.759-1.486,1.862c-0.925,0.104-1.761-0.562-1.865-1.484
		c-0.104-0.929,0.564-1.763,1.489-1.867C222.274,27.168,223.108,27.834,223.212,28.761z"/>
	<circle fill="#EE2C71" cx="226.807" cy="27.619" r="1.162"/>
	<circle fill="#016D4E" cx="26.199" cy="90.492" r="3.273"/>
	<circle fill="#EE2C71" cx="35.348" cy="114.947" r="2.28"/>
	<circle fill="#EE2C71" cx="40.944" cy="161.054" r="2.28"/>
	<circle fill="#EE2C71" cx="27.363" cy="99.934" r="1.163"/>
	<circle fill="#EE2C71" cx="240.195" cy="231.864" r="1.163"/>
	<circle fill="#EE2C71" cx="37.627" cy="87.835" r="1.686"/>
	<path fill="#FFC552" d="M39.837,100.325c0,1.736,1.409,3.146,3.144,3.146c1.737,0,3.147-1.409,3.147-3.146
		c0-1.738-1.41-3.146-3.147-3.146C41.246,97.18,39.837,98.587,39.837,100.325z"/>
	<path fill="#FFC552" d="M32.095,136.599c0,1.736,1.409,3.146,3.144,3.146c1.737,0,3.147-1.409,3.147-3.146
		c0-1.738-1.41-3.146-3.147-3.146C33.504,133.453,32.095,134.86,32.095,136.599z"/>
	<path fill="#FFC552" d="M222.499,283.812c0,1.736,1.409,3.146,3.144,3.146c1.737,0,3.147-1.409,3.147-3.146
		c0-1.738-1.41-3.146-3.147-3.146C223.908,280.666,222.499,282.073,222.499,283.812z"/>
	<path fill="#FFC552" d="M70.271,51.729c0,1.736,1.409,3.146,3.144,3.146c1.737,0,3.147-1.409,3.147-3.146
		c0-1.738-1.41-3.146-3.147-3.146C71.681,48.583,70.271,49.99,70.271,51.729z"/>
	<path fill="#016D4E" d="M217.364,47.047c0,1.808,1.468,3.274,3.27,3.274c1.811,0,3.276-1.467,3.276-3.274
		c0-1.809-1.466-3.273-3.276-3.273C218.832,43.773,217.364,45.238,217.364,47.047z"/>
	<circle fill="#EE2C71" cx="284.207" cy="201.082" r="2.28"/>
	<circle fill="#EE2C71" cx="261.154" cy="195.689" r="1.685"/>
	<circle fill="#EE2C71" cx="272.258" cy="197.753" r="1.163"/>
	<circle fill="#EE2C71" cx="245.856" cy="35.474" r="1.164"/>
	<circle fill="#EE2C71" cx="232.065" cy="44.39" r="1.686"/>
	<path fill="#DC1D42" d="M240.161,44.391c0,1.736,1.411,3.146,3.144,3.146c1.738,0,3.149-1.41,3.149-3.146
		c0-1.737-1.411-3.145-3.149-3.145C241.572,41.246,240.161,42.653,240.161,44.391z"/>
</g>
</svg>
