<?xml version="1.0" encoding="utf-8"?>
<!-- Generator: Adobe Illustrator 16.0.4, SVG Export Plug-In . SVG Version: 6.00 Build 0)  -->
<!DOCTYPE svg PUBLIC "-//W3C//DTD SVG 1.1//EN" "http://www.w3.org/Graphics/SVG/1.1/DTD/svg11.dtd">
<svg version="1.1" id="Layer_1" xmlns="http://www.w3.org/2000/svg" xmlns:xlink="http://www.w3.org/1999/xlink" x="0px" y="0px"
	 width="200px" height="50px" viewBox="0 0 200 50" enable-background="new 0 0 200 50" xml:space="preserve">
<g>
	<path fill="#FFFFFF" d="M73.266,24.346c0.809,1.357,1.973,1.484,2.812,1.484h1.164v3.59h-1.455c-1.745,0-3.329-0.129-4.88-2.65
		l-2.585-4.203h-0.227c-2.619,0-3.329,0.259-4.688,0.97v5.883h-3.394V12.676H70.81c3.071,0,5.269,2.134,5.269,5.042
		c0,2.554-1.421,4.138-3.847,4.881L73.266,24.346z M70.81,19.238c1.002,0,1.875-0.549,1.875-1.616c0-1.487-1.292-1.616-2.457-1.616
		h-6.821v4.202c1.294-0.711,2.942-0.97,4.688-0.97H70.81L70.81,19.238z"/>
	<path fill="#FFFFFF" d="M87.715,12.289h3.587l9.052,17.131h-3.653l-1.326-2.521h-2.003c-4.139,0-8.438,1.617-8.988,2.328
		l-0.096,0.193h-3.491l8.017-15.031L87.715,12.289z M93.791,23.861l-3.264-6.207l-3.976,7.663c1.066-0.55,3.33-1.456,6.789-1.456
		H93.791z"/>
	<path fill="#FFFFFF" d="M112.927,29.42h-4.3l-7.271-16.744h3.748l5.656,13.352l5.787-13.352h3.781L112.927,29.42z"/>
	<path fill="#FFFFFF" d="M128.797,26.061h10.506v3.359H125.5V12.676h13.189v3.33h-9.894v4.072c1.455-0.841,3.297-0.971,5.237-0.971
		h2.455v3.33h-2.455c-3.071,0-3.782,0.195-5.237,0.97L128.797,26.061L128.797,26.061z"/>
	<path fill="#FFFFFF" d="M147.997,12.676l10.116,11.638V12.676h3.33V29.42h-3.33l-9.309-10.893V29.42h-3.33V15.165l-1.647-2.489
		H147.997z"/>
</g>
<path fill="#FFFFFF" d="M46.983,4.62c-0.299-0.178-0.688-0.309-1.031-0.294c-2.745,0.122-5.49,0.282-8.235,0.433
	c-0.121,0.006-0.243,0.026-0.36,0.058c-1.342,0.354-2.332,1.07-2.64,2.52c-0.056,0.266-0.255,0.497-0.363,0.754
	c-0.139,0.33-0.263,0.667-0.376,1.005c-0.103,0.306-0.11,0.671-0.288,0.919c-0.499,0.696-0.632,1.464-0.67,2.29
	c-0.072,1.555-0.594,2.845-2.184,3.455c-0.225,0.085-0.42,0.244-0.643,0.337c-1.097,0.467-1.86,1.279-2.378,2.327
	c-0.651,1.319-1.677,2.153-3.104,2.504c-0.156,0.039-0.299,0.137-0.456,0.167l-13.519,4.434c-0.276,0.025-0.645-0.037-0.627,0.373
	c0.024,0.568-0.395,0.637-0.759,0.787c-1.232,0.504-2.466,1.006-3.701,1.506c-0.299,0.119-0.595,0.283-0.908,0.33
	c-0.67,0.102-1.185,0.453-1.672,0.882c0,0.323,0,0.647,0,0.973c2.792,0.209,5.45-0.546,8.132-1.128
	c1.104-0.238,2.197-0.529,3.298-0.779c0.187-0.043,0.391-0.008,0.63,0.146c-0.884,0.319-1.756,0.676-2.653,0.952
	c-3.095,0.949-6.143,2.01-9.051,3.445c-0.101,0.051-0.236,0.029-0.355,0.043c0,0.162,0,0.324,0,0.487
	c0.192-0.048,0.382-0.116,0.577-0.133c0.175-0.015,0.434-0.038,0.523,0.062c0.784,0.871,1.792,0.605,2.714,0.484
	c0.54-0.07,1.046-0.686,1.516,0.116c0.03,0.053,0.242,0.034,0.35-0.002c0.45-0.16,0.9-0.32,1.336-0.515
	c0.325-0.146,0.607-0.406,0.942-0.51c0.16-0.051,0.323-0.096,0.484-0.143c0,0.378,0,0.759,0,1.138
	c0.119-0.013,0.254,0.008,0.355-0.043c0.999-0.492,2.016-0.938,3.043-1.354c-0.834,1.054-1.646,2.082-2.471,3.096
	c-0.409,0.502-0.797,1.062-1.314,1.426c-0.956,0.674-1.115,1.794-1.694,2.672c-0.009,0.016,0.084,0.094,0.139,0.153
	c0.464-0.388,0.924-0.781,1.396-1.161c2.278-1.835,4.718-3.423,7.282-4.825c1.337-0.731,2.65-1.507,3.986-2.237
	c0.197-0.107,0.468-0.107,0.706-0.115c0.553-0.016,1.107-0.006,1.708-0.006c0.105,0.22,0.177,0.591,0.402,0.762
	c0.196,0.15,0.563,0.078,0.938,0.111c-0.525,0.865-0.828,1.742-0.642,2.772c0.267,1.478,0.989,2.621,2.172,3.522
	c0.443,0.338,0.832,0.759,1.192,1.188c0.468,0.559,0.894,1.153,1.315,1.749c0.146,0.206,0.229,0.461,0.391,0.794
	c-0.93,0.018-1.711,0.1-2.495-0.246c-0.708-0.312-0.932-0.183-1.429,0.551c0.735-0.359,0.728-0.348,1.58,0.168
	c0.182,0.109,0.454,0.145,0.667,0.11c1.477-0.228,2.886-0.091,4.212,0.656c0.289,0.162,0.623,0.245,0.978,0.382
	c-0.042-0.512-0.405-0.617-0.728-0.749c-0.343-0.142-0.694-0.263-1.042-0.39c0.761-0.066,1.49-0.084,2.198,0.031
	c0.665,0.106,1.309,0.166,1.989-0.111c-1.062-0.159-2.123-0.318-3.229-0.484c0.374-0.197,0.712-0.378,1.051-0.559
	c-0.026-0.076-0.053-0.152-0.08-0.229c-0.657,0.122-1.313,0.242-1.972,0.364c-0.449,0.082-0.869,0.138-1.199-0.317
	c-0.902-1.246-1.833-2.473-2.746-3.715C27.949,37.708,27.897,37.411,28,37c0.204-0.816,0.327-1.664,0.375-2.506
	c0.054-0.942,0.121-1.805,1.292-2.003c0.11-0.019,0.211-0.119,0.304-0.198c0.458-0.389,1.002-0.684,1.548-0.359
	c0.54,0.318,1.14-0.018,1.63,0.299c0.156,0.103,0.325,0.289,0.353,0.463c0.106,0.63,0.249,1.275,0.206,1.904
	c-0.073,1.092,0.234,1.998,0.987,2.764c0.513,0.52,1.036,1.027,1.565,1.531c0.855,0.808,1.479,1.78,2.133,2.793
	c-0.204,0.064-0.325,0.146-0.428,0.129c-0.63-0.111-1.266-0.213-1.882-0.379c-0.564-0.152-1.009-0.082-1.42,0.455
	c0.704-0.121,0.705-0.111,1.551,0.268c0.171,0.076,0.388,0.1,0.578,0.082c1.366-0.124,2.702-0.104,3.929,0.644
	c0.216,0.132,0.481,0.183,0.855,0.318c-0.276-0.761-0.974-0.688-1.557-1.179c0.778,0.062,1.374,0.054,1.943,0.168
	c0.566,0.115,1.1,0.093,1.66-0.142c-0.95-0.182-1.9-0.362-2.835-0.541c0.304-0.177,0.585-0.339,0.867-0.503
	c-0.638-0.018-1.251,0.02-1.807,0.213c-0.541,0.192-0.849,0.008-1.138-0.387c-0.604-0.812-1.186-1.645-1.818-2.436
	c-0.731-0.914-1.291-1.854-0.91-3.086c0.035-0.109,0.017-0.242,0.005-0.362c-0.104-1.132,0.229-2.165,0.727-3.153
	c0.364-0.723,0.76-1.431,1.168-2.128c0.867-1.481,1.818-2.908,2.832-4.302l1.876-2.47c0.781-0.806,0.807-1.997,1.519-2.831
	c0.091-0.104,0.066-0.312,0.083-0.471c0.072-0.714-0.169-1.325-0.5-1.961c-0.267-0.513-0.611-2.682-0.611-2.682
	c-0.042-0.25-0.08-0.368-0.078-0.485c0.012-1.011-0.263-1.906-0.99-2.646c-0.195-0.198-0.337-0.456-0.474-0.702
	c-0.348-0.625-0.297-1.193,0.112-1.815c0.438-0.667,0.982-1.15,1.686-1.5c1.193-0.595,2.383-1.202,3.555-1.837
	c0.264-0.143,0.613-0.409,0.634-0.645C47.546,5.099,47.231,4.768,46.983,4.62z"/>
<g>
	<path fill="#FFFFFF" d="M69.975,35.346l-1.999,6.443h-1.205l-1.318-4.214c-0.02-0.06-0.042-0.125-0.062-0.195
		c-0.021-0.071-0.039-0.147-0.058-0.228c-0.017,0.078-0.037,0.154-0.057,0.228c-0.021,0.07-0.042,0.136-0.062,0.195l-1.333,4.214
		h-1.208l-1.994-6.443h1.119c0.116,0,0.212,0.025,0.291,0.078c0.079,0.055,0.13,0.125,0.153,0.215l1,3.635
		c0.024,0.101,0.048,0.209,0.073,0.324c0.025,0.116,0.05,0.241,0.073,0.371c0.026-0.133,0.056-0.258,0.085-0.371
		c0.029-0.115,0.062-0.225,0.098-0.326l1.164-3.633c0.023-0.074,0.074-0.143,0.153-0.203c0.079-0.061,0.174-0.092,0.287-0.092h0.391
		c0.115,0,0.209,0.027,0.281,0.082c0.072,0.057,0.127,0.126,0.163,0.213l1.16,3.633c0.035,0.096,0.067,0.196,0.097,0.309
		c0.029,0.111,0.058,0.23,0.084,0.354c0.023-0.123,0.047-0.24,0.069-0.354c0.021-0.111,0.044-0.213,0.068-0.309l1-3.633
		c0.02-0.078,0.071-0.146,0.15-0.205c0.081-0.061,0.176-0.09,0.289-0.09h1.049L69.975,35.346L69.975,35.346z"/>
	<path fill="#FFFFFF" d="M75.594,36.389v1.657h2.15v1.009h-2.15v1.692h2.764v1.042h-4.104v-6.443h4.104v1.043H75.594z"/>
	<path fill="#FFFFFF" d="M85.194,35.346c0.433,0,0.802,0.039,1.108,0.121c0.307,0.08,0.557,0.197,0.751,0.346
		c0.193,0.15,0.335,0.334,0.424,0.547c0.089,0.211,0.134,0.451,0.134,0.714c0,0.147-0.021,0.291-0.064,0.427
		c-0.043,0.137-0.109,0.266-0.2,0.384c-0.09,0.122-0.207,0.229-0.348,0.328c-0.144,0.097-0.312,0.181-0.508,0.249
		c0.438,0.104,0.762,0.271,0.973,0.506c0.211,0.232,0.315,0.538,0.315,0.909c0,0.272-0.053,0.526-0.157,0.76
		c-0.105,0.234-0.257,0.438-0.459,0.61s-0.451,0.305-0.745,0.398c-0.295,0.099-0.633,0.146-1.014,0.146h-2.498v-6.442h2.288V35.346z
		 M84.239,36.357v1.74h0.874c0.188,0,0.353-0.017,0.498-0.046c0.146-0.032,0.267-0.079,0.364-0.149
		c0.098-0.068,0.173-0.156,0.225-0.269c0.052-0.112,0.078-0.245,0.078-0.403s-0.021-0.295-0.064-0.406
		c-0.043-0.113-0.108-0.203-0.197-0.272c-0.09-0.067-0.203-0.116-0.338-0.149c-0.137-0.028-0.298-0.045-0.484-0.045H84.239
		L84.239,36.357z M85.38,40.77c0.213,0,0.388-0.026,0.527-0.078c0.138-0.053,0.248-0.121,0.33-0.207
		c0.083-0.084,0.141-0.186,0.174-0.295c0.032-0.111,0.049-0.227,0.049-0.346c0-0.13-0.02-0.246-0.059-0.351
		c-0.037-0.104-0.101-0.191-0.186-0.263c-0.087-0.076-0.198-0.131-0.335-0.168c-0.137-0.039-0.307-0.058-0.508-0.058h-1.134v1.763
		h1.142V40.77z"/>
	<path fill="#FFFFFF" d="M98.134,38.564c0,0.472-0.079,0.904-0.237,1.301c-0.158,0.394-0.382,0.734-0.67,1.019
		c-0.289,0.285-0.637,0.507-1.042,0.666c-0.407,0.161-0.856,0.239-1.351,0.239h-2.479v-6.445h2.479c0.494,0,0.943,0.08,1.351,0.239
		c0.405,0.161,0.753,0.383,1.042,0.669c0.288,0.287,0.512,0.625,0.67,1.021C98.055,37.667,98.134,38.098,98.134,38.564z
		 M96.766,38.564c0-0.336-0.045-0.643-0.134-0.91c-0.088-0.27-0.216-0.496-0.381-0.684c-0.166-0.188-0.368-0.33-0.606-0.433
		c-0.238-0.101-0.51-0.151-0.811-0.151h-1.138v4.359h1.138c0.301,0,0.572-0.049,0.811-0.148c0.237-0.1,0.44-0.244,0.606-0.434
		c0.165-0.188,0.293-0.416,0.381-0.686C96.721,39.212,96.766,38.907,96.766,38.564z"/>
	<path fill="#FFFFFF" d="M104.012,36.389v1.657h2.149v1.009h-2.149v1.692h2.764v1.042h-4.105v-6.443h4.105v1.043H104.012z"/>
	<path fill="#FFFFFF" d="M114.814,36.58c-0.041,0.066-0.084,0.118-0.127,0.148c-0.043,0.029-0.099,0.047-0.166,0.047
		c-0.064,0-0.137-0.023-0.211-0.069c-0.076-0.046-0.164-0.095-0.265-0.147c-0.103-0.055-0.217-0.104-0.347-0.148
		c-0.131-0.047-0.283-0.069-0.458-0.069c-0.308,0-0.537,0.069-0.692,0.207c-0.154,0.138-0.23,0.317-0.23,0.538
		c0,0.145,0.041,0.262,0.127,0.354c0.084,0.095,0.195,0.175,0.334,0.244c0.138,0.066,0.293,0.127,0.468,0.183
		c0.176,0.052,0.354,0.11,0.538,0.175c0.183,0.062,0.363,0.139,0.537,0.225c0.174,0.084,0.328,0.192,0.469,0.324
		c0.137,0.131,0.25,0.289,0.334,0.479c0.083,0.188,0.126,0.416,0.126,0.687c0,0.292-0.051,0.568-0.153,0.824
		c-0.102,0.256-0.25,0.479-0.44,0.67c-0.193,0.19-0.433,0.342-0.714,0.451c-0.282,0.11-0.604,0.164-0.963,0.164
		c-0.203,0-0.408-0.021-0.61-0.062c-0.203-0.04-0.397-0.099-0.587-0.172c-0.188-0.073-0.365-0.162-0.53-0.266
		c-0.165-0.104-0.312-0.22-0.437-0.347l0.392-0.633c0.033-0.046,0.076-0.087,0.13-0.117c0.053-0.031,0.109-0.047,0.169-0.047
		c0.079,0,0.164,0.029,0.253,0.088c0.09,0.061,0.189,0.125,0.307,0.196s0.248,0.136,0.4,0.197c0.153,0.059,0.336,0.088,0.549,0.088
		c0.312,0,0.553-0.069,0.724-0.214c0.17-0.143,0.255-0.354,0.255-0.635c0-0.164-0.042-0.295-0.128-0.396
		c-0.082-0.102-0.193-0.186-0.33-0.253c-0.138-0.069-0.292-0.126-0.466-0.176c-0.176-0.048-0.354-0.103-0.538-0.162
		c-0.185-0.06-0.362-0.131-0.537-0.214c-0.175-0.082-0.33-0.192-0.468-0.329c-0.135-0.136-0.245-0.306-0.33-0.505
		c-0.084-0.202-0.125-0.452-0.125-0.75c0-0.24,0.047-0.475,0.141-0.698c0.096-0.226,0.234-0.424,0.418-0.601
		c0.186-0.176,0.41-0.314,0.678-0.422c0.27-0.105,0.575-0.16,0.922-0.16c0.389,0,0.746,0.061,1.078,0.182
		c0.33,0.119,0.607,0.286,0.838,0.498L114.814,36.58z"/>
	<path fill="#FFFFFF" d="M121.113,41.789h-1.342v-6.443h1.342V41.789z"/>
	<path fill="#FFFFFF" d="M129.154,38.508h2.212v2.661c-0.329,0.24-0.679,0.415-1.05,0.526c-0.373,0.109-0.767,0.166-1.182,0.166
		c-0.527,0-1.01-0.082-1.438-0.245c-0.43-0.166-0.797-0.396-1.102-0.687c-0.306-0.296-0.541-0.644-0.707-1.046
		c-0.166-0.403-0.248-0.844-0.248-1.319c0-0.482,0.078-0.924,0.236-1.328c0.158-0.401,0.385-0.748,0.678-1.038
		c0.293-0.292,0.647-0.517,1.063-0.681c0.417-0.162,0.883-0.244,1.397-0.244c0.266,0,0.517,0.021,0.746,0.064
		c0.23,0.042,0.444,0.102,0.639,0.178c0.197,0.075,0.377,0.166,0.539,0.27s0.311,0.219,0.442,0.342l-0.386,0.598
		c-0.061,0.092-0.137,0.15-0.23,0.172c-0.096,0.021-0.199-0.004-0.312-0.071c-0.105-0.065-0.211-0.123-0.312-0.177
		c-0.102-0.051-0.211-0.097-0.326-0.133c-0.115-0.041-0.24-0.07-0.379-0.09c-0.136-0.021-0.291-0.033-0.471-0.033
		c-0.298,0-0.568,0.053-0.812,0.156c-0.242,0.104-0.449,0.25-0.619,0.44c-0.17,0.188-0.301,0.415-0.395,0.684
		c-0.092,0.267-0.137,0.565-0.137,0.894c0,0.354,0.05,0.675,0.15,0.953c0.101,0.28,0.242,0.516,0.427,0.709
		c0.185,0.191,0.403,0.338,0.659,0.438c0.256,0.103,0.541,0.149,0.855,0.149c0.213,0,0.402-0.021,0.569-0.062
		c0.169-0.043,0.331-0.102,0.491-0.176v-1.084h-0.729c-0.086,0-0.153-0.023-0.2-0.068c-0.051-0.046-0.074-0.104-0.074-0.176v-0.742
		H129.154L129.154,38.508z"/>
	<path fill="#FFFFFF" d="M141.529,35.346v6.443h-0.688c-0.104,0-0.19-0.016-0.262-0.051c-0.071-0.032-0.142-0.092-0.209-0.174
		l-3.211-4.088c0.008,0.104,0.016,0.207,0.019,0.308c0.006,0.099,0.008,0.192,0.008,0.28v3.725h-1.178v-6.443h0.702
		c0.058,0,0.104,0.002,0.146,0.008c0.039,0.002,0.076,0.015,0.107,0.027c0.033,0.018,0.062,0.038,0.094,0.064
		c0.028,0.027,0.062,0.063,0.098,0.107l3.234,4.104c-0.012-0.113-0.021-0.222-0.027-0.326s-0.008-0.205-0.008-0.302v-3.688
		L141.529,35.346L141.529,35.346z"/>
</g>
</svg>
