<?xml version="1.0" encoding="utf-8"?>
<!-- Generator: Adobe Illustrator 16.0.4, SVG Export Plug-In . SVG Version: 6.00 Build 0)  -->
<!DOCTYPE svg PUBLIC "-//W3C//DTD SVG 1.1//EN" "http://www.w3.org/Graphics/SVG/1.1/DTD/svg11.dtd">
<svg version="1.1" id="Layer_1" xmlns="http://www.w3.org/2000/svg" xmlns:xlink="http://www.w3.org/1999/xlink" x="0px" y="0px"
	 width="400px" height="400px" viewBox="0 0 400 400" enable-background="new 0 0 400 400" xml:space="preserve">
<g>
	<path fill="#3F3F3F" d="M52.885,321.355c3.164,5.313,7.72,5.818,11.01,5.818h4.556v14.048h-5.695
		c-6.833,0-13.034-0.507-19.108-10.377l-10.125-16.452h-0.886c-10.251,0-13.036,1.015-18.351,3.799v23.03H1V275.67h42.267
		c12.023,0,20.628,8.352,20.628,19.741c0,9.998-5.567,16.198-15.061,19.106L52.885,321.355z M43.267,301.359
		c3.924,0,7.34-2.149,7.34-6.325c0-5.822-5.062-6.329-9.618-6.329H14.287v16.452c5.064-2.785,11.516-3.798,18.351-3.798H43.267
		L43.267,301.359z"/>
	<path fill="#3F3F3F" d="M109.449,274.152h14.047l35.434,67.069h-14.301l-5.188-9.871h-7.845c-16.2,0-33.031,6.329-35.182,9.113
		l-0.379,0.758H82.367l31.384-58.845L109.449,274.152z M133.239,319.457l-12.781-24.298l-15.565,29.992
		c4.176-2.15,13.035-5.694,26.576-5.694H133.239z"/>
	<path fill="#3F3F3F" d="M208.154,341.224h-16.833l-28.474-65.552h14.678l22.146,52.264l22.652-52.264h14.809L208.154,341.224z"/>
	<path fill="#3F3F3F" d="M270.285,328.062h41.13v13.159h-54.037V275.67h51.634v13.033h-38.727v15.943
		c5.695-3.289,12.908-3.797,20.502-3.797h9.615v13.035h-9.615c-12.023,0-14.807,0.762-20.502,3.796V328.062L270.285,328.062z"/>
	<path fill="#3F3F3F" d="M345.454,275.672l39.606,45.56v-45.56h13.035v65.552h-13.035l-36.444-42.646v42.646h-13.034v-55.809
		l-6.454-9.743H345.454z"/>
</g>
<path fill="#3F3F3F" d="M319.132,2.849c-1.874-1.116-4.312-1.937-6.458-1.842c-17.213,0.763-34.417,1.769-51.625,2.713
	c-0.756,0.042-1.521,0.167-2.255,0.36c-8.417,2.222-14.62,6.706-16.549,15.801c-0.353,1.661-1.599,3.112-2.278,4.724
	c-0.873,2.066-1.648,4.178-2.359,6.303c-0.646,1.915-0.688,4.207-1.801,5.757c-3.127,4.363-3.961,9.183-4.203,14.359
	c-0.457,9.741-3.723,17.831-13.69,21.649c-1.409,0.538-2.64,1.531-4.031,2.122c-6.877,2.924-11.661,8.017-14.906,14.584
	c-4.086,8.271-10.513,13.498-19.455,15.698c-0.978,0.242-1.873,0.861-2.854,1.044l-84.732,27.805
	c-1.735,0.155-4.041-0.241-3.932,2.332c0.148,3.565-2.471,3.995-4.756,4.931c-7.727,3.162-15.459,6.311-23.199,9.443
	c-1.873,0.757-3.729,1.78-5.685,2.072c-4.201,0.624-7.428,2.841-10.482,5.509c0,2.037,0,4.07,0,6.106
	c17.496,1.312,34.163-3.421,50.969-7.063c6.921-1.5,13.773-3.323,20.676-4.903c1.167-0.265,2.446-0.038,3.946,0.922
	c-5.539,2.002-11.006,4.241-16.631,5.965c-19.395,5.948-38.507,12.6-56.734,21.603c-0.632,0.312-1.48,0.187-2.227,0.266
	c0,1.017,0,2.036,0,3.052c1.205-0.289,2.396-0.728,3.615-0.826c1.102-0.089,2.72-0.244,3.279,0.379
	c4.91,5.468,11.238,3.801,17.014,3.043c3.387-0.446,6.557-4.303,9.5,0.728c0.19,0.325,1.514,0.223,2.193-0.016
	c2.82-0.993,5.646-2.003,8.373-3.225c2.039-0.916,3.809-2.547,5.905-3.192c1.007-0.31,2.022-0.596,3.036-0.888
	c0,2.377,0,4.755,0,7.131c0.747-0.08,1.595,0.046,2.227-0.266c6.261-3.092,12.631-5.89,19.076-8.496
	c-5.233,6.598-10.313,13.046-15.491,19.398c-2.564,3.146-4.995,6.658-8.234,8.941c-5.99,4.221-6.988,11.253-10.622,16.751
	c-0.054,0.081,0.526,0.586,0.871,0.96c2.912-2.429,5.792-4.899,8.746-7.278c14.277-11.501,29.574-21.456,45.647-30.253
	c8.378-4.586,16.606-9.448,24.983-14.032c1.237-0.681,2.931-0.671,4.422-0.713c3.466-0.096,6.938-0.029,10.702-0.029
	c0.662,1.365,1.111,3.69,2.516,4.77c1.231,0.942,3.537,0.481,5.88,0.686c-3.289,5.434-5.188,10.929-4.024,17.383
	c1.673,9.273,6.196,16.431,13.616,22.091c2.772,2.114,5.214,4.752,7.467,7.437c2.938,3.496,5.604,7.229,8.247,10.959
	c0.924,1.301,1.438,2.895,2.445,4.982c-5.826,0.109-10.724,0.628-15.637-1.54c-4.439-1.957-5.84-1.142-8.95,3.445
	c4.605-2.25,4.557-2.169,9.901,1.056c1.137,0.686,2.842,0.907,4.188,0.699c9.254-1.42,18.084-0.571,26.396,4.105
	c1.814,1.021,3.906,1.547,6.13,2.397c-0.26-3.207-2.54-3.858-4.562-4.695c-2.146-0.889-4.352-1.639-6.529-2.446
	c4.768-0.405,9.34-0.521,13.775,0.196c4.166,0.675,8.207,1.05,12.466-0.698c-6.652-0.998-13.31-1.996-20.235-3.035
	c2.342-1.24,4.467-2.368,6.589-3.496c-0.165-0.479-0.335-0.954-0.503-1.432c-4.121,0.762-8.238,1.526-12.363,2.283
	c-2.81,0.518-5.441,0.867-7.509-1.986c-5.657-7.816-11.491-15.508-17.213-23.281c-1.39-1.893-1.717-3.756-1.07-6.338
	c1.279-5.116,2.045-10.436,2.35-15.708c0.339-5.909,0.756-11.312,8.098-12.551c0.688-0.116,1.326-0.749,1.904-1.238
	c2.871-2.436,6.277-4.286,9.706-2.259c3.382,2,7.146-0.113,10.213,1.876c0.979,0.634,2.036,1.813,2.214,2.885
	c0.666,3.953,1.561,8.007,1.294,11.952c-0.461,6.832,1.464,12.518,6.188,17.313c3.213,3.261,6.492,6.451,9.813,9.599
	c5.354,5.065,9.271,11.158,13.369,17.508c-1.278,0.408-2.035,0.923-2.679,0.809c-3.953-0.693-7.936-1.332-11.801-2.377
	c-3.535-0.956-6.326-0.52-8.9,2.854c4.413-0.756,4.415-0.692,9.723,1.686c1.073,0.48,2.432,0.618,3.62,0.51
	c8.563-0.771,16.937-0.641,24.626,4.033c1.354,0.823,3.016,1.145,5.365,1.998c-1.732-4.77-6.104-4.311-9.762-7.389
	c4.882,0.383,8.613,0.332,12.188,1.051c3.542,0.713,6.89,0.583,10.404-0.881c-5.958-1.139-11.912-2.276-17.771-3.396
	c1.907-1.104,3.668-2.119,5.432-3.14c-3.994-0.125-7.835,0.104-11.323,1.332c-3.387,1.192-5.315,0.03-7.136-2.425
	c-3.784-5.102-7.428-10.312-11.396-15.27c-4.584-5.723-8.094-11.607-5.701-19.342c0.213-0.697,0.1-1.523,0.028-2.278
	c-0.653-7.091,1.431-13.578,4.554-19.767c2.282-4.528,4.766-8.961,7.322-13.338c5.436-9.288,11.398-18.222,17.749-26.969
	l11.765-15.476c4.898-5.05,5.058-12.518,9.522-17.742c0.562-0.654,0.413-1.95,0.517-2.956c0.451-4.475-1.061-8.304-3.137-12.29
	c-1.673-3.214-3.83-16.815-3.83-16.815c-0.264-1.565-0.498-2.302-0.49-3.035c0.078-6.34-1.646-11.952-6.203-16.59
	c-1.223-1.244-2.108-2.857-2.971-4.404c-2.179-3.912-1.859-7.473,0.707-11.372c2.752-4.178,6.153-7.206,10.562-9.403
	c7.481-3.733,14.934-7.533,22.282-11.514c1.66-0.898,3.849-2.569,3.979-4.047C322.669,5.856,320.689,3.777,319.132,2.849z"/>
<g>
	<path fill="#3F3F3F" d="M71.318,372.248l-7.826,25.235h-4.713l-5.165-16.507c-0.082-0.23-0.164-0.484-0.244-0.766
		c-0.082-0.278-0.156-0.573-0.226-0.887c-0.069,0.312-0.145,0.606-0.226,0.887s-0.163,0.533-0.243,0.766l-5.218,16.507h-4.73
		l-7.809-25.235H39.3c0.452,0,0.833,0.104,1.139,0.312c0.307,0.208,0.507,0.486,0.6,0.834l3.913,14.229
		c0.093,0.394,0.188,0.819,0.287,1.277c0.099,0.458,0.195,0.94,0.287,1.45c0.104-0.521,0.214-1.009,0.331-1.461
		c0.115-0.45,0.243-0.875,0.382-1.269l4.557-14.229c0.092-0.288,0.292-0.553,0.6-0.791c0.307-0.235,0.681-0.354,1.121-0.354h1.531
		c0.452,0,0.82,0.105,1.104,0.321c0.284,0.215,0.495,0.488,0.635,0.824l4.539,14.229c0.139,0.37,0.266,0.771,0.382,1.208
		c0.116,0.435,0.226,0.896,0.331,1.382c0.092-0.486,0.182-0.947,0.269-1.382c0.087-0.437,0.177-0.838,0.271-1.208l3.913-14.229
		c0.081-0.302,0.278-0.565,0.591-0.8c0.313-0.229,0.69-0.348,1.131-0.348h4.104V372.248z"/>
	<path fill="#3F3F3F" d="M93.318,376.335v6.486h8.417v3.947h-8.417v6.628h10.818v4.087h-16.07v-25.235h16.07v4.087H93.318z"/>
	<path fill="#3F3F3F" d="M130.9,372.248c1.693,0,3.139,0.159,4.339,0.479c1.2,0.318,2.18,0.771,2.938,1.356
		c0.759,0.586,1.313,1.296,1.662,2.131c0.348,0.834,0.521,1.771,0.521,2.8c0,0.58-0.085,1.138-0.252,1.669
		c-0.169,0.534-0.429,1.035-0.782,1.505c-0.354,0.472-0.81,0.896-1.366,1.278c-0.557,0.382-1.218,0.707-1.983,0.976
		c1.716,0.404,2.985,1.065,3.809,1.981c0.823,0.915,1.235,2.104,1.235,3.564c0,1.064-0.207,2.059-0.618,2.975
		c-0.411,0.915-1.011,1.71-1.8,2.382c-0.789,0.673-1.759,1.198-2.913,1.574c-1.154,0.377-2.479,0.565-3.974,0.565h-9.773v-25.235
		H130.9z M127.161,376.214v6.817h3.426c0.731,0,1.38-0.062,1.949-0.186c0.567-0.121,1.043-0.313,1.426-0.582
		c0.382-0.267,0.674-0.618,0.877-1.053c0.203-0.435,0.305-0.959,0.305-1.573c0-0.626-0.084-1.157-0.252-1.6
		c-0.167-0.441-0.426-0.794-0.774-1.062c-0.348-0.267-0.789-0.46-1.321-0.583c-0.534-0.119-1.166-0.182-1.896-0.182h-3.74V376.214z
		 M131.631,393.483c0.834,0,1.521-0.104,2.061-0.307c0.54-0.202,0.971-0.473,1.296-0.809c0.324-0.336,0.55-0.722,0.678-1.157
		c0.127-0.435,0.191-0.884,0.191-1.348c0-0.512-0.075-0.967-0.226-1.373c-0.151-0.405-0.394-0.751-0.731-1.035
		c-0.336-0.283-0.774-0.501-1.313-0.652c-0.538-0.148-1.202-0.226-1.991-0.226h-4.436v6.904L131.631,393.483L131.631,393.483z"/>
	<path fill="#3F3F3F" d="M181.562,384.857c0,1.843-0.31,3.539-0.93,5.087c-0.621,1.547-1.496,2.878-2.626,3.989
		c-1.131,1.113-2.49,1.982-4.079,2.608c-1.588,0.626-3.351,0.939-5.287,0.939h-9.705v-25.235h9.705c1.936,0,3.698,0.312,5.287,0.938
		c1.589,0.627,2.948,1.498,4.079,2.617c1.13,1.119,2.005,2.449,2.626,3.991C181.252,381.338,181.562,383.024,181.562,384.857z
		 M176.206,384.857c0-1.322-0.175-2.512-0.522-3.565c-0.347-1.054-0.846-1.947-1.496-2.679c-0.649-0.73-1.44-1.293-2.374-1.688
		c-0.934-0.394-1.992-0.592-3.174-0.592h-4.452v17.062h4.452c1.182,0,2.24-0.192,3.174-0.584c0.933-0.388,1.725-0.948,2.374-1.688
		c0.649-0.736,1.148-1.631,1.496-2.688C176.031,387.385,176.206,386.19,176.206,384.857z"/>
	<path fill="#3F3F3F" d="M204.57,376.335v6.486h8.418v3.947h-8.418v6.628h10.816v4.087h-16.07v-25.235h16.07v4.087H204.57z"/>
	<path fill="#3F3F3F" d="M246.865,377.082c-0.161,0.268-0.327,0.462-0.494,0.584c-0.17,0.121-0.387,0.182-0.653,0.182
		c-0.254,0-0.53-0.089-0.825-0.269c-0.295-0.181-0.641-0.374-1.033-0.583c-0.396-0.209-0.848-0.402-1.356-0.583
		c-0.511-0.18-1.106-0.271-1.791-0.271c-1.206,0-2.108,0.271-2.714,0.812c-0.604,0.539-0.904,1.242-0.904,2.112
		c0,0.557,0.165,1.017,0.496,1.383c0.331,0.364,0.766,0.682,1.307,0.945c0.537,0.269,1.147,0.507,1.834,0.715
		c0.686,0.21,1.385,0.438,2.104,0.688c0.718,0.249,1.42,0.541,2.104,0.877c0.684,0.337,1.293,0.761,1.834,1.271
		c0.539,0.51,0.976,1.133,1.307,1.868c0.328,0.736,0.492,1.633,0.492,2.688c0,1.148-0.197,2.225-0.6,3.227
		c-0.397,1.005-0.978,1.88-1.729,2.626c-0.754,0.748-1.686,1.339-2.792,1.768c-1.107,0.429-2.364,0.644-3.765,0.644
		c-0.803,0-1.601-0.082-2.394-0.244c-0.794-0.16-1.562-0.389-2.296-0.679c-0.737-0.289-1.432-0.637-2.079-1.043
		s-1.217-0.855-1.705-1.354l1.531-2.472c0.128-0.185,0.295-0.339,0.505-0.46c0.209-0.123,0.429-0.184,0.661-0.184
		c0.312,0,0.646,0.116,0.989,0.349c0.35,0.231,0.748,0.487,1.199,0.767c0.453,0.276,0.979,0.532,1.573,0.766
		c0.599,0.232,1.313,0.348,2.147,0.348c1.218,0,2.16-0.276,2.828-0.835c0.666-0.556,0.998-1.386,0.998-2.485
		c0-0.639-0.164-1.153-0.496-1.547c-0.328-0.396-0.762-0.727-1.293-0.992c-0.535-0.269-1.146-0.495-1.826-0.688
		c-0.688-0.189-1.387-0.401-2.105-0.635c-0.718-0.232-1.419-0.51-2.104-0.835c-0.687-0.324-1.293-0.753-1.826-1.287
		c-0.534-0.533-0.965-1.194-1.297-1.981c-0.328-0.787-0.493-1.77-0.493-2.938c0-0.939,0.185-1.849,0.555-2.73
		c0.373-0.881,0.917-1.661,1.636-2.348c0.719-0.684,1.604-1.233,2.653-1.652c1.05-0.416,2.251-0.626,3.608-0.626
		c1.519,0,2.923,0.234,4.218,0.704c1.292,0.472,2.385,1.122,3.276,1.956L246.865,377.082z"/>
	<path fill="#3F3F3F" d="M271.525,397.483h-5.252v-25.235h5.252V397.483z"/>
	<path fill="#3F3F3F" d="M303.007,384.631h8.659v10.418c-1.286,0.939-2.657,1.626-4.113,2.062c-1.455,0.435-2.994,0.65-4.617,0.65
		c-2.074,0-3.953-0.32-5.634-0.966c-1.682-0.644-3.12-1.539-4.313-2.687c-1.192-1.148-2.113-2.512-2.764-4.087
		c-0.649-1.577-0.975-3.3-0.975-5.165c0-1.893,0.311-3.623,0.93-5.2c0.62-1.577,1.504-2.936,2.651-4.07
		c1.149-1.136,2.536-2.021,4.165-2.66c1.629-0.638,3.453-0.957,5.47-0.957c1.043,0,2.021,0.085,2.923,0.252
		c0.903,0.169,1.739,0.4,2.504,0.695c0.769,0.297,1.469,0.647,2.104,1.053c0.637,0.406,1.217,0.854,1.739,1.339l-1.514,2.331
		c-0.232,0.37-0.533,0.599-0.904,0.681c-0.371,0.08-0.777-0.014-1.217-0.278c-0.418-0.256-0.828-0.484-1.229-0.688
		c-0.398-0.201-0.825-0.38-1.278-0.528c-0.45-0.151-0.942-0.269-1.479-0.35c-0.533-0.081-1.147-0.122-1.845-0.122
		c-1.17,0-2.23,0.203-3.183,0.608c-0.95,0.406-1.76,0.98-2.426,1.722c-0.668,0.742-1.181,1.638-1.539,2.681
		c-0.36,1.044-0.54,2.209-0.54,3.496c0,1.391,0.197,2.635,0.593,3.729c0.394,1.097,0.948,2.021,1.669,2.774
		c0.719,0.753,1.579,1.326,2.582,1.722c1.004,0.394,2.119,0.592,3.35,0.592c0.834,0,1.578-0.085,2.233-0.252
		c0.655-0.169,1.294-0.396,1.921-0.688v-4.243h-2.853c-0.335,0-0.599-0.091-0.79-0.271c-0.191-0.18-0.286-0.409-0.286-0.687v-2.904
		L303.007,384.631L303.007,384.631z"/>
	<path fill="#3F3F3F" d="M351.458,372.248v25.235h-2.696c-0.404,0-0.748-0.067-1.023-0.2c-0.278-0.133-0.555-0.362-0.818-0.688
		l-12.572-16.001c0.034,0.406,0.062,0.808,0.076,1.2c0.02,0.396,0.027,0.76,0.027,1.096v14.594h-4.609v-25.235h2.747
		c0.222,0,0.408,0.009,0.565,0.026c0.156,0.017,0.3,0.058,0.428,0.119c0.125,0.064,0.249,0.147,0.364,0.255
		c0.114,0.104,0.241,0.241,0.383,0.417l12.659,16.068c-0.047-0.438-0.079-0.867-0.104-1.276c-0.022-0.412-0.034-0.806-0.034-1.176
		v-14.436L351.458,372.248L351.458,372.248z"/>
</g>
</svg>
