<?xml version="1.0" encoding="utf-8"?>
<!-- Generator: Adobe Illustrator 16.0.4, SVG Export Plug-In . SVG Version: 6.00 Build 0)  -->
<!DOCTYPE svg PUBLIC "-//W3C//DTD SVG 1.1//EN" "http://www.w3.org/Graphics/SVG/1.1/DTD/svg11.dtd">
<svg version="1.1" id="Layer_1" xmlns="http://www.w3.org/2000/svg" xmlns:xlink="http://www.w3.org/1999/xlink" x="0px" y="0px"
	 width="200px" height="190px" viewBox="0 0 200 190" enable-background="new 0 0 200 190" xml:space="preserve">
<g>
	<path fill="#202123" d="M20.921,62.273c-0.079-0.508-0.079-1.17,0-1.99c0.078-0.819,0.136-1.425,0.175-1.814
		c1.405,0,2.75,0.009,4.038,0.029c1.288,0.02,2.517,0.049,3.687,0.088c-0.819-0.508-1.629-1.141-2.429-1.902
		c-0.8-0.761-1.532-1.561-2.195-2.399c-0.664-0.838-1.258-1.677-1.785-2.517c-0.526-0.838-0.907-1.589-1.141-2.253
		c-0.43-1.521-0.732-3.403-0.907-5.647c-0.176-2.243-0.234-4.73-0.176-7.462c0.059-2.73,0.272-5.589,0.644-8.573
		c0.371-2.985,0.917-5.979,1.639-8.983c0.721-3.004,1.618-5.901,2.692-8.69c1.072-2.79,2.37-5.355,3.892-7.696
		c1.209-0.195,2.517-0.302,3.921-0.322c1.405-0.019,2.819,0.03,4.243,0.146c1.424,0.117,2.799,0.303,4.126,0.556
		c1.326,0.254,2.497,0.537,3.512,0.848c-0.859,0.781-1.668,1.609-2.429,2.488c-0.761,0.877-1.493,1.766-2.194,2.662
		c0.663-0.078,1.424-0.136,2.282-0.175c0.858-0.038,1.727-0.038,2.604,0c0.878,0.04,1.736,0.117,2.575,0.234
		c0.839,0.117,1.61,0.254,2.312,0.41c0.429,1.404,0.809,3.18,1.141,5.326c0.331,2.146,0.565,4.516,0.702,7.11
		c0.136,2.595,0.176,5.306,0.117,8.134c-0.059,2.83-0.254,5.609-0.585,8.339c-0.332,2.731-0.8,5.335-1.404,7.813
		c-0.605,2.478-1.375,4.652-2.312,6.525c-1.17,1.912-2.683,3.316-4.535,4.213c-1.854,0.897-3.755,1.58-5.706,2.049
		c2.887,0.117,5.335,0.234,7.345,0.351c2.009,0.117,3.794,0.244,5.355,0.38c1.56,0.137,2.994,0.283,4.301,0.439
		c1.307,0.156,2.682,0.312,4.125,0.468c-0.702,1.171-1.609,2.448-2.721,3.833c-1.112,1.385-2.176,2.624-3.19,3.716
		c-4.644-1.834-9.549-3.287-14.718-4.36C32.751,62.575,27.085,62.117,20.921,62.273z M35.318,56.538c1.17,0,2.185-0.536,3.043-1.609
		c0.858-1.072,1.58-2.517,2.165-4.331c0.585-1.814,1.034-3.911,1.346-6.292c0.312-2.379,0.517-4.876,0.615-7.491
		c0.097-2.613,0.097-5.276,0-7.988c-0.098-2.711-0.274-5.286-0.527-7.725c-0.254-2.438-0.566-4.672-0.936-6.701
		c-0.372-2.028-0.79-3.687-1.259-4.975c-2.185,3.005-4.029,6.224-5.53,9.656c-1.502,3.434-2.654,6.868-3.453,10.3
		c-0.8,3.434-1.297,6.741-1.493,9.92c-0.195,3.18-0.087,6.019,0.322,8.515c0.41,2.497,1.092,4.526,2.048,6.086
		S33.834,56.343,35.318,56.538z"/>
	<path fill="#202123" d="M75.23,57.533c-0.585,0-1.288-0.136-2.107-0.41c-0.819-0.273-1.619-0.624-2.399-1.053
		c-0.781-0.429-1.454-0.887-2.019-1.375c-0.566-0.488-0.888-0.966-0.966-1.434c-0.04-0.272-0.05-0.721-0.029-1.346
		c0.02-0.624,0.038-1.259,0.059-1.902c0.019-0.644,0.048-1.238,0.088-1.785c0.038-0.546,0.078-0.917,0.117-1.112
		c-0.39,1.17-0.819,2.37-1.287,3.599c-0.469,1.229-0.986,2.352-1.551,3.366c-0.566,1.015-1.181,1.843-1.844,2.487
		c-0.664,0.644-1.382,0.966-2.156,0.966c-0.464,0-1.026-0.126-1.685-0.381c-0.658-0.253-1.316-0.556-1.974-0.907
		c-0.659-0.351-1.229-0.721-1.713-1.111c-0.483-0.39-0.783-0.741-0.9-1.053c-0.078-1.405-0.078-2.965-0.001-4.682
		c0.079-1.717,0.205-3.453,0.378-5.209c0.175-1.755,0.377-3.491,0.61-5.208c0.232-1.716,0.465-3.296,0.697-4.74
		c0.232-1.443,0.445-2.682,0.639-3.716c0.193-1.033,0.348-1.765,0.464-2.195c0.465-0.272,1.045-0.487,1.742-0.644
		c0.696-0.155,1.412-0.272,2.149-0.351c0.736-0.078,1.475-0.117,2.217-0.117c0.741,0,1.384,0.02,1.931,0.059
		c-0.468,2.185-0.907,4.458-1.317,6.818c-0.41,2.361-0.771,4.604-1.083,6.73c-0.312,2.127-0.555,4.029-0.731,5.706
		c-0.176,1.678-0.264,2.946-0.264,3.804c0,1.404,0.156,2.146,0.468,2.224c0.312,0.079,0.692-0.322,1.141-1.2
		c0.448-0.878,0.965-2.155,1.551-3.833c0.585-1.677,1.161-3.56,1.727-5.647c0.565-2.087,1.083-4.311,1.551-6.672
		c0.468-2.36,0.858-4.671,1.17-6.935c0.585-0.273,1.258-0.498,2.019-0.673c0.761-0.176,1.522-0.292,2.283-0.351
		s1.511-0.078,2.253-0.059c0.741,0.02,1.385,0.049,1.931,0.088c-0.351,1.639-0.683,3.346-0.995,5.121
		c-0.312,1.776-0.605,3.511-0.878,5.208s-0.507,3.316-0.702,4.857c-0.196,1.542-0.352,2.917-0.469,4.126
		c-0.195,1.444-0.283,2.683-0.263,3.716c0.02,1.035,0.146,1.736,0.38,2.107c0.234,0.372,0.585,0.38,1.053,0.029
		c0.469-0.351,1.054-1.17,1.756-2.458c0.272-0.507,0.634-1.259,1.083-2.253c0.448-0.995,0.926-2.097,1.434-3.306
		c0.507-1.209,1.034-2.497,1.58-3.863c0.546-1.366,1.053-2.692,1.522-3.979c0.468-1.288,0.887-2.487,1.258-3.599
		c0.371-1.112,0.653-2.038,0.849-2.78l1.756,0.468c-0.351,1.209-0.81,2.712-1.375,4.506c-0.566,1.795-1.2,3.687-1.902,5.677
		c-0.702,1.99-1.444,3.979-2.224,5.969c-0.781,1.99-1.571,3.775-2.37,5.355c-0.8,1.58-1.6,2.867-2.399,3.862
		C76.683,57.035,75.932,57.533,75.23,57.533z"/>
	<path fill="#202123" d="M114.967,31.49c-0.273,0.819-0.664,2.04-1.171,3.658c-0.507,1.619-1.111,3.394-1.814,5.325
		c-0.701,1.931-1.453,3.912-2.253,5.94c-0.8,2.029-1.619,3.873-2.457,5.53c-0.84,1.659-1.648,3.014-2.43,4.067
		c-0.78,1.054-1.502,1.58-2.165,1.58c-0.624,0-1.404-0.126-2.341-0.38c-0.936-0.253-1.834-0.585-2.691-0.995
		c-0.859-0.409-1.591-0.877-2.195-1.404c-0.605-0.526-0.907-1.043-0.907-1.551c-0.04-0.429-0.04-0.956,0-1.58
		c0.038-0.624,0.097-1.307,0.176-2.048c-0.351,0.937-0.732,1.864-1.141,2.78c-0.41,0.917-0.83,1.747-1.258,2.487
		c-0.43,0.742-0.869,1.356-1.317,1.843c-0.449,0.488-0.888,0.771-1.317,0.849c-0.39,0.078-0.966,0.039-1.727-0.117
		c-0.76-0.156-1.55-0.39-2.37-0.703c-0.819-0.312-1.571-0.682-2.253-1.111s-1.141-0.878-1.375-1.346
		c-0.272-0.546-0.429-1.463-0.468-2.75c-0.039-1.288,0.01-2.76,0.146-4.419c0.137-1.658,0.332-3.403,0.585-5.237
		c0.254-1.833,0.537-3.589,0.849-5.268c0.312-1.677,0.635-3.169,0.966-4.477c0.331-1.307,0.652-2.253,0.965-2.838
		c0.155-0.312,0.536-0.615,1.141-0.907c0.604-0.293,1.317-0.537,2.136-0.732c0.819-0.195,1.677-0.322,2.575-0.38
		c0.897-0.059,1.717-0.029,2.458,0.087c0.468,0.079,1.033,0.352,1.697,0.819c0.663,0.469,1.346,1.21,2.048,2.224
		c0.078-0.468,0.166-0.907,0.263-1.317c0.097-0.41,0.185-0.692,0.263-0.848c0.352-0.195,0.868-0.36,1.551-0.498
		c0.682-0.136,1.423-0.253,2.223-0.351c0.8-0.097,1.6-0.146,2.4-0.146c0.799,0,1.472,0.059,2.02,0.176
		c-0.352,1.677-0.713,3.55-1.084,5.618c-0.371,2.068-0.722,4.146-1.053,6.233c-0.332,2.088-0.625,4.048-0.878,5.881
		c-0.254,1.834-0.438,3.356-0.556,4.565c-0.117,1.015-0.117,1.737,0,2.166c0.117,0.429,0.282,0.673,0.497,0.731
		c0.215,0.059,0.448,0,0.702-0.175c0.253-0.176,0.478-0.38,0.673-0.615c0.469-0.585,0.995-1.443,1.58-2.575
		c0.586-1.131,1.19-2.39,1.814-3.775c0.624-1.384,1.248-2.828,1.873-4.331c0.623-1.501,1.199-2.926,1.727-4.272
		c0.526-1.346,0.975-2.536,1.346-3.57c0.37-1.033,0.633-1.804,0.79-2.311L114.967,31.49z M96.181,36.113
		c0.039-0.741-0.029-1.463-0.205-2.165c-0.175-0.703-0.419-1.317-0.731-1.844c-0.312-0.526-0.644-0.926-0.995-1.2
		c-0.351-0.273-0.644-0.352-0.877-0.234c-0.39,0.195-0.8,0.917-1.229,2.165c-0.43,1.249-0.839,2.741-1.229,4.477
		c-0.391,1.737-0.731,3.561-1.024,5.472c-0.292,1.912-0.488,3.648-0.585,5.209c-0.098,1.561-0.079,2.799,0.059,3.716
		c0.136,0.917,0.439,1.239,0.907,0.965c0.272-0.155,0.673-0.682,1.199-1.58c0.527-0.897,1.083-2.077,1.668-3.541
		c0.585-1.463,1.15-3.169,1.697-5.12C95.381,40.483,95.829,38.376,96.181,36.113z"/>
	<path fill="#202123" d="M129.918,34.768c-0.526,1.521-1.14,3.239-1.843,5.15c-0.702,1.912-1.474,3.912-2.311,5.998
		c-0.842,2.088-1.679,3.99-2.518,5.706c-0.839,1.717-1.658,3.131-2.458,4.243c-0.799,1.112-1.531,1.668-2.195,1.668
		c-0.312,0-0.877-0.097-1.696-0.292c-0.819-0.195-1.688-0.478-2.604-0.849c-0.917-0.37-1.746-0.819-2.487-1.346
		c-0.74-0.526-1.171-1.121-1.287-1.785c-0.078-1.248-0.088-2.818-0.03-4.711c0.06-1.892,0.187-3.95,0.381-6.174
		c0.196-2.224,0.42-4.555,0.673-6.993c0.254-2.438,0.537-4.867,0.85-7.286c0.312-2.418,0.614-4.75,0.907-6.994
		c0.292-2.243,0.574-4.272,0.848-6.086c0.273-1.814,0.507-3.355,0.702-4.624c0.195-1.268,0.332-2.136,0.41-2.604
		c0.39-0.234,1.004-0.458,1.843-0.672c0.84-0.214,1.735-0.4,2.692-0.556c0.956-0.155,1.874-0.264,2.751-0.322
		c0.878-0.058,1.531-0.068,1.961-0.029c-0.43,2.341-0.958,5.208-1.581,8.603s-1.269,7.043-1.932,10.944
		c-0.663,3.902-1.286,7.91-1.872,12.026s-1.015,8.047-1.287,11.792c-0.117,1.249-0.098,2.087,0.059,2.516
		c0.155,0.43,0.38,0.605,0.673,0.527c0.293-0.078,0.604-0.322,0.936-0.732c0.333-0.41,0.634-0.828,0.908-1.258
		c1.793-3.043,3.441-6.203,4.945-9.481c1.5-3.277,2.818-6.651,3.95-10.124l1.755,0.526
		C130.826,32.173,130.446,33.246,129.918,34.768z"/>
	<path fill="#202123" d="M145.457,31.432c-0.312,0.976-0.723,2.292-1.229,3.95c-0.507,1.659-1.073,3.453-1.697,5.384
		c-0.625,1.932-1.308,3.892-2.048,5.882c-0.741,1.99-1.502,3.795-2.283,5.413c-0.78,1.62-1.561,2.936-2.341,3.95
		c-0.78,1.015-1.521,1.522-2.224,1.522c-0.43,0-1.082-0.126-1.961-0.381c-0.877-0.253-1.755-0.585-2.633-0.995
		c-0.877-0.41-1.659-0.868-2.341-1.375c-0.683-0.506-1.044-1.014-1.082-1.521c-0.118-2.106-0.088-4.467,0.087-7.082
		c0.176-2.613,0.409-5.129,0.702-7.549c0.293-2.418,0.596-4.573,0.907-6.467c0.312-1.892,0.565-3.189,0.761-3.891
		c0.507-0.234,1.121-0.419,1.844-0.556c0.722-0.136,1.473-0.253,2.253-0.352c0.779-0.097,1.552-0.146,2.312-0.146
		c0.76,0,1.434,0.02,2.019,0.059c-0.352,1.678-0.693,3.404-1.024,5.179c-0.331,1.776-0.635,3.521-0.907,5.238
		c-0.273,1.717-0.518,3.346-0.731,4.887c-0.215,1.542-0.4,2.897-0.556,4.067c-0.312,2.419-0.38,4.077-0.205,4.974
		c0.175,0.898,0.487,1.278,0.936,1.142s0.986-0.683,1.61-1.639c0.623-0.956,1.247-2.116,1.873-3.482
		c0.623-1.326,1.258-2.838,1.901-4.535c0.645-1.698,1.259-3.345,1.844-4.945c0.585-1.6,1.092-3.052,1.521-4.36
		c0.429-1.307,0.741-2.253,0.936-2.839L145.457,31.432z M129.89,23.882c-0.078-0.858-0.099-1.844-0.059-2.956
		c0.038-1.112,0.117-2.243,0.234-3.395c0.116-1.15,0.243-2.262,0.38-3.336c0.137-1.073,0.302-1.979,0.498-2.721
		c0.351-0.195,0.897-0.371,1.638-0.527c0.741-0.156,1.531-0.273,2.371-0.352c0.838-0.078,1.677-0.117,2.516-0.117
		c0.84,0,1.551,0.039,2.137,0.117c-0.43,0.976-0.849,2.078-1.259,3.307c-0.409,1.229-0.8,2.449-1.17,3.658
		c-0.371,1.209-0.702,2.332-0.995,3.365c-0.293,1.034-0.497,1.843-0.614,2.429L129.89,23.882z"/>
	<path fill="#202123" d="M161.374,34.768c-0.585,1.521-1.268,3.239-2.049,5.15c-0.78,1.912-1.638,3.912-2.574,5.998
		c-0.937,2.088-1.864,3.99-2.78,5.706c-0.917,1.717-1.805,3.131-2.662,4.243c-0.859,1.112-1.62,1.668-2.283,1.668
		c-0.312,0-0.877-0.097-1.696-0.292c-0.819-0.195-1.688-0.478-2.604-0.849c-0.917-0.37-1.746-0.819-2.487-1.346
		c-0.741-0.526-1.171-1.121-1.287-1.785c-0.078-1.092-0.088-2.448-0.03-4.067c0.059-1.619,0.156-3.375,0.293-5.268
		c0.138-1.892,0.312-3.9,0.526-6.027c0.215-2.126,0.439-4.263,0.673-6.409c-1.091-0.039-1.91-0.136-2.457-0.292
		c-0.078-0.546-0.098-1.043-0.059-1.493c0.039-0.448,0.116-1.043,0.234-1.785l2.691,0.059c0.312-2.379,0.615-4.691,0.907-6.935
		c0.293-2.243,0.575-4.271,0.849-6.086c0.272-1.814,0.507-3.345,0.702-4.594c0.195-1.248,0.331-2.107,0.41-2.575
		c0.389-0.234,0.975-0.458,1.755-0.672c0.781-0.214,1.61-0.4,2.487-0.556c0.878-0.155,1.727-0.264,2.546-0.322
		c0.819-0.058,1.442-0.068,1.873-0.029c-0.391,1.601-0.742,3.219-1.054,4.858c-0.312,1.638-0.614,3.346-0.907,5.121
		c-0.293,1.775-0.576,3.638-0.848,5.589c-0.274,1.951-0.548,4.058-0.82,6.32h2.868l-0.234,3.102
		c-0.43,0.079-0.897,0.137-1.404,0.175c-0.508,0.04-1.073,0.079-1.697,0.117l-1.404,11.471c-0.079,0.468-0.156,1.141-0.234,2.019
		c-0.078,0.878-0.137,1.795-0.176,2.751c-0.039,0.957-0.029,1.854,0.029,2.692c0.059,0.84,0.205,1.463,0.439,1.873
		c0.233,0.41,0.574,0.508,1.023,0.293c0.448-0.214,1.062-0.926,1.844-2.136c1.873-2.964,3.569-6.076,5.092-9.334
		c1.521-3.257,2.847-6.623,3.979-10.095l1.756,0.526C162.369,32.173,161.959,33.246,161.374,34.768z"/>
	<path fill="#202123" d="M158.214,68.827c1.054-0.819,2.048-1.707,2.984-2.663c0.937-0.957,1.834-2.136,2.691-3.541
		s1.648-3.141,2.371-5.209c0.721-2.067,1.394-4.662,2.019-7.783c-0.547,1.561-1.073,2.849-1.58,3.863
		c-0.507,1.015-0.977,1.824-1.404,2.429c-0.43,0.605-0.801,1.024-1.112,1.258c-0.312,0.234-0.566,0.352-0.761,0.352
		c-0.43,0-1.044-0.097-1.844-0.292c-0.8-0.195-1.6-0.448-2.399-0.761c-0.799-0.312-1.53-0.673-2.194-1.083
		c-0.663-0.41-1.092-0.849-1.287-1.316c-0.118-0.546-0.137-1.502-0.059-2.868c0.078-1.365,0.225-2.935,0.438-4.711
		c0.215-1.775,0.459-3.638,0.732-5.589c0.272-1.951,0.555-3.794,0.848-5.53c0.293-1.735,0.576-3.249,0.849-4.536
		c0.273-1.288,0.487-2.145,0.644-2.575c0.702-0.312,1.435-0.546,2.195-0.703c0.76-0.155,1.492-0.263,2.194-0.322
		s1.346-0.078,1.931-0.059c0.586,0.02,1.073,0.069,1.464,0.146c-0.469,2.263-0.928,4.545-1.376,6.847
		c-0.449,2.302-0.848,4.477-1.199,6.525c-0.351,2.048-0.644,3.902-0.878,5.56c-0.234,1.659-0.351,2.976-0.351,3.95
		c-0.04,1.483,0.087,2.312,0.38,2.487c0.293,0.175,0.692-0.126,1.2-0.907c0.507-0.78,1.082-1.97,1.726-3.57
		c0.645-1.6,1.268-3.462,1.873-5.589c0.604-2.126,1.16-4.419,1.668-6.876c0.507-2.458,0.896-4.955,1.171-7.491
		c0.546-0.273,1.17-0.498,1.873-0.673c0.701-0.176,1.424-0.292,2.164-0.351c0.741-0.059,1.482-0.088,2.225-0.088
		c0.74,0,1.424,0.04,2.048,0.117c-0.468,2.224-1.073,5.316-1.814,9.276c-0.741,3.96-1.678,9.159-2.809,15.596
		c-0.585,3.395-1.239,6.242-1.96,8.544c-0.723,2.301-1.445,4.232-2.166,5.793c-0.723,1.56-1.434,2.789-2.137,3.687
		c-0.701,0.897-1.346,1.639-1.931,2.224c-0.351,0.156-0.888,0.176-1.609,0.059c-0.722-0.117-1.503-0.332-2.341-0.644
		c-0.839-0.313-1.659-0.723-2.458-1.229C159.433,70.075,158.761,69.49,158.214,68.827z"/>
	<path fill="#202123" d="M70.255,110.67c0.038-0.896,0.097-1.901,0.175-3.014c0.078-1.111,0.176-2.242,0.292-3.395
		c0.117-1.149,0.234-2.282,0.352-3.394c0.117-1.112,0.234-2.136,0.351-3.073c0.234-1.677,0.341-2.935,0.321-3.774
		c-0.02-0.839-0.107-1.405-0.263-1.697c-0.156-0.292-0.322-0.38-0.497-0.263s-0.322,0.254-0.439,0.409
		c-0.43,0.625-0.869,1.474-1.316,2.546c-0.449,1.074-0.908,2.273-1.375,3.599c-0.469,1.327-0.907,2.722-1.317,4.185
		s-0.781,2.888-1.112,4.272c-0.332,1.385-0.614,2.673-0.848,3.862c-0.234,1.19-0.371,2.176-0.41,2.955
		c-0.43,0.196-0.957,0.361-1.58,0.498c-0.625,0.137-1.258,0.254-1.902,0.352c-0.644,0.098-1.249,0.156-1.814,0.175
		c-0.565,0.021-1.024,0.029-1.375,0.029c-0.117-2.107-0.136-4.448-0.058-7.022c0.079-2.575,0.225-5.188,0.438-7.843
		c0.215-2.652,0.488-5.227,0.819-7.725c0.331-2.497,0.692-4.72,1.083-6.671c0.585-0.234,1.248-0.429,1.99-0.585
		c0.741-0.155,1.511-0.272,2.312-0.351c0.799-0.078,1.58-0.117,2.341-0.117s1.453,0.02,2.078,0.059
		c-0.234,1.015-0.43,1.912-0.585,2.692c-0.156,0.781-0.312,1.571-0.468,2.37c-0.156,0.8-0.313,1.668-0.468,2.604
		c-0.157,0.936-0.332,2.068-0.526,3.395c0.936-3.043,1.892-5.443,2.867-7.199c0.975-1.756,1.911-2.926,2.809-3.511
		c0.585-0.273,1.365-0.341,2.341-0.206c0.975,0.138,1.94,0.38,2.897,0.732c0.955,0.351,1.775,0.761,2.458,1.229
		c0.683,0.469,1.024,0.898,1.024,1.288c0.039,0.468-0.02,1.366-0.175,2.692c-0.157,1.327-0.351,2.809-0.585,4.448
		c-0.234,1.638-0.468,3.297-0.702,4.974c-0.234,1.678-0.41,3.102-0.527,4.272c-0.43,3.316-0.391,5.18,0.117,5.589
		c0.506,0.41,1.404-0.634,2.692-3.131c0.312-0.624,0.692-1.443,1.141-2.458c0.448-1.015,0.907-2.126,1.375-3.335
		c0.468-1.21,0.946-2.448,1.434-3.717c0.487-1.268,0.926-2.487,1.316-3.658c0.39-1.17,0.74-2.224,1.054-3.16
		c0.312-0.937,0.526-1.658,0.644-2.166l1.931,0.526c-0.351,1.17-0.8,2.625-1.346,4.36c-0.546,1.737-1.151,3.571-1.814,5.501
		c-0.664,1.931-1.366,3.862-2.107,5.794c-0.742,1.932-1.493,3.668-2.253,5.208c-0.761,1.542-1.521,2.79-2.283,3.746
		c-0.761,0.956-1.473,1.414-2.136,1.375c-0.702,0-1.532-0.166-2.487-0.497c-0.957-0.332-1.873-0.722-2.75-1.171
		c-0.878-0.448-1.62-0.916-2.224-1.405C70.557,111.383,70.255,110.983,70.255,110.67z"/>
	<path fill="#202123" d="M103.202,110.612c-0.272,0.702-0.789,1.366-1.55,1.989c-0.761,0.624-1.591,1.15-2.488,1.58
		c-0.898,0.43-1.785,0.761-2.663,0.994c-0.878,0.235-1.551,0.352-2.019,0.352c-1.444-0.039-2.838-0.331-4.185-0.878
		c-1.346-0.546-2.526-1.307-3.541-2.282c-1.014-0.975-1.823-2.145-2.429-3.512c-0.604-1.364-0.868-2.905-0.79-4.622
		c0.234-1.834,0.595-3.746,1.083-5.736c0.488-1.989,0.995-3.833,1.522-5.53c0.527-1.697,1.043-3.16,1.551-4.39
		c0.506-1.229,0.897-2.019,1.17-2.37c1.131-0.468,2.262-0.711,3.394-0.731c1.131-0.019,2.126,0.05,2.985,0.205
		c0.585-0.312,1.365-0.469,2.341-0.469c0.975,0,1.94,0.088,2.897,0.264c0.955,0.176,1.805,0.4,2.546,0.673
		c0.741,0.274,1.15,0.527,1.229,0.761c0.117,0.196,0.235,0.781,0.352,1.756c0.117,0.976,0.224,2.019,0.321,3.131
		c0.098,1.111,0.177,2.146,0.234,3.101c0.059,0.957,0.067,1.513,0.03,1.668c1.716-0.858,3.344-2.048,4.886-3.57
		c1.541-1.521,2.722-3.179,3.541-4.974l1.58,1.463c-0.352,0.937-0.957,1.912-1.814,2.926c-0.859,1.015-1.785,1.97-2.779,2.867
		c-0.995,0.898-1.99,1.688-2.985,2.37c-0.994,0.684-1.824,1.142-2.487,1.375c-0.156,2.381-0.38,4.527-0.673,6.438
		C104.168,107.374,103.749,109.09,103.202,110.612z M97.526,100.02c-1.25-0.312-2.253-0.946-3.015-1.902
		c-0.76-0.956-1.258-2.116-1.492-3.482c-0.468,1.483-0.937,3.063-1.405,4.74c-0.468,1.678-0.83,3.278-1.083,4.799
		c-0.254,1.521-0.342,2.868-0.263,4.039c0.078,1.17,0.448,1.989,1.112,2.457c0.351,0.196,0.78,0.273,1.287,0.235
		c0.507-0.039,1.014-0.215,1.522-0.527c0.506-0.312,0.975-0.78,1.404-1.404c0.429-0.624,0.761-1.405,0.995-2.341
		c0.195-0.858,0.38-1.844,0.556-2.956C97.321,102.565,97.448,101.346,97.526,100.02z M95.127,92.353c0,0.43,0.048,0.878,0.146,1.346
		c0.097,0.469,0.243,0.937,0.439,1.405c0.195,0.468,0.458,0.897,0.79,1.287c0.331,0.391,0.711,0.684,1.141,0.878
		c0-0.702-0.029-1.512-0.088-2.429c-0.058-0.917-0.127-1.765-0.205-2.546c-0.196-1.208-0.41-2.038-0.644-2.487
		c-0.234-0.448-0.469-0.624-0.703-0.527c-0.234,0.098-0.439,0.43-0.614,0.995C95.214,90.841,95.127,91.533,95.127,92.353z"/>
	<path fill="#202123" d="M109.289,85.798l2.692-0.234c0.312-2.419,0.624-4.75,0.937-6.993c0.312-2.243,0.595-4.281,0.849-6.116
		c0.253-1.833,0.486-3.384,0.701-4.653c0.215-1.268,0.361-2.136,0.439-2.604c0.39-0.234,0.975-0.458,1.756-0.673
		c0.78-0.214,1.609-0.4,2.487-0.556c0.877-0.155,1.727-0.264,2.545-0.322c0.819-0.058,1.443-0.068,1.874-0.029
		c-0.392,1.6-0.741,3.218-1.055,4.857c-0.312,1.638-0.613,3.346-0.906,5.121c-0.293,1.775-0.575,3.648-0.849,5.618
		c-0.273,1.97-0.546,4.087-0.819,6.35c0.663,0.04,1.229,0.068,1.698,0.088c0.467,0.02,0.819,0.068,1.053,0.146
		c0.077,0.547,0.097,1.044,0.06,1.493c-0.04,0.449-0.119,1.044-0.236,1.785h-3.042c-0.391,2.692-0.752,5.413-1.084,8.164
		c-0.331,2.75-0.594,5.706-0.789,8.866c-0.117,2.224-0.117,4.282,0,6.175s0.448,3.423,0.994,4.594
		c-0.624,0.077-1.355,0.059-2.194-0.06c-0.839-0.116-1.688-0.302-2.546-0.555c-0.857-0.255-1.688-0.557-2.486-0.907
		c-0.8-0.352-1.453-0.703-1.961-1.054c-0.155-0.507-0.205-1.501-0.146-2.984s0.186-3.336,0.381-5.561
		c0.195-2.224,0.468-4.759,0.819-7.607c0.352-2.848,0.741-5.911,1.171-9.188l-2.576-0.059L109.289,85.798z"/>
	<path fill="#202123" d="M6.7,177.092c-0.079-0.507-0.079-1.17,0-1.989c0.078-0.819,0.136-1.425,0.176-1.814
		c1.404,0,2.75,0.01,4.038,0.029c1.288,0.019,2.517,0.049,3.687,0.088c-0.819-0.507-1.629-1.142-2.428-1.902
		c-0.801-0.761-1.532-1.56-2.195-2.399c-0.664-0.838-1.258-1.677-1.785-2.516c-0.526-0.839-0.907-1.589-1.141-2.253
		c-0.43-1.522-0.731-3.404-0.907-5.647c-0.175-2.243-0.234-4.73-0.175-7.463c0.058-2.729,0.272-5.588,0.644-8.573
		c0.371-2.984,0.916-5.978,1.639-8.982c0.722-3.004,1.618-5.901,2.692-8.691c1.073-2.789,2.37-5.354,3.892-7.696
		c1.209-0.194,2.517-0.302,3.921-0.321c1.404-0.019,2.818,0.03,4.243,0.146c1.424,0.117,2.799,0.303,4.126,0.557
		c1.326,0.254,2.496,0.536,3.511,0.848c-0.859,0.781-1.667,1.609-2.428,2.487c-0.761,0.878-1.493,1.766-2.195,2.662
		c0.663-0.077,1.424-0.135,2.282-0.175c0.858-0.038,1.727-0.038,2.604,0c0.878,0.04,1.736,0.117,2.575,0.234
		c0.838,0.117,1.61,0.255,2.312,0.41c0.429,1.403,0.81,3.18,1.142,5.324c0.331,2.146,0.565,4.518,0.702,7.111
		c0.137,2.596,0.176,5.307,0.117,8.134c-0.058,2.83-0.254,5.609-0.585,8.34c-0.332,2.732-0.8,5.336-1.405,7.812
		c-0.605,2.479-1.375,4.653-2.312,6.525c-1.17,1.913-2.683,3.316-4.536,4.214s-3.755,1.58-5.706,2.049
		c2.887,0.117,5.335,0.234,7.345,0.351c2.009,0.117,3.794,0.243,5.354,0.381c1.56,0.136,2.994,0.282,4.302,0.438
		c1.307,0.155,2.682,0.312,4.125,0.468c-0.702,1.171-1.609,2.448-2.721,3.834c-1.112,1.385-2.176,2.623-3.19,3.717
		c-4.643-1.835-9.549-3.288-14.718-4.36C18.531,177.395,12.864,176.936,6.7,177.092z M21.097,171.356
		c1.17,0,2.185-0.535,3.043-1.608c0.858-1.073,1.58-2.517,2.166-4.331c0.585-1.814,1.033-3.911,1.346-6.291
		c0.312-2.379,0.516-4.877,0.614-7.49c0.097-2.614,0.097-5.277,0-7.989c-0.098-2.711-0.273-5.286-0.527-7.725
		c-0.254-2.438-0.566-4.672-0.936-6.701c-0.372-2.028-0.79-3.688-1.258-4.975c-2.186,3.005-4.029,6.224-5.531,9.657
		c-1.502,3.433-2.653,6.866-3.452,10.3c-0.801,3.433-1.298,6.739-1.493,9.919c-0.195,3.181-0.088,6.019,0.322,8.515
		c0.41,2.497,1.092,4.526,2.048,6.087C18.395,170.284,19.614,171.163,21.097,171.356z"/>
	<path fill="#202123" d="M61.009,172.352c-0.585,0-1.288-0.136-2.107-0.409c-0.819-0.272-1.62-0.623-2.399-1.054
		c-0.781-0.429-1.454-0.887-2.019-1.375c-0.566-0.487-0.888-0.966-0.966-1.434c-0.04-0.272-0.049-0.722-0.029-1.346
		c0.02-0.625,0.038-1.259,0.059-1.903c0.02-0.643,0.048-1.237,0.088-1.784c0.038-0.546,0.078-0.917,0.117-1.111
		c-0.39,1.17-0.819,2.369-1.287,3.599c-0.468,1.229-0.986,2.351-1.551,3.364c-0.566,1.016-1.181,1.844-1.844,2.488
		c-0.664,0.644-1.382,0.965-2.156,0.965c-0.464,0-1.026-0.126-1.684-0.38c-0.659-0.253-1.316-0.556-1.974-0.907
		c-0.658-0.351-1.229-0.721-1.712-1.112c-0.483-0.39-0.783-0.74-0.9-1.054c-0.078-1.403-0.078-2.964-0.001-4.682
		c0.079-1.716,0.205-3.452,0.378-5.208c0.174-1.756,0.377-3.491,0.61-5.209c0.232-1.716,0.464-3.296,0.696-4.74
		c0.233-1.442,0.445-2.682,0.639-3.716c0.194-1.033,0.349-1.766,0.465-2.194c0.464-0.272,1.045-0.488,1.742-0.645
		c0.697-0.155,1.413-0.271,2.149-0.351c0.736-0.078,1.476-0.117,2.217-0.117c0.741,0,1.384,0.021,1.932,0.059
		c-0.469,2.186-0.907,4.458-1.317,6.817c-0.41,2.361-0.771,4.604-1.083,6.73c-0.312,2.127-0.556,4.029-0.731,5.706
		c-0.175,1.678-0.264,2.946-0.264,3.805c0,1.403,0.156,2.146,0.469,2.223c0.312,0.079,0.692-0.321,1.141-1.199
		c0.448-0.877,0.966-2.154,1.551-3.833c0.585-1.677,1.161-3.56,1.727-5.647c0.565-2.087,1.083-4.311,1.551-6.672
		c0.468-2.359,0.858-4.672,1.17-6.935c0.585-0.273,1.258-0.498,2.019-0.673c0.761-0.176,1.521-0.293,2.282-0.352
		c0.761-0.058,1.512-0.078,2.253-0.058c0.741,0.02,1.385,0.049,1.932,0.087c-0.352,1.64-0.683,3.346-0.995,5.121
		c-0.312,1.775-0.605,3.512-0.878,5.208c-0.273,1.697-0.507,3.316-0.702,4.857c-0.196,1.542-0.351,2.918-0.468,4.126
		c-0.195,1.444-0.284,2.683-0.263,3.716c0.019,1.034,0.146,1.736,0.38,2.107s0.585,0.38,1.053,0.029
		c0.468-0.352,1.054-1.171,1.756-2.458c0.272-0.507,0.634-1.259,1.083-2.253c0.448-0.995,0.926-2.097,1.434-3.307
		c0.506-1.209,1.033-2.496,1.58-3.862c0.546-1.366,1.053-2.692,1.521-3.979c0.468-1.288,0.887-2.488,1.258-3.6
		c0.371-1.111,0.653-2.038,0.848-2.779l1.756,0.468c-0.351,1.21-0.81,2.712-1.375,4.506c-0.566,1.796-1.2,3.688-1.901,5.677
		c-0.703,1.99-1.444,3.979-2.224,5.97c-0.781,1.989-1.571,3.774-2.371,5.354s-1.6,2.867-2.399,3.863
		C62.462,171.854,61.711,172.352,61.009,172.352z"/>
	<path fill="#202123" d="M100.745,146.31c-0.273,0.819-0.664,2.039-1.17,3.657c-0.507,1.62-1.111,3.395-1.814,5.325
		c-0.702,1.932-1.454,3.912-2.253,5.94c-0.8,2.029-1.62,3.873-2.458,5.53c-0.839,1.659-1.648,3.014-2.429,4.067
		c-0.781,1.054-1.502,1.58-2.166,1.58c-0.624,0-1.404-0.125-2.341-0.38c-0.937-0.253-1.834-0.586-2.692-0.995
		c-0.859-0.41-1.59-0.878-2.195-1.404c-0.605-0.527-0.907-1.044-0.907-1.551c-0.04-0.429-0.04-0.956,0-1.58
		c0.038-0.624,0.097-1.307,0.175-2.049c-0.351,0.937-0.731,1.863-1.141,2.78c-0.41,0.916-0.83,1.746-1.258,2.486
		c-0.43,0.742-0.869,1.356-1.317,1.844c-0.449,0.488-0.888,0.771-1.317,0.849c-0.39,0.078-0.965,0.039-1.727-0.116
		c-0.76-0.155-1.55-0.391-2.37-0.703c-0.819-0.312-1.57-0.682-2.253-1.112c-0.682-0.428-1.141-0.877-1.375-1.345
		c-0.272-0.547-0.429-1.464-0.468-2.751c-0.039-1.287,0.01-2.76,0.146-4.419c0.138-1.657,0.332-3.403,0.585-5.238
		c0.254-1.833,0.537-3.588,0.849-5.267c0.313-1.677,0.635-3.169,0.966-4.477c0.331-1.307,0.652-2.253,0.966-2.838
		c0.155-0.312,0.536-0.614,1.141-0.907c0.604-0.293,1.317-0.536,2.136-0.732c0.819-0.193,1.677-0.321,2.575-0.38
		c0.896-0.059,1.716-0.029,2.458,0.088c0.468,0.078,1.033,0.352,1.697,0.819c0.663,0.468,1.346,1.209,2.049,2.224
		c0.078-0.468,0.165-0.906,0.263-1.316c0.097-0.409,0.185-0.692,0.263-0.849c0.351-0.195,0.868-0.36,1.551-0.498
		c0.682-0.136,1.424-0.253,2.224-0.351c0.799-0.098,1.6-0.146,2.4-0.146c0.799,0,1.472,0.059,2.019,0.176
		c-0.352,1.678-0.712,3.55-1.083,5.618c-0.371,2.068-0.722,4.146-1.053,6.232c-0.332,2.088-0.625,4.049-0.878,5.882
		c-0.254,1.834-0.439,3.356-0.556,4.564c-0.117,1.015-0.117,1.736,0,2.166c0.117,0.429,0.282,0.673,0.497,0.73
		c0.214,0.059,0.448,0,0.703-0.175c0.253-0.176,0.477-0.381,0.673-0.614c0.468-0.586,0.995-1.443,1.58-2.575
		c0.585-1.131,1.189-2.39,1.814-3.775c0.624-1.384,1.248-2.827,1.873-4.33c0.623-1.501,1.2-2.926,1.727-4.272
		c0.526-1.346,0.975-2.536,1.346-3.57c0.37-1.032,0.633-1.804,0.79-2.311L100.745,146.31z M81.959,150.933
		c0.039-0.741-0.029-1.463-0.205-2.165c-0.176-0.703-0.419-1.317-0.732-1.844s-0.644-0.926-0.995-1.199
		c-0.351-0.273-0.644-0.352-0.877-0.234c-0.391,0.195-0.8,0.917-1.229,2.165c-0.43,1.249-0.84,2.741-1.229,4.477
		c-0.39,1.736-0.731,3.562-1.024,5.473c-0.292,1.912-0.488,3.648-0.585,5.208c-0.097,1.561-0.079,2.801,0.059,3.717
		c0.136,0.917,0.439,1.238,0.907,0.966c0.272-0.155,0.673-0.683,1.2-1.58c0.527-0.897,1.083-2.078,1.668-3.541
		c0.585-1.463,1.15-3.17,1.697-5.121S81.608,153.195,81.959,150.933z"/>
	<path fill="#202123" d="M108.587,168.08c0.039-0.896,0.097-1.902,0.176-3.015c0.077-1.111,0.176-2.242,0.292-3.395
		c0.118-1.149,0.234-2.281,0.352-3.394c0.118-1.112,0.234-2.136,0.352-3.072c0.234-1.677,0.341-2.936,0.321-3.774
		s-0.108-1.405-0.264-1.698c-0.156-0.293-0.321-0.38-0.496-0.263c-0.177,0.116-0.323,0.254-0.439,0.409
		c-0.43,0.625-0.869,1.474-1.317,2.546c-0.449,1.073-0.907,2.273-1.375,3.6c-0.468,1.327-0.907,2.721-1.316,4.185
		c-0.41,1.462-0.781,2.887-1.112,4.272c-0.332,1.385-0.614,2.672-0.849,3.861c-0.234,1.191-0.37,2.176-0.409,2.955
		c-0.431,0.196-0.957,0.361-1.581,0.498c-0.625,0.138-1.258,0.254-1.902,0.352c-0.644,0.098-1.249,0.156-1.814,0.175
		c-0.565,0.021-1.024,0.029-1.375,0.029c-0.117-2.106-0.136-4.447-0.058-7.022c0.079-2.574,0.225-5.188,0.439-7.842
		c0.214-2.653,0.488-5.228,0.819-7.725c0.331-2.496,0.692-4.721,1.083-6.672c0.585-0.234,1.248-0.43,1.99-0.586
		c0.741-0.155,1.511-0.271,2.312-0.351c0.8-0.078,1.58-0.117,2.341-0.117s1.452,0.021,2.078,0.059
		c-0.234,1.015-0.431,1.912-0.586,2.692c-0.156,0.78-0.312,1.57-0.468,2.37c-0.156,0.8-0.313,1.667-0.469,2.604
		c-0.156,0.936-0.332,2.067-0.526,3.394c0.937-3.043,1.893-5.442,2.868-7.198c0.975-1.755,1.91-2.926,2.809-3.512
		c0.585-0.271,1.365-0.34,2.341-0.204c0.975,0.137,1.94,0.381,2.897,0.731c0.954,0.351,1.774,0.762,2.457,1.229
		c0.682,0.468,1.024,0.897,1.024,1.287c0.039,0.468-0.02,1.366-0.175,2.692c-0.157,1.326-0.352,2.809-0.586,4.447
		s-0.468,3.298-0.702,4.975c-0.234,1.678-0.41,3.102-0.526,4.271c-0.43,3.317-0.392,5.18,0.116,5.589
		c0.507,0.41,1.405-0.633,2.693-3.13c0.311-0.625,0.69-1.444,1.14-2.459c0.449-1.014,0.908-2.125,1.375-3.335
		c0.47-1.21,0.946-2.448,1.435-3.717c0.487-1.268,0.927-2.487,1.316-3.658c0.39-1.17,0.742-2.223,1.055-3.16
		c0.311-0.936,0.526-1.657,0.644-2.164l1.931,0.526c-0.352,1.17-0.799,2.624-1.346,4.36c-0.548,1.736-1.151,3.569-1.814,5.501
		c-0.665,1.932-1.365,3.861-2.107,5.793s-1.492,3.668-2.252,5.209c-0.762,1.542-1.521,2.789-2.283,3.745
		c-0.761,0.957-1.474,1.414-2.137,1.375c-0.701,0-1.531-0.165-2.486-0.497c-0.956-0.331-1.873-0.722-2.75-1.171
		c-0.879-0.448-1.62-0.916-2.225-1.404C108.889,168.792,108.587,168.393,108.587,168.08z"/>
	<path fill="#202123" d="M143.992,149.586c-0.585,1.522-1.268,3.24-2.048,5.15c-0.78,1.912-1.639,3.912-2.574,5.999
		c-0.938,2.088-1.864,3.989-2.78,5.706c-0.917,1.718-1.805,3.13-2.663,4.242s-1.619,1.668-2.282,1.668
		c-0.312,0-0.878-0.097-1.697-0.293c-0.819-0.194-1.688-0.477-2.604-0.848c-0.918-0.371-1.747-0.819-2.487-1.347
		c-0.741-0.526-1.171-1.121-1.288-1.784c-0.078-1.092-0.088-2.448-0.029-4.068c0.059-1.617,0.156-3.373,0.293-5.267
		c0.138-1.892,0.312-3.901,0.526-6.027c0.215-2.126,0.439-4.263,0.673-6.408c-1.092-0.039-1.911-0.137-2.458-0.293
		c-0.077-0.545-0.097-1.043-0.059-1.492c0.04-0.448,0.117-1.043,0.235-1.785l2.69,0.059c0.313-2.38,0.616-4.69,0.907-6.935
		c0.293-2.243,0.576-4.272,0.85-6.086c0.271-1.814,0.506-3.346,0.702-4.595c0.195-1.248,0.33-2.106,0.41-2.575
		c0.389-0.234,0.974-0.458,1.755-0.673c0.78-0.214,1.609-0.399,2.487-0.556c0.878-0.155,1.727-0.265,2.546-0.322
		c0.819-0.059,1.442-0.067,1.873-0.029c-0.391,1.601-0.742,3.219-1.054,4.857c-0.312,1.639-0.614,3.346-0.907,5.121
		c-0.293,1.776-0.576,3.639-0.849,5.588c-0.273,1.952-0.547,4.06-0.819,6.321h2.868l-0.234,3.102
		c-0.43,0.079-0.897,0.138-1.404,0.176c-0.508,0.039-1.073,0.078-1.698,0.117l-1.403,11.47c-0.079,0.469-0.157,1.142-0.235,2.02
		s-0.136,1.795-0.175,2.751s-0.029,1.854,0.029,2.691c0.058,0.84,0.204,1.463,0.438,1.873c0.233,0.409,0.575,0.507,1.024,0.293
		c0.448-0.214,1.062-0.927,1.844-2.137c1.872-2.964,3.569-6.076,5.091-9.334c1.522-3.257,2.848-6.622,3.979-10.095l1.757,0.526
		C144.988,146.992,144.578,148.064,143.992,149.586z"/>
	<path fill="#202123" d="M159.677,146.251c-0.312,0.976-0.723,2.293-1.229,3.95c-0.508,1.659-1.074,3.453-1.698,5.384
		c-0.624,1.932-1.307,3.892-2.048,5.882c-0.741,1.989-1.502,3.795-2.283,5.414c-0.78,1.618-1.56,2.936-2.341,3.949
		c-0.78,1.016-1.521,1.521-2.223,1.521c-0.431,0-1.083-0.126-1.961-0.38c-0.878-0.253-1.756-0.585-2.633-0.995
		c-0.878-0.409-1.66-0.867-2.342-1.375c-0.683-0.507-1.044-1.015-1.082-1.521c-0.118-2.107-0.088-4.467,0.087-7.082
		c0.176-2.612,0.41-5.129,0.702-7.549c0.293-2.418,0.596-4.574,0.908-6.467c0.312-1.892,0.564-3.189,0.761-3.892
		c0.506-0.234,1.121-0.419,1.843-0.556s1.473-0.254,2.253-0.352c0.78-0.097,1.552-0.146,2.312-0.146c0.76,0,1.434,0.021,2.019,0.059
		c-0.352,1.678-0.692,3.404-1.024,5.18c-0.331,1.775-0.634,3.521-0.907,5.237c-0.273,1.717-0.518,3.346-0.731,4.887
		c-0.214,1.542-0.4,2.896-0.556,4.067c-0.312,2.42-0.38,4.077-0.205,4.975c0.176,0.898,0.488,1.278,0.937,1.141
		c0.448-0.136,0.985-0.682,1.609-1.639c0.623-0.956,1.248-2.115,1.873-3.481c0.623-1.326,1.258-2.839,1.901-4.536
		c0.645-1.696,1.259-3.345,1.844-4.944c0.586-1.6,1.092-3.053,1.521-4.36c0.429-1.307,0.741-2.253,0.937-2.838L159.677,146.251z
		 M144.109,138.702c-0.078-0.858-0.098-1.844-0.059-2.956s0.118-2.243,0.234-3.395c0.117-1.149,0.243-2.262,0.38-3.335
		c0.137-1.074,0.302-1.98,0.498-2.723c0.351-0.194,0.897-0.37,1.639-0.526c0.741-0.155,1.53-0.272,2.37-0.351
		c0.838-0.078,1.678-0.117,2.517-0.117s1.55,0.039,2.136,0.117c-0.43,0.976-0.849,2.077-1.259,3.307
		c-0.409,1.229-0.799,2.448-1.17,3.657c-0.371,1.21-0.702,2.331-0.994,3.365c-0.293,1.034-0.498,1.844-0.615,2.429L144.109,138.702z
		"/>
	<path fill="#202123" d="M175.595,149.586c-0.585,1.522-1.268,3.24-2.048,5.15c-0.781,1.912-1.639,3.912-2.575,5.999
		c-0.937,2.088-1.863,3.989-2.78,5.706c-0.917,1.718-1.805,3.13-2.662,4.242c-0.859,1.112-1.62,1.668-2.283,1.668
		c-0.312,0-0.877-0.097-1.696-0.293c-0.819-0.194-1.688-0.477-2.604-0.848c-0.917-0.371-1.746-0.819-2.487-1.347
		c-0.741-0.526-1.17-1.121-1.287-1.784c-0.078-1.092-0.088-2.448-0.029-4.068c0.058-1.617,0.156-3.373,0.293-5.267
		c0.137-1.892,0.312-3.901,0.526-6.027s0.438-4.263,0.672-6.408c-1.091-0.039-1.91-0.137-2.457-0.293
		c-0.077-0.545-0.098-1.043-0.059-1.492c0.04-0.448,0.117-1.043,0.234-1.785l2.691,0.059c0.312-2.38,0.615-4.69,0.907-6.935
		c0.293-2.243,0.576-4.272,0.849-6.086c0.272-1.814,0.507-3.346,0.703-4.595c0.194-1.248,0.33-2.106,0.409-2.575
		c0.389-0.234,0.975-0.458,1.755-0.673c0.781-0.214,1.61-0.399,2.488-0.556c0.877-0.155,1.727-0.265,2.545-0.322
		c0.819-0.059,1.443-0.067,1.873-0.029c-0.391,1.601-0.741,3.219-1.054,4.857s-0.614,3.346-0.907,5.121
		c-0.293,1.776-0.575,3.639-0.848,5.588c-0.274,1.952-0.547,4.06-0.82,6.321h2.868l-0.234,3.102
		c-0.43,0.079-0.897,0.138-1.404,0.176c-0.507,0.039-1.073,0.078-1.697,0.117l-1.404,11.47c-0.079,0.469-0.156,1.142-0.234,2.02
		s-0.137,1.795-0.175,2.751c-0.04,0.956-0.03,1.854,0.028,2.691c0.059,0.84,0.205,1.463,0.439,1.873
		c0.233,0.409,0.575,0.507,1.024,0.293c0.448-0.214,1.062-0.927,1.843-2.137c1.873-2.964,3.57-6.076,5.092-9.334
		c1.521-3.257,2.848-6.622,3.979-10.095l1.756,0.526C176.59,146.992,176.181,148.064,175.595,149.586z"/>
	<path fill="#202123" d="M172.435,183.647c1.054-0.819,2.048-1.708,2.985-2.664c0.936-0.955,1.833-2.136,2.69-3.54
		c0.858-1.405,1.648-3.142,2.371-5.208c0.721-2.068,1.394-4.662,2.02-7.784c-0.548,1.562-1.074,2.849-1.58,3.863
		c-0.508,1.015-0.977,1.824-1.405,2.428c-0.43,0.605-0.801,1.025-1.112,1.259c-0.312,0.234-0.565,0.351-0.761,0.351
		c-0.43,0-1.044-0.097-1.843-0.293c-0.801-0.194-1.601-0.447-2.399-0.761c-0.8-0.312-1.531-0.673-2.195-1.082
		c-0.662-0.409-1.092-0.849-1.287-1.317c-0.117-0.545-0.137-1.501-0.058-2.867c0.078-1.365,0.225-2.936,0.438-4.71
		c0.215-1.775,0.459-3.639,0.732-5.59c0.273-1.95,0.555-3.794,0.848-5.53s0.576-3.248,0.85-4.536
		c0.272-1.287,0.486-2.145,0.643-2.574c0.703-0.312,1.435-0.546,2.195-0.702c0.761-0.155,1.492-0.264,2.195-0.322
		c0.701-0.058,1.346-0.078,1.93-0.058c0.586,0.02,1.074,0.067,1.464,0.146c-0.468,2.264-0.928,4.546-1.375,6.848
		c-0.449,2.302-0.849,4.477-1.199,6.524c-0.352,2.049-0.645,3.901-0.879,5.56c-0.233,1.659-0.351,2.976-0.351,3.95
		c-0.039,1.484,0.087,2.312,0.38,2.487c0.293,0.176,0.692-0.126,1.2-0.907c0.507-0.779,1.083-1.969,1.726-3.569
		c0.645-1.6,1.268-3.463,1.873-5.589c0.604-2.126,1.161-4.419,1.668-6.876c0.507-2.458,0.896-4.954,1.171-7.491
		c0.546-0.273,1.171-0.498,1.873-0.673c0.701-0.176,1.424-0.293,2.165-0.352c0.741-0.058,1.481-0.088,2.224-0.088
		c0.74,0,1.424,0.04,2.049,0.117c-0.469,2.224-1.074,5.316-1.815,9.275c-0.74,3.961-1.678,9.159-2.809,15.597
		c-0.585,3.395-1.238,6.242-1.96,8.544c-0.723,2.302-1.444,4.233-2.166,5.795c-0.723,1.559-1.434,2.788-2.136,3.687
		c-0.702,0.897-1.346,1.638-1.932,2.224c-0.351,0.155-0.888,0.176-1.608,0.059c-0.723-0.118-1.503-0.332-2.342-0.645
		s-1.659-0.722-2.457-1.229C173.653,184.895,172.981,184.311,172.435,183.647z"/>
</g>
</svg>
