<?xml version="1.0" encoding="utf-8"?>
<!-- Generator: Adobe Illustrator 16.0.4, SVG Export Plug-In . SVG Version: 6.00 Build 0)  -->
<!DOCTYPE svg PUBLIC "-//W3C//DTD SVG 1.1//EN" "http://www.w3.org/Graphics/SVG/1.1/DTD/svg11.dtd">
<svg version="1.1" id="Layer_1" xmlns="http://www.w3.org/2000/svg" xmlns:xlink="http://www.w3.org/1999/xlink" x="0px" y="0px"
	 width="500px" height="300px" viewBox="0 0 500 300" enable-background="new 0 0 500 300" xml:space="preserve">
<g>
	<g>
		<rect x="3" y="25" fill="#EAEAEA" width="347" height="248"/>
		<path fill="#666766" d="M347,28v242H7V28H347 M351,24h-3.683H5.771H2v3.122v242.356V274h3.771h341.547H351v-4.521V27.122V24
			L351,24z"/>
	</g>
	<rect x="17.547" y="39.748" fill="none" width="257.951" height="220.607"/>
	<text transform="matrix(1 0 0 1 17.5469 44.9595)"><tspan x="0" y="0" font-family="'Avenir-Black'" font-size="6.894">.menu-icon-wrapper {</tspan><tspan x="0" y="8.273" font-family="'Avenir-Black'" font-size="6.894" letter-spacing="39">	</tspan><tspan x="41.364" y="8.273" font-family="'Avenir-Black'" font-size="6.894">position: relative;</tspan><tspan x="0" y="16.545" font-family="'Avenir-Black'" font-size="6.894" letter-spacing="39">	</tspan><tspan x="41.364" y="16.545" font-family="'Avenir-Black'" font-size="6.894">display: inline-block;</tspan><tspan x="0" y="24.818" font-family="'Avenir-Black'" font-size="6.894">    width: 34px;</tspan><tspan x="0" y="33.091" font-family="'Avenir-Black'" font-size="6.894">    height: 34px;</tspan><tspan x="0" y="41.364" font-family="'Avenir-Black'" font-size="6.894" letter-spacing="39">	</tspan><tspan x="41.364" y="41.364" font-family="'Avenir-Black'" font-size="6.894">margin: 2em;</tspan><tspan x="0" y="49.637" font-family="'Avenir-Black'" font-size="6.894" letter-spacing="39">	</tspan><tspan x="41.364" y="49.637" font-family="'Avenir-Black'" font-size="6.894">pointer-events: none;</tspan><tspan x="0" y="57.91" font-family="'Avenir-Black'" font-size="6.894" letter-spacing="39">	</tspan><tspan x="41.364" y="57.91" font-family="'Avenir-Black'" font-size="6.894">transition: 0.1s;</tspan><tspan x="0" y="66.182" font-family="'Avenir-Black'" font-size="6.894">}</tspan><tspan x="0" y="82.728" font-family="'Avenir-Black'" font-size="6.894">.menu-icon-wrapper.scaled {</tspan><tspan x="0" y="91.001" font-family="'Avenir-Black'" font-size="6.894" letter-spacing="39">	</tspan><tspan x="41.364" y="91.001" font-family="'Avenir-Black'" font-size="6.894">-webkit-transform: scale(0.5);</tspan><tspan x="0" y="99.273" font-family="'Avenir-Black'" font-size="6.894" letter-spacing="39">	</tspan><tspan x="41.364" y="99.273" font-family="'Avenir-Black'" font-size="6.894">-ms-transform: scale(0.5);</tspan><tspan x="0" y="107.546" font-family="'Avenir-Black'" font-size="6.894" letter-spacing="39">	</tspan><tspan x="41.364" y="107.546" font-family="'Avenir-Black'" font-size="6.894">transform: scale(0.5);</tspan><tspan x="0" y="115.819" font-family="'Avenir-Black'" font-size="6.894">}</tspan><tspan x="0" y="132.365" font-family="'Avenir-Black'" font-size="6.894">.menu-icon-wrapper svg {</tspan><tspan x="0" y="140.637" font-family="'Avenir-Black'" font-size="6.894" letter-spacing="39">	</tspan><tspan x="41.364" y="140.637" font-family="'Avenir-Black'" font-size="6.894">position: absolute;</tspan><tspan x="0" y="148.911" font-family="'Avenir-Black'" font-size="6.894" letter-spacing="39">	</tspan><tspan x="41.364" y="148.911" font-family="'Avenir-Black'" font-size="6.894">top: -33px;</tspan><tspan x="0" y="157.183" font-family="'Avenir-Black'" font-size="6.894" letter-spacing="39">	</tspan><tspan x="41.364" y="157.183" font-family="'Avenir-Black'" font-size="6.894">left: -33px;</tspan><tspan x="0" y="165.457" font-family="'Avenir-Black'" font-size="6.894" letter-spacing="39">	</tspan><tspan x="41.364" y="165.457" font-family="'Avenir-Black'" font-size="6.894">-webkit-transform: scale(0.1);</tspan><tspan x="0" y="173.729" font-family="'Avenir-Black'" font-size="6.894" letter-spacing="39">	</tspan><tspan x="41.364" y="173.729" font-family="'Avenir-Black'" font-size="6.894">-ms-transform: scale(0.1);</tspan><tspan x="0" y="182.001" font-family="'Avenir-Black'" font-size="6.894" letter-spacing="39">	</tspan><tspan x="41.364" y="182.001" font-family="'Avenir-Black'" font-size="6.894">transform: scale(0.1);</tspan><tspan x="0" y="190.275" font-family="'Avenir-Black'" font-size="6.894" letter-spacing="39">	</tspan><tspan x="41.364" y="190.275" font-family="'Avenir-Black'" font-size="6.894">-webkit-transform-origin: 0 0;</tspan><tspan x="0" y="198.547" font-family="'Avenir-Black'" font-size="6.894" letter-spacing="39">	</tspan><tspan x="41.364" y="198.547" font-family="'Avenir-Black'" font-size="6.894">-ms-transform-origin: 0 0;</tspan><tspan x="0" y="206.82" font-family="'Avenir-Black'" font-size="6.894" letter-spacing="39">	</tspan><tspan x="41.364" y="206.82" font-family="'Avenir-Black'" font-size="6.894">transform-origin: 0 0;</tspan><tspan x="0" y="215.093" font-family="'Avenir-Black'" font-size="6.894">}</tspan></text>
	<g>
		<rect x="100" y="8" fill="#EAEAEA" width="396" height="284"/>
		<path fill="#666766" d="M494,12v277H103V12H494 M498,7h-3.951H102.834H99v3.307v277.6V293h3.834h391.215H498v-5.093v-277.6V7
			L498,7z"/>
	</g>
	<g>
		<rect x="100" y="8" fill="#FFFFFF" width="396" height="36"/>
		<path fill="#666766" d="M494,12v30H103V12H494 M498,7h-3.951H102.834H99v3.332v30.202V45h3.834h391.215H498v-4.466V10.332V7L498,7
			z"/>
	</g>
	<circle fill="#666766" cx="117.443" cy="25.433" r="5.861"/>
	<circle fill="#666766" cx="134.912" cy="25.433" r="5.86"/>
	<circle fill="#666766" cx="152.382" cy="25.433" r="5.86"/>
	<polyline fill="none" stroke="#8DC63F" stroke-width="5" stroke-miterlimit="10" points="131.806,261.552 199.597,206.4 
		312.198,193.761 384.586,119.076 469.612,74.265 	"/>
	<g>
		<path fill="#8DC63F" d="M131.807,272.285c-5.919,0-10.734-4.814-10.734-10.732s4.815-10.733,10.734-10.733
			c5.917,0,10.731,4.815,10.731,10.733S137.725,272.285,131.807,272.285z"/>
		<path fill="#EAEAEA" d="M131.807,252.819c4.822,0,8.731,3.91,8.731,8.733c0,4.825-3.909,8.732-8.731,8.732
			c-4.823,0-8.734-3.907-8.734-8.732C123.073,256.729,126.984,252.819,131.807,252.819 M131.807,248.819
			c-7.022,0-12.734,5.712-12.734,12.733c0,7.021,5.712,12.732,12.734,12.732c7.02,0,12.731-5.712,12.731-12.732
			C144.539,254.531,138.827,248.819,131.807,248.819L131.807,248.819z"/>
	</g>
	<g>
		<path fill="#8DC63F" d="M199.598,217.133c-5.919,0-10.734-4.814-10.734-10.731c0-5.92,4.815-10.735,10.734-10.735
			c5.917,0,10.732,4.815,10.732,10.735C210.33,212.318,205.515,217.133,199.598,217.133z"/>
		<path fill="#EAEAEA" d="M199.598,197.666c4.823,0,8.732,3.911,8.732,8.735s-3.909,8.731-8.732,8.731s-8.734-3.907-8.734-8.731
			S194.775,197.666,199.598,197.666 M199.598,193.666c-7.022,0-12.734,5.713-12.734,12.735c0,7.021,5.712,12.731,12.734,12.731
			c7.021,0,12.732-5.711,12.732-12.731C212.33,199.379,206.618,193.666,199.598,193.666L199.598,193.666z"/>
	</g>
	<g>
		<path fill="#8DC63F" d="M312.2,204.494c-5.919,0-10.734-4.814-10.734-10.731c0-5.92,4.815-10.735,10.734-10.735
			c5.917,0,10.731,4.815,10.731,10.735C322.932,199.68,318.117,204.494,312.2,204.494z"/>
		<path fill="#EAEAEA" d="M312.2,185.027c4.822,0,8.731,3.911,8.731,8.735s-3.909,8.731-8.731,8.731
			c-4.823,0-8.734-3.907-8.734-8.731S307.377,185.027,312.2,185.027 M312.2,181.027c-7.021,0-12.734,5.713-12.734,12.735
			c0,7.021,5.713,12.731,12.734,12.731c7.021,0,12.731-5.711,12.731-12.731C324.932,186.74,319.221,181.027,312.2,181.027
			L312.2,181.027z"/>
	</g>
	<g>
		<path fill="#8DC63F" d="M384.587,129.809c-5.919,0-10.734-4.814-10.734-10.731c0-5.919,4.815-10.734,10.734-10.734
			c5.918,0,10.732,4.815,10.732,10.734C395.319,124.995,390.505,129.809,384.587,129.809z"/>
		<path fill="#EAEAEA" d="M384.587,110.343c4.822,0,8.732,3.911,8.732,8.734c0,4.825-3.91,8.731-8.732,8.731
			c-4.823,0-8.734-3.907-8.734-8.731C375.853,114.253,379.764,110.343,384.587,110.343 M384.587,106.343
			c-7.021,0-12.734,5.712-12.734,12.734c0,7.02,5.713,12.731,12.734,12.731c7.021,0,12.732-5.711,12.732-12.731
			C397.319,112.055,391.607,106.343,384.587,106.343L384.587,106.343z"/>
	</g>
	<g>
		<path fill="#8DC63F" d="M469.613,84.998c-5.919,0-10.734-4.814-10.734-10.732c0-5.918,4.815-10.734,10.734-10.734
			c5.917,0,10.731,4.815,10.731,10.734C480.345,80.184,475.53,84.998,469.613,84.998z"/>
		<path fill="#EAEAEA" d="M469.613,65.532c4.823,0,8.731,3.91,8.731,8.734c0,4.825-3.908,8.732-8.731,8.732
			c-4.824,0-8.734-3.907-8.734-8.732C460.879,69.442,464.789,65.532,469.613,65.532 M469.613,61.532
			c-7.021,0-12.734,5.712-12.734,12.734c0,7.021,5.713,12.732,12.734,12.732c7.021,0,12.731-5.712,12.731-12.732
			C482.345,67.244,476.634,61.532,469.613,61.532L469.613,61.532z"/>
	</g>
</g>
</svg>
